<svg width="958" height="989" viewBox="0 0 958 989" fill="none" xmlns="http://www.w3.org/2000/svg">
<g clip-path="url(#clip0_742_30156)">
<path d="M621.08 804.75H339.47V959.63H369.77V973.46H385.81V988.43H573.55V976.91H593.75V958.25H621.08V804.75Z" fill="#616160"/>
<path d="M934.77 476.91H956.55C960.06 428.02 950.55 374.57 942.23 339.01L782.87 380.16C788.969 407.3 792.041 435.033 792.03 462.85C792.051 485.309 790.302 507.735 786.8 529.92L928.58 551.34C931.959 526.657 934.025 501.812 934.77 476.91Z" fill="#616160"/>
<path d="M795.53 172.88L780.17 148.62L771.41 156.33C762.11 139.95 708.78 92.98 708.78 92.98L650.87 157.14C650.87 157.14 681.17 181.91 713.23 227.6L795.53 172.88Z" fill="#616160"/>
<path d="M929.71 293.8L919.02 297.8L911.09 270.08L899.61 274.08L890.1 249.42L880.2 252.99L869.11 229.22L858.02 232.42L844.55 207.07L834.65 212.22L817.22 180.54L805.74 187.27L798.52 175.87L716.21 230.6C741.47 266.6 767.83 315.6 781.33 375.69L940.74 334.53C934.95 309.87 929.71 293.8 929.71 293.8Z" fill="#616160"/>
<path d="M817.57 751.91L826.29 757.46L858.37 703.59L868.27 707.59L877.78 684.23L887.68 688.23C910.22 653.1 921.83 599.65 927.79 555.9L786 534.42C777.627 587.589 758.71 638.547 730.36 684.3L817.57 751.91Z" fill="#616160"/>
<path d="M745.53 806.89L766.53 783.13L774.45 789.86L789.87 770.06L799.37 776L815.21 755.8L728 688.16C699.38 734.28 671.44 758.16 671.44 758.16L719.76 802.92L729.27 793.02L745.53 806.89Z" fill="#616160"/>
<path d="M498.58 78.18V105.12H512.45V101.95H556.43L556.24 78.98H583.37V31.84L541.58 9.27H529.7L529.3 0H478.48H428.42L428.03 9.27H417.58L377.19 31.84V78.98H404.12V101.95H444.52V105.12H460.58V78.18H478.48H498.58Z" fill="#616160"/>
<path d="M20.0301 504.74L3.21012 505.14C-1.96988 448.14 -2.36988 400.75 13.3201 341.94L172.73 383.1C166.631 410.24 163.559 437.973 163.57 465.79C163.55 488.246 165.299 510.669 168.8 532.85L27.0201 554.28C21.3501 512.68 20.0301 504.74 20.0301 504.74Z" fill="#616160"/>
<path d="M160.02 175.85L175.38 151.6L185.06 159.19C193.61 143.19 246.77 95.95 246.77 95.95L304.7 160.12C304.7 160.12 274.39 184.89 242.33 230.58L160.02 175.85Z" fill="#616160"/>
<path d="M25.8701 296.74L36.5701 300.74L44.4901 273.01L55.9701 277.01L65.4501 252.42L75.3501 255.98L86.4401 232.22L97.5301 235.39L111 210.04L120.9 215.19L138.33 183.42L149.81 190.15L157.03 178.76L239.34 233.48C214.08 269.48 187.72 318.48 174.23 378.58L14.8101 337.42C20.6001 312.81 25.8701 296.74 25.8701 296.74Z" fill="#616160"/>
<path d="M139.19 754.96L130.47 760.51L98.3902 706.64L88.4902 710.64L78.9802 687.27L69.0802 691.27C46.5402 656.15 34.9302 602.7 28.9702 558.95L170.76 537.42C179.131 590.596 198.048 641.561 226.4 687.32L139.19 754.96Z" fill="#616160"/>
<path d="M209.93 809.68L188.93 785.91L181.01 792.65L165.57 772.84L156.06 778.78L140.22 758.58L227.43 690.95C256.05 737.07 283.99 760.95 283.99 760.95L235.67 805.72L226.17 795.81L209.93 809.68Z" fill="#616160"/>
<path d="M551.96 710.65V766.25H540.58V710.65H414.95V766.25H403.57V710.65H371.13V772.83C371.13 772.83 487.57 795.83 585.41 772.83V710.65H551.96Z" fill="#1C3E7A"/>
<path d="M353.38 266.09V674.24C353.38 674.24 272.87 608.3 272.87 470.16C272.87 332.02 353.38 266.09 353.38 266.09Z" fill="#1C3E7A"/>
<path d="M612.52 266.09V674.24C612.52 674.24 693.02 608.3 693.02 470.16C693.02 332.02 612.52 266.09 612.52 266.09Z" fill="#1C3E7A"/>
<path d="M603.65 258.42H356.87C356.87 258.42 399.06 210.5 480.55 210.5C562.04 210.5 603.65 258.42 603.65 258.42Z" fill="#1C3E7A"/>
<path d="M619.87 679.75L661.87 739.12C698.19 704.94 727.47 660.88 746.74 610.4L680.04 585.27C665.87 621.95 645.25 654.18 619.87 679.75Z" fill="#D8544F"/>
<path d="M703.22 467.86C703.328 506.333 696.733 544.531 683.73 580.74L752.06 605.22C767.661 561.376 775.578 515.167 775.46 468.63C775.46 411.77 763.98 358.06 743.6 310.51L677.5 339.15C693.93 377.67 703.22 421.42 703.22 467.86Z" fill="#D8544F"/>
<path d="M623.87 256.22L676.85 208.5C700.38 232.66 723.06 262.41 739.5 306.5L676.85 335.89C662.47 304.96 646.53 278.2 623.87 256.22Z" fill="#D8544F"/>
<path d="M478.39 195.84H479.15L478.39 129C468.07 128.81 362.5 124.98 287.5 202L339.96 253.94C378.33 216.72 425.55 195.84 478.39 195.84Z" fill="#D8544F"/>
<path d="M483.27 195.84H482.51L483.27 129C493.59 128.79 598.49 128.98 673.5 206L621.71 253.92C583.33 216.72 536.11 195.84 483.27 195.84Z" fill="#D8544F"/>
<path d="M294.61 740.04L334.95 681.35C308.95 655.6 287.77 622.9 273.28 585.58L208.12 608.78C227.56 660.42 257.44 705.42 294.61 740.04Z" fill="#D8544F"/>
<path d="M251.75 468.36C251.75 421.82 261.27 378.01 278.03 339.62L215.3 311.81C194.73 359 183.12 412.47 183.12 469.12C183.01 514.214 190.578 558.997 205.5 601.55L270.98 579.42C258.154 543.802 251.646 506.217 251.75 468.36Z" fill="#D8544F"/>
<path d="M337.8 256.22L284 203.5C260.47 227.65 235.94 262.41 219.5 306.5L281.02 333.86C295.35 302.92 315.12 278.2 337.8 256.22Z" fill="#D8544F"/>
<path d="M620.24 685.48L654.67 735.12L624.45 760.3L587.35 710.22L620.24 685.48Z" fill="#ABD7F3"/>
<path d="M655.26 735.2L620.33 684.86L586.73 710.13L624.09 760.56L624.37 760.93L655.26 735.2ZM641.45 745.56L627.72 726.91L640.87 715.99L654.09 734.99L641.45 745.56ZM622.18 719.42L618.18 714.04L631.67 702.84L635.48 708.33L622.18 719.42ZM636.03 709.06L640.36 715.31L627.2 726.24L622.7 720.13L636.03 709.06ZM621.51 719.98L605.15 733.57L601.15 728.2L617.52 714.6L621.51 719.98ZM622.03 720.69L626.52 726.8L610.19 740.37L605.68 734.27L622.03 720.69ZM627.03 727.51L630.3 731.95L614.08 745.62L610.71 741.08L627.03 727.51ZM630.83 732.66L633.99 736.97L617.79 750.63L614.6 746.33L630.83 732.66ZM634.52 737.66L637.05 741.11L620.87 754.73L618.33 751.3L634.52 737.66ZM631.19 702.09L617.69 713.31L605.69 696.99L620.12 686.13L631.19 702.09ZM604.98 697.52L616.98 713.87L600.65 727.42L587.96 710.28L604.98 697.52ZM621.39 755.42L637.58 741.78L640.77 746.11L624.52 759.64L621.39 755.42Z" fill="#3F3F3F"/>
<path d="M335.33 685.48L300.89 735.12L331.12 760.3L368.21 710.22L335.33 685.48Z" fill="#ABD7F3"/>
<path d="M331.19 760.93L331.46 760.56L368.87 710.13L335.27 684.86L300.34 735.2L331.19 760.93ZM301.47 735.04L314.69 716.04L327.87 726.91L314.15 745.56L301.47 735.04ZM320.03 708.29L323.84 702.8L337.33 714L333.33 719.38L320.03 708.29ZM332.87 720.09L328.37 726.2L315.21 715.27L319.55 709.02L332.87 720.09ZM338.02 714.56L354.39 728.16L350.39 733.53L334.04 719.94L338.02 714.56ZM349.87 734.23L345.36 740.33L329.03 726.76L333.52 720.65L349.87 734.23ZM344.87 741.04L341.5 745.58L325.28 731.91L328.55 727.47L344.87 741.04ZM340.98 746.29L337.8 750.59L321.59 736.93L324.76 732.62L340.98 746.29ZM337.27 751.29L334.73 754.72L318.53 741.08L321.06 737.63L337.27 751.29ZM335.46 686.1L349.87 696.97L337.87 713.29L324.37 702.07L335.46 686.1ZM367.63 710.3L354.87 727.42L338.5 713.82L350.5 697.47L367.63 710.3ZM331.07 759.65L314.82 746.12L318.01 741.79L334.16 755.42L331.07 759.65Z" fill="#3F3F3F"/>
<path d="M591.9 651.85V286.36H368.66V651.85H591.9Z" fill="#D3D2D2"/>
<path d="M568.58 637.28V300.93H391.96V637.28H568.58Z" fill="#FEEBD3"/>
<path d="M569.32 299.95H391.23V638.27H569.32V299.95ZM568.32 300.95V468.62H392.21V300.93L568.32 300.95ZM392.21 637.28V469.6H568.33V637.28H392.21Z" fill="#3F3F3F"/>
<path d="M568.87 314.67C568.87 313.9 568.87 313.14 568.87 312.37H391.87C391.87 313.14 391.87 313.9 391.87 314.67C391.87 364.67 431.51 405.26 480.42 405.26C529.33 405.26 568.87 364.7 568.87 314.67Z" fill="#DEBF9B"/>
<path d="M391.2 314.67C391.2 313.903 391.2 313.133 391.2 312.36V311.86H569.3V312.36C569.3 313.127 569.3 313.897 569.3 314.67C569.3 364.9 529.3 405.77 480.23 405.77C431.16 405.77 391.2 364.9 391.2 314.67ZM392.2 312.89C392.2 313.48 392.2 314.08 392.2 314.67C392.2 364.34 431.7 404.74 480.2 404.74C528.7 404.74 568.2 364.34 568.2 314.67C568.2 314.08 568.2 313.48 568.2 312.89H392.2Z" fill="#272424"/>
<path d="M479.67 360C478.344 360.222 477.039 360.557 475.77 361L476.09 361.93C477.306 361.492 478.558 361.158 479.83 360.93L479.67 360Z" fill="#3F3F3F"/>
<path d="M487.53 360.96L487.69 359.96C486.389 359.74 485.07 359.633 483.75 359.64H483.68V360.64C484.97 360.639 486.258 360.746 487.53 360.96Z" fill="#3F3F3F"/>
<path d="M494.8 363.42L495.27 362.56C494.095 361.907 492.863 361.362 491.59 360.93L491.27 361.86C492.488 362.281 493.669 362.802 494.8 363.42Z" fill="#3F3F3F"/>
<path d="M472.09 362.64C470.915 363.29 469.797 364.039 468.75 364.88L469.36 365.65C470.365 364.841 471.44 364.122 472.57 363.5L472.09 362.64Z" fill="#3F3F3F"/>
<path d="M503.95 370.83L503.11 371.34C503.785 372.435 504.358 373.59 504.82 374.79L505.74 374.44C505.257 373.184 504.658 371.975 503.95 370.83Z" fill="#3F3F3F"/>
<path d="M501.55 367.59C500.656 366.586 499.679 365.66 498.63 364.82L498.02 365.59C499.027 366.392 499.964 367.279 500.82 368.24L501.55 367.59Z" fill="#3F3F3F"/>
<path d="M465.87 367.66C464.979 368.667 464.179 369.751 463.48 370.9L464.32 371.41C464.988 370.312 465.751 369.275 466.6 368.31L465.87 367.66Z" fill="#3F3F3F"/>
<path d="M507.09 380.72V311.89H460.36V380.72C460.296 383.829 460.852 386.92 461.998 389.811C463.143 392.702 464.854 395.335 467.03 397.557C469.206 399.778 471.803 401.543 474.67 402.748C477.537 403.953 480.615 404.573 483.725 404.573C486.835 404.573 489.913 403.953 492.78 402.748C495.647 401.543 498.244 399.778 500.42 397.557C502.596 395.335 504.307 392.702 505.452 389.811C506.598 386.92 507.154 383.829 507.09 380.72ZM461.34 380.72V378.23H461.56C461.778 376.949 462.113 375.69 462.56 374.47L461.64 374.12C461.51 374.46 461.41 374.81 461.3 375.12V312.88H506.07V378.14H505.83C505.94 378.7 506.01 379.26 506.07 379.83V380.68C506.133 383.659 505.601 386.621 504.504 389.392C503.407 392.163 501.768 394.688 499.684 396.817C497.599 398.947 495.11 400.638 492.362 401.793C489.615 402.948 486.665 403.543 483.685 403.543C480.705 403.543 477.755 402.948 475.008 401.793C472.26 400.638 469.771 398.947 467.686 396.817C465.602 394.688 463.963 392.163 462.866 389.392C461.769 386.621 461.237 383.659 461.3 380.68L461.34 380.72Z" fill="#3F3F3F"/>
<path d="M568.87 623.54C568.87 624.31 568.87 625.08 568.87 625.84H391.87C391.87 625.08 391.87 624.31 391.87 623.54C391.87 573.54 431.51 532.96 480.42 532.96C529.33 532.96 568.87 573.51 568.87 623.54Z" fill="#DEBF9B"/>
<path d="M480.27 532.42C529.39 532.42 569.34 573.29 569.34 623.52C569.34 624.3 569.34 625.06 569.34 625.83V626.33H391.24V625.83C391.24 625.06 391.24 624.3 391.24 623.52C391.2 573.31 431.16 532.42 480.27 532.42ZM568.27 625.3C568.27 624.71 568.27 624.12 568.27 623.52C568.27 573.86 528.78 533.45 480.27 533.45C431.76 533.45 392.27 573.86 392.27 623.52C392.27 624.12 392.27 624.71 392.27 625.3H568.27Z" fill="#3F3F3F"/>
<path d="M479.67 578.21C478.344 577.988 477.039 577.653 475.77 577.21L476.09 576.28C477.305 576.722 478.556 577.057 479.83 577.28L479.67 578.21Z" fill="#3F3F3F"/>
<path d="M487.53 577.26L487.69 578.26C486.387 578.471 485.07 578.577 483.75 578.58H483.68V577.58C484.97 577.576 486.257 577.469 487.53 577.26Z" fill="#3F3F3F"/>
<path d="M494.8 574.76L495.27 575.62C494.093 576.265 492.861 576.807 491.59 577.24L491.27 576.32C492.486 575.895 493.667 575.373 494.8 574.76Z" fill="#3F3F3F"/>
<path d="M472.09 575.57C470.915 574.924 469.797 574.178 468.75 573.34L469.36 572.57C470.368 573.372 471.442 574.088 472.57 574.71L472.09 575.57Z" fill="#3F3F3F"/>
<path d="M503.95 567.42L503.11 566.9C503.806 565.798 504.396 564.633 504.87 563.42L505.79 563.78C505.291 565.048 504.675 566.266 503.95 567.42Z" fill="#3F3F3F"/>
<path d="M501.55 570.62C500.659 571.626 499.682 572.553 498.63 573.39L498.02 572.62C499.027 571.818 499.964 570.931 500.82 569.97L501.55 570.62Z" fill="#3F3F3F"/>
<path d="M465.87 570.55C464.979 569.543 464.179 568.459 463.48 567.31L464.32 566.8C464.988 567.901 465.751 568.942 466.6 569.91L465.87 570.55Z" fill="#3F3F3F"/>
<path d="M483.72 533.84C477.488 533.885 471.529 536.4 467.149 540.834C462.77 545.268 460.328 551.258 460.36 557.49V626.33H507.09V557.49C507.119 551.257 504.676 545.267 500.295 540.833C495.914 536.4 489.953 533.885 483.72 533.84ZM483.72 534.84C489.692 534.882 495.403 537.292 499.601 541.54C503.799 545.788 506.139 551.528 506.11 557.5V558.35C506.05 558.92 505.98 559.49 505.87 560.04H506.11V625.29H461.34V563.02C461.45 563.37 461.55 563.72 461.68 564.02L462.6 563.66C462.153 562.443 461.819 561.188 461.6 559.91H461.38V557.41C461.372 551.46 463.715 545.748 467.9 541.519C472.084 537.29 477.771 534.885 483.72 534.83V534.84Z" fill="#3F3F3F"/>
<path d="M480.28 491.82C492.823 491.82 502.99 481.652 502.99 469.11C502.99 456.568 492.823 446.4 480.28 446.4C467.738 446.4 457.57 456.568 457.57 469.11C457.57 481.652 467.738 491.82 480.28 491.82Z" fill="#DEBF9B"/>
<path d="M481.1 317.42C481.1 317.792 481.21 318.155 481.417 318.465C481.624 318.774 481.917 319.015 482.261 319.157C482.604 319.299 482.982 319.336 483.347 319.264C483.712 319.191 484.047 319.012 484.309 318.749C484.572 318.486 484.751 318.151 484.824 317.787C484.897 317.422 484.859 317.044 484.717 316.701C484.575 316.357 484.334 316.063 484.025 315.857C483.715 315.65 483.352 315.54 482.98 315.54C482.481 315.54 482.003 315.738 481.651 316.091C481.298 316.443 481.1 316.921 481.1 317.42" stroke="black" stroke-width="0.42" stroke-linecap="round" stroke-linejoin="round"/>
<path d="M479.97 317.42C479.97 318.013 480.146 318.593 480.475 319.087C480.805 319.58 481.274 319.965 481.822 320.192C482.37 320.419 482.973 320.478 483.555 320.362C484.137 320.247 484.672 319.961 485.091 319.541C485.511 319.122 485.796 318.587 485.912 318.005C486.028 317.423 485.968 316.82 485.741 316.272C485.514 315.724 485.13 315.255 484.636 314.926C484.143 314.596 483.563 314.42 482.97 314.42C482.174 314.42 481.411 314.736 480.848 315.299C480.286 315.861 479.97 316.624 479.97 317.42" stroke="black" stroke-width="0.42" stroke-linecap="round" stroke-linejoin="round"/>
<path d="M482.52 311.38V277.73" stroke="black" stroke-width="0.42" stroke-linecap="round" stroke-linejoin="round"/>
<path d="M483.42 311.38V277.73" stroke="black" stroke-width="0.42" stroke-linecap="round" stroke-linejoin="round"/>
<path d="M489.14 311.38V288.4" stroke="black" stroke-width="0.42" stroke-linecap="round" stroke-linejoin="round"/>
<path d="M490.04 311.38V288.4" stroke="black" stroke-width="0.42" stroke-linecap="round" stroke-linejoin="round"/>
<path d="M476.8 311.38V288.4" stroke="black" stroke-width="0.42" stroke-linecap="round" stroke-linejoin="round"/>
<path d="M475.9 311.38V288.4" stroke="black" stroke-width="0.42" stroke-linecap="round" stroke-linejoin="round"/>
<path d="M483.42 288.4H505.52V278.93H483.42" stroke="black" stroke-width="0.42" stroke-linecap="round" stroke-linejoin="round"/>
<path d="M489.14 289.6H483.42" stroke="black" stroke-width="0.42" stroke-linecap="round" stroke-linejoin="round"/>
<path d="M483.42 304.63H489.14" stroke="black" stroke-width="0.42" stroke-linecap="round" stroke-linejoin="round"/>
<path d="M475.9 289.6H459.22V277.73H506.72V289.6H490.04" stroke="black" stroke-width="0.42" stroke-linecap="round" stroke-linejoin="round"/>
<path d="M482.52 288.4H460.42V278.93H482.52" stroke="black" stroke-width="0.42" stroke-linecap="round" stroke-linejoin="round"/>
<path d="M460.42 277.73V269.9H505.52V277.73" stroke="black" stroke-width="0.42" stroke-linecap="round" stroke-linejoin="round"/>
<path d="M459.22 277.73V268.71H506.72V277.73" stroke="black" stroke-width="0.42" stroke-linecap="round" stroke-linejoin="round"/>
<path d="M476.8 304.63H482.52" stroke="black" stroke-width="0.42" stroke-linecap="round" stroke-linejoin="round"/>
<path d="M482.52 289.6H476.8" stroke="black" stroke-width="0.42" stroke-linecap="round" stroke-linejoin="round"/>
<path d="M469.44 311.38H496.5V312.15H469.44V311.38Z" stroke="black" stroke-width="0.42" stroke-linecap="round" stroke-linejoin="round"/>
<path d="M479.98 317.42V312.15" stroke="black" stroke-width="0.42" stroke-linecap="round" stroke-linejoin="round"/>
<path d="M485.99 317.42V312.15" stroke="black" stroke-width="0.42" stroke-linecap="round" stroke-linejoin="round"/>
<path d="M460.42 271.03H505.52" stroke="black" stroke-width="0.24" stroke-linecap="round" stroke-linejoin="round"/>
<path d="M460.42 272.92H505.52" stroke="black" stroke-width="0.24" stroke-linecap="round" stroke-linejoin="round"/>
<path d="M460.42 274.78H505.52" stroke="black" stroke-width="0.24" stroke-linecap="round" stroke-linejoin="round"/>
<path d="M460.42 276.65H505.52" stroke="black" stroke-width="0.24" stroke-linecap="round" stroke-linejoin="round"/>
<path d="M505.16 269.9V274.56V277.73" stroke="black" stroke-width="0.24" stroke-linecap="round" stroke-linejoin="round"/>
<path d="M503.3 269.9V274.56V277.73" stroke="black" stroke-width="0.24" stroke-linecap="round" stroke-linejoin="round"/>
<path d="M501.4 269.9V274.56V277.73" stroke="black" stroke-width="0.24" stroke-linecap="round" stroke-linejoin="round"/>
<path d="M499.54 269.9V274.56V277.73" stroke="black" stroke-width="0.24" stroke-linecap="round" stroke-linejoin="round"/>
<path d="M497.64 269.9V274.56V277.73" stroke="black" stroke-width="0.24" stroke-linecap="round" stroke-linejoin="round"/>
<path d="M495.78 269.9V274.56V277.73" stroke="black" stroke-width="0.24" stroke-linecap="round" stroke-linejoin="round"/>
<path d="M493.89 269.9V274.56V277.73" stroke="black" stroke-width="0.24" stroke-linecap="round" stroke-linejoin="round"/>
<path d="M492.02 269.9V274.56V277.73" stroke="black" stroke-width="0.24" stroke-linecap="round" stroke-linejoin="round"/>
<path d="M490.13 269.9V274.56V277.73" stroke="black" stroke-width="0.24" stroke-linecap="round" stroke-linejoin="round"/>
<path d="M488.26 269.9V274.56V277.73" stroke="black" stroke-width="0.24" stroke-linecap="round" stroke-linejoin="round"/>
<path d="M486.37 269.9V274.56V277.73" stroke="black" stroke-width="0.24" stroke-linecap="round" stroke-linejoin="round"/>
<path d="M484.5 269.9V274.56V277.73" stroke="black" stroke-width="0.24" stroke-linecap="round" stroke-linejoin="round"/>
<path d="M482.61 269.9V274.56V277.73" stroke="black" stroke-width="0.24" stroke-linecap="round" stroke-linejoin="round"/>
<path d="M480.74 269.9V274.56V277.73" stroke="black" stroke-width="0.24" stroke-linecap="round" stroke-linejoin="round"/>
<path d="M478.87 269.9V274.56V277.73" stroke="black" stroke-width="0.24" stroke-linecap="round" stroke-linejoin="round"/>
<path d="M476.98 269.9V274.56V277.73" stroke="black" stroke-width="0.24" stroke-linecap="round" stroke-linejoin="round"/>
<path d="M475.12 269.9V274.56V277.73" stroke="black" stroke-width="0.24" stroke-linecap="round" stroke-linejoin="round"/>
<path d="M473.22 269.9V274.56V277.73" stroke="black" stroke-width="0.24" stroke-linecap="round" stroke-linejoin="round"/>
<path d="M471.36 269.9V274.56V277.73" stroke="black" stroke-width="0.24" stroke-linecap="round" stroke-linejoin="round"/>
<path d="M469.46 269.9V274.56V277.73" stroke="black" stroke-width="0.24" stroke-linecap="round" stroke-linejoin="round"/>
<path d="M467.6 269.9V274.56V277.73" stroke="black" stroke-width="0.24" stroke-linecap="round" stroke-linejoin="round"/>
<path d="M465.71 269.9V274.56V277.73" stroke="black" stroke-width="0.24" stroke-linecap="round" stroke-linejoin="round"/>
<path d="M463.84 269.9V274.56V277.73" stroke="black" stroke-width="0.24" stroke-linecap="round" stroke-linejoin="round"/>
<path d="M461.95 269.9V274.56V277.73" stroke="black" stroke-width="0.24" stroke-linecap="round" stroke-linejoin="round"/>
<path d="M452.92 275.46V260.45" stroke="black" stroke-width="0.42" stroke-linecap="round" stroke-linejoin="round"/>
<path d="M513.04 275.46V260.45H452.92" stroke="black" stroke-width="0.42" stroke-linecap="round" stroke-linejoin="round"/>
<path d="M452.92 275.46H459.22" stroke="black" stroke-width="0.42" stroke-linecap="round" stroke-linejoin="round"/>
<path d="M506.72 275.46H513.04" stroke="black" stroke-width="0.42" stroke-linecap="round" stroke-linejoin="round"/>
<path d="M484.87 620.25C484.87 619.878 484.76 619.515 484.553 619.206C484.346 618.896 484.053 618.655 483.709 618.513C483.366 618.371 482.988 618.334 482.623 618.406C482.258 618.479 481.923 618.658 481.661 618.921C481.398 619.184 481.219 619.519 481.146 619.883C481.073 620.248 481.111 620.626 481.253 620.97C481.395 621.313 481.636 621.607 481.945 621.813C482.255 622.02 482.618 622.13 482.99 622.13C483.488 622.13 483.967 621.932 484.319 621.579C484.672 621.227 484.87 620.749 484.87 620.25" stroke="black" stroke-width="0.42" stroke-linecap="round" stroke-linejoin="round"/>
<path d="M485.98 620.25C485.98 619.657 485.804 619.077 485.474 618.583C485.145 618.09 484.676 617.705 484.128 617.478C483.58 617.251 482.977 617.192 482.395 617.308C481.813 617.423 481.278 617.709 480.859 618.129C480.439 618.548 480.153 619.083 480.038 619.665C479.922 620.247 479.981 620.85 480.208 621.398C480.435 621.946 480.82 622.415 481.313 622.744C481.807 623.074 482.387 623.25 482.98 623.25C483.776 623.25 484.539 622.934 485.101 622.371C485.664 621.809 485.98 621.046 485.98 620.25" stroke="black" stroke-width="0.42" stroke-linecap="round" stroke-linejoin="round"/>
<path d="M483.44 626.29V659.94" stroke="black" stroke-width="0.42" stroke-linecap="round" stroke-linejoin="round"/>
<path d="M482.54 626.29V659.94" stroke="black" stroke-width="0.42" stroke-linecap="round" stroke-linejoin="round"/>
<path d="M476.83 626.29V649.27" stroke="black" stroke-width="0.42" stroke-linecap="round" stroke-linejoin="round"/>
<path d="M475.92 626.29V649.27" stroke="black" stroke-width="0.42" stroke-linecap="round" stroke-linejoin="round"/>
<path d="M489.16 626.29V649.27" stroke="black" stroke-width="0.42" stroke-linecap="round" stroke-linejoin="round"/>
<path d="M490.06 626.29V649.27" stroke="black" stroke-width="0.42" stroke-linecap="round" stroke-linejoin="round"/>
<path d="M482.54 649.27H460.44V658.75H482.54" stroke="black" stroke-width="0.42" stroke-linecap="round" stroke-linejoin="round"/>
<path d="M476.83 648.08H482.54" stroke="black" stroke-width="0.42" stroke-linecap="round" stroke-linejoin="round"/>
<path d="M482.54 633.05H476.83" stroke="black" stroke-width="0.42" stroke-linecap="round" stroke-linejoin="round"/>
<path d="M490.06 648.08H506.74V659.94H459.25V648.08H475.93" stroke="black" stroke-width="0.42" stroke-linecap="round" stroke-linejoin="round"/>
<path d="M483.44 649.27H505.55V658.75H483.44" stroke="black" stroke-width="0.42" stroke-linecap="round" stroke-linejoin="round"/>
<path d="M505.55 659.94V667.78H460.44V659.94" stroke="black" stroke-width="0.42" stroke-linecap="round" stroke-linejoin="round"/>
<path d="M506.74 659.94V668.97H459.25V659.94" stroke="black" stroke-width="0.42" stroke-linecap="round" stroke-linejoin="round"/>
<path d="M489.16 633.05H483.44" stroke="black" stroke-width="0.42" stroke-linecap="round" stroke-linejoin="round"/>
<path d="M483.44 648.08H489.16" stroke="black" stroke-width="0.42" stroke-linecap="round" stroke-linejoin="round"/>
<path d="M496.52 626.29H469.46V625.53H496.52V626.29Z" stroke="black" stroke-width="0.42" stroke-linecap="round" stroke-linejoin="round"/>
<path d="M485.99 620.26V625.53" stroke="black" stroke-width="0.42" stroke-linecap="round" stroke-linejoin="round"/>
<path d="M479.98 620.26V625.53" stroke="black" stroke-width="0.42" stroke-linecap="round" stroke-linejoin="round"/>
<path d="M505.55 666.65H460.44" stroke="black" stroke-width="0.24" stroke-linecap="round" stroke-linejoin="round"/>
<path d="M505.55 664.76H460.44" stroke="black" stroke-width="0.24" stroke-linecap="round" stroke-linejoin="round"/>
<path d="M505.55 662.89H460.44" stroke="black" stroke-width="0.24" stroke-linecap="round" stroke-linejoin="round"/>
<path d="M505.55 661.02H460.44" stroke="black" stroke-width="0.24" stroke-linecap="round" stroke-linejoin="round"/>
<path d="M460.8 667.78V663.12V659.94" stroke="black" stroke-width="0.24" stroke-linecap="round" stroke-linejoin="round"/>
<path d="M462.67 667.78V663.12V659.94" stroke="black" stroke-width="0.24" stroke-linecap="round" stroke-linejoin="round"/>
<path d="M464.56 667.78V663.12V659.94" stroke="black" stroke-width="0.24" stroke-linecap="round" stroke-linejoin="round"/>
<path d="M466.43 667.78V663.12V659.94" stroke="black" stroke-width="0.24" stroke-linecap="round" stroke-linejoin="round"/>
<path d="M468.32 667.78V663.12V659.94" stroke="black" stroke-width="0.24" stroke-linecap="round" stroke-linejoin="round"/>
<path d="M470.19 667.78V663.12V659.94" stroke="black" stroke-width="0.24" stroke-linecap="round" stroke-linejoin="round"/>
<path d="M472.08 667.78V663.12V659.94" stroke="black" stroke-width="0.24" stroke-linecap="round" stroke-linejoin="round"/>
<path d="M473.94 667.78V663.12V659.94" stroke="black" stroke-width="0.24" stroke-linecap="round" stroke-linejoin="round"/>
<path d="M475.83 667.78V663.12V659.94" stroke="black" stroke-width="0.24" stroke-linecap="round" stroke-linejoin="round"/>
<path d="M477.7 667.78V663.12V659.94" stroke="black" stroke-width="0.24" stroke-linecap="round" stroke-linejoin="round"/>
<path d="M479.59 667.78V663.12V659.94" stroke="black" stroke-width="0.24" stroke-linecap="round" stroke-linejoin="round"/>
<path d="M481.46 667.78V663.12V659.94" stroke="black" stroke-width="0.24" stroke-linecap="round" stroke-linejoin="round"/>
<path d="M483.35 667.78V663.12V659.94" stroke="black" stroke-width="0.24" stroke-linecap="round" stroke-linejoin="round"/>
<path d="M485.22 667.78V663.12V659.94" stroke="black" stroke-width="0.24" stroke-linecap="round" stroke-linejoin="round"/>
<path d="M487.09 667.78V663.12V659.94" stroke="black" stroke-width="0.24" stroke-linecap="round" stroke-linejoin="round"/>
<path d="M488.98 667.78V663.12V659.94" stroke="black" stroke-width="0.24" stroke-linecap="round" stroke-linejoin="round"/>
<path d="M490.85 667.78V663.12V659.94" stroke="black" stroke-width="0.24" stroke-linecap="round" stroke-linejoin="round"/>
<path d="M492.74 667.78V663.12V659.94" stroke="black" stroke-width="0.24" stroke-linecap="round" stroke-linejoin="round"/>
<path d="M494.61 667.78V663.12V659.94" stroke="black" stroke-width="0.24" stroke-linecap="round" stroke-linejoin="round"/>
<path d="M496.5 667.78V663.12V659.94" stroke="black" stroke-width="0.24" stroke-linecap="round" stroke-linejoin="round"/>
<path d="M498.37 667.78V663.12V659.94" stroke="black" stroke-width="0.24" stroke-linecap="round" stroke-linejoin="round"/>
<path d="M500.26 667.78V663.12V659.94" stroke="black" stroke-width="0.24" stroke-linecap="round" stroke-linejoin="round"/>
<path d="M502.13 667.78V663.12V659.94" stroke="black" stroke-width="0.24" stroke-linecap="round" stroke-linejoin="round"/>
<path d="M504.01 667.78V663.12V659.94" stroke="black" stroke-width="0.24" stroke-linecap="round" stroke-linejoin="round"/>
<path d="M513.04 662.22V677.23" stroke="black" stroke-width="0.42" stroke-linecap="round" stroke-linejoin="round"/>
<path d="M452.92 662.22V677.23H513.04" stroke="black" stroke-width="0.42" stroke-linecap="round" stroke-linejoin="round"/>
<path d="M513.04 662.22H506.74" stroke="black" stroke-width="0.42" stroke-linecap="round" stroke-linejoin="round"/>
<path d="M459.25 662.22H452.92" stroke="black" stroke-width="0.42" stroke-linecap="round" stroke-linejoin="round"/>
</g>
<defs>
<clipPath id="clip0_742_30156">
<rect width="957.31" height="988.43" fill="white"/>
</clipPath>
</defs>
</svg>
