<svg width="99" height="296" viewBox="0 0 99 296" fill="none" xmlns="http://www.w3.org/2000/svg">
<path d="M26.2701 157.88C26.3817 196.356 19.7898 234.557 6.79007 270.77L75.1201 295.25C90.7196 251.405 98.6358 205.197 98.5201 158.66C98.5201 101.8 87.0401 48.09 66.6501 0.539978L0.560059 29.17C17.0101 67.69 26.2701 111.46 26.2701 157.88Z" fill="#D8544F"/>
<path d="M93.33 162.39H92.7901C93.26 160.74 90.41 161.45 89.58 161.31C88.92 161.2 89.29 162.31 88.58 162.31C88.22 162.31 87.58 162.24 87.58 162.75C87.67 163.53 86.79 166.25 88.45 166.04C89.11 165.95 88.69 167.12 89.35 167.04C90.19 166.94 93 167.81 92.61 166.13H93.15C93.26 164.86 93.3 163.63 93.33 162.39Z" fill="white"/>
<path d="M93.4998 155.89H92.9498C93.3998 154.22 90.5598 155 89.7198 154.89C89.0698 154.79 89.4599 155.89 88.7899 155.89C88.4299 155.89 87.7899 155.89 87.7899 156.35C87.8899 157.13 87.0698 159.86 88.7198 159.62C89.3798 159.52 88.9798 160.7 89.6398 160.62C90.4798 160.5 93.3098 161.31 92.8898 159.62H93.4298L93.4998 155.89Z" fill="white"/>
<path d="M93.06 172.53H92.52C92.91 174.2 90.1 173.34 89.26 173.44C88.6 173.52 89.02 172.44 88.36 172.44C88 172.44 87.36 172.44 87.42 171.95C87.55 171.18 86.81 168.42 88.42 168.72C89.07 168.84 88.71 167.64 89.37 167.72C90.2 167.86 93.05 167.14 92.58 168.79H93.12C93.13 170.06 93.09 171.3 93.06 172.53Z" fill="white"/>
<path d="M92.88 179.03H92.34C92.7 180.7 89.9 179.78 89.06 179.87C88.4 179.93 88.8499 178.87 88.1799 178.87C87.8299 178.87 87.18 178.87 87.25 178.37C87.39 177.59 86.72 174.82 88.35 175.15C89.01 175.29 88.67 174.09 89.35 174.21C90.18 174.37 93.05 173.71 92.54 175.35H93.08C93.01 176.56 92.94 177.77 92.88 179.03Z" fill="white"/>
<path d="M92.7698 185.51H92.2298C92.5598 187.19 89.7798 186.23 88.9398 186.3C88.2798 186.36 88.7398 185.3 88.0698 185.3C87.7198 185.3 87.0698 185.3 87.1498 184.78C87.2998 184.01 86.6598 181.23 88.2898 181.58C88.9398 181.72 88.6198 180.52 89.2898 180.66C90.1098 180.83 92.9898 180.2 92.4598 181.84H92.9998C92.9198 183.04 92.8398 184.27 92.7698 185.51Z" fill="white"/>
<path d="M92.01 192.19H91.4601C91.8101 193.87 89.02 192.93 88.18 193.01C87.52 193.07 87.97 192.01 87.31 192.01C86.95 192.01 86.31 192.01 86.38 191.49C86.53 190.72 85.87 187.95 87.5 188.29C88.15 188.43 87.82 187.23 88.5 187.36C89.33 187.52 92.19 186.88 91.68 188.52H92.2201C92.1601 189.77 92.1 190.95 92.01 192.19Z" fill="white"/>
<path d="M91.53 199.1H90.9899C91.3499 200.78 88.55 199.86 87.71 199.94C87.05 200.01 87.4899 198.94 86.8299 198.94C86.4699 198.94 85.83 198.94 85.9 198.43C86.04 197.66 85.3599 194.89 86.9999 195.22C87.6499 195.35 87.3099 194.15 87.9999 194.28C88.8299 194.44 91.6899 193.77 91.1799 195.42H91.7299C91.6399 196.64 91.58 197.87 91.53 199.1Z" fill="white"/>
<path d="M90.7898 205.9H90.2397C90.5297 207.6 87.7697 206.55 86.9297 206.6C86.2697 206.6 86.7598 205.6 86.0998 205.54C85.7398 205.54 85.0997 205.54 85.1897 204.99C85.3697 204.22 84.8097 201.42 86.4297 201.83C87.0797 201.99 86.7897 200.77 87.4297 200.93C88.2497 201.13 91.1397 200.59 90.5697 202.21H91.1097C90.9964 203.443 90.8898 204.673 90.7898 205.9Z" fill="white"/>
<path d="M90.0099 212.51H89.4599C89.7599 214.2 86.9999 213.17 86.1599 213.23C85.4899 213.23 85.9799 212.23 85.3199 212.17C84.9599 212.17 84.3199 212.17 84.3999 211.62C84.5699 210.86 83.9999 208.06 85.6199 208.45C86.2699 208.61 85.9799 207.45 86.6199 207.55C87.4399 207.74 90.3299 207.18 89.7599 208.81H90.2999L90.0099 212.51Z" fill="white"/>
<path d="M88.7498 219.14H88.2098C88.5098 220.83 85.7398 219.83 84.8998 219.88C84.2398 219.88 84.7198 218.88 84.0498 218.88C83.6998 218.88 83.0498 218.88 83.1398 218.34C83.3098 217.57 82.7098 214.78 84.3398 215.16C84.9898 215.31 84.6798 214.1 85.3398 214.25C86.1598 214.43 89.0398 213.85 88.4898 215.48L89.0298 215.53C88.9298 216.67 88.8398 217.9 88.7498 219.14Z" fill="white"/>
<path d="M87.8698 225.77L87.3299 225.72C87.6099 227.42 84.8599 226.37 84.0199 226.42C83.3499 226.42 83.8498 225.42 83.1798 225.35C82.8298 225.35 82.1799 225.35 82.2799 224.8C82.4499 224.04 81.8999 221.23 83.5199 221.63C84.1599 221.79 83.8799 220.63 84.5199 220.73C85.3399 220.93 88.2299 220.39 87.6499 222.01H88.1898L87.8698 225.77Z" fill="white"/>
<path d="M86.6901 232.48L86.1501 232.41C86.3701 234.12 83.6601 232.97 82.8201 232.99C82.1501 232.99 82.6901 231.99 82.0201 231.89C81.6701 231.89 81.0201 231.81 81.1401 231.3C81.3401 230.54 80.8901 227.71 82.5001 228.18C83.1401 228.37 82.9001 227.18 83.5001 227.32C84.3201 227.55 87.2201 227.12 86.5901 228.72L87.12 228.79C87.01 230.02 86.8501 231.25 86.6901 232.48Z" fill="white"/>
<path d="M85.3698 239.2L84.8298 239.12C84.9998 240.84 82.3198 239.6 81.4798 239.59C80.8198 239.59 81.3898 238.59 80.7198 238.46C80.3698 238.46 79.7198 238.35 79.8598 237.85C80.0898 237.1 79.7198 234.25 81.3098 234.77C81.9498 234.97 81.7498 233.77 82.3898 233.94C83.1898 234.19 86.1098 233.85 85.3898 235.44L85.9298 235.52C85.7598 236.77 85.5698 237.98 85.3698 239.2Z" fill="white"/>
<path d="M83.7699 245.77L83.2299 245.71C83.4699 247.42 80.7399 246.3 79.8999 246.33C79.2399 246.33 79.76 245.33 79.1 245.23C78.74 245.23 78.0999 245.16 78.1999 244.66C78.3999 243.89 77.9199 241.06 79.5299 241.51C80.1699 241.68 79.9199 240.51 80.5299 240.63C81.3499 240.85 84.2499 240.38 83.6299 242L84.1699 242.06C84.0599 243.25 83.9099 244.49 83.7699 245.77Z" fill="white"/>
<path d="M82.4297 252.22L81.8797 252.17C82.1597 253.88 79.4097 252.82 78.5697 252.86C77.9097 252.86 78.4097 251.86 77.7397 251.79C77.3897 251.79 76.7397 251.74 76.8297 251.23C77.0097 250.46 76.4698 247.63 78.0898 248.05C78.7298 248.21 78.4598 246.99 79.0898 247.15C79.9098 247.35 82.8098 246.81 82.2198 248.45L82.7597 248.5C82.6597 249.77 82.5397 250.98 82.4297 252.22Z" fill="white"/>
<path d="M80.7699 259L80.2298 258.94C80.4698 260.66 77.7399 259.55 76.8999 259.57C76.2399 259.57 76.7499 258.57 76.0899 258.48C75.7399 258.48 75.0899 258.42 75.1999 257.91C75.3899 257.14 74.8999 254.31 76.5099 254.75C77.1499 254.92 76.8899 253.7 77.5099 253.87C78.3299 254.08 81.2298 253.6 80.6098 255.22L81.1499 255.29C81.0099 256.52 80.8999 257.77 80.7699 259Z" fill="white"/>
<path d="M79.5799 265.71L79.0099 265.64C79.2399 267.36 76.5199 266.21 75.6799 266.23C75.0099 266.23 75.5499 265.23 74.8799 265.13C74.5299 265.13 73.8799 265.05 73.9999 264.55C74.1999 263.78 73.74 260.94 75.35 261.4C75.99 261.59 75.75 260.35 76.35 260.53C77.16 260.76 80.0699 260.32 79.4399 261.93L79.9799 262C79.8899 263.23 79.7399 264.47 79.5799 265.71Z" fill="white"/>
<path d="M77.7297 272.38L77.1898 272.26C77.2798 274 74.6698 272.63 73.8198 272.58C73.1598 272.58 73.8197 271.53 73.1197 271.42C72.7697 271.36 72.1198 271.25 72.2798 270.76C72.5498 270.01 72.3298 267.15 73.8898 267.76C74.5098 267.99 74.3698 266.76 74.9998 266.98C75.7898 267.27 78.7298 267.07 77.9998 268.62L78.5298 268.73C78.2298 269.93 78.0097 271.15 77.7297 272.38Z" fill="white"/>
<path d="M75.8098 278.77L75.2798 278.65C75.2798 280.38 72.7398 278.94 71.8998 278.87C71.2398 278.81 71.8998 277.87 71.2298 277.69C70.8798 277.62 70.2298 277.5 70.4098 277.01C70.6998 276.27 70.5498 273.4 72.0998 274.01C72.7198 274.26 72.6098 273.01 73.2298 273.26C74.0198 273.58 76.9498 273.45 76.1498 274.99L76.6798 275.11C76.3798 276.3 76.0998 277.51 75.8098 278.77Z" fill="white"/>
<path d="M73.5098 285.03L72.9898 284.88C72.9898 286.61 70.4398 285.07 69.5998 284.96C68.9398 284.88 69.5998 283.96 68.9798 283.76C68.6298 283.67 67.9798 283.52 68.1898 283.05C68.4998 282.32 68.4798 279.44 69.9898 280.14C70.5998 280.42 70.5498 279.14 71.1498 279.43C71.9298 279.78 74.8698 279.78 73.9998 281.28L74.5198 281.42C74.1798 282.62 73.8398 283.82 73.5098 285.03Z" fill="white"/>
<path d="M71.0101 29.02L70.49 29.19C70.39 27.47 67.94 29.09 67.11 29.19C66.45 29.3 67.1701 30.19 66.5301 30.41C66.1801 30.51 65.5301 30.68 65.7601 31.15C66.1001 31.86 66.17 34.71 67.67 33.96C68.26 33.66 68.2501 34.96 68.8501 34.61C69.6101 34.24 72.55 34.13 71.63 32.68L72.1401 32.51C71.7601 31.37 71.3801 30.2 71.0101 29.02Z" fill="white"/>
<path d="M69.0097 22.83L68.4996 23.01C68.3696 21.29 65.9396 22.96 65.1196 23.12C64.4596 23.24 65.1996 24.12 64.5596 24.35C64.2196 24.45 63.5596 24.64 63.8096 25.1C64.1596 25.8 64.2896 28.66 65.8096 27.88C66.3996 27.57 66.4096 28.81 66.9996 28.51C67.7496 28.12 70.6896 27.95 69.7396 26.51L70.2597 26.33C69.8097 25.17 69.4097 24 69.0097 22.83Z" fill="white"/>
<path d="M66.5599 16.67L66.0499 16.85C65.9199 15.13 63.4899 16.8 62.6699 16.96C62.0099 17.08 62.7499 17.96 62.1099 18.19C61.7699 18.3 61.1099 18.48 61.3599 18.94C61.7099 19.64 61.8399 22.5 63.3599 21.72C63.9499 21.41 63.9599 22.65 64.5499 22.35C65.2999 21.96 68.24 21.79 67.29 20.35L67.8099 20.17C67.3599 19.01 67.0099 17.84 66.5599 16.67Z" fill="white"/>
<path d="M74.1101 38.68L73.5901 38.85C74.5101 40.3 71.5901 40.41 70.8201 40.78C70.2201 41.08 70.2601 39.9 69.6301 40.13C69.3001 40.25 68.6301 40.49 68.6301 39.98C68.5001 39.21 66.9001 36.85 68.5401 36.58C69.2001 36.48 68.4701 35.47 69.1301 35.36C69.9601 35.22 72.4101 33.6 72.5101 35.36L73.0301 35.19C73.3501 36.33 73.7301 37.51 74.1101 38.68Z" fill="white"/>
<path d="M76.0897 44.87L75.5696 45.03C76.4596 46.49 73.5697 46.55 72.7597 46.91C71.9497 47.27 72.2197 46.02 71.5897 46.23C71.2497 46.35 70.5897 46.57 70.5397 46.06C70.4197 45.28 68.8597 42.89 70.5397 42.66C71.1997 42.57 70.4797 41.55 71.1397 41.46C71.9797 41.33 74.4597 39.76 74.5197 41.46L75.0496 41.3C75.3796 42.5 75.7297 43.69 76.0897 44.87Z" fill="white"/>
<path d="M78.1301 51.02L77.61 51.17C78.48 52.65 75.5301 52.66 74.7701 53.01C74.0101 53.36 74.24 52.11 73.61 52.32C73.27 52.43 72.6101 52.65 72.5601 52.13C72.4501 51.36 70.9301 48.95 72.5601 48.74C73.2301 48.66 72.5601 47.63 73.1901 47.54C74.0201 47.43 76.5301 45.89 76.5701 47.61L77.0901 47.46L78.1301 51.02Z" fill="white"/>
<path d="M79.6399 57.57L79.1199 57.72C80.0099 59.19 77.0599 59.23 76.2999 59.58C75.5399 59.93 75.7599 58.69 75.1299 58.9C74.7899 59.01 74.1299 59.23 74.1299 58.72C74.0099 57.94 72.4699 55.54 74.1299 55.32C74.7999 55.24 74.1299 54.21 74.7499 54.12C75.5799 54 78.0799 52.44 78.1299 54.12L78.6499 53.97C78.9499 55.19 79.2999 56.38 79.6399 57.57Z" fill="white"/>
<path d="M81.4598 64.26L80.9398 64.42C81.8298 65.88 78.9398 65.94 78.1198 66.3C77.5198 66.58 77.5798 65.41 76.9498 65.62C76.6198 65.74 75.9498 65.97 75.9498 65.45C75.8298 64.68 74.2698 62.29 75.9498 62.06C76.6098 61.97 75.8898 60.95 76.5498 60.85C77.3898 60.73 79.8698 59.15 79.9398 60.85L80.4598 60.69C80.7398 61.9 81.0998 63.08 81.4598 64.26Z" fill="white"/>
<path d="M83.0098 70.92L82.4897 71.06C83.3097 72.56 80.3698 72.49 79.5898 72.81C78.9798 73.06 79.0898 71.89 78.4498 72.08C78.1098 72.18 77.4498 72.38 77.4498 71.86C77.3698 71.08 75.9198 68.63 77.5798 68.47C78.2398 68.41 77.5797 67.36 78.2397 67.29C79.0797 67.2 81.6297 65.74 81.6197 67.46L82.1398 67.33C82.3898 68.53 82.6998 69.77 83.0098 70.92Z" fill="white"/>
<path d="M84.4097 77.43L83.8797 77.57C84.7197 79.07 81.7697 79.02 80.9997 79.34C80.3897 79.6 80.4897 78.43 79.8497 78.62C79.5097 78.73 78.8497 78.93 78.8497 78.41C78.7597 77.63 77.2897 75.18 78.9597 75.02C79.6197 74.95 78.9596 73.9 79.6096 73.83C80.4496 73.74 82.9796 72.26 82.9896 73.98L83.5097 73.84C83.7797 75.04 84.0897 76.24 84.4097 77.43Z" fill="white"/>
<path d="M85.4601 84.09L84.9401 84.23C85.7901 85.73 82.8401 85.69 82.0701 86.02C81.4601 86.29 81.55 85.12 80.92 85.31C80.58 85.42 79.92 85.62 79.92 85.11C79.82 84.33 78.3301 81.88 79.9901 81.71C80.6601 81.63 79.9901 80.59 80.6301 80.52C81.4701 80.42 84.0001 78.92 84.0201 80.64L84.5401 80.5L85.4601 84.09Z" fill="white"/>
<path d="M86.8099 90.59L86.2899 90.73C87.1199 92.24 84.1699 92.16 83.3899 92.48C82.7799 92.74 82.8899 91.57 82.2499 91.76C81.9099 91.85 81.2499 92.05 81.2499 91.54C81.1599 90.75 79.6998 88.29 81.3698 88.13C82.0298 88.07 81.3699 87.02 82.0199 86.95C82.8599 86.87 85.4099 85.4 85.3999 87.12L85.9298 86.99C86.1998 88.19 86.5099 89.39 86.8099 90.59Z" fill="white"/>
<path d="M87.9398 97.36L87.3998 97.47C88.1798 99.02 85.2398 98.83 84.4498 99.12C83.8198 99.35 83.9798 98.18 83.3298 98.34C82.9898 98.43 82.3298 98.6 82.3298 98.09C82.2698 97.3 80.9098 94.78 82.5698 94.69C83.2398 94.69 82.5698 93.57 83.2798 93.53C84.1198 93.53 86.7198 92.11 86.6498 93.83L87.1798 93.72L87.9398 97.36Z" fill="white"/>
<path d="M88.9099 104.14L88.3799 104.24C89.0999 105.8 86.1699 105.52 85.3799 105.79C84.7499 106 84.9399 104.79 84.2899 104.98C83.9399 105.06 83.2899 105.21 83.2899 104.69C83.2899 103.9 81.9799 101.34 83.6499 101.3C84.3099 101.3 83.7199 100.18 84.3799 100.16C85.2299 100.16 87.8698 98.84 87.7398 100.57L88.2799 100.47L88.9099 104.14Z" fill="white"/>
<path d="M89.5597 110.82L89.0297 110.94C89.8197 112.48 86.8797 112.32 86.0897 112.62C85.4697 112.86 85.6197 111.69 84.9697 111.86C84.6297 111.95 83.9697 112.13 83.9697 111.61C83.8997 110.82 82.5097 108.31 84.1797 108.2C84.8397 108.15 84.1797 107.08 84.8597 107.03C85.7097 106.97 88.2897 105.57 88.2397 107.3L88.7697 107.18C89.0097 108.39 89.2897 109.61 89.5597 110.82Z" fill="white"/>
<path d="M90.44 117.4L89.91 117.53C90.74 119.05 87.8 118.96 87.02 119.28C86.4 119.53 86.52 118.36 85.88 118.54C85.54 118.64 84.88 118.83 84.88 118.31C84.79 117.53 83.34 115.04 85.01 114.89C85.67 114.83 85.01 113.77 85.67 113.71C86.51 113.63 89.06 112.17 89.05 113.9L89.58 113.77L90.44 117.4Z" fill="white"/>
<path d="M91.1196 124.35L90.5896 124.47C91.3896 126.01 88.4497 125.86 87.6597 126.16C87.0397 126.41 87.1797 125.23 86.5397 125.4C86.1897 125.5 85.5397 125.68 85.5397 125.16C85.4697 124.37 84.0696 121.86 85.7296 121.74C86.3996 121.69 85.7296 120.62 86.4196 120.57C87.2596 120.5 89.8397 119.09 89.7897 120.82L90.3196 120.7L91.1196 124.35Z" fill="white"/>
<path d="M92.2199 131.07L91.6898 131.18C92.4698 132.73 89.5298 132.55 88.7398 132.84C88.1198 133.08 88.2698 131.9 87.6198 132.07C87.2798 132.16 86.6198 132.33 86.6198 131.81C86.5598 131.02 85.1898 128.49 86.8598 128.39C87.5198 128.39 86.8598 127.27 87.5498 127.23C88.3998 127.17 90.9898 125.79 90.9298 127.53L91.4599 127.41C91.6899 128.63 92.0099 129.85 92.2199 131.07Z" fill="white"/>
<path d="M92.6797 137.97L92.1397 138.04C92.7897 139.65 89.8697 139.23 89.0597 139.45C88.4197 139.64 88.6697 138.45 88.0597 138.59C87.7097 138.65 87.0597 138.77 87.0597 138.25C87.0597 137.46 85.8997 134.82 87.5697 134.87C88.2397 134.87 87.6896 133.75 88.3596 133.76C89.1996 133.76 91.9097 132.61 91.6997 134.33L92.2396 134.26C92.3496 135.5 92.5097 136.77 92.6797 137.97Z" fill="white"/>
<path d="M93.0097 144.6H92.4697C93.0797 146.23 90.1697 145.72 89.3497 145.93C88.7097 146.09 88.9897 144.93 88.3497 145.04C87.9997 145.09 87.3497 145.19 87.3497 144.67C87.3497 143.88 86.2897 141.21 87.9597 141.3C88.6197 141.3 88.1097 140.19 88.7797 140.22C89.6197 140.22 92.3497 139.17 92.0997 140.88H92.6397L93.0097 144.6Z" fill="white"/>
<path d="M93.4997 152H92.9598C93.4998 153.64 90.6198 153 89.7898 153.19C89.1398 153.33 89.4698 152.19 88.7898 152.26C88.4398 152.26 87.7898 152.37 87.7898 151.85C87.8498 151.06 86.8698 148.36 88.5398 148.51C89.1998 148.57 88.7298 147.41 89.3998 147.51C90.2398 147.58 93.0197 146.61 92.6897 148.31H93.2297L93.4997 152Z" fill="white"/>
<path d="M82.5397 158.84H81.9996C82.4696 157.19 79.6197 157.92 78.7897 157.78C78.1297 157.66 78.4997 158.78 77.8397 158.78C77.4797 158.78 76.8397 158.71 76.8397 159.22C76.9297 160 76.0597 162.72 77.7197 162.5C78.3797 162.42 77.9596 163.59 78.6196 163.5C79.4596 163.39 82.2696 164.25 81.8796 162.58H82.4196L82.5397 158.84Z" fill="white"/>
<path d="M82.6897 152.33H82.1497C82.5897 150.67 79.7497 151.45 78.9097 151.33C78.2597 151.23 78.6497 152.33 77.9797 152.33C77.6297 152.33 76.9797 152.28 76.9797 152.79C77.0797 153.57 76.2597 156.3 77.9197 156.05C78.5797 155.95 78.1797 157.14 78.8397 157.05C79.6697 156.93 82.4997 157.74 82.0797 156.05H82.6197C82.6797 154.77 82.6797 153.57 82.6897 152.33Z" fill="white"/>
<path d="M82.2999 168.98H81.7499C82.1499 170.65 79.3299 169.79 78.4999 169.89C77.8299 169.97 78.2599 168.89 77.5899 168.89C77.2399 168.89 76.5899 168.89 76.6499 168.4C76.7799 167.62 76.0399 164.87 77.6499 165.16C78.3099 165.28 77.9499 164.09 78.6499 164.16C79.4899 164.3 82.3399 163.58 81.8599 165.23H82.4099L82.2999 168.98Z" fill="white"/>
<path d="M82.1398 175.47H81.5898C81.9498 177.15 79.1498 176.24 78.3198 176.32C77.6498 176.39 78.0998 175.32 77.4298 175.32C77.0798 175.32 76.4298 175.32 76.4998 174.82C76.6398 174.04 75.9598 171.28 77.5898 171.6C78.2498 171.73 77.9098 170.53 78.5898 170.66C79.4198 170.82 82.2898 170.15 81.7798 171.79H82.3298C82.2398 173.01 82.1898 174.24 82.1398 175.47Z" fill="white"/>
<path d="M82.0097 181.95H81.4697C81.8097 183.63 79.0197 182.68 78.1797 182.76C77.5197 182.82 77.9797 181.76 77.3097 181.76C76.9597 181.76 76.3097 181.76 76.3897 181.25C76.5397 180.48 75.8897 177.7 77.5197 178.05C78.1697 178.19 77.8497 176.99 78.5197 177.12C79.3497 177.29 82.2197 176.66 81.6997 178.29H82.2397L82.0097 181.95Z" fill="white"/>
<path d="M81.3201 188.63H80.7801C81.1301 190.31 78.3401 189.38 77.5001 189.46C76.8301 189.52 77.2901 188.46 76.6201 188.46C76.2701 188.46 75.6201 188.46 75.6901 187.95C75.8401 187.18 75.1701 184.4 76.8101 184.74C77.4601 184.87 77.1301 183.67 77.8101 183.8C78.6401 183.97 81.5101 183.31 80.9901 184.95H81.5401C81.4401 186.17 81.3801 187.4 81.3201 188.63Z" fill="white"/>
<path d="M80.8301 195.55H80.2901C80.6501 197.23 77.8501 196.32 77.0201 196.4C76.3501 196.47 76.8001 195.4 76.1301 195.4C75.7801 195.4 75.1301 195.4 75.2001 194.9C75.3401 194.12 74.6501 191.36 76.2901 191.68C76.9401 191.81 76.6001 190.61 77.2901 190.74C78.1201 190.89 80.9801 190.22 80.4801 191.86H81.0201C80.9401 193.08 80.8901 194.32 80.8301 195.55Z" fill="white"/>
<path d="M80.11 202.35H79.57C79.85 204.04 77.1 203 76.26 203.05C75.59 203.05 76.08 202.05 75.42 201.99C75.06 201.99 74.42 201.99 74.51 201.44C74.68 200.68 74.12 197.88 75.74 198.28C76.39 198.44 76.1 197.28 76.74 197.38C77.56 197.57 80.45 197.03 79.88 198.65H80.42C80.32 199.89 80.21 201.12 80.11 202.35Z" fill="white"/>
<path d="M79.2996 208.96H78.7496C79.0496 210.65 76.2896 209.64 75.4496 209.69C74.7796 209.69 75.2696 208.69 74.5996 208.63C74.2496 208.63 73.5996 208.63 73.6896 208.09C73.8596 207.32 73.2796 204.53 74.8996 204.92C75.5496 205.07 75.2596 203.86 75.8996 204.01C76.7196 204.2 79.5996 203.63 79.0396 205.26H79.5796C79.4896 206.5 79.3896 207.77 79.2996 208.96Z" fill="white"/>
<path d="M78.0998 215.6H77.5598C77.8698 217.29 75.0998 216.29 74.2598 216.35C73.5998 216.4 74.0798 215.35 73.4098 215.35C73.0498 215.35 72.4098 215.35 72.4898 214.81C72.6598 214.04 72.0598 211.25 73.6798 211.63C74.3298 211.78 74.0298 210.57 74.6798 210.71C75.4998 210.89 78.3898 210.31 77.8298 211.94H78.3798C78.2798 213.13 78.1898 214.36 78.0998 215.6Z" fill="white"/>
<path d="M77.2497 222.18H76.6997C76.9897 223.88 74.2397 222.84 73.3997 222.89C72.7297 222.89 73.2197 221.89 72.5597 221.82C72.1997 221.82 71.5597 221.82 71.6497 221.28C71.8197 220.51 71.2597 217.7 72.8797 218.1C73.5297 218.26 73.2397 217.1 73.8797 217.2C74.6997 217.4 77.5897 216.85 77.0197 218.47L77.5597 218.52C77.4597 219.77 77.3497 220.95 77.2497 222.18Z" fill="white"/>
<path d="M76.0797 228.94L75.5397 228.88C75.7697 230.59 73.0497 229.44 72.2097 229.46C71.5397 229.46 72.0797 228.46 71.4097 228.36C71.0597 228.36 70.4097 228.28 70.5297 227.78C70.7297 227.02 70.2697 224.19 71.8797 224.65C72.5197 224.84 72.2797 223.65 72.8797 223.79C73.6897 224.01 76.5997 223.58 75.9697 225.18L76.5097 225.25C76.3897 226.48 76.2397 227.71 76.0797 228.94Z" fill="white"/>
<path d="M74.7801 235.67L74.2401 235.58C74.4101 237.3 71.7301 236.07 70.8901 236.06C70.2201 236.06 70.7901 235.06 70.1301 234.94C69.7801 234.94 69.1301 234.83 69.2601 234.33C69.4901 233.58 69.1201 230.73 70.7101 231.24C71.3401 231.45 71.1401 230.24 71.7801 230.41C72.5901 230.66 75.5101 230.31 74.7801 231.9L75.3201 231.99C75.1601 233.21 75.0101 234.44 74.7801 235.67Z" fill="white"/>
<path d="M73.2001 242.19L72.6601 242.13C72.9001 243.84 70.1701 242.73 69.3301 242.75C68.6601 242.75 69.1801 241.75 68.5201 241.66C68.1701 241.66 67.5201 241.59 67.6301 241.09C67.8201 240.32 67.33 237.49 68.94 237.94C69.59 238.11 69.33 236.89 69.94 237.06C70.75 237.28 73.6501 236.8 73.0401 238.42L73.5801 238.48L73.2001 242.19Z" fill="white"/>
<path d="M71.8697 248.69L71.3297 248.64C71.6097 250.35 68.8597 249.3 68.0097 249.35C67.3497 249.35 67.8497 248.35 67.1797 248.27C66.8297 248.27 66.1797 248.27 66.2697 247.72C66.4497 246.95 65.8997 244.12 67.5197 244.53C68.1697 244.69 67.8797 243.47 68.5197 243.63C69.3397 243.83 72.2297 243.29 71.6497 244.92L72.1997 244.97C72.0897 246.21 72.0097 247.45 71.8697 248.69Z" fill="white"/>
<path d="M70.2296 255.48L69.6896 255.42C69.9396 257.14 67.1996 256.03 66.3596 256.06C65.6996 256.06 66.2096 255.06 65.5496 254.97C65.1896 254.97 64.5496 254.91 64.6496 254.4C64.8396 253.63 64.3396 250.8 65.9596 251.24C66.5996 251.41 66.3396 250.18 66.9596 250.35C67.7696 250.57 70.6696 250.08 70.0596 251.7L70.5996 251.76C70.4996 253 70.3596 254.24 70.2296 255.48Z" fill="white"/>
<path d="M69.0598 262.19L68.5199 262.12C68.7499 263.84 66.0298 262.7 65.1898 262.72C64.5198 262.72 65.0499 261.72 64.3899 261.62C64.0299 261.62 63.3898 261.55 63.4998 261.04C63.6998 260.27 63.2399 257.43 64.8399 257.89C65.4799 258.07 65.2399 256.84 65.8399 257.02C66.6599 257.25 69.5598 256.79 68.9298 258.41L69.4699 258.48L69.0598 262.19Z" fill="white"/>
<path d="M67.22 268.86L66.69 268.77C66.78 270.5 64.16 269.14 63.32 269.09C62.65 269.09 63.32 268.09 62.61 267.93C62.26 267.87 61.61 267.77 61.77 267.28C62.04 266.53 61.77 263.66 63.37 264.28C63.99 264.52 63.85 263.28 64.48 263.5C65.27 263.79 68.21 263.58 67.48 265.13L68.02 265.25C67.72 266.42 67.47 267.64 67.22 268.86Z" fill="white"/>
<path d="M65.3201 275.21L64.7901 275.09C64.7901 276.82 62.2501 275.39 61.4101 275.32C60.7501 275.26 61.4101 274.32 60.7401 274.14C60.3901 274.07 59.7401 273.95 59.9201 273.46C60.2001 272.72 60.0501 269.85 61.6001 270.46C62.2201 270.71 62.1101 269.46 62.7301 269.71C63.5101 270.02 66.4501 269.89 65.6501 271.42L66.1801 271.55C65.8901 272.77 65.6001 274 65.3201 275.21Z" fill="white"/>
<path d="M63.0101 281.52L62.4801 281.38C62.4801 283.11 59.9301 281.58 59.1001 281.47C58.4401 281.38 59.1001 280.47 58.4701 280.26C58.1301 280.18 57.4701 280.03 57.6801 279.55C57.9901 278.83 57.9601 275.95 59.4801 276.64C60.0901 276.92 60.0301 275.64 60.6401 275.94C61.4101 276.28 64.3501 276.27 63.4801 277.77L64.0101 277.92C63.7001 279.12 63.3701 280.32 63.0101 281.52Z" fill="white"/>
<path d="M59.87 25.52L59.36 25.69C59.25 23.97 56.8 25.6 55.97 25.75C55.32 25.86 56.03 26.75 55.39 26.97C55.05 27.06 54.39 27.24 54.63 27.7C54.97 28.41 55.05 31.26 56.54 30.51C57.14 30.21 57.13 31.46 57.73 31.16C58.49 30.79 61.42 30.67 60.5 29.22L61.02 29.05C60.63 27.88 60.25 26.7 59.87 25.52Z" fill="white"/>
<path d="M57.8597 19.34L57.3497 19.52C57.2097 17.8 54.7897 19.52 53.9697 19.64C53.3097 19.76 54.0497 20.64 53.4097 20.87C53.0697 20.97 52.4097 21.16 52.6597 21.62C53.0197 22.32 53.1497 25.18 54.6597 24.39C55.2497 24.08 55.2597 25.33 55.8597 25.02C56.4597 24.71 59.5397 24.46 58.5897 23.02L59.0997 22.84C58.6697 21.68 58.2597 20.51 57.8597 19.34Z" fill="white"/>
<path d="M63.0097 35.17L62.4897 35.34C63.4197 36.79 60.4897 36.91 59.7197 37.28C59.1197 37.58 59.1597 36.41 58.5397 36.64C58.1997 36.76 57.5397 37 57.5397 36.49C57.3997 35.71 55.7897 33.36 57.4397 33.09C58.0997 32.99 57.3597 31.98 58.0197 31.87C58.8497 31.73 61.2997 30.1 61.3997 31.87L61.9197 31.7L63.0097 35.17Z" fill="white"/>
<path d="M65.0097 41.36L64.4897 41.52C65.3797 42.98 62.4397 43.05 61.6797 43.4C60.9197 43.75 61.1297 42.51 60.4997 42.73C60.1697 42.85 59.4997 43.07 59.4997 42.56C59.3797 41.79 57.8097 39.4 59.4997 39.17C60.1597 39.07 59.4397 38.06 60.0997 37.96C60.9297 37.83 63.4097 36.25 63.4797 37.96L63.9997 37.8L65.0097 41.36Z" fill="white"/>
<path d="M67.0098 47.5L66.4897 47.65C67.3597 49.13 64.4198 49.16 63.6498 49.5C63.0498 49.78 63.1197 48.61 62.4897 48.81C62.1497 48.93 61.4897 49.14 61.4897 48.63C61.3697 47.86 59.8397 45.45 61.4897 45.24C62.1497 45.15 61.4897 44.13 62.1097 44.04C62.9497 43.92 65.4497 42.38 65.4897 44.04L66.0098 43.89C66.3598 45.13 66.7098 46.32 67.0098 47.5Z" fill="white"/>
<path d="M68.5799 54.04L68.0599 54.2C68.9499 55.67 66.0599 55.72 65.2399 56.07C64.6299 56.35 64.7099 55.18 64.0699 55.39C63.7399 55.5 63.0699 55.72 63.0699 55.21C62.9499 54.44 61.3999 52.04 63.0699 51.82C63.7299 51.73 63.0699 50.71 63.6799 50.61C64.5099 50.49 66.9999 48.93 67.0599 50.61L67.5799 50.46L68.5799 54.04Z" fill="white"/>
<path d="M70.4098 60.77L69.8898 60.92C70.7898 62.39 67.8898 62.46 67.0798 62.81C66.4798 63.1 66.5398 61.92 65.9098 62.14C65.5798 62.26 64.9098 62.49 64.9098 61.97C64.7898 61.2 63.2298 58.81 64.9098 58.58C65.5698 58.48 64.8498 57.47 65.5098 57.37C66.3498 57.24 68.8298 55.66 68.8998 57.37L69.4197 57.21C69.6897 58.37 70.0098 59.55 70.4098 60.77Z" fill="white"/>
<path d="M72.01 67.39L71.48 67.53C72.31 69.03 69.3701 68.97 68.5901 69.29C67.9701 69.55 68.09 68.38 67.45 68.56C67.11 68.67 66.45 68.86 66.45 68.35C66.36 67.57 64.9 65.12 66.57 64.96C67.23 64.89 66.5701 63.84 67.2201 63.77C68.0601 63.68 70.6101 62.22 70.6001 63.93L71.13 63.8C71.36 65 71.67 66.2 72.01 67.39Z" fill="white"/>
<path d="M73.3997 73.9L72.8697 74.04C73.7097 75.54 70.7696 75.49 69.9896 75.82C69.3796 76.08 69.4797 74.91 68.8497 75.1C68.5097 75.21 67.8497 75.41 67.8497 74.9C67.7497 74.12 66.2797 71.67 67.9397 71.5C68.5997 71.43 67.9397 70.38 68.5897 70.31C69.4297 70.22 71.9597 68.73 71.9697 70.45L72.4896 70.31L73.3997 73.9Z" fill="white"/>
<path d="M74.4696 80.55L73.9396 80.7C74.7996 82.19 71.8496 82.16 71.0796 82.5C70.4696 82.76 70.5596 81.59 69.9296 81.79C69.5896 81.89 68.9296 82.1 68.9296 81.59C68.8196 80.81 67.3296 78.37 68.9896 78.18C69.6596 78.11 68.9896 77.07 69.6296 76.99C70.4696 76.89 72.9896 75.39 73.0096 77.11L73.5397 76.97C73.8197 78.16 74.1396 79.36 74.4696 80.55Z" fill="white"/>
<path d="M75.8398 87.06L75.3098 87.19C76.1498 88.7 73.1998 88.63 72.4198 88.95C71.8098 89.21 71.9198 88.04 71.2798 88.23C70.9398 88.33 70.2798 88.53 70.2798 88.01C70.1898 87.23 68.7298 84.77 70.3898 84.61C71.0598 84.55 70.3898 83.49 71.0498 83.43C71.8898 83.34 74.4298 81.87 74.4298 83.59L74.9598 83.45C75.2198 84.65 75.5298 85.86 75.8398 87.06Z" fill="white"/>
<path d="M77.0098 93.82L76.4798 93.93C77.2498 95.47 74.3098 95.29 73.4798 95.59C72.8598 95.82 73.0098 94.65 72.3698 94.82C72.0298 94.9 71.3698 95.08 71.3698 94.56C71.3098 93.77 69.9398 91.26 71.6098 91.16C72.2698 91.16 71.6098 90.04 72.3098 90C73.1498 89.94 75.7498 88.57 75.6798 90.29L76.2099 90.18C76.4499 91.39 76.7098 92.6 77.0098 93.82Z" fill="white"/>
<path d="M78.0098 100.59L77.4798 100.69C78.2098 102.26 75.2698 101.99 74.4798 102.25C73.8498 102.47 74.0498 101.3 73.3898 101.45C73.0498 101.53 72.3898 101.68 72.3898 101.16C72.3898 100.37 71.0698 97.81 72.7398 97.77C73.3998 97.77 72.8098 96.65 73.4698 96.63C74.3198 96.63 76.9598 95.3 76.8298 97.03L77.3698 96.93C77.5198 98.15 77.7498 99.37 78.0098 100.59Z" fill="white"/>
<path d="M78.6398 107.27L78.1098 107.4C78.8998 108.93 75.9598 108.78 75.1698 109.09C74.5498 109.33 74.6898 108.15 74.0498 108.32C73.7098 108.42 73.0498 108.6 73.0498 108.08C72.9798 107.29 71.5798 104.78 73.2498 104.67C73.9098 104.62 73.2498 103.55 73.9298 103.5C74.7698 103.43 77.3498 102.02 77.3098 103.75L77.8398 103.63C78.0798 104.85 78.3598 106.06 78.6398 107.27Z" fill="white"/>
<path d="M79.54 113.85L79.01 113.98C79.84 115.5 76.89 115.42 76.11 115.74C75.5 115.99 75.61 114.82 74.97 115C74.63 115.1 73.97 115.3 73.97 114.78C73.88 113.99 72.43 111.51 74.09 111.36C74.76 111.3 74.09 110.24 74.75 110.17C75.59 110.09 78.14 108.62 78.13 110.36L78.66 110.22C78.92 111.43 79.23 112.64 79.54 113.85Z" fill="white"/>
<path d="M80.2299 120.77L79.7 120.89C80.51 122.43 77.56 122.29 76.78 122.59C76.16 122.84 76.29 121.66 75.65 121.84C75.31 121.93 74.65 122.11 74.65 121.59C74.58 120.8 73.17 118.3 74.84 118.18C75.5 118.13 74.84 117.05 75.52 117C76.36 116.93 78.94 115.51 78.89 117.25L79.4299 117.12L80.2299 120.77Z" fill="white"/>
<path d="M81.3498 127.51L80.8197 127.63C81.6097 129.18 78.6597 129 77.8697 129.3C77.2497 129.53 77.3997 128.36 76.7497 128.53C76.4097 128.62 75.7497 128.79 75.7497 128.27C75.6897 127.48 74.3097 124.96 75.9797 124.86C76.6397 124.86 75.9797 123.73 76.6697 123.69C77.5197 123.63 80.1097 122.24 80.0497 123.98L80.5797 123.86C80.8097 125.08 81.0798 126.3 81.3498 127.51Z" fill="white"/>
<path d="M81.8198 134.42L81.2798 134.49C81.9398 136.1 79.0198 135.68 78.2098 135.91C77.5698 136.09 77.8198 134.91 77.1598 135.05C76.8098 135.11 76.1598 135.23 76.1598 134.71C76.1598 133.92 74.9997 131.29 76.6697 131.32C77.3297 131.32 76.7898 130.21 77.4498 130.22C78.2998 130.22 80.9998 129.06 80.7898 130.78L81.3298 130.71C81.4898 131.95 81.6498 133.18 81.8198 134.42Z" fill="white"/>
<path d="M82.1297 141.04L81.5898 141.1C82.1998 142.72 79.2997 142.23 78.4797 142.43C77.8297 142.6 78.1097 141.43 77.4797 141.54C77.1297 141.6 76.4797 141.7 76.4797 141.18C76.4797 140.39 75.3997 137.73 77.0697 137.81C77.7397 137.81 77.2198 136.7 77.8898 136.72C78.7298 136.72 81.4598 135.66 81.2098 137.38L81.7497 137.32C81.8597 138.56 82.0097 139.77 82.1297 141.04Z" fill="white"/>
<path d="M82.6799 148.44H82.1399C82.6899 150.09 79.7999 149.44 78.9799 149.65C78.3299 149.79 78.6499 148.65 77.9799 148.72C77.6199 148.72 76.9799 148.83 76.9799 148.31C76.9799 147.52 76.0499 144.82 77.7099 144.97C78.3699 145.03 77.9099 143.86 78.5699 143.92C79.4099 143.99 82.1799 143 81.8599 144.71H82.4099L82.6799 148.44Z" fill="white"/>
<path d="M70.0799 155.42H69.5399C70.0099 153.76 67.1599 154.49 66.3299 154.35C65.6699 154.24 66.0399 155.35 65.3299 155.35C64.9699 155.35 64.3299 155.28 64.3299 155.79C64.4199 156.57 63.5499 159.29 65.2099 159.08C65.8699 158.99 65.4499 160.16 66.1099 160.08C66.9499 159.98 69.7599 160.84 69.3699 159.16H69.9099L70.0799 155.42Z" fill="white"/>
<path d="M70.23 148.92H69.69C70.13 147.26 67.29 148.04 66.45 147.92C65.8 147.82 66.19 148.92 65.52 148.92C65.17 148.92 64.52 148.87 64.52 149.38C64.62 150.16 63.81 152.9 65.46 152.65C66.12 152.55 65.72 153.73 66.38 153.65C67.21 153.54 70.04 154.34 69.62 152.65H70.16C70.22 151.39 70.22 150.15 70.23 148.92Z" fill="white"/>
<path d="M69.84 165.56H69.29C69.69 167.23 66.87 166.37 66.04 166.47C65.37 166.56 65.8 165.47 65.13 165.47C64.78 165.47 64.13 165.47 64.19 164.98C64.32 164.21 63.58 161.45 65.19 161.75C65.85 161.86 65.49 160.67 66.14 160.75C66.98 160.89 69.83 160.16 69.35 161.81H69.9L69.84 165.56Z" fill="white"/>
<path d="M69.6798 172.06H69.1298C69.4898 173.73 66.6898 172.82 65.8598 172.91C65.1898 172.97 65.6398 171.91 64.9698 171.91C64.6198 171.91 63.9698 171.91 64.0398 171.41C64.1798 170.64 63.4998 167.87 65.1298 168.19C65.7898 168.33 65.4498 167.13 66.1298 167.25C66.9598 167.41 69.8298 166.74 69.3198 168.38H69.8698C69.7798 169.59 69.7298 170.82 69.6798 172.06Z" fill="white"/>
<path d="M69.58 178.54H69.04C69.38 180.22 66.59 179.27 65.75 179.34C65.09 179.4 65.55 178.34 64.88 178.34C64.53 178.34 63.88 178.34 63.96 177.82C64.11 177.05 63.46 174.27 65.09 174.62C65.74 174.76 65.42 173.56 66.09 173.69C66.92 173.86 69.79 173.23 69.27 174.87H69.81L69.58 178.54Z" fill="white"/>
<path d="M68.8596 185.22H68.3196C68.6696 186.9 65.8797 185.97 65.0397 186.05C64.3697 186.11 64.8297 185.05 64.1597 185.05C63.8097 185.05 63.1596 185.05 63.2296 184.54C63.3796 183.77 62.7097 181 64.3497 181.33C64.9997 181.47 64.6697 180.27 65.3497 180.4C66.1797 180.56 69.0497 179.91 68.5297 181.55H69.0797C69.0097 182.77 68.9196 183.98 68.8596 185.22Z" fill="white"/>
<path d="M68.3797 192.14H67.8297C68.1997 193.82 65.3897 192.91 64.5597 193C63.8897 193.06 64.3396 192 63.6696 192C63.3196 192 62.6696 192 62.7396 191.5C62.8796 190.73 62.1897 187.96 63.8297 188.28C64.4797 188.41 64.1397 187.22 64.8297 187.34C65.6597 187.5 68.5197 186.83 68.0197 188.47H68.5597L68.3797 192.14Z" fill="white"/>
<path d="M67.6501 198.94H67.1101C67.3901 200.63 64.6401 199.6 63.8001 199.64C63.1301 199.64 63.6201 198.64 62.9601 198.58C62.6001 198.58 61.9601 198.58 62.0501 198.04C62.2201 197.27 61.6601 194.47 63.2801 194.87C63.9301 195.03 63.6401 193.87 64.2801 193.97C65.1001 194.17 67.9901 193.62 67.4201 195.24H67.9601C67.8601 196.47 67.7501 197.7 67.6501 198.94Z" fill="white"/>
<path d="M66.8397 205.55H66.2897C66.5897 207.25 63.8297 206.23 62.9897 206.28C62.3197 206.33 62.8097 205.28 62.1397 205.28C61.7897 205.28 61.1397 205.28 61.2297 204.74C61.3997 203.97 60.8197 201.17 62.4397 201.56C63.0897 201.71 62.7997 200.5 63.4397 200.65C64.2597 200.84 67.1397 200.28 66.5797 201.9H67.1197C67.0097 203.08 66.9297 204.31 66.8397 205.55Z" fill="white"/>
<path d="M65.6398 212.18H65.0998C65.4098 213.87 62.6398 212.87 61.7998 212.93C61.1398 212.98 61.6198 211.93 60.9498 211.93C60.5898 211.93 59.9498 211.93 60.0298 211.4C60.1998 210.63 59.5998 207.83 61.2198 208.21C61.8698 208.36 61.5698 207.15 62.2198 207.3C63.0398 207.48 65.9298 206.89 65.3698 208.52H65.9198C65.8198 209.71 65.7298 210.94 65.6398 212.18Z" fill="white"/>
<path d="M64.7898 218.77H64.2397C64.5297 220.47 61.7797 219.43 60.9397 219.48C60.2697 219.48 60.7598 218.48 60.0998 218.42C59.7398 218.42 59.0997 218.42 59.1897 217.87C59.3597 217.1 58.7997 214.3 60.4197 214.7C61.0697 214.85 60.7797 213.64 61.4197 213.79C62.2397 213.99 65.1297 213.44 64.5597 215.07H65.0998C65.0098 216.3 64.8898 217.53 64.7898 218.77Z" fill="white"/>
<path d="M63.6197 225.53L63.0798 225.46C63.3098 227.17 60.5897 226.03 59.7497 226.04C59.0797 226.04 59.6198 225.04 58.9498 224.95C58.5998 224.95 57.9498 224.87 58.0698 224.36C58.2698 223.6 57.8097 220.77 59.4197 221.24C60.0597 221.42 59.8197 220.24 60.4197 220.37C61.2297 220.6 64.1398 220.16 63.5098 221.76L64.0497 221.83C63.9297 223.06 63.7797 224.29 63.6197 225.53Z" fill="white"/>
<path d="M62.3197 232.25L61.7797 232.17C61.9497 233.89 59.2697 232.66 58.4297 232.65C57.7597 232.65 58.3296 231.6 57.6696 231.53C57.3196 231.53 56.6697 231.41 56.7997 230.91C57.0297 230.16 56.6597 227.31 58.2497 227.83C58.8797 228.03 58.6797 226.83 59.3197 226.99C60.1297 227.25 63.0497 226.9 62.3197 228.48L62.8596 228.57C62.6996 229.77 62.5097 231.02 62.3197 232.25Z" fill="white"/>
<path d="M60.7396 238.77L60.1996 238.71C60.4396 240.43 57.7096 239.31 56.8696 239.34C56.1996 239.34 56.7196 238.34 56.0596 238.25C55.7096 238.25 55.0596 238.18 55.1696 237.67C55.3596 236.91 54.8696 234.08 56.4796 234.52C57.1296 234.7 56.8696 233.52 57.4796 233.64C58.2896 233.86 61.1896 233.39 60.5796 235L61.1196 235.06L60.7396 238.77Z" fill="white"/>
<path d="M59.4098 245.28L58.8697 245.23C59.1497 246.94 56.3997 245.88 55.5497 245.93C54.8897 245.93 55.3898 244.93 54.7198 244.86C54.3698 244.86 53.7197 244.81 53.8097 244.3C53.9897 243.53 53.4397 240.71 55.0597 241.11C55.7097 241.28 55.4197 240.05 56.0597 240.21C56.8797 240.41 59.7797 239.87 59.1897 241.5L59.7397 241.55C59.6297 242.77 59.5198 244.04 59.4098 245.28Z" fill="white"/>
<path d="M57.77 252.06L57.23 252C57.48 253.72 54.74 252.61 53.9 252.64C53.24 252.64 53.75 251.64 53.09 251.56C52.74 251.56 52.09 251.49 52.19 250.98C52.38 250.22 51.88 247.38 53.5 247.82C54.14 247.99 53.88 246.77 54.5 246.94C55.31 247.15 58.2101 246.66 57.6001 248.28L58.14 248.35C58.01 249.58 57.9 250.82 57.77 252.06Z" fill="white"/>
<path d="M56.5999 258.77L56.0598 258.71C56.2898 260.42 53.5698 259.29 52.7298 259.3C52.0598 259.3 52.5898 258.3 51.9298 258.21C51.5698 258.21 50.9299 258.13 51.0399 257.62C51.2399 256.86 50.7799 254.02 52.3799 254.48C53.0199 254.66 52.7799 253.43 53.3799 253.6C54.1999 253.83 57.0999 253.38 56.4699 254.99L57.0099 255.06L56.5999 258.77Z" fill="white"/>
<path d="M54.7601 265.44L54.23 265.33C54.32 267.06 51.7 265.71 50.86 265.66C50.19 265.66 50.8101 264.61 50.1501 264.5C49.8001 264.44 49.1501 264.33 49.3101 263.84C49.5801 263.1 49.3101 260.23 50.9101 260.84C51.5301 261.08 51.3901 259.84 52.0201 260.06C52.8101 260.35 55.7501 260.14 55.0201 261.7L55.5601 261.81C55.2601 263 55.0101 264.22 54.7601 265.44Z" fill="white"/>
<path d="M52.8601 271.77L52.3301 271.64C52.3301 273.37 49.7901 271.94 48.9501 271.87C48.2901 271.81 48.9501 270.87 48.2801 270.69C47.9301 270.62 47.2801 270.5 47.4601 270.02C47.7401 269.28 47.5901 266.4 49.1401 267.02C49.7601 267.28 49.6501 266.02 50.2701 266.27C51.0501 266.58 53.9901 266.45 53.1901 267.99L53.7201 268.11C53.4301 269.37 53.1401 270.58 52.8601 271.77Z" fill="white"/>
<path d="M50.5799 278.1L50.0098 277.96C50.0098 279.69 47.4598 278.16 46.6298 278.05C45.9698 277.97 46.6298 277.05 45.9998 276.85C45.6598 276.76 44.9999 276.62 45.2099 276.14C45.5199 275.41 45.4898 272.53 47.0098 273.23C47.6198 273.5 47.5598 272.23 48.1698 272.52C48.9398 272.86 51.8798 272.85 51.0098 274.35L51.5399 274.5C51.2399 275.7 50.9099 276.9 50.5799 278.1Z" fill="white"/>
<path d="M47.41 22.11L46.9 22.27C46.79 20.56 44.34 22.19 43.51 22.33C42.86 22.44 43.58 23.33 42.93 23.55C42.59 23.65 41.93 23.82 42.17 24.29C42.51 25 42.59 27.85 44.08 27.1C44.68 26.8 44.67 28.04 45.27 27.75C46.03 27.37 48.9601 27.25 48.0401 25.8L48.56 25.63C48.17 24.46 47.79 23.28 47.41 22.11Z" fill="white"/>
<path d="M50.54 31.77L50.02 31.94C50.95 33.38 48.0199 33.51 47.2499 33.88C46.6499 34.17 46.6899 33 46.0699 33.23C45.7299 33.35 45.0699 33.59 45.0699 33.08C44.9299 32.31 43.32 29.95 44.97 29.69C45.63 29.58 44.8899 28.58 45.5499 28.46C46.3799 28.32 48.8299 26.69 48.9299 28.41L49.45 28.24L50.54 31.77Z" fill="white"/>
<path d="M52.54 37.94L52.02 38.1C52.91 39.57 50.02 39.63 49.21 39.99C48.4 40.35 48.66 39.1 48.03 39.32C47.7 39.43 47.03 39.66 47.03 39.15C46.91 38.37 45.34 35.99 47.03 35.75C47.69 35.66 46.9699 34.64 47.6299 34.54C48.4599 34.42 50.9399 32.84 51.0099 34.54L51.53 34.39L52.54 37.94Z" fill="white"/>
<path d="M54.5898 44.09L54.0698 44.24C54.9398 45.71 51.9997 45.74 51.2297 46.09C50.6297 46.36 50.6998 45.19 50.0698 45.4C49.7298 45.51 49.0698 45.73 49.0698 45.22C48.9498 44.44 47.4298 42.03 49.0698 41.82C49.7298 41.74 49.0698 40.71 49.6898 40.62C50.5298 40.51 53.0298 38.96 53.0698 40.68L53.5898 40.53C53.8998 41.71 54.2498 42.9 54.5898 44.09Z" fill="white"/>
<path d="M56.12 50.63L55.6 50.78C56.49 52.25 53.55 52.3 52.78 52.65C52.17 52.93 52.2499 51.76 51.6099 51.97C51.2799 52.09 50.6099 52.31 50.6099 51.8C50.4899 51.02 48.9399 48.62 50.6099 48.4C51.2699 48.31 50.61 47.29 51.22 47.2C52.05 47.08 54.54 45.51 54.6 47.2L55.12 47.05L56.12 50.63Z" fill="white"/>
<path d="M57.9498 57.32L57.4298 57.48C58.3298 58.94 55.4298 59.01 54.6198 59.37C54.0198 59.65 54.0798 58.48 53.4498 58.7C53.1198 58.81 52.4498 59.04 52.4498 58.53C52.3198 57.75 50.7598 55.37 52.4498 55.13C53.1098 55.04 52.3898 54.02 53.0498 53.92C53.8898 53.8 56.3698 52.21 56.4398 53.92L56.9598 53.76C57.2298 54.96 57.5898 56.14 57.9498 57.32Z" fill="white"/>
<path d="M59.5198 63.98L58.9898 64.11C59.8198 65.62 56.8798 65.55 56.0998 65.87C55.4798 66.13 55.5998 64.96 54.9598 65.15C54.6198 65.25 53.9598 65.45 53.9598 64.93C53.8698 64.15 52.4098 61.7 54.0798 61.54C54.7398 61.47 54.0798 60.43 54.7298 60.36C55.5698 60.27 58.1198 58.8 58.1098 60.52L58.6398 60.38C58.8998 61.58 59.2098 62.77 59.5198 63.98Z" fill="white"/>
<path d="M60.9397 70.48L60.4098 70.62C61.2498 72.12 58.3097 72.08 57.5297 72.4C56.9197 72.66 57.0197 71.49 56.3897 71.69C56.0497 71.79 55.3897 71.99 55.3897 71.48C55.2897 70.7 53.8197 68.25 55.4797 68.08C56.1397 68.01 55.4797 66.97 56.1297 66.89C56.9697 66.8 59.4997 65.31 59.5097 67.03L60.0297 66.9C60.3097 68.09 60.6197 69.29 60.9397 70.48Z" fill="white"/>
<path d="M62.0096 77.14L61.4796 77.28C62.3396 78.78 59.3896 78.75 58.6196 79.08C58.0096 79.35 58.0996 78.17 57.4696 78.37C57.1296 78.48 56.4696 78.68 56.4696 78.17C56.3596 77.39 54.8696 74.95 56.5296 74.77C57.1996 74.7 56.5296 73.65 57.1696 73.58C58.0096 73.48 60.5296 71.97 60.5496 73.69L61.0796 73.55C61.3596 74.77 61.6796 75.94 62.0096 77.14Z" fill="white"/>
<path d="M63.3799 83.64L62.8499 83.78C63.6899 85.28 60.7399 85.22 59.9599 85.54C59.3499 85.8 59.4599 84.62 58.8199 84.81C58.4799 84.91 57.8199 85.11 57.8199 84.6C57.7299 83.81 56.2699 81.35 57.9299 81.19C58.5999 81.13 57.9299 80.08 58.5899 80.01C59.4299 79.92 61.9699 78.45 61.9699 80.17L62.4999 80.04C62.7599 81.24 63.0699 82.44 63.3799 83.64Z" fill="white"/>
<path d="M64.5201 90.4L63.9901 90.52C64.7601 92.06 61.8201 91.88 60.9901 92.17C60.3701 92.4 60.5201 91.23 59.8801 91.4C59.5401 91.49 58.8801 91.66 58.8801 91.14C58.8201 90.36 57.4501 87.84 59.1201 87.74C59.7901 87.74 59.1201 86.63 59.8201 86.58C60.6601 86.53 63.2601 85.15 63.1901 86.88L63.7201 86.76C64.0101 87.98 64.2501 89.19 64.5201 90.4Z" fill="white"/>
<path d="M65.51 97.18L64.98 97.28C65.71 98.84 62.77 98.57 61.98 98.84C61.19 99.11 61.54 97.89 60.88 98.03C60.54 98.11 59.88 98.26 59.88 97.74C59.88 96.96 58.56 94.39 60.23 94.35C60.89 94.35 60.3001 93.23 60.9601 93.21C61.8101 93.21 64.45 91.89 64.32 93.61L64.86 93.51C65.06 94.77 65.29 95.96 65.51 97.18Z" fill="white"/>
<path d="M66.1798 103.86L65.6498 103.98C66.4398 105.52 63.4998 105.37 62.7098 105.67C62.0898 105.91 62.2298 104.74 61.5898 104.91C61.2498 105 60.5898 105.18 60.5898 104.66C60.5198 103.87 59.1198 101.36 60.7898 101.25C61.4498 101.25 60.7898 100.13 61.4698 100.08C62.3098 100.02 64.8898 98.61 64.8498 100.34L65.3798 100.22C65.6198 101.43 65.8998 102.65 66.1798 103.86Z" fill="white"/>
<path d="M67.0801 110.43L66.5501 110.57C67.3801 112.09 64.4301 112 63.6501 112.32C63.0401 112.58 63.1501 111.4 62.5101 111.59C62.1701 111.69 61.5101 111.88 61.5101 111.36C61.4201 110.58 59.9701 108.09 61.6301 107.94C62.3001 107.88 61.6301 106.82 62.2901 106.76C63.1301 106.67 65.6801 105.21 65.6701 106.94L66.2001 106.81C66.4601 108.02 66.7701 109.23 67.0801 110.43Z" fill="white"/>
<path d="M67.77 117.38L67.24 117.5C68.05 119.04 65.1 118.9 64.32 119.21C63.7 119.45 63.83 118.28 63.19 118.45C62.85 118.54 62.19 118.73 62.19 118.21C62.12 117.42 60.71 114.91 62.38 114.79C63.04 114.74 62.38 113.67 63.06 113.61C63.9 113.55 66.48 112.13 66.43 113.86L66.97 113.74L67.77 117.38Z" fill="white"/>
<path d="M68.8897 124.1L68.3597 124.22C69.1497 125.76 66.1997 125.59 65.3597 125.88C64.7397 126.12 64.8897 124.94 64.2497 125.11C63.8997 125.2 63.2497 125.38 63.2497 124.86C63.1897 124.07 61.8097 121.54 63.4797 121.44C64.1397 121.44 63.4797 120.32 64.1697 120.27C65.0197 120.22 67.6097 118.83 67.5497 120.56L68.0797 120.45C68.3497 121.66 68.6197 122.88 68.8897 124.1Z" fill="white"/>
<path d="M69.3601 131L68.8201 131.07C69.4801 132.68 66.5601 132.26 65.7501 132.49C65.1101 132.68 65.3601 131.49 64.7501 131.63C64.4001 131.69 63.7501 131.82 63.7501 131.29C63.7501 130.5 62.5901 127.87 64.2601 127.91C64.9201 127.91 64.3801 126.79 65.0401 126.8C65.8901 126.8 68.5901 125.65 68.3801 127.37L68.9201 127.3C69.0101 128.53 69.1901 129.77 69.3601 131Z" fill="white"/>
<path d="M69.6698 137.62L69.1298 137.68C69.7398 139.3 66.8398 138.81 66.0198 139.02C65.3798 139.18 65.6498 138.02 65.0198 138.13C64.6698 138.13 64.0198 138.28 64.0198 137.76C64.0198 136.97 62.9398 134.31 64.6098 134.39C65.2798 134.39 64.7598 133.28 65.4298 133.31C66.2698 133.31 68.9998 132.25 68.7498 133.96L69.2898 133.91C69.3998 135.15 69.5398 136.39 69.6698 137.62Z" fill="white"/>
<path d="M70.2201 145.03H69.68C70.23 146.68 67.34 146.03 66.52 146.24C65.87 146.38 66.19 145.24 65.52 145.31C65.17 145.31 64.52 145.43 64.52 144.9C64.57 144.11 63.59 141.41 65.25 141.56C65.91 141.62 65.45 140.46 66.11 140.56C66.95 140.63 69.72 139.65 69.4 141.35H69.95L70.2201 145.03Z" fill="white"/>
<path d="M58.8201 152H58.2801C58.7401 150.34 55.8901 151.09 55.0601 151C54.4001 150.89 54.7801 152 54.1201 152C53.7601 152 53.1201 151.94 53.1201 152.45C53.2101 153.23 52.3701 155.96 54.0201 155.73C54.6801 155.63 54.2701 156.81 54.9301 156.73C55.7701 156.62 58.5901 157.46 58.1801 155.79H58.7301C58.7801 154.47 58.8001 153.23 58.8201 152Z" fill="white"/>
<path d="M58.9197 145.5H58.3697C58.7997 143.83 55.9697 144.64 55.1297 144.5C54.4697 144.41 54.8797 145.5 54.2097 145.5C53.8497 145.5 53.2097 145.5 53.2097 145.97C53.3197 146.75 52.5297 149.49 54.2097 149.23C54.8697 149.12 54.4897 150.31 55.1497 150.23C55.9797 150.11 58.8197 150.89 58.3797 149.23H58.9197C58.9197 147.97 58.9197 146.77 58.9197 145.5Z" fill="white"/>
<path d="M58.67 162.14H58.12C58.53 163.8 55.71 162.97 54.87 163.08C54.21 163.16 54.6301 162.08 53.9601 162.08C53.6101 162.08 52.9601 162.08 53.0201 161.6C53.1401 160.83 52.3701 158.08 54.0201 158.36C54.6801 158.47 54.3101 157.28 54.9601 157.36C55.8001 157.49 58.64 156.74 58.18 158.36H58.73C58.7 159.67 58.69 160.91 58.67 162.14Z" fill="white"/>
<path d="M58.5598 168.64H58.0198C58.3898 170.32 55.5898 169.43 54.7498 169.52C54.0898 169.59 54.5198 168.52 53.8598 168.52C53.4998 168.52 52.8598 168.52 52.9198 168.02C53.0598 167.25 52.3498 164.48 53.9898 164.8C54.6398 164.92 54.2898 163.73 54.9898 163.8C55.8198 163.96 58.6798 163.26 58.1898 164.91H58.7298C58.6498 166.17 58.5998 167.41 58.5598 168.64Z" fill="white"/>
<path d="M58.52 175.12H57.9799C58.3299 176.8 55.54 175.88 54.7 175.96C54.04 176.02 54.49 174.96 53.82 174.96C53.47 174.96 52.82 174.96 52.89 174.45C53.04 173.68 52.37 170.91 54 171.24C54.65 171.38 54.32 170.18 55 170.31C55.83 170.47 58.7 169.81 58.19 171.45H58.7299L58.52 175.12Z" fill="white"/>
<path d="M57.8598 181.77H57.3198C57.6898 183.45 54.8798 182.54 54.0498 182.63C53.3798 182.7 53.8299 181.63 53.1599 181.63C52.7999 181.63 52.1598 181.63 52.2298 181.13C52.3698 180.35 51.6698 177.59 53.3098 177.91C53.9698 178.04 53.6198 176.84 54.3098 176.97C55.1398 177.12 57.9998 176.45 57.4998 178.09H58.0498C58.0098 179.34 57.9098 180.57 57.8598 181.77Z" fill="white"/>
<path d="M57.4299 188.77H56.8899C57.2699 190.45 54.4599 189.56 53.6199 189.65C52.9599 189.73 53.3999 188.65 52.7299 188.65C52.3799 188.65 51.7299 188.65 51.7899 188.15C51.9299 187.38 51.2199 184.61 52.8599 184.93C53.5099 185.05 53.1599 183.85 53.8599 183.93C54.6899 184.08 57.5499 183.39 57.0599 185.03H57.5999C57.5199 186.26 57.4699 187.49 57.4299 188.77Z" fill="white"/>
<path d="M56.7698 195.53H56.2198C56.5298 197.22 53.7598 196.21 52.9198 196.27C52.2598 196.27 52.7398 195.27 52.0698 195.21C51.7198 195.21 51.0698 195.21 51.1598 194.67C51.3298 193.91 50.7398 191.11 52.3698 191.5C53.0098 191.65 52.7198 190.44 53.3698 190.59C54.1898 190.78 57.0698 190.21 56.5098 191.83H57.0598C57.0098 193.07 56.8598 194.3 56.7698 195.53Z" fill="white"/>
<path d="M56.0099 202.15H55.4699C55.7799 203.84 53.0099 202.85 52.1699 202.91C51.5099 202.96 51.9799 201.91 51.3199 201.91C50.9599 201.91 50.3199 201.91 50.3999 201.38C50.5599 200.61 49.9499 197.82 51.5799 198.19C52.2299 198.34 51.9299 197.13 52.5799 197.28C53.3999 197.46 56.2799 196.87 55.7299 198.5H56.2799L56.0099 202.15Z" fill="white"/>
<path d="M54.8798 208.77H54.3298C54.6598 210.46 51.8798 209.48 51.0398 209.55C50.3798 209.55 50.8498 208.55 50.1798 208.55C49.8198 208.55 49.1798 208.55 49.2598 208.02C49.4198 207.25 48.7898 204.46 50.4198 204.82C51.0698 204.97 50.7598 203.76 51.4198 203.9C52.2498 204.08 55.1198 203.47 54.5798 205.1H55.1298C55.0098 206.32 55.0098 207.56 54.8798 208.77Z" fill="white"/>
<path d="M54.0799 215.39H53.5299C53.8399 217.08 51.0698 216.07 50.2298 216.13C49.5698 216.13 50.0499 215.13 49.3799 215.07C49.0299 215.07 48.3799 215.07 48.4699 214.53C48.6399 213.76 48.0498 210.96 49.6698 211.35C50.3198 211.5 50.0298 210.29 50.6698 210.44C51.4898 210.62 54.3699 210.05 53.8099 211.68H54.3598C54.2698 212.92 54.1699 214.15 54.0799 215.39Z" fill="white"/>
<path d="M53.0097 222.16L52.4697 222.1C52.7097 223.8 49.9797 222.68 49.1397 222.71C48.4797 222.71 48.9997 221.71 48.3397 221.62C47.9797 221.62 47.3397 221.55 47.4397 221.04C47.6397 220.28 47.1597 217.46 48.7697 217.9C49.4097 218.08 49.1597 216.9 49.7697 217.03C50.5897 217.25 53.4897 216.79 52.8697 218.4L53.4097 218.46C53.2597 219.69 53.1097 220.92 53.0097 222.16Z" fill="white"/>
<path d="M51.73 228.89L51.19 228.81C51.37 230.53 48.6801 229.33 47.8401 229.32C47.1701 229.32 47.73 228.32 47.07 228.21C46.72 228.21 46.07 228.1 46.2 227.61C46.42 226.85 46.02 224.01 47.62 224.5C48.25 224.7 48.04 223.5 48.68 223.66C49.49 223.91 52.41 223.54 51.73 225.13L52.27 225.21L51.73 228.89Z" fill="white"/>
<path d="M50.1999 235.43L49.6599 235.37C49.9199 237.09 47.1799 235.99 46.3399 236.03C45.6699 236.03 46.1799 235.03 45.5199 234.94C45.1599 234.94 44.5198 234.88 44.6198 234.38C44.8098 233.61 44.2999 230.78 45.9099 231.21C46.5499 231.38 46.2899 230.21 46.9099 230.33C47.7299 230.54 50.6299 230.04 50.0299 231.66L50.5699 231.72L50.1999 235.43Z" fill="white"/>
<path d="M48.9298 241.94H48.3798C48.6798 243.65 45.9198 242.62 45.0798 242.67C44.4098 242.67 44.8998 241.67 44.2398 241.6C43.8798 241.6 43.2398 241.6 43.3198 241.06C43.4898 240.28 42.9199 237.46 44.5399 237.86C45.1899 238.01 44.8999 236.79 45.5399 236.95C46.3599 237.14 49.2498 236.57 48.6798 238.21L49.2199 238.26L48.9298 241.94Z" fill="white"/>
<path d="M47.3499 248.77H46.7998C47.0698 250.48 44.3299 249.4 43.4899 249.44C42.8199 249.44 43.3298 248.44 42.6598 248.36C42.3098 248.36 41.6598 248.3 41.7598 247.79C41.9498 247.02 41.4198 244.19 43.0398 244.62C43.6798 244.79 43.4099 243.56 44.0399 243.72C44.8599 243.93 47.7499 243.42 47.1599 245.05L47.6998 245.1C47.5898 246.26 47.4699 247.5 47.3499 248.77Z" fill="white"/>
<path d="M46.2396 255.46L45.6996 255.4C45.9396 257.12 43.2096 256 42.3696 256.03C41.6996 256.03 42.2196 255.03 41.5596 254.94C41.2096 254.94 40.5596 254.87 40.6696 254.36C40.8596 253.6 40.3696 250.76 41.9796 251.2C42.6196 251.38 42.3696 250.15 42.9796 250.32C43.7996 250.54 46.6996 250.07 46.0896 251.68L46.6296 251.75C46.5096 252.99 46.3696 254.22 46.2396 255.46Z" fill="white"/>
<path d="M44.4599 262.15L43.9199 262.05C44.0199 263.78 41.3999 262.44 40.5499 262.4C39.8899 262.4 40.4899 261.35 39.8399 261.24C39.4899 261.19 38.8399 261.09 38.9899 260.6C39.2499 259.85 38.9899 256.98 40.5599 257.6C41.1899 257.82 41.0399 256.6 41.6599 256.8C42.4599 257.09 45.3899 256.85 44.6599 258.41L45.1999 258.52C44.9399 259.7 44.6899 260.93 44.4599 262.15Z" fill="white"/>
<path d="M42.61 268.52L42.08 268.4C42.13 270.13 39.54 268.72 38.7 268.66C38.04 268.66 38.7 267.66 38.02 267.48C37.67 267.42 37.0199 267.31 37.1899 266.82C37.4699 266.07 37.2899 263.2 38.8499 263.82C39.4699 264.07 39.3499 262.82 39.9699 263.06C40.7599 263.36 43.69 263.21 42.9 264.75L43.43 264.87C43.16 266.09 42.88 267.3 42.61 268.52Z" fill="white"/>
<path d="M40.3799 274.85L39.8499 274.71C39.8499 276.44 37.3099 274.93 36.4699 274.83C35.8099 274.75 36.4699 273.83 35.8299 273.63C35.4899 273.55 34.8299 273.41 35.0399 272.93C35.3399 272.2 35.2799 269.32 36.8099 270C37.4199 270.27 37.3499 269 37.9599 269.28C38.7399 269.62 41.6799 269.58 40.8199 271.09L41.3499 271.24C41.0099 272.44 40.6999 273.64 40.3799 274.85Z" fill="white"/>
<path d="M38.22 28.51L37.7 28.68C38.64 30.12 35.7 30.27 34.95 30.68C34.2 31.09 34.38 29.81 33.76 30.04C33.42 30.16 32.76 30.41 32.7 29.9C32.56 29.13 30.93 26.79 32.58 26.51C33.23 26.39 32.49 25.4 33.15 25.28C33.98 25.13 36.41 23.48 36.53 25.2L37.04 25.02C37.43 26.17 37.82 27.34 38.22 28.51Z" fill="white"/>
<path d="M40.27 34.68L39.7499 34.84C40.6599 36.3 37.7499 36.39 36.9499 36.75C36.3499 37.04 36.3999 35.87 35.7799 36.09C35.4399 36.21 34.7799 36.44 34.7799 35.93C34.6499 35.16 33.0699 32.78 34.7199 32.53C35.3799 32.44 34.6499 31.42 35.3099 31.32C36.1399 31.19 38.6099 29.58 38.6899 31.32L39.21 31.16L40.27 34.68Z" fill="white"/>
<path d="M42.3699 40.77L41.8499 40.93C42.7399 42.4 39.8499 42.45 39.0299 42.8C38.4299 43.08 38.4999 41.91 37.8599 42.12C37.5299 42.24 36.8599 42.46 36.8599 41.95C36.7399 41.18 35.1899 38.78 36.8599 38.56C37.5199 38.47 36.8099 37.45 37.4699 37.35C38.3099 37.23 40.7899 35.66 40.8499 37.35L41.3799 37.19L42.3699 40.77Z" fill="white"/>
<path d="M44.0099 47.33L43.4899 47.49C44.3899 48.95 41.4899 49.02 40.6899 49.38C39.8899 49.74 40.1399 48.5 39.5099 48.71C39.1799 48.83 38.5099 49.06 38.5099 48.55C38.3799 47.77 36.8099 45.39 38.5099 45.15C39.1699 45.06 38.4499 44.04 39.1099 43.94C39.9399 43.81 42.4199 42.23 42.4899 43.94L43.0099 43.78L44.0099 47.33Z" fill="white"/>
<path d="M45.8498 54.01L45.3297 54.17C46.2397 55.63 43.3297 55.72 42.5397 56.08C41.9397 56.37 41.9897 55.2 41.3597 55.42C41.0297 55.54 40.3597 55.77 40.3097 55.26C40.1797 54.49 38.5997 52.12 40.2497 51.87C40.9097 51.77 40.1797 50.76 40.8397 50.65C41.6697 50.52 44.1398 48.91 44.2198 50.65L44.7397 50.49L45.8498 54.01Z" fill="white"/>
<path d="M47.47 60.65L46.94 60.79C47.79 62.29 44.84 62.25 44.07 62.58C43.46 62.84 43.56 61.67 42.92 61.86C42.58 61.97 41.92 62.17 41.92 61.66C41.83 60.88 40.35 58.43 42.01 58.26C42.67 58.19 42.01 57.15 42.65 57.07C43.49 56.98 46.03 55.49 46.03 57.2L46.56 57.07C46.83 58.26 47.15 59.46 47.47 60.65Z" fill="white"/>
<path d="M48.9501 67.14L48.4201 67.29C49.2801 68.78 46.3301 68.76 45.5601 69.09C44.9501 69.36 45.0401 68.19 44.4101 68.39C44.0701 68.49 43.4101 68.7 43.4101 68.19C43.3001 67.41 41.8101 64.98 43.4701 64.79C44.1301 64.72 43.4701 63.68 44.1001 63.6C44.9401 63.5 47.4601 61.99 47.4901 63.71L48.0101 63.56C48.2901 64.77 48.6201 65.95 48.9501 67.14Z" fill="white"/>
<path d="M50.08 73.77L49.5499 73.92C50.4199 75.4 47.47 75.4 46.7 75.74C46.1 76.01 46.18 74.84 45.54 75.04C45.21 75.15 44.54 75.36 44.54 74.85C44.43 74.07 42.92 71.64 44.54 71.45C45.2 71.37 44.5399 70.33 45.1699 70.25C45.9999 70.14 48.5199 68.62 48.5499 70.34L49.08 70.19C49.41 71.4 49.74 72.6 50.08 73.77Z" fill="white"/>
<path d="M51.4997 80.28L50.9797 80.42C51.8197 81.92 48.8798 81.88 48.0998 82.21C47.4898 82.47 47.5897 81.3 46.9497 81.49C46.6197 81.59 45.9497 81.8 45.9497 81.28C45.8597 80.5 44.3798 78.05 46.0398 77.88C46.6998 77.81 46.0397 76.76 46.6797 76.69C47.5197 76.59 50.0497 75.1 50.0597 76.82L50.5898 76.69C50.8598 77.88 51.1797 79.08 51.4997 80.28Z" fill="white"/>
<path d="M52.6998 87.0299L52.1698 87.15C52.9598 88.68 50.0198 88.53 49.2298 88.83C48.6098 89.07 48.7498 87.9 48.1098 88.07C47.7698 88.16 47.1098 88.34 47.1098 87.82C47.0398 87.04 45.6498 84.5299 47.3198 84.4199C47.9798 84.4199 47.3198 83.3 48.0098 83.25C48.8498 83.19 51.4398 81.79 51.3798 83.52L51.9098 83.4C52.1498 84.61 52.4198 85.8199 52.6998 87.0299Z" fill="white"/>
<path d="M53.7498 93.77L53.2198 93.87C53.9598 95.43 51.0298 95.18 50.2198 95.46C49.5898 95.68 49.7698 94.51 49.1198 94.66C48.7698 94.74 48.1198 94.9 48.1198 94.38C48.1198 93.59 46.7597 91.04 48.4297 90.99C49.0997 90.99 48.4898 89.87 49.1598 89.84C49.9998 89.84 52.6298 88.49 52.5198 90.21L53.0598 90.11C53.2798 91.36 53.5198 92.58 53.7498 93.77Z" fill="white"/>
<path d="M54.4798 100.47L53.9498 100.6C54.7498 102.13 51.8098 102 51.0298 102.31C50.4098 102.56 50.5398 101.38 49.8998 101.56C49.5498 101.66 48.8998 101.84 48.8998 101.33C48.8198 100.54 47.4098 98.04 49.0698 97.91C49.7398 97.91 49.0698 96.79 49.7498 96.74C50.5898 96.66 53.1598 95.23 53.1198 96.96L53.6498 96.84L54.4798 100.47Z" fill="white"/>
<path d="M55.4299 107.04L54.9 107.18C55.75 108.69 52.8 108.63 52.03 108.96C51.26 109.29 51.52 108.04 50.88 108.23C50.54 108.34 49.88 108.54 49.88 108.02C49.78 107.23 48.3 104.76 49.97 104.6C50.63 104.53 49.9699 103.48 50.6099 103.4C51.4499 103.31 53.99 101.83 54 103.56L54.52 103.42L55.4299 107.04Z" fill="white"/>
<path d="M56.1901 113.98L55.6601 114.11C56.4801 115.64 53.5301 115.52 52.7501 115.84C52.1301 116.09 52.25 114.91 51.61 115.09C51.27 115.18 50.61 115.38 50.61 114.86C50.53 114.07 49.0901 111.57 50.7601 111.44C51.4201 111.38 50.7601 110.31 51.4301 110.26C52.2701 110.18 54.8301 108.74 54.8101 110.47L55.3401 110.35C55.6001 111.56 55.8901 112.77 56.1901 113.98Z" fill="white"/>
<path d="M57.3598 120.69L56.8298 120.81C57.6298 122.35 54.6898 122.2 53.8998 122.5C53.2798 122.74 53.4198 121.57 52.7798 121.74C52.4298 121.83 51.7798 122.01 51.7798 121.49C51.7098 120.7 50.3098 118.19 51.9798 118.08C52.6398 118.03 51.9798 116.96 52.6598 116.9C53.4998 116.84 56.0898 115.43 56.0398 117.16L56.5698 117.04C56.8098 118.26 57.0798 119.47 57.3598 120.69Z" fill="white"/>
<path d="M57.9 127.59L57.36 127.67C58.03 129.26 55.1 128.87 54.3 129.11C53.66 129.3 53.89 128.11 53.24 128.26C52.89 128.32 52.24 128.45 52.24 127.93C52.24 127.14 51.04 124.52 52.71 124.54C53.38 124.54 52.82 123.42 53.49 123.43C54.34 123.43 57.02 122.24 56.83 123.96L57.37 123.89L57.9 127.59Z" fill="white"/>
<path d="M58.2598 134.21L57.7199 134.27C58.3499 135.89 55.4398 135.42 54.6198 135.63C53.9798 135.8 54.2498 134.63 53.6198 134.75C53.2698 134.81 52.6198 134.92 52.6198 134.39C52.6198 133.6 51.5098 130.95 53.1798 131.02C53.8498 131.02 53.3198 129.91 53.9898 129.93C54.8398 129.93 57.5598 128.84 57.3198 130.55L57.8598 130.49C58.0098 131.77 58.1198 132.97 58.2598 134.21Z" fill="white"/>
<path d="M58.8799 141.61H58.3299C58.8899 143.25 56.0099 142.66 55.1799 142.84C54.5299 142.99 54.8499 141.84 54.1799 141.92C53.8299 141.92 53.1799 142.04 53.1799 141.52C53.1799 140.73 52.1799 138.04 53.8799 138.17C54.5499 138.23 54.0699 137.07 54.7299 137.11C55.5799 137.18 58.3399 136.17 58.0399 137.87H58.5799C58.6899 139.12 58.7799 140.36 58.8799 141.61Z" fill="white"/>
<path d="M47.5599 146.03H47.0099C47.4599 144.33 44.5499 145.14 43.6999 145.03C43.0199 144.93 43.4299 146.03 42.6999 146.03C42.3399 146.03 41.6499 146.03 41.6999 146.51C41.7999 147.31 40.9699 150.11 42.6999 149.85C43.3799 149.75 42.9699 150.96 43.6999 150.85C44.5499 150.73 47.4499 151.55 47.0199 149.85H47.5699C47.5499 148.56 47.5499 147.29 47.5599 146.03Z" fill="white"/>
<path d="M47.5701 139.36H47.0101C47.4301 137.65 44.5401 138.51 43.6801 138.36C43.0101 138.27 43.4301 139.36 42.7501 139.36C42.3801 139.36 41.7001 139.36 41.7501 139.85C41.8701 140.64 41.0901 143.46 42.7501 143.17C43.4201 143.06 43.0401 144.28 43.7501 144.17C44.6001 144.03 47.5101 144.8 47.0401 143.1H47.6001L47.5701 139.36Z" fill="white"/>
<path d="M47.5198 156.42H47.0098C47.4498 158.12 44.5498 157.3 43.6998 157.42C43.0198 157.51 43.4298 156.42 42.7498 156.42C42.3898 156.42 41.6998 156.42 41.7498 155.94C41.8698 155.14 41.0498 152.33 42.7498 152.6C43.4298 152.71 43.0298 151.49 43.7498 151.6C44.5998 151.72 47.4998 150.92 47.0598 152.6H47.6098C47.5298 153.89 47.5198 155.16 47.5198 156.42Z" fill="white"/>
<path d="M47.4897 163.08H46.9297C47.3397 164.79 44.4497 163.91 43.5997 164.02C42.9197 164.1 43.3497 163.02 42.6697 163.02C42.3097 163.02 41.6197 163.02 41.6697 162.52C41.7997 161.73 41.0397 158.91 42.7297 159.21C43.3997 159.33 43.0297 158.11 43.7297 158.21C44.5797 158.35 47.4997 157.61 47.0197 159.3H47.5797L47.4897 163.08Z" fill="white"/>
<path d="M47.5296 169.77H46.9696C47.3596 171.48 44.4796 170.57 43.6196 170.66C42.9496 170.73 43.3896 169.66 42.7096 169.66C42.3496 169.66 41.6596 169.66 41.7096 169.15C41.8496 168.36 41.1296 165.53 42.8096 165.85C43.4796 165.98 43.1196 164.75 43.8096 164.85C44.6596 165 47.5796 164.3 47.0796 165.98H47.6396C47.6196 167.19 47.5696 168.45 47.5296 169.77Z" fill="white"/>
<path d="M46.9397 176.57H46.3797C46.7697 178.28 43.8897 177.39 43.0397 177.49C42.3597 177.57 42.7997 176.49 42.1197 176.49C41.7497 176.49 41.0697 176.49 41.1197 175.99C41.2597 175.19 40.5098 172.37 42.1998 172.68C42.8698 172.8 42.4998 171.58 43.1998 171.68C44.0498 171.83 46.9697 171.1 46.4797 172.79H47.0398C47.0098 174.04 47.0097 175.31 46.9397 176.57Z" fill="white"/>
<path d="M46.5801 183.67H46.0101C46.4201 185.38 43.5301 184.51 42.6801 184.61C42.0001 184.7 42.4301 183.61 41.7501 183.61C41.3901 183.61 40.7001 183.61 40.7501 183.12C40.8701 182.32 40.1101 179.5 41.7501 179.8C42.4301 179.92 42.0501 178.7 42.7501 178.8C43.6001 178.95 46.5201 178.2 46.0401 179.89H46.6001L46.5801 183.67Z" fill="white"/>
<path d="M46.0099 190.65H45.4499C45.7799 192.37 42.9399 191.37 42.0799 191.44C41.3999 191.44 41.8799 190.44 41.1999 190.37C40.8299 190.37 40.1499 190.37 40.2599 189.83C40.4199 189.04 39.7799 186.18 41.4499 186.56C42.1199 186.71 41.7999 185.47 42.4499 185.62C43.2899 185.8 46.2399 185.18 45.6899 186.85H46.2399C46.1499 188.12 46.0599 189.39 46.0099 190.65Z" fill="white"/>
<path d="M45.2899 197.44H44.7298C45.0698 199.17 42.2199 198.18 41.3599 198.25C40.6799 198.31 41.1599 197.25 40.4699 197.19C40.1099 197.19 39.4699 197.19 39.5299 196.66C39.6799 195.87 39.0299 193.01 40.6999 193.38C41.3699 193.52 41.0399 192.29 41.6999 192.38C42.5499 192.55 45.4899 191.91 44.9499 193.59H45.4999C45.4399 194.91 45.3599 196.17 45.2899 197.44Z" fill="white"/>
<path d="M44.2101 204.26H43.6501C44.0101 205.99 41.1501 205.02 40.2901 205.1C39.6101 205.16 40.0701 204.1 39.3901 204.04C39.0301 204.04 38.3401 204.04 38.4401 203.51C38.5901 202.72 37.9201 199.87 39.5901 200.22C40.2601 200.36 39.9201 199.13 40.5901 199.22C41.4301 199.39 44.3701 198.73 43.8401 200.41H44.4001C44.3401 201.77 44.2701 202.99 44.2101 204.26Z" fill="white"/>
<path d="M43.4698 211.03H42.9098C43.2398 212.76 40.3998 211.76 39.5398 211.83C38.8598 211.83 39.3398 210.77 38.6598 210.75C38.2898 210.75 37.6598 210.75 37.7098 210.21C37.8798 209.42 37.2398 206.56 38.9098 206.94C39.5698 207.08 39.2498 205.85 39.9098 205.99C40.7598 206.17 43.7098 205.55 43.1498 207.23H43.7098C43.6298 208.49 43.5498 209.77 43.4698 211.03Z" fill="white"/>
<path d="M42.4197 217.97L41.8697 217.92C42.1297 219.66 39.3197 218.55 38.4597 218.58C37.7797 218.58 38.2997 217.52 37.6197 217.48C37.2597 217.48 36.5697 217.42 36.6997 216.9C36.8897 216.11 36.3697 213.23 38.0197 213.67C38.6797 213.84 38.4097 212.59 39.0697 212.76C39.9097 212.97 42.8797 212.46 42.2597 214.12L42.8197 214.18C42.6797 215.44 42.5497 216.71 42.4197 217.97Z" fill="white"/>
<path d="M41.2297 224.89L40.6697 224.81C40.8797 226.57 38.1097 225.37 37.2497 225.38C36.5697 225.38 37.1297 224.31 36.4497 224.24C36.0797 224.24 35.3997 224.15 35.5397 223.64C35.7597 222.86 35.3197 219.95 36.9597 220.44C37.6197 220.64 37.3897 219.38 38.0397 219.57C38.8697 219.81 41.8597 219.39 41.1897 221.03L41.7397 221.11C41.5697 222.37 41.3897 223.63 41.2297 224.89Z" fill="white"/>
<path d="M39.7399 231.6H39.1899C39.4699 233.35 36.6499 232.27 35.7899 232.31C35.1099 232.31 35.6199 231.25 34.9399 231.21C34.5799 231.21 33.8899 231.21 34.0099 230.64C34.1999 229.85 33.6399 226.96 35.2899 227.39C35.9599 227.55 35.6699 226.3 36.2899 226.46C37.1399 226.67 40.0999 226.12 39.4999 227.79L40.0499 227.85C40.0099 229.06 39.8599 230.33 39.7399 231.6Z" fill="white"/>
<path d="M38.5197 238.29H37.9597C38.2897 240.04 35.4497 239.02 34.5797 239.08C33.8997 239.08 34.3897 238.02 33.7097 238C33.3397 238 32.6597 238 32.7697 237.45C32.9297 236.66 32.3097 233.77 33.9797 234.16C34.6397 234.31 34.3297 233.06 34.9797 233.16C35.8297 233.35 38.7797 232.74 38.2197 234.42H38.7697C38.6897 235.77 38.5997 237.02 38.5197 238.29Z" fill="white"/>
<path d="M37.0096 245.28L36.4597 245.23C36.7497 246.98 33.9296 245.91 33.0596 245.95C32.3796 245.95 32.8897 244.89 32.2097 244.86C31.8397 244.86 31.1596 244.81 31.2796 244.29C31.4596 243.5 30.8897 240.61 32.5497 241.02C33.2097 241.19 32.9197 239.93 33.5497 240.09C34.3897 240.3 37.3496 239.74 36.7596 241.41H37.3196C37.1996 242.77 37.0896 244.01 37.0096 245.28Z" fill="white"/>
<path d="M35.9299 252.17H35.3699C35.6399 253.92 32.8299 252.81 31.9699 252.85C31.2899 252.85 31.8099 251.79 31.1299 251.74C30.7699 251.74 30.0799 251.69 30.2099 251.17C30.3899 250.38 29.8599 247.48 31.5199 247.91C32.1799 248.09 31.8999 246.83 32.5199 247C33.3599 247.21 36.3299 246.69 35.7199 248.35L36.2699 248.41C36.1799 249.63 36.0099 250.9 35.9299 252.17Z" fill="white"/>
<path d="M34.1799 259.05L33.6399 258.95C33.7599 260.72 31.0499 259.38 30.1899 259.35C29.5099 259.35 30.1199 258.27 29.4399 258.17C29.0799 258.17 28.4399 258.03 28.5699 257.52C28.8199 256.75 28.5699 253.82 30.1399 254.39C30.7899 254.61 30.6099 253.34 31.2599 253.56C32.0799 253.84 35.0799 253.56 34.3299 255.18L34.8799 255.28C34.6499 256.53 34.4099 257.77 34.1799 259.05Z" fill="white"/>
<path d="M32.3699 265.59L31.8299 265.48C31.8999 267.25 29.2299 265.84 28.3699 265.78C27.6899 265.78 28.3699 264.71 27.6499 264.59C27.2999 264.53 26.6499 264.42 26.7999 263.92C27.0699 263.15 26.8599 260.21 28.4599 260.82C29.0999 261.07 28.9599 259.82 29.5999 260.03C30.4099 260.33 33.4199 260.14 32.5999 261.73L33.1499 261.85C32.8999 263.09 32.6399 264.34 32.3699 265.59Z" fill="white"/>
<path d="M30.1601 272.1L29.62 271.97C29.62 273.74 27.0201 272.22 26.1601 272.13C25.4801 272.06 26.1601 271.06 25.4901 270.91C25.1401 270.83 24.4901 270.7 24.6701 270.2C24.9701 269.45 24.8701 266.5 26.4501 267.2C27.0701 267.47 26.99 266.2 27.62 266.45C28.42 266.79 31.4301 266.72 30.5701 268.27L31.1101 268.41C30.8001 269.63 30.4801 270.87 30.1601 272.1Z" fill="white"/>
<path d="M29.3396 32.32L28.8096 32.48C29.7396 33.98 26.7196 34.06 25.9396 34.43C25.3296 34.73 25.3796 33.53 24.7396 33.75C24.3996 33.88 23.7396 34.11 23.6696 33.59C23.5296 32.8 21.9196 30.36 23.6096 30.11C24.2796 30.01 23.5396 28.98 24.2196 28.87C25.0696 28.74 27.5996 27.1 27.6796 28.87L28.2196 28.7C28.5896 29.9 29.0096 31.11 29.3396 32.32Z" fill="white"/>
<path d="M31.0101 38.98L30.4801 39.15C31.4201 40.64 28.4001 40.75 27.6301 41.15C26.8601 41.55 27.0601 40.24 26.4201 40.48C26.0801 40.6 25.4201 40.84 25.3401 40.32C25.2001 39.53 23.5701 37.1 25.2601 36.84C25.9401 36.73 25.1901 35.7 25.8601 35.59C26.7101 35.45 29.2301 33.8 29.3301 35.59L29.8601 35.43C30.2801 36.57 30.6601 37.77 31.0101 38.98Z" fill="white"/>
<path d="M33.0596 45.77L32.5296 45.94C33.5296 47.42 30.4696 47.55 29.6996 47.94C29.0896 48.24 29.1196 47.04 28.4796 47.27C28.1396 47.4 27.4796 47.65 27.4096 47.12C27.2696 46.33 25.6096 43.92 27.2996 43.65C27.9696 43.54 27.2196 42.51 27.8896 42.39C28.7396 42.25 31.2496 40.57 31.3596 42.33L31.8896 42.16L33.0596 45.77Z" fill="white"/>
<path d="M34.8098 52.59L34.2698 52.74C35.1498 54.26 32.1398 54.25 31.3498 54.6C30.7198 54.88 30.8098 53.67 30.1598 53.88C29.8098 53.99 29.1598 54.21 29.0898 53.68C28.9898 52.89 27.4398 50.4 29.1398 50.2C29.8198 50.12 29.1398 49.06 29.7898 48.98C30.6498 48.87 33.2198 47.31 33.2498 49.07L33.7898 48.92L34.8098 52.59Z" fill="white"/>
<path d="M36.3997 59.22L35.8597 59.37C36.7597 60.89 33.7396 60.91 32.9496 61.26C32.3296 61.54 32.4096 60.34 31.7596 60.55C31.4196 60.66 30.7596 60.88 30.6896 60.36C30.5796 59.56 29.0196 57.09 30.6896 56.88C31.3596 56.79 30.6896 55.73 31.3196 55.65C32.1796 55.53 34.7496 53.96 34.7896 55.72L35.3297 55.56C35.6997 56.77 36.0097 58 36.3997 59.22Z" fill="white"/>
<path d="M37.6397 66.01L37.0997 66.17C38.0097 67.68 34.9897 67.72 34.2097 68.08C33.5897 68.36 33.6597 67.16 33.0097 67.37C32.6597 67.49 32.0097 67.71 31.9397 67.19C31.8197 66.39 30.2397 63.92 31.9397 63.7C32.6097 63.61 31.8897 62.56 32.5597 62.47C33.4197 62.35 35.9797 60.75 36.0297 62.52L36.5697 62.36C36.9197 63.58 37.2797 64.77 37.6397 66.01Z" fill="white"/>
<path d="M39.1799 72.6399L38.6399 72.79C39.5299 74.32 36.5099 74.31 35.7199 74.66C35.0899 74.94 35.1799 73.73 34.5299 73.94C34.1899 74.05 33.5299 74.27 33.4599 73.74C33.3599 72.94 31.8099 70.4499 33.5099 70.2499C34.1899 70.1699 33.5099 69.1099 34.1499 69.0299C35.0099 68.9199 37.5899 67.36 37.6199 69.12L38.1599 68.97C38.4899 70.2 38.8299 71.4199 39.1799 72.6399Z" fill="white"/>
<path d="M40.49 79.55L39.94 79.68C40.77 81.24 37.76 81.11 36.94 81.43C36.31 81.68 36.44 80.48 35.79 80.67C35.44 80.76 34.79 80.95 34.73 80.43C34.65 79.62 33.19 77.07 34.9 76.94C35.58 76.88 34.9 75.79 35.59 75.73C36.45 75.66 39.09 74.2 39.05 75.96L39.59 75.84C39.9 77.07 40.19 78.31 40.49 79.55Z" fill="white"/>
<path d="M41.6499 86.47L41.0998 86.58C41.8798 88.17 38.8698 87.95 38.0998 88.24C37.4598 88.47 37.6298 87.24 36.9698 87.44C36.6098 87.53 35.9698 87.7 35.9098 87.17C35.8598 86.36 34.4798 83.76 36.1998 83.68C36.8798 83.68 36.1998 82.54 36.9198 82.5C37.7898 82.5 40.4598 81.07 40.3798 82.84L40.9198 82.73C41.1298 83.97 41.3899 85.22 41.6499 86.47Z" fill="white"/>
<path d="M42.4699 93.3L41.9299 93.43C42.7799 94.99 39.7599 94.9 38.9299 95.22C38.2999 95.48 38.4199 94.28 37.7599 94.47C37.4099 94.57 36.7599 94.77 36.6999 94.24C36.6099 93.43 35.1299 90.89 36.8299 90.74C37.5099 90.68 36.8299 89.59 37.5099 89.53C38.3699 89.44 40.9799 87.95 40.9699 89.72L41.5099 89.58L42.4699 93.3Z" fill="white"/>
<path d="M43.53 100.01L42.99 100.16C43.88 101.7 40.86 101.67 40.06 102.02C39.44 102.29 39.53 101.09 38.88 101.29C38.53 101.4 37.88 101.61 37.81 101.08C37.7 100.28 36.16 97.77 37.86 97.58C38.54 97.5 37.86 96.43 38.51 96.35C39.37 96.24 41.95 94.69 41.98 96.46L42.52 96.32C42.85 97.55 43.19 98.77 43.53 100.01Z" fill="white"/>
<path d="M44.3898 107.11L43.8498 107.25C44.7098 108.81 41.6898 108.73 40.8498 109.06C40.2198 109.32 40.3298 108.11 39.6798 108.3C39.3298 108.41 38.6798 108.61 38.6098 108.08C38.5198 107.27 37.0198 104.73 38.7298 104.57C39.4098 104.51 38.7298 103.42 39.3998 103.35C40.2598 103.27 42.8698 101.76 42.8598 103.53L43.3998 103.4C43.7598 104.64 44.0698 105.88 44.3898 107.11Z" fill="white"/>
<path d="M45.6799 113.97L45.1299 114.1C45.9699 115.67 42.9499 115.55 42.1299 115.87C41.4999 116.12 41.6299 114.92 40.9699 115.1C40.6199 115.2 39.9699 115.4 39.9099 114.86C39.8199 114.06 38.3599 111.5 40.0699 111.36C40.7499 111.31 40.0699 110.21 40.7499 110.15C41.6199 110.07 44.2399 108.6 44.2199 110.37L44.7599 110.24C45.0699 111.49 45.3699 112.77 45.6799 113.97Z" fill="white"/>
<path d="M46.3099 121.03L45.7499 121.12C46.4599 122.75 43.46 122.38 42.64 122.64C41.98 122.84 42.21 121.64 41.54 121.78C41.18 121.84 40.54 121.98 40.54 121.45C40.54 120.64 39.28 117.97 40.99 117.97C41.67 117.97 41.09 116.83 41.77 116.82C42.64 116.82 45.38 115.56 45.2 117.33L45.76 117.24C45.91 118.51 46.1099 119.77 46.3099 121.03Z" fill="white"/>
<path d="M46.7599 127.77L46.2099 127.84C46.8699 129.49 43.8799 129.04 43.0499 129.27C42.3899 129.46 42.6499 128.27 41.9799 128.38C41.6199 128.44 40.9799 128.56 40.9799 128.03C40.9799 127.22 39.8099 124.51 41.5199 124.56C42.1999 124.56 41.6499 123.42 42.3299 123.44C43.1999 123.44 45.9699 122.28 45.7499 124.04L46.3099 123.97C46.4299 125.27 46.5999 126.54 46.7599 127.77Z" fill="white"/>
<path d="M47.4799 135.38H46.9299C47.5199 137.05 44.5499 136.48 43.7099 136.68C43.0499 136.84 43.3599 135.68 42.7099 135.75C42.3499 135.75 41.7099 135.89 41.7099 135.35C41.7099 134.54 40.7099 131.79 42.3899 131.91C43.0699 131.96 42.5599 130.78 43.2399 130.82C44.1099 130.87 46.9299 129.82 46.6399 131.56L47.1899 131.51L47.4799 135.38Z" fill="white"/>
<path d="M36.0097 149.58H35.4497C35.9097 147.88 32.9997 148.66 32.1497 148.58C31.4697 148.48 31.8697 149.58 31.1497 149.58C30.7897 149.58 30.1497 149.52 30.1497 150.05C30.2497 150.84 29.3997 153.64 31.0897 153.4C31.7697 153.3 31.3597 154.51 32.0297 154.4C32.8897 154.28 35.7797 155.13 35.3597 153.4H35.9097C35.9497 152.11 36.0097 150.85 36.0097 149.58Z" fill="white"/>
<path d="M36.0097 142.92H35.4497C35.8797 141.22 32.9797 142.06 32.1297 141.92C31.4497 141.83 31.8697 142.92 31.1897 142.92C30.8197 142.92 30.1897 142.92 30.1897 143.41C30.2997 144.2 29.5097 147.02 31.1897 146.74C31.8697 146.63 31.4797 147.84 32.1897 147.74C33.0497 147.6 35.9597 148.39 35.4997 146.74H36.0597C36.0597 145.45 36.0097 144.19 36.0097 142.92Z" fill="white"/>
<path d="M35.8797 159.98H35.3197C35.7497 161.69 32.8497 160.85 31.9997 160.98C31.3197 161.07 31.7397 159.98 31.0597 159.98C30.6897 159.98 30.0097 159.98 30.0597 159.5C30.1797 158.7 29.3797 155.89 31.0597 156.16C31.7297 156.28 31.3397 155.06 32.0597 155.16C32.9097 155.29 35.8197 154.5 35.3597 156.16H35.9197C35.8997 157.45 35.8897 158.71 35.8797 159.98Z" fill="white"/>
<path d="M35.81 166.63H35.25C35.64 168.34 32.76 167.45 31.91 167.55C31.23 167.63 31.67 166.55 30.99 166.55C30.62 166.55 29.94 166.55 29.99 166.05C30.12 165.26 29.38 162.43 31.06 162.74C31.73 162.86 31.37 161.64 32.06 161.74C32.91 161.89 35.83 161.16 35.34 162.85H35.9C35.88 164.1 35.84 165.37 35.81 166.63Z" fill="white"/>
<path d="M35.8 173.27H35.25C35.62 174.99 32.75 174.05 31.89 174.14C31.21 174.21 31.67 173.14 30.99 173.14C30.62 173.14 29.94 173.14 29.99 172.63C30.13 171.84 29.43 169 31.11 169.33C31.78 169.47 31.43 168.24 32.11 168.33C32.96 168.49 35.89 167.8 35.38 169.48H35.94C35.91 170.77 35.86 172.01 35.8 173.27Z" fill="white"/>
<path d="M35.1698 180.12H34.6098C34.9898 181.83 32.1198 180.92 31.2598 181.01C30.5798 181.09 31.0298 180.01 30.3498 180.01C29.9798 180.01 29.3498 180.01 29.3498 179.5C29.4898 178.71 28.7598 175.88 30.4398 176.2C31.1098 176.33 30.7598 175.1 31.4398 175.2C32.2898 175.35 35.2198 174.64 34.7098 176.33H35.2698C35.2498 177.6 35.2098 178.86 35.1698 180.12Z" fill="white"/>
<path d="M34.7697 187.22H34.2097C34.6097 188.93 31.7197 188.04 30.8697 188.14C30.1897 188.22 30.6297 187.14 29.9497 187.14C29.5797 187.14 28.8997 187.14 28.9497 186.64C29.0897 185.85 28.3397 183.02 30.0197 183.33C30.6997 183.45 30.3297 182.23 31.0197 182.33C31.8797 182.48 34.7997 181.75 34.3097 183.44H34.8597C34.8397 184.69 34.7997 185.95 34.7697 187.22Z" fill="white"/>
<path d="M34.1197 194.2H33.5597C33.8797 195.93 31.0497 194.91 30.1897 194.97C29.4997 194.97 29.9897 193.97 29.3097 193.89C28.9497 193.89 28.2597 193.89 28.3697 193.35C28.5397 192.56 27.9197 189.7 29.5897 190.08C30.2497 190.24 29.9397 189 30.5897 189.15C31.4297 189.34 34.3897 188.74 33.8197 190.41H34.3797C34.2997 191.67 34.2097 192.93 34.1197 194.2Z" fill="white"/>
<path d="M33.3799 200.98H32.8299C33.1599 202.71 30.3099 201.71 29.4499 201.78C28.7699 201.78 29.2499 200.78 28.5699 200.71C28.2099 200.71 27.5199 200.71 27.6299 200.17C27.7899 199.38 27.1499 196.52 28.8199 196.9C29.4899 197.05 29.1699 195.81 29.8199 195.9C30.6699 196.09 33.6099 195.47 33.0599 197.14H33.6099C33.5499 198.45 33.4699 199.77 33.3799 200.98Z" fill="white"/>
<path d="M32.2597 207.77H31.6997C32.0497 209.5 29.1897 208.52 28.3397 208.59C27.6597 208.65 28.1297 207.59 27.4497 207.52C27.0797 207.52 26.3997 207.52 26.4997 206.99C26.6597 206.2 25.9997 203.34 27.6697 203.71C28.3397 203.85 28.0097 202.62 28.6697 202.71C29.5197 202.88 32.4597 202.24 31.9197 203.92H32.4797C32.4097 205.26 32.3297 206.53 32.2597 207.77Z" fill="white"/>
<path d="M31.4797 214.55H30.9197C31.2397 216.29 28.3997 215.27 27.5397 215.33C26.8597 215.33 27.3497 214.28 26.6697 214.25C26.2997 214.25 25.6197 214.25 25.7297 213.7C25.8997 212.91 25.2797 210.05 26.9397 210.43C27.6097 210.59 27.2997 209.35 27.9397 209.5C28.7797 209.68 31.7297 209.08 31.1697 210.75H31.7197L31.4797 214.55Z" fill="white"/>
<path d="M30.3799 221.49L29.8299 221.43C30.0799 223.18 27.2899 222.05 26.4199 222.08C25.7399 222.08 26.2699 221.02 25.5899 220.97C25.2299 220.97 24.5399 220.9 24.6699 220.38C24.8699 219.6 24.3599 216.71 26.0099 217.16C26.6699 217.34 26.4099 216.09 27.0699 216.26C27.9099 216.48 30.8799 215.99 30.2499 217.64L30.8099 217.7C30.6599 218.97 30.5199 220.23 30.3799 221.49Z" fill="white"/>
<path d="M29.15 228.4L28.5899 228.32C28.7899 230.08 26.03 228.86 25.17 228.86C24.49 228.86 25.0499 227.8 24.3699 227.73C24.0099 227.73 23.3699 227.63 23.4699 227.11C23.6999 226.34 23.2799 223.43 24.9099 223.93C25.5699 224.13 25.3399 222.87 25.9999 223.06C26.8299 223.31 29.81 222.91 29.13 224.54L29.6899 224.62C29.5033 225.88 29.3233 227.14 29.15 228.4Z" fill="white"/>
<path d="M27.6198 235.11L27.0699 235.05C27.3399 236.8 24.5299 235.7 23.6699 235.74C22.9799 235.74 23.4999 234.68 22.8199 234.64C22.4599 234.64 21.7699 234.58 21.8999 234.06C22.0899 233.27 21.5399 230.38 23.1999 230.81C23.8599 230.98 23.5798 229.73 24.2498 229.9C25.0898 230.11 28.0499 229.58 27.4399 231.24L27.9998 231.3C27.8698 232.57 27.7398 233.84 27.6198 235.11Z" fill="white"/>
<path d="M26.35 241.77H25.8C26.11 243.51 23.28 242.47 22.42 242.53C21.73 242.53 22.23 241.47 21.55 241.44C21.18 241.44 20.5 241.44 20.61 240.89C20.78 240.1 20.17 237.21 21.84 237.61C22.5 237.76 22.2 236.51 22.84 236.67C23.69 236.86 26.64 236.26 26.07 237.94L26.62 237.99C26.55 239.24 26.45 240.51 26.35 241.77Z" fill="white"/>
<path d="M24.77 248.77H24.22C24.5 250.52 21.68 249.43 20.82 249.47C20.14 249.47 20.65 248.41 19.97 248.37C19.61 248.37 18.97 248.32 19.04 247.8C19.23 247.01 18.68 244.11 20.33 244.54C21 244.71 20.71 243.45 21.38 243.62C22.22 243.83 25.18 243.28 24.58 244.95L25.13 245.01L24.77 248.77Z" fill="white"/>
<path d="M23.6699 255.65L23.1199 255.59C23.3799 257.35 20.5799 256.22 19.7099 256.26C19.0299 256.26 19.5599 255.19 18.8799 255.14C18.5199 255.14 17.8299 255.08 17.9599 254.56C18.1499 253.77 17.6399 250.87 19.2899 251.31C19.9499 251.49 19.6799 250.23 20.3399 250.41C21.1799 250.62 24.1499 250.12 23.5299 251.78L24.0799 251.84C23.9399 253.11 23.8099 254.38 23.6699 255.65Z" fill="white"/>
<path d="M21.8899 262.51L21.3398 262.41C21.4498 264.18 18.7499 262.83 17.8899 262.79C17.2099 262.79 17.8199 261.71 17.1499 261.61C16.7899 261.56 16.1498 261.46 16.2798 260.95C16.5398 260.18 16.2798 257.25 17.8698 257.83C18.5198 258.06 18.3499 256.83 18.9999 257.01C19.8199 257.3 22.8198 257.01 22.0598 258.64L22.6099 258.75C22.3599 260 22.1199 261.26 21.8899 262.51Z" fill="white"/>
<path d="M20.0101 269.05L19.4701 268.93C19.5301 270.7 16.8701 269.28 16.0101 269.21C15.3301 269.21 16.0101 268.14 15.3001 268.02C14.9401 267.95 14.3001 267.84 14.4501 267.34C14.7301 266.57 14.5301 263.63 16.1301 264.26C16.7701 264.5 16.6401 263.26 17.2701 263.47C18.0801 263.78 21.0901 263.6 20.2701 265.19L20.8101 265.31C20.5801 266.55 20.3001 267.77 20.0101 269.05Z" fill="white"/>
<path d="M18.4899 35.77L17.9599 35.93C18.8799 37.43 15.8699 37.5 15.0799 37.86C14.4699 38.15 14.5298 36.95 13.8798 37.18C13.5398 37.3 12.8798 37.53 12.8098 37.01C12.6798 36.21 11.0798 33.77 12.8098 33.53C13.4798 33.43 12.7498 32.39 13.4198 32.29C14.2798 32.16 16.8198 30.54 16.8898 32.29L17.4198 32.13C17.7598 33.34 18.1199 34.55 18.4899 35.77Z" fill="white"/>
<path d="M20.16 42.44L19.63 42.6C20.56 44.1 17.54 44.19 16.77 44.6C16 45.01 16.2 43.69 15.56 43.92C15.22 44.04 14.56 44.28 14.49 43.75C14.35 42.96 12.73 40.53 14.43 40.28C15.1 40.17 14.36 39.14 15.03 39.03C15.89 38.9 18.41 37.26 18.5 39.03L19.01 38.77C19.41 40.02 19.78 41.23 20.16 42.44Z" fill="white"/>
<path d="M22.13 49.26L21.6 49.43C22.54 50.92 19.53 51.03 18.75 51.43C18.14 51.73 18.18 50.53 17.54 50.76C17.2 50.88 16.54 51.12 16.47 50.6C16.33 49.81 14.69 47.39 16.38 47.12C17.05 47.02 16.3 45.99 16.98 45.88C17.83 45.73 20.35 44.08 20.45 45.88L20.98 45.71C21.36 46.85 21.74 48.06 22.13 49.26Z" fill="white"/>
<path d="M23.8296 56.06L23.2896 56.21C24.1696 57.74 21.1496 57.71 20.3596 58.05C19.7296 58.32 19.8297 57.13 19.1797 57.33C18.8297 57.44 18.1796 57.65 18.1096 57.12C18.0096 56.33 16.4797 53.83 18.1797 53.64C18.8597 53.57 18.1797 52.5 18.8297 52.42C19.6897 52.32 22.2797 50.78 22.2997 52.54L22.8396 52.39L23.8296 56.06Z" fill="white"/>
<path d="M25.3801 62.71L24.84 62.86C25.73 64.38 22.7101 64.38 21.9201 64.72C21.3001 65 21.3901 63.8 20.7401 64.01C20.3901 64.12 19.7401 64.33 19.6701 63.81C19.5601 63.01 18.0101 60.52 19.6701 60.33C20.3501 60.25 19.6701 59.18 20.3201 59.1C21.1801 58.99 23.75 57.43 23.78 59.19L24.3201 59.04L25.3801 62.71Z" fill="white"/>
<path d="M26.5699 69.51L26.0399 69.66C26.9299 71.18 23.9199 71.2 23.1299 71.55C22.5099 71.83 22.5899 70.63 21.9399 70.84C21.5899 70.95 20.9399 71.17 20.8699 70.65C20.7599 69.85 19.1899 67.37 20.8699 67.16C21.5499 67.08 20.8699 66.02 21.5099 65.93C22.3599 65.82 24.9299 64.24 24.9699 66L25.5099 65.85C25.8699 67.07 26.2199 68.29 26.5699 69.51Z" fill="white"/>
<path d="M28.0699 76.15L27.5299 76.29C28.4099 77.83 25.3899 77.8 24.5999 78.14C23.9799 78.41 24.0699 77.21 23.4199 77.42C23.0699 77.52 22.4199 77.74 22.3499 77.21C22.2499 76.41 20.7199 73.91 22.4199 73.72C23.0999 73.65 22.4199 72.58 23.0699 72.5C23.9299 72.4 26.5099 70.85 26.5399 72.62L27.0699 72.47C27.3999 73.7 27.7399 74.92 28.0699 76.15Z" fill="white"/>
<path d="M29.3396 83.06L28.7896 83.18C29.6096 84.75 26.5996 84.61 25.7896 84.92C25.1596 85.17 25.2996 83.92 24.6396 84.15C24.2896 84.24 23.6397 84.43 23.5797 83.9C23.5097 83.1 22.0696 80.54 23.7796 80.41C24.4596 80.41 23.7796 79.27 24.4796 79.22C25.3396 79.15 27.9796 77.7 27.9396 79.47L28.4796 79.34C28.7596 80.58 29.0096 81.82 29.3396 83.06Z" fill="white"/>
<path d="M30.4498 89.99L29.9098 90.09C30.6798 91.69 27.6698 91.45 26.9098 91.74C26.2598 91.97 26.4398 90.74 25.7798 90.93C25.4198 91.01 24.7798 91.18 24.7298 90.65C24.6798 89.84 23.3198 87.23 25.0298 87.16C25.7098 87.16 25.0298 86.02 25.7698 85.99C26.6298 85.99 29.3198 84.58 29.2198 86.35L29.7598 86.24C30.0098 87.49 30.1998 88.77 30.4498 89.99Z" fill="white"/>
<path d="M31.2296 96.82L30.6896 96.95C31.5296 98.51 28.5096 98.4 27.6896 98.72C27.0596 98.98 27.1896 97.78 26.5296 97.96C26.1796 98.06 25.5296 98.26 25.4696 97.73C25.3796 96.92 23.9096 94.37 25.6196 94.23C26.2996 94.17 25.6196 93.08 26.2996 93.02C27.1696 92.94 29.7896 91.46 29.7696 93.23L30.3096 93.1L31.2296 96.82Z" fill="white"/>
<path d="M32.25 103.54L31.7101 103.69C32.5901 105.23 29.5601 105.19 28.7701 105.53C28.1401 105.8 28.24 104.59 27.59 104.79C27.24 104.9 26.5901 105.11 26.5201 104.58C26.4201 103.77 24.89 101.25 26.6 101.07C27.28 101 26.6 99.92 27.25 99.85C28.11 99.75 30.7 98.21 30.72 99.98L31.26 99.84L32.25 103.54Z" fill="white"/>
<path d="M33.0596 110.65L32.5196 110.78C33.3696 112.34 30.3496 112.24 29.5196 112.57C28.8896 112.83 29.0096 111.57 28.3496 111.81C27.9996 111.91 27.3496 112.11 27.2896 111.58C27.1996 110.77 25.7196 108.22 27.4296 108.07C28.1096 108.01 27.4296 106.92 28.1096 106.86C28.9696 106.78 31.5896 105.29 31.5696 107.06L32.1096 106.93C32.4496 108.17 32.7496 109.41 33.0596 110.65Z" fill="white"/>
<path d="M34.3098 117.51L33.7598 117.64C34.5898 119.21 31.5698 119.08 30.7598 119.39C30.1298 119.64 30.2598 118.39 29.5998 118.62C29.2498 118.71 28.5998 118.9 28.5398 118.37C28.4698 117.56 27.0198 115 28.7198 114.87C29.4098 114.87 28.7198 113.72 29.4198 113.66C30.2798 113.59 32.9198 112.13 32.8798 113.91L33.4198 113.78C33.7198 115.03 34.0098 116.27 34.3098 117.51Z" fill="white"/>
<path d="M34.89 124.58L34.34 124.66C35.04 126.3 32.04 125.91 31.21 126.16C30.56 126.36 30.79 125.16 30.12 125.29C29.77 125.36 29.12 125.5 29.12 124.96C29.12 124.15 27.87 121.47 29.58 121.49C30.27 121.49 29.69 120.34 30.37 120.34C31.24 120.34 33.99 119.1 33.8 120.87L34.36 120.79C34.51 122.05 34.7 123.32 34.89 124.58Z" fill="white"/>
<path d="M35.2999 131.36L34.7499 131.43C35.3999 133.08 32.4199 132.61 31.5799 132.84C30.9199 133.02 31.1899 131.84 30.5199 131.94C30.1599 132 29.5199 132.12 29.5199 131.58C29.5199 130.77 28.3699 128.06 30.0799 128.12C30.7699 128.12 30.2199 126.98 30.8999 127C31.7699 127 34.5499 125.86 34.3199 127.62L34.8699 127.56C35.0099 128.82 35.1499 130.09 35.2999 131.36Z" fill="white"/>
<path d="M36.0097 138.93L35.4497 138.98C36.0297 140.66 33.0697 140.07 32.2297 140.26C31.5597 140.41 31.8797 139.26 31.2297 139.32C30.8697 139.32 30.2297 139.46 30.2297 138.92C30.2297 138.11 29.2297 135.36 30.9297 135.49C31.6097 135.54 31.1197 134.35 31.7997 134.4C32.6597 134.46 35.4897 133.4 35.1797 135.16H35.7397C35.7697 136.39 35.8697 137.66 36.0097 138.93Z" fill="white"/>
</svg>
