<svg width="95" height="290" viewBox="0 0 95 290" fill="none" xmlns="http://www.w3.org/2000/svg">
<path d="M68.6301 156.56C68.6301 110.02 78.1501 66.21 94.9101 27.81L32.1801 0C11.6101 47.2 0.0100842 100.67 0.0100842 157.32C-0.105073 202.42 7.4597 247.21 22.3801 289.77L87.8601 267.64C75.0315 232.015 68.5237 194.424 68.6301 156.56Z" fill="#D8544F"/>
<path d="M4.53027 163.96H5.06027C4.58027 162.38 7.32027 163.03 8.12027 162.88C8.75027 162.77 8.41027 163.88 9.04027 163.79C9.38027 163.79 10.0403 163.71 9.98027 164.2C9.90027 164.95 10.7803 167.55 9.19027 167.36C8.55027 167.29 8.97027 168.41 8.34027 168.36C7.53027 168.27 4.85027 169.14 5.20027 167.53H4.68027L4.53027 163.96Z" fill="white"/>
<path d="M4.29004 157.77H4.81004C4.36004 156.19 7.10004 156.89 7.90004 156.77C8.53004 156.66 8.17004 157.77 8.81004 157.7C9.15004 157.7 9.81004 157.63 9.73004 158.12C9.64004 158.87 10.47 161.48 8.88004 161.27C8.24004 161.18 8.64004 162.27 8.01004 162.27C7.21004 162.17 4.50004 162.99 4.89004 161.38H4.36004C4.34004 160.1 4.32004 158.91 4.29004 157.77Z" fill="white"/>
<path d="M4.92031 173.68H5.44031C5.09031 175.29 7.78031 174.42 8.58031 174.51C9.22031 174.58 8.80031 173.51 9.43031 173.51C9.78031 173.51 10.4303 173.51 10.3303 173.03C10.2003 172.29 10.8603 169.63 9.33031 169.94C8.70031 170.06 9.03031 168.94 8.40031 169.03C7.61031 169.18 4.86031 168.53 5.34031 170.11H4.82031C4.83031 171.31 4.88031 172.5 4.92031 173.68Z" fill="white"/>
<path d="M5.18025 179.91H5.70025C5.38025 181.53 8.05025 180.61 8.85025 180.68C9.49025 180.73 9.05025 179.68 9.69025 179.68C10.0303 179.68 10.6903 179.68 10.5703 179.18C10.4303 178.45 11.0403 175.78 9.47025 176.12C8.85025 176.25 9.16025 175.12 8.53025 175.23C7.74025 175.39 4.98025 174.79 5.53025 176.36H5.01025L5.18025 179.91Z" fill="white"/>
<path d="M5.37033 186.12H5.89033C5.59033 187.73 8.25033 186.78 9.05033 186.84C9.69033 186.84 9.23033 185.84 9.87033 185.84C10.2103 185.84 10.8703 185.84 10.7503 185.33C10.6003 184.6 11.1703 181.92 9.61033 182.33C8.99033 182.48 9.28033 181.33 8.61033 181.46C7.82033 181.63 5.05033 181.07 5.61033 182.63H5.09033C5.20033 183.77 5.29033 184.94 5.37033 186.12Z" fill="white"/>
<path d="M6.16045 192.52H6.68045C6.37045 194.13 9.04045 193.2 9.84045 193.26C10.4804 193.31 10.0304 192.26 10.6704 192.26C11.0104 192.26 11.6704 192.26 11.5504 191.76C11.4004 191.02 12.0004 188.35 10.4304 188.7C9.81045 188.84 10.1104 187.7 9.48045 187.81C8.69045 187.98 5.93045 187.4 6.48045 188.97H5.96045C6.01045 190.15 6.09045 191.34 6.16045 192.52Z" fill="white"/>
<path d="M6.74031 199.15H7.26031C6.93031 200.76 9.61031 199.85 10.4103 199.92C11.0503 199.92 10.6003 198.92 11.2403 198.92C11.5803 198.92 12.2403 198.92 12.1303 198.42C11.9803 197.69 12.6003 195.02 11.0303 195.36C10.4103 195.49 10.7203 194.36 10.0903 194.47C9.30031 194.63 6.54031 194.03 7.09031 195.6H6.57031L6.74031 199.15Z" fill="white"/>
<path d="M7.54014 205.66H8.06014C7.81014 207.29 10.4401 206.25 11.2401 206.28C11.8801 206.28 11.3901 205.28 12.0301 205.28C12.3701 205.28 13.0301 205.23 12.8901 204.74C12.7101 204.01 13.2101 201.32 11.6601 201.74C11.0401 201.9 11.3001 200.74 10.6601 200.89C9.88014 201.09 7.10014 200.61 7.66014 202.16H7.14014C7.30014 203.3 7.42014 204.48 7.54014 205.66Z" fill="white"/>
<path d="M8.42029 211.99H8.94029C8.68029 213.62 11.3103 212.6 12.1203 212.64C12.7603 212.64 12.2803 211.64 12.9103 211.64C13.2503 211.64 13.9103 211.64 13.7803 211.11C13.6103 210.37 14.1203 207.68 12.5703 208.11C11.9503 208.27 12.2203 207.11 11.5703 207.26C10.9203 207.41 8.01029 206.95 8.57029 208.5H8.05029C8.19029 209.62 8.31029 210.77 8.42029 211.99Z" fill="white"/>
<path d="M9.66031 218.33H10.1803C9.91031 219.95 12.5503 218.95 13.3603 219C14.0003 219 13.5203 218 14.1603 218C14.5003 218 15.1603 218 15.0303 217.48C14.8603 216.74 15.4003 214.05 13.8403 214.48C13.2203 214.63 13.5003 213.48 12.8403 213.62C12.0503 213.81 9.28031 213.29 9.84031 214.84H9.32031C9.45031 215.96 9.56031 217.15 9.66031 218.33Z" fill="white"/>
<path d="M10.5904 224.64H11.1104C10.8604 226.27 13.4904 225.23 14.2904 225.26C14.9304 225.26 14.4404 224.26 15.0804 224.26C15.4204 224.26 16.0804 224.2 15.9404 223.72C15.7604 222.99 16.2604 220.29 14.7104 220.72C14.0904 220.88 14.3504 219.72 13.7104 219.87C12.9304 220.07 10.1504 219.59 10.7104 221.14H10.1904C10.3504 222.27 10.4704 223.45 10.5904 224.64Z" fill="white"/>
<path d="M11.8101 231.1L12.3301 231.03C12.1401 232.67 14.7201 231.53 15.5301 231.54C16.1701 231.54 15.6401 230.54 16.2801 230.47C16.6201 230.47 17.2801 230.38 17.1201 229.9C16.9201 229.17 17.3101 226.45 15.7801 226.9C15.1601 227.09 15.3801 225.9 14.7801 226.09C14.0101 226.32 11.2101 225.94 11.8401 227.47L11.3301 227.55C11.4801 228.77 11.6401 229.92 11.8101 231.1Z" fill="white"/>
<path d="M13.1603 237.53L13.6803 237.44C13.5403 239.09 16.0903 237.87 16.9003 237.85C17.5403 237.85 16.9803 236.85 17.6103 236.76C17.9503 236.76 18.6103 236.64 18.4403 236.17C18.2103 235.44 18.5203 232.71 17.0003 233.22C16.3903 233.43 16.5703 232.22 16.0003 232.44C15.2303 232.7 12.4203 232.44 13.1103 233.92L12.5903 234.01C12.7603 235.18 13.0103 236.36 13.1603 237.53Z" fill="white"/>
<path d="M14.7801 243.77L15.3001 243.71C15.0901 245.35 17.6901 244.24 18.5001 244.26C19.1401 244.26 18.6201 243.26 19.2601 243.2C19.6001 243.2 20.2601 243.12 20.1101 242.63C19.9101 241.9 20.3301 239.18 18.8001 239.63C18.1801 239.81 18.4101 238.63 17.8001 238.8C17.0201 239.02 14.2301 238.61 14.8501 240.15L14.3301 240.22C14.4801 241.4 14.6301 242.58 14.7801 243.77Z" fill="white"/>
<path d="M16.16 249.98L16.68 249.93C16.43 251.57 19.05 250.52 19.86 250.55C20.5 250.55 20.01 249.55 20.65 249.5C20.99 249.5 21.65 249.44 21.51 248.96C21.33 248.22 21.81 245.5 20.26 245.96C19.65 246.13 19.9 244.96 19.26 245.11C18.47 245.31 15.69 244.84 16.26 246.4L15.75 246.45C15.9 247.6 16.01 248.77 16.16 249.98Z" fill="white"/>
<path d="M17.8304 256.46L18.3504 256.4C18.1404 258.05 20.7404 256.95 21.5504 256.96C22.1904 256.96 21.6804 255.96 22.3104 255.9C22.6504 255.9 23.3104 255.83 23.1704 255.34C22.9704 254.61 23.4104 251.88 21.8704 252.34C21.2504 252.52 21.4804 251.34 20.8704 251.51C20.0904 251.72 17.3004 251.3 17.9204 252.85L17.4004 252.91C17.5404 254.09 17.6904 255.28 17.8304 256.46Z" fill="white"/>
<path d="M19.0601 262.88L19.5701 262.81C19.3801 264.46 21.9701 263.33 22.7801 263.33C23.4201 263.33 22.8901 262.33 23.5301 262.27C23.8701 262.27 24.5301 262.18 24.3701 261.7C24.1701 260.96 24.5701 258.23 23.0401 258.7C22.4201 258.88 22.6401 257.7 22.0401 257.88C21.2601 258.1 18.4601 257.72 19.0901 259.25L18.5801 259.33C18.7301 260.51 18.9001 261.7 19.0601 262.88Z" fill="white"/>
<path d="M20.9201 269.25L21.4301 269.14C21.4301 270.8 23.8601 269.46 24.6701 269.4C25.3101 269.4 24.6701 268.4 25.3301 268.27C25.6701 268.21 26.3301 268.1 26.1301 267.63C25.8601 266.92 26.0101 264.17 24.5501 264.77C23.9501 265.01 24.0701 263.77 23.4701 264.04C22.7101 264.33 19.9001 264.17 20.6501 265.65L20.1401 265.77C20.4101 266.92 20.6701 268.08 20.9201 269.25Z" fill="white"/>
<path d="M22.8402 275.32L23.3502 275.19C23.3502 276.85 25.7902 275.44 26.5902 275.36C27.2302 275.29 26.5902 274.36 27.2202 274.22C27.5602 274.14 28.2202 274.02 28.0002 273.56C27.7202 272.85 27.8202 270.09 26.3402 270.77C25.7502 271.02 25.8402 269.77 25.2502 270.07C24.5002 270.38 21.6802 270.3 22.4702 271.76L21.9702 271.89L22.8402 275.32Z" fill="white"/>
<path d="M25.1301 281.33L25.6301 281.18C25.6901 282.85 28.0801 281.34 28.8801 281.18C29.5101 281.09 28.8801 280.18 29.4601 280.01C29.7901 279.93 30.4601 279.78 30.2101 279.32C29.9001 278.63 29.8901 275.87 28.4401 276.56C27.8601 276.83 27.9001 275.63 27.3201 275.9C26.5801 276.24 23.7601 276.27 24.6201 277.7L24.1201 277.85C24.4601 279.04 24.8001 280.18 25.1301 281.33Z" fill="white"/>
<path d="M24.2202 35.77L24.7202 35.92C24.7902 34.28 27.1702 35.8 27.9602 35.92C28.6002 36.02 27.9602 36.92 28.5402 37.09C28.8702 37.17 29.5402 37.33 29.2802 37.78C28.9702 38.47 28.9302 41.2 27.4902 40.5C26.9102 40.23 26.9402 41.42 26.3602 41.14C25.6302 40.8 22.8102 40.73 23.6802 39.33L23.1802 39.17C23.5302 38.01 23.8702 36.87 24.2202 35.77Z" fill="white"/>
<path d="M26.0102 29.77L26.5102 29.93C26.6102 28.28 28.9602 29.85 29.7502 29.99C30.3802 30.1 29.6902 30.99 30.3102 31.17C30.6302 31.26 31.2502 31.43 31.0402 31.88C30.7102 32.56 30.6202 35.29 29.1902 34.57C28.6202 34.28 28.6302 35.47 28.0502 35.18C27.4702 34.89 24.5102 34.7 25.4002 33.31L24.9102 33.15C25.3202 32.03 25.6902 30.91 26.0102 29.77Z" fill="white"/>
<path d="M28.3202 23.84L28.8202 24C28.9202 22.35 31.2702 23.93 32.0602 24.06C32.6902 24.17 32.0002 25.06 32.6202 25.24C32.9402 25.33 33.5602 25.5 33.3502 25.95C33.0202 26.63 32.9302 29.36 31.5002 28.64C30.9302 28.35 30.9402 29.54 30.3602 29.26C29.7802 28.98 26.8202 28.77 27.7102 27.38L27.2202 27.22C27.5902 26.09 28.0102 24.97 28.3202 23.84Z" fill="white"/>
<path d="M21.3701 45.05L21.8701 45.2C21.0001 46.6 23.8701 46.67 24.5601 47.02C25.1301 47.29 25.0801 46.17 25.6801 46.38C26.0101 46.49 26.6101 46.71 26.6801 46.22C26.8001 45.48 28.3001 43.22 26.6801 42.96C26.0501 42.87 26.7401 41.9 26.1001 41.8C25.3001 41.68 22.9301 40.15 22.8601 41.8L22.3601 41.65C22.0701 42.77 21.7201 43.91 21.3701 45.05Z" fill="white"/>
<path d="M19.5503 51.01L20.0503 51.15C19.2103 52.57 22.0503 52.59 22.7803 52.92C23.3603 53.18 23.2803 52.06 23.8903 52.26C24.2103 52.36 24.8203 52.57 24.8903 52.08C25.0003 51.33 26.4603 49.02 24.8903 48.82C24.2503 48.74 24.8903 47.75 24.2903 47.67C23.4903 47.56 21.0903 46.08 21.0503 47.73L20.5503 47.59C20.2003 48.77 19.8803 49.87 19.5503 51.01Z" fill="white"/>
<path d="M17.6704 56.93L18.1804 57.07C17.3604 58.5 20.1804 58.48 20.9304 58.8C21.5104 59.05 21.4204 57.93 22.0304 58.12C22.3604 58.22 22.9704 58.42 23.0304 57.93C23.1304 57.18 24.5504 54.85 22.9604 54.68C22.3304 54.6 22.9604 53.61 22.3504 53.53C21.5504 53.44 19.1304 51.99 19.1104 53.64L18.6004 53.5C18.3004 54.65 18.0104 55.77 17.6704 56.93Z" fill="white"/>
<path d="M16.3101 63.23L16.8101 63.37C15.9801 64.8 18.8101 64.79 19.5401 65.12C20.1301 65.38 20.0401 64.26 20.6501 64.45C20.9801 64.55 21.5901 64.76 21.6501 64.27C21.7501 63.52 23.2001 61.2 21.6501 61.01C21.0101 60.93 21.6501 59.94 21.0501 59.86C20.2401 59.76 17.8301 58.3 17.8001 59.95L17.3001 59.81C16.9401 60.95 16.6301 62.09 16.3101 63.23Z" fill="white"/>
<path d="M14.6504 69.68L15.1604 69.82C14.3204 71.24 17.1604 71.26 17.8804 71.59C18.4604 71.85 18.3804 70.73 18.9904 70.93C19.3204 71.03 19.9204 71.24 19.9904 70.75C20.1004 70 21.5604 67.69 19.9904 67.49C19.3604 67.41 19.9904 66.43 19.4004 66.34C18.6004 66.23 16.1904 64.75 16.1504 66.4L15.6504 66.26C15.3104 67.4 15.0104 68.54 14.6504 69.68Z" fill="white"/>
<path d="M13.2603 76.09L13.7603 76.21C12.9903 77.66 15.8103 77.55 16.5603 77.85C17.1603 78.09 17.0303 76.97 17.6503 77.14C17.9803 77.23 18.5903 77.41 18.6503 76.92C18.7203 76.17 20.0803 73.79 18.4903 73.66C17.8503 73.66 18.4903 72.6 17.8403 72.54C17.0303 72.47 14.5703 71.1 14.6003 72.75L14.0903 72.63C13.8103 73.77 13.5303 74.93 13.2603 76.09Z" fill="white"/>
<path d="M12.0103 82.35L12.5203 82.48C11.7403 83.93 14.5203 83.84 15.3103 84.14C15.9003 84.38 15.7803 83.26 16.4003 83.43C16.7303 83.53 17.3403 83.71 17.4003 83.22C17.4803 82.47 18.8603 80.1 17.2603 79.96C16.6303 79.91 17.2603 78.89 16.6203 78.83C15.8103 78.76 13.3603 77.37 13.3803 79.02L12.8703 78.89C12.5603 80.05 12.2803 81.2 12.0103 82.35Z" fill="white"/>
<path d="M11.0703 88.77L11.5803 88.9C10.7803 90.34 13.5803 90.27 14.3503 90.58C14.9403 90.83 14.8303 89.7 15.4403 89.88C15.7703 89.98 16.4403 90.17 16.4403 89.67C16.5203 88.92 17.9203 86.56 16.3203 86.41C15.6903 86.35 16.3203 85.34 15.6903 85.28C14.8903 85.2 12.4403 83.79 12.4503 85.44L11.9403 85.31L11.0703 88.77Z" fill="white"/>
<path d="M9.86035 95.01L10.3604 95.13C9.59035 96.59 12.4104 96.48 13.1604 96.77C13.7504 97.01 13.6304 95.89 14.2504 96.06C14.5704 96.15 15.1904 96.33 15.2504 95.84C15.3204 95.09 16.6804 92.7 15.0904 92.58C14.4504 92.52 15.0904 91.51 14.4404 91.45C13.6304 91.38 11.1704 90.01 11.2004 91.66L10.6904 91.54C10.4104 92.69 10.1304 93.85 9.86035 95.01Z" fill="white"/>
<path d="M8.87012 101.51L9.38012 101.61C8.66012 103.1 11.4801 102.88 12.2401 103.15C12.8401 103.37 12.6701 102.25 13.2401 102.4C13.5701 102.47 14.2401 102.63 14.2401 102.13C14.2401 101.38 15.5601 98.94 13.9501 98.88C13.3201 98.88 13.9501 97.81 13.2701 97.78C12.4601 97.78 9.94012 96.46 10.0401 98.11L9.52012 98.01L8.87012 101.51Z" fill="white"/>
<path d="M8.01025 108.02L8.52025 108.11C7.85025 109.62 10.6603 109.32 11.4303 109.56C12.0403 109.76 11.8303 108.64 12.4303 108.77C12.7703 108.84 13.4303 108.98 13.4303 108.48C13.4303 107.72 14.6403 105.25 13.0403 105.23C12.4003 105.23 12.9603 104.16 12.3203 104.15C11.5103 104.15 8.96025 102.93 9.10025 104.58L8.59025 104.5C8.41025 105.67 8.22025 106.85 8.01025 108.02Z" fill="white"/>
<path d="M7.48047 114.44L7.99047 114.55C7.25047 116.04 10.0705 115.85 10.8305 116.13C11.4305 116.35 11.2805 115.22 11.9005 115.38C12.2305 115.46 12.8505 115.63 12.9005 115.13C12.9005 114.37 14.2505 111.94 12.6505 111.86C12.0105 111.86 12.6505 110.78 11.9805 110.75C11.1705 110.75 8.67047 109.39 8.74047 111.04L8.23047 110.94C8.01047 112.11 7.73047 113.27 7.48047 114.44Z" fill="white"/>
<path d="M6.72021 120.77L7.23022 120.89C6.46022 122.36 9.28022 122.24 10.0302 122.53C10.6302 122.77 10.5002 121.64 11.1202 121.81C11.4502 121.9 12.0602 122.08 12.1202 121.58C12.1902 120.82 13.5502 118.42 11.9502 118.3C11.3102 118.25 11.9502 117.22 11.3002 117.17C10.5002 117.1 8.03022 115.74 8.06021 117.4L7.55022 117.28C7.27022 118.44 7.01021 119.6 6.72021 120.77Z" fill="white"/>
<path d="M6.16016 127.44L6.67016 127.55C5.92016 129.03 8.75016 128.85 9.50016 129.14C10.1002 129.36 9.95016 128.23 10.5702 128.39C10.9002 128.48 11.5202 128.64 11.5702 128.14C11.6302 127.39 12.9402 124.96 11.3402 124.87C10.7102 124.87 11.3402 123.79 10.6802 123.75C9.87016 123.75 7.37016 122.38 7.44016 124.04L6.93016 123.93C6.67016 125.1 6.42016 126.27 6.16016 127.44Z" fill="white"/>
<path d="M5.19043 133.9L5.70043 134C4.97043 135.5 7.79043 135.28 8.55043 135.55C9.31043 135.82 8.99043 134.65 9.62043 134.8C9.95043 134.88 10.6204 135.04 10.6204 134.54C10.6704 133.78 11.9504 131.33 10.3504 131.26C9.71043 131.26 10.3504 130.19 9.67043 130.16C8.86043 130.16 6.35043 128.82 6.44043 130.48L5.92043 130.38C5.67043 131.55 5.43043 132.77 5.19043 133.9Z" fill="white"/>
<path d="M4.8501 140.53L5.3601 140.59C4.7601 142.14 7.5501 141.69 8.3601 141.9C8.9801 142.07 8.7301 140.96 9.3601 141.06C9.7001 141.11 10.3601 141.22 10.3601 140.72C10.3601 139.96 11.4201 137.42 9.8201 137.48C9.1801 137.48 9.6901 136.41 9.0501 136.43C8.2401 136.43 5.6301 135.43 5.8601 137.02L5.3401 136.96L4.8501 140.53Z" fill="white"/>
<path d="M4.65039 146.88H5.17039C4.61039 148.45 7.39039 147.88 8.17039 148.11C8.79039 148.26 8.50039 147.11 9.17039 147.24C9.51039 147.24 10.1704 147.38 10.1204 146.88C10.1204 146.12 11.1204 143.55 9.49039 143.65C8.86039 143.65 9.33039 142.59 8.69039 142.65C7.88039 142.65 5.25039 141.65 5.52039 143.33L5.00039 143.28L4.65039 146.88Z" fill="white"/>
<path d="M4.24023 153.99H4.76023C4.26023 155.58 7.02023 154.99 7.81023 155.1C8.44023 155.22 8.11023 154.1 8.75023 154.19C9.08023 154.19 9.75024 154.28 9.68023 153.79C9.62023 153.03 10.5202 150.42 8.93023 150.59C8.29024 150.66 8.72023 149.53 8.08023 149.59C7.28023 149.67 4.60024 148.77 4.94024 150.39H4.42023L4.24023 153.99Z" fill="white"/>
<path d="M14.1001 160.29H14.6201C14.1401 158.72 16.9101 159.36 17.7101 159.22C18.3501 159.1 18.0101 160.17 18.6501 160.12C18.9901 160.12 19.6501 160.04 19.5901 160.53C19.5201 161.28 20.4001 163.86 18.7901 163.68C18.1501 163.61 18.5801 164.68 17.9301 164.68C17.1201 164.6 14.4101 165.46 14.7601 163.86H14.2401C14.1901 162.65 14.1501 161.47 14.1001 160.29Z" fill="white"/>
<path d="M14.4904 169.97H15.0104C14.6604 171.58 17.3704 170.71 18.1804 170.8C18.8204 170.86 18.4004 169.8 19.0404 169.8C19.3804 169.8 20.0404 169.8 19.9404 169.32C19.8104 168.59 20.4804 165.94 18.9404 166.25C18.3004 166.37 18.6304 165.25 18.0004 165.34C17.2004 165.49 14.4304 164.84 14.9104 166.41H14.3804L14.4904 169.97Z" fill="white"/>
<path d="M14.7405 176.18H15.2705C14.9505 177.79 17.6405 176.87 18.4505 176.94C19.0905 176.94 18.6505 175.94 19.2905 175.94C19.6405 175.94 20.2905 175.94 20.1905 175.44C20.0405 174.71 20.6605 172.05 19.0805 172.39C18.4505 172.52 18.7605 171.39 18.0805 171.5C17.2805 171.67 14.4905 171.07 15.0105 172.63H14.4805C14.6005 173.82 14.6805 175 14.7405 176.18Z" fill="white"/>
<path d="M14.9301 182.36H15.4601C15.1601 183.97 17.8401 183.02 18.6501 183.07C19.3001 183.07 18.8301 182.07 19.4801 182.07C19.8201 182.07 20.4801 182.07 20.3701 181.57C20.2101 180.83 20.7901 178.17 19.2201 178.57C18.5901 178.71 18.8801 177.57 18.2201 177.7C17.4301 177.87 14.6401 177.31 15.1701 178.86H14.6401C14.7601 180.01 14.8501 181.19 14.9301 182.36Z" fill="white"/>
<path d="M15.7304 188.77H16.2604C15.9404 190.38 18.6304 189.45 19.4504 189.51C20.0904 189.51 19.6304 188.51 20.2804 188.51C20.6204 188.51 21.2804 188.51 21.1704 188C21.0204 187.27 21.6204 184.61 20.0404 185C19.4104 185.13 19.7204 184 19.0404 184.12C18.2404 184.29 15.4604 183.71 15.9804 185.27H15.4604C15.5804 186.38 15.6604 187.56 15.7304 188.77Z" fill="white"/>
<path d="M16.3101 195.34H16.8401C16.5101 196.95 19.2101 196.03 20.0201 196.1C20.6601 196.16 20.2101 195.1 20.8601 195.1C21.2001 195.1 21.8601 195.1 21.7501 194.6C21.6101 193.87 22.2301 191.21 20.6501 191.6C20.0201 191.73 20.3301 190.6 19.7001 190.71C18.9001 190.88 16.1101 190.28 16.6301 191.84H16.1001L16.3101 195.34Z" fill="white"/>
<path d="M17.1203 201.82H17.6403C17.3903 203.44 20.0403 202.41 20.8603 202.44C21.5003 202.44 21.0103 201.44 21.6503 201.44C22.0003 201.44 22.6503 201.44 22.5203 200.91C22.3403 200.18 22.8403 197.5 21.2803 197.91C20.6603 198.07 20.9203 196.91 20.2803 197.07C19.4903 197.27 16.6803 196.79 17.2803 198.33L16.7603 198.39C16.8703 199.47 17.0103 200.65 17.1203 201.82Z" fill="white"/>
<path d="M18.0104 208.12H18.5304C18.2704 209.75 20.9304 208.73 21.7404 208.77C22.3804 208.77 21.9004 207.77 22.5404 207.77C22.8904 207.77 23.5404 207.72 23.4204 207.24C23.2404 206.51 23.7604 203.82 22.2004 204.24C21.5704 204.4 21.8404 203.24 21.2004 203.39C20.4104 203.58 17.6104 203.09 18.2004 204.63H17.6704C17.7804 205.77 17.8904 206.95 18.0104 208.12Z" fill="white"/>
<path d="M19.2604 214.44H19.7804C19.5104 216.06 22.1804 215.06 22.9904 215.1C23.6304 215.1 23.1504 214.1 23.8004 214.1C24.1404 214.1 24.8004 214.05 24.6804 213.57C24.5104 212.84 25.0504 210.16 23.4804 210.57C22.8504 210.73 23.1304 209.57 22.4804 209.72C21.6804 209.9 18.8904 209.39 19.4804 210.94H18.9604C19.0104 212.08 19.1604 213.26 19.2604 214.44Z" fill="white"/>
<path d="M20.1901 220.77L20.7201 220.72C20.4601 222.35 23.1201 221.31 23.9301 221.35C24.5701 221.35 24.0801 220.35 24.7201 220.35C25.0701 220.35 25.7201 220.29 25.6001 219.81C25.4101 219.08 25.9201 216.39 24.3601 216.81C23.7301 216.97 23.9901 215.81 23.3601 215.96C22.5701 216.16 19.7701 215.68 20.3601 217.22L19.8301 217.28C19.9501 218.37 20.0701 219.54 20.1901 220.77Z" fill="white"/>
<path d="M21.4202 227.16L21.9402 227.09C21.7502 228.72 24.3602 227.59 25.1802 227.59C25.8202 227.59 25.2902 226.59 25.9302 226.53C26.2702 226.53 26.9302 226.44 26.7802 225.96C26.5702 225.24 26.9702 222.53 25.4302 222.96C24.8102 223.14 25.0202 221.96 24.4302 222.15C23.6502 222.38 20.8302 222 21.4302 223.52L20.9102 223.6C21.0902 224.77 21.2502 225.99 21.4202 227.16Z" fill="white"/>
<path d="M22.7902 233.56L23.3002 233.48C23.1702 235.12 25.7402 233.9 26.5502 233.88C27.2002 233.88 26.6402 232.88 27.2802 232.8C27.6202 232.75 28.2802 232.67 28.1102 232.2C27.8802 231.48 28.1902 228.76 26.6602 229.27C26.0502 229.48 26.2202 228.27 25.6602 228.5C24.8802 228.75 22.0502 228.5 22.7402 229.97L22.2202 230.06C22.3802 231.22 22.5802 232.39 22.7902 233.56Z" fill="white"/>
<path d="M24.4204 239.77L24.9404 239.7C24.7304 241.34 27.3504 240.24 28.1704 240.25C28.8204 240.25 28.2904 239.25 28.9404 239.19C29.2804 239.19 29.9404 239.11 29.7904 238.63C29.5904 237.9 30.0204 235.19 28.4704 235.63C27.8504 235.81 28.0804 234.63 27.4704 234.81C26.6804 235.03 23.8604 234.62 24.4704 236.16L23.9404 236.22C24.1104 237.41 24.2604 238.59 24.4204 239.77Z" fill="white"/>
<path d="M25.8002 245.96L26.3302 245.91C26.0802 247.55 28.7302 246.49 29.5402 246.52C30.1902 246.52 29.6902 245.52 30.3302 245.52C30.6802 245.52 31.3302 245.46 31.2002 244.97C31.0202 244.24 31.5102 241.53 29.9502 241.97C29.3302 242.13 29.5802 240.97 28.9502 241.12C28.1602 241.32 25.3602 240.85 25.9502 242.4L25.4302 242.46C25.5502 243.59 25.6802 244.77 25.8002 245.96Z" fill="white"/>
<path d="M27.4903 252.42L28.0103 252.35C27.7903 254 30.4203 252.9 31.2403 252.91C31.8803 252.91 31.3603 251.91 32.0103 251.86C32.3503 251.86 33.0103 251.78 32.8703 251.3C32.6703 250.57 33.1103 247.86 31.5503 248.3C30.9303 248.47 31.1703 247.3 30.5503 247.47C29.7703 247.69 26.9503 247.27 27.5503 248.81L27.0103 248.87C27.2003 250.06 27.3503 251.24 27.4903 252.42Z" fill="white"/>
<path d="M28.7302 258.77H29.2502C29.0502 260.41 31.6702 259.28 32.4802 259.29C33.1302 259.29 32.6002 258.29 33.2402 258.23C33.5802 258.23 34.2402 258.14 34.0902 257.66C33.8902 256.93 34.2902 254.21 32.7502 254.66C32.1302 254.84 32.3402 253.66 31.7502 253.84C30.9702 254.07 28.1502 253.69 28.7502 255.22L28.2202 255.29C28.4002 256.45 28.5602 257.63 28.7302 258.77Z" fill="white"/>
<path d="M30.6103 265.15L31.1203 265.04C31.0603 266.7 33.5803 265.36 34.3903 265.3C35.0303 265.3 34.3903 264.3 35.0603 264.18C35.4003 264.12 36.0603 264.01 35.8603 263.54C35.5903 262.83 35.7703 260.09 34.2703 260.67C33.6703 260.91 33.7803 259.67 33.1803 259.94C32.4203 260.23 29.5803 260.08 30.3403 261.55L29.8203 261.67C30.0903 262.83 30.3503 263.99 30.6103 265.15Z" fill="white"/>
<path d="M32.5502 271.19L33.0602 271.07C33.0602 272.72 35.5202 271.32 36.3302 271.23C36.9702 271.17 36.3302 270.23 36.9702 270.1C37.3002 270.03 37.9702 269.9 37.7502 269.44C37.4602 268.74 37.5702 265.99 36.0802 266.61C35.4802 266.86 35.5702 265.67 34.9702 265.91C34.2202 266.22 31.3702 266.15 32.1702 267.6L31.6602 267.77C32.0102 268.88 32.2502 270.04 32.5502 271.19Z" fill="white"/>
<path d="M34.8501 277.18L35.3601 277.04C35.4201 278.69 37.8301 277.19 38.6401 277.04C39.2801 276.95 38.6401 276.04 39.2301 275.88C39.5601 275.8 40.2301 275.65 39.9801 275.19C39.6701 274.53 39.6601 271.77 38.2001 272.47C37.6101 272.74 37.6501 271.54 37.0601 271.81C36.3201 272.15 33.4701 272.19 34.3301 273.61L33.8301 273.77L34.8501 277.18Z" fill="white"/>
<path d="M34.0603 38.77L34.5603 38.92C34.6403 37.28 37.0303 38.8 37.8403 38.92C38.4803 39.02 37.7903 39.92 38.4203 40.08C38.7503 40.17 39.4203 40.33 39.1703 40.77C38.8503 41.46 38.8103 44.18 37.3603 43.49C36.7803 43.21 36.8103 44.4 36.2203 44.12C35.4803 43.78 32.6403 43.71 33.5103 42.31L33.0103 42.16L34.0603 38.77Z" fill="white"/>
<path d="M36.1701 32.77L36.6701 32.92C36.7501 31.28 39.1401 32.8 39.9501 32.92C40.5901 33.02 39.9501 33.92 40.5301 34.08C40.8601 34.17 41.5301 34.32 41.2801 34.77C40.9601 35.45 40.9201 38.18 39.4701 37.48C38.8901 37.21 38.9201 38.4 38.3301 38.12C37.5901 37.78 34.7501 37.71 35.6201 36.31L35.1201 36.16L36.1701 32.77Z" fill="white"/>
<path d="M38.1704 26.77L38.6704 26.93C38.7404 25.29 41.1404 26.8 41.9404 26.93C42.5804 27.02 41.9404 27.93 42.5204 28.08C42.8504 28.17 43.5204 28.33 43.2704 28.78C42.9504 29.46 42.9204 32.18 41.4704 31.49C40.8804 31.21 40.9104 32.4 40.3304 32.13C39.5904 31.78 36.7404 31.71 37.6204 30.31L37.1104 30.16C37.4704 29.01 37.8204 27.88 38.1704 26.77Z" fill="white"/>
<path d="M31.1802 48.03L31.6802 48.18C30.8102 49.58 33.6802 49.65 34.4002 50C34.9802 50.27 34.9302 49.15 35.5302 49.36C35.8602 49.47 36.4702 49.69 36.5302 49.2C36.6502 48.46 38.1702 46.2 36.5302 45.95C35.8902 45.86 36.5902 44.89 35.9502 44.8C35.1402 44.67 32.7502 43.16 32.6802 44.8L32.1702 44.64L31.1802 48.03Z" fill="white"/>
<path d="M29.3403 53.97L29.8503 54.11C29.0003 55.53 31.8503 55.54 32.6003 55.87C33.1903 56.13 33.1103 55.01 33.7203 55.21C34.0503 55.32 34.6603 55.52 34.7203 55.03C34.8303 54.29 36.3003 52.03 34.7203 51.79C34.0803 51.71 34.7203 50.73 34.1203 50.64C33.3103 50.54 30.8903 49.07 30.8503 50.71L30.3403 50.57L29.3403 53.97Z" fill="white"/>
<path d="M27.4502 59.87L27.9602 60.01C27.1302 61.43 29.9602 61.41 30.7302 61.73C31.3202 61.98 31.2302 60.86 31.8402 61.05C32.1702 61.15 32.8402 61.35 32.8402 60.86C32.9402 60.12 34.3802 57.8 32.7802 57.62C32.1402 57.55 32.7802 56.56 32.1602 56.48C31.3502 56.39 28.9002 54.95 28.8902 56.59L28.3802 56.46C28.0802 57.59 27.7602 58.77 27.4502 59.87Z" fill="white"/>
<path d="M26.0703 66.14L26.5703 66.29C25.7403 67.7 28.5703 67.7 29.3303 68.03C29.9203 68.28 29.8403 67.16 30.4503 67.36C30.7803 67.46 31.3903 67.66 31.4503 67.17C31.5503 66.43 33.0103 64.12 31.4503 63.93C30.8103 63.85 31.4503 62.87 30.8403 62.79C30.0303 62.69 27.6003 61.23 27.5703 62.87L27.0103 62.77L26.0703 66.14Z" fill="white"/>
<path d="M24.4004 72.57L24.9004 72.71C24.0604 74.12 26.9004 74.14 27.6504 74.47C28.2404 74.73 28.1604 73.61 28.7804 73.81C29.1004 73.91 29.7204 74.12 29.7804 73.63C29.8804 72.89 31.3604 70.63 29.7804 70.39C29.1404 70.31 29.7804 69.33 29.1804 69.24C28.3704 69.13 25.9404 67.66 25.9004 69.3L25.3904 69.16C25.0604 70.3 24.7304 71.43 24.4004 72.57Z" fill="white"/>
<path d="M23.0103 78.95L23.5203 79.07C22.7403 80.52 25.5803 80.41 26.3403 80.71C26.9403 80.94 26.8103 79.83 27.4403 80C27.7703 80.09 28.3903 80.27 28.4403 79.78C28.5103 79.03 29.8803 76.66 28.2703 76.53C27.6303 76.53 28.2703 75.47 27.6203 75.42C26.8103 75.34 24.3203 73.98 24.3503 75.62L23.8403 75.5C23.5403 76.65 23.2703 77.77 23.0103 78.95Z" fill="white"/>
<path d="M21.7104 85.19L22.2204 85.31C21.4304 86.77 24.2804 86.67 25.0104 86.97C25.6104 87.21 25.4904 86.09 26.1104 86.27C26.4404 86.36 27.0604 86.54 27.1104 86.05C27.1904 85.3 28.5804 82.94 26.9704 82.81C26.3204 82.75 26.9704 81.74 26.3204 81.68C25.5104 81.61 23.0304 80.23 23.0504 81.87L22.5404 81.74C22.2804 82.89 22.0104 84.04 21.7104 85.19Z" fill="white"/>
<path d="M20.77 91.56L21.28 91.69C20.48 93.13 23.33 93.06 24.08 93.36C24.83 93.66 24.57 92.49 25.19 92.67C25.52 92.76 26.19 92.95 26.19 92.46C26.28 91.71 27.69 89.36 26.08 89.21C25.43 89.15 26.08 88.15 25.44 88.08C24.63 88 22.16 86.6 22.17 88.25L21.66 88.12C21.37 89.27 21.07 90.41 20.77 91.56Z" fill="white"/>
<path d="M19.5503 97.77L20.0603 97.89C19.2803 99.35 22.1303 99.24 22.8803 99.53C23.4803 99.77 23.3603 98.65 23.9803 98.82C24.3103 98.91 24.9803 99.09 24.9803 98.6C25.0503 97.85 26.4303 95.48 24.8203 95.35C24.1803 95.35 24.8203 94.29 24.1703 94.23C23.3503 94.16 20.8703 92.79 20.9003 94.44L20.3903 94.32L19.5503 97.77Z" fill="white"/>
<path d="M18.5503 104.27L19.0603 104.37C18.3403 105.86 21.1803 105.64 21.9503 105.91C22.5603 106.12 22.3903 105 23.0203 105.15C23.3503 105.23 24.0203 105.39 24.0203 104.89C24.0703 104.14 25.3503 101.71 23.7303 101.65C23.0903 101.65 23.7303 100.58 23.0403 100.55C22.2203 100.55 19.6903 99.24 19.7803 100.88L19.2603 100.78C19.0103 101.95 18.7903 103.11 18.5503 104.27Z" fill="white"/>
<path d="M17.6904 110.77L18.2104 110.86C17.5304 112.36 20.3604 112.06 21.1404 112.3C21.7504 112.49 21.5504 111.39 22.1404 111.51C22.4804 111.58 23.1404 111.72 23.1404 111.22C23.1404 110.47 24.3704 108 22.7504 107.98C22.1104 107.98 22.6704 106.92 22.0204 106.91C21.2004 106.91 18.6304 105.7 18.7704 107.34L18.2504 107.26C18.0904 108.42 17.8904 109.59 17.6904 110.77Z" fill="white"/>
<path d="M17.1504 117.15L17.6604 117.26C16.9204 118.74 19.7604 118.55 20.5304 118.83C21.1304 119.05 20.9804 117.93 21.6004 118.08C21.9404 118.17 22.6004 118.33 22.6004 117.83C22.6604 117.08 23.9704 114.66 22.3604 114.58C21.7104 114.58 22.3604 113.51 21.6804 113.47C20.8604 113.47 18.3404 112.12 18.4104 113.77L17.9004 113.66L17.1504 117.15Z" fill="white"/>
<path d="M16.3804 123.45L16.8904 123.57C16.1104 125.03 18.9604 124.91 19.7204 125.2C20.3204 125.43 20.1904 124.31 20.8104 124.48C21.1504 124.57 21.8104 124.75 21.8104 124.25C21.8804 123.5 23.2504 121.1 21.6404 120.98C20.9904 120.98 21.6404 119.91 20.9804 119.86C20.1704 119.79 17.6804 118.43 17.7104 120.09L17.2004 119.97C16.9304 121.13 16.6604 122.29 16.3804 123.45Z" fill="white"/>
<path d="M15.8101 130.09L16.3301 130.2C15.5701 131.68 18.4201 131.51 19.1801 131.79C19.9401 132.07 19.6401 130.89 20.2601 131.04C20.6001 131.13 21.2601 131.29 21.2601 130.8C21.3201 130.04 22.6501 127.62 21.0301 127.53C20.3901 127.53 21.0301 126.46 20.3601 126.42C19.5401 126.37 17.0301 125.06 17.0901 126.71L16.5801 126.6C16.3201 127.77 16.0701 128.93 15.8101 130.09Z" fill="white"/>
<path d="M14.8301 136.53L15.3501 136.63C14.6101 138.12 17.4601 137.91 18.2201 138.18C18.9801 138.45 18.6701 137.28 19.3001 137.42C19.6301 137.5 20.3001 137.66 20.3001 137.16C20.3001 136.41 21.6501 133.97 20.0301 133.91C19.3801 133.91 20.0301 132.83 19.3401 132.8C18.5201 132.8 15.9901 131.48 16.0801 133.13L15.5601 133.03L14.8301 136.53Z" fill="white"/>
<path d="M14.4805 143.13L15.0005 143.19C14.3905 144.74 17.2105 144.29 18.0005 144.5C18.6205 144.67 18.3705 143.56 19.0005 143.66C19.3405 143.71 20.0005 143.82 20.0005 143.32C20.0005 142.57 21.0805 140.03 19.4605 140.1C18.8205 140.1 19.3305 139.03 18.6805 139.05C17.8705 139.05 15.2405 138 15.4605 139.64L14.9405 139.58C14.7705 140.77 14.6205 141.95 14.4805 143.13Z" fill="white"/>
<path d="M14.2803 149.46H14.8103C14.2403 151.02 17.0403 150.46 17.8103 150.69C18.4403 150.84 18.1503 149.69 18.8103 149.82C19.1503 149.82 19.8103 149.95 19.8103 149.46C19.8103 148.7 20.8103 146.14 19.1803 146.25C18.5403 146.25 19.0203 145.19 18.3703 145.25C17.5603 145.3 14.9003 144.3 15.1703 145.93L14.6403 145.88L14.2803 149.46Z" fill="white"/>
<path d="M14.0103 156.25H14.5403C14.0303 157.83 16.8203 157.25 17.6203 157.36C18.2503 157.48 17.9203 156.36 18.5603 156.45C18.9003 156.45 19.5603 156.55 19.5003 156.05C19.4403 155.3 20.3503 152.7 18.7403 152.87C18.1003 152.94 18.5403 151.82 17.8903 151.87C17.0803 151.95 14.3803 151.05 14.7203 152.67H14.1903L14.0103 156.25Z" fill="white"/>
<path d="M24.4702 162.77H25.0102C24.4902 161.21 27.3202 161.77 28.1302 161.65C28.7702 161.52 28.4402 162.65 29.1302 162.54C29.4702 162.54 30.1302 162.44 30.1302 162.93C30.0702 163.67 31.0002 166.24 29.3702 166.08C28.7102 166.02 29.1602 167.08 28.5102 167.08C27.6802 167.01 24.9502 167.91 25.2902 166.31H24.7502C24.6102 165.12 24.5402 163.94 24.4702 162.77Z" fill="white"/>
<path d="M25.01 172.42H25.54C25.2 174.03 27.94 173.12 28.77 173.19C29.42 173.25 28.97 172.19 29.62 172.19C29.97 172.19 30.62 172.19 30.53 171.69C30.38 170.96 31.03 168.31 29.42 168.69C28.78 168.83 29.1 167.69 28.42 167.81C27.61 167.97 24.79 167.36 25.3 168.92H24.77C24.89 170.07 24.95 171.25 25.01 172.42Z" fill="white"/>
<path d="M25.3701 178.61H25.9101C25.6001 180.22 28.3201 179.26 29.1501 179.31C29.8001 179.31 29.3301 178.31 29.9801 178.31C30.3301 178.31 30.9801 178.31 30.8801 177.8C30.7201 177.07 31.3101 174.41 29.7101 174.8C29.0701 174.95 29.3701 173.8 28.7101 173.94C27.9001 174.11 25.0701 173.56 25.6201 175.11H25.0801C25.2001 176.26 25.2901 177.43 25.3701 178.61Z" fill="white"/>
<path d="M25.6603 184.77H26.1903C25.9103 186.38 28.6203 185.39 29.4403 185.43C30.1003 185.43 29.6103 184.43 30.2703 184.43C30.6103 184.43 31.2703 184.43 31.1603 183.91C30.9903 183.18 31.5403 180.51 29.9503 180.91C29.3103 181.06 29.5903 179.91 28.9503 180.05C28.1503 180.18 25.3103 179.67 25.8803 181.21H25.3403C25.4503 182.43 25.5603 183.6 25.6603 184.77Z" fill="white"/>
<path d="M26.57 191.12H27.1C26.81 192.74 29.52 191.76 30.34 191.81C31 191.81 30.52 190.81 31.17 190.81C31.52 190.81 32.17 190.81 32.07 190.3C31.91 189.57 32.48 186.9 30.88 187.3C30.24 187.45 30.53 186.3 29.88 186.44C29.07 186.62 26.23 186.09 26.79 187.63H26.25L26.57 191.12Z" fill="white"/>
<path d="M27.2503 197.69H27.7903C27.4803 199.3 30.2003 198.35 31.0303 198.4C31.6803 198.4 31.2103 197.4 31.8603 197.4C32.2103 197.4 32.8603 197.4 32.7603 196.89C32.6003 196.16 33.1903 193.5 31.6003 193.89C30.9603 194.04 31.2603 192.89 30.6003 193.02C29.7903 193.2 26.9603 192.65 27.5003 194.2L27.0103 194.17C27.0803 195.34 27.1703 196.52 27.2503 197.69Z" fill="white"/>
<path d="M28.1703 204.15L28.7003 204.09C28.4703 205.71 31.1503 204.63 31.9703 204.65C32.6303 204.65 32.1103 203.65 32.7603 203.65C33.1103 203.65 33.7603 203.58 33.6403 203.1C33.4503 202.37 33.9103 199.69 32.3303 200.1C31.7003 200.27 31.9503 199.1 31.3303 199.28C30.5303 199.49 27.6703 199.06 28.3303 200.58L27.8003 200.65L28.1703 204.15Z" fill="white"/>
<path d="M29.1701 210.42L29.7001 210.36C29.4601 211.98 32.1401 210.93 32.9701 210.95C33.6201 210.95 33.1101 209.95 33.7601 209.95C34.1101 209.95 34.7601 209.88 34.6401 209.41C34.4501 208.68 34.9401 206 33.3601 206.41C32.7301 206.58 32.9801 205.41 32.3601 205.58C31.5501 205.78 28.7101 205.34 29.3601 206.87L28.8301 206.93C28.9001 208.08 29.0101 209.25 29.1701 210.42Z" fill="white"/>
<path d="M30.5404 216.7H31.0704C30.8204 218.32 33.5104 217.28 34.3304 217.31C34.9804 217.31 34.4804 216.31 35.1404 216.31C35.4804 216.31 36.1404 216.25 36.0204 215.77C35.8404 215.05 36.3404 212.36 34.7604 212.77C34.1204 212.94 34.3904 211.77 33.7604 211.94C32.9604 212.14 30.1104 211.67 30.7004 213.2L30.1704 213.26C30.2904 214.35 30.4104 215.53 30.5404 216.7Z" fill="white"/>
<path d="M31.5804 222.95L32.1104 222.89C31.8804 224.52 34.5504 223.44 35.3804 223.46C36.0304 223.46 35.5204 222.46 36.1704 222.46C36.5204 222.46 37.1704 222.39 37.0504 221.91C36.8504 221.19 37.3204 218.5 35.7404 218.91C35.1104 219.08 35.3604 217.91 34.7404 218.08C33.9404 218.29 31.0904 217.86 31.7404 219.39L31.2104 219.45C31.3004 220.61 31.4404 221.77 31.5804 222.95Z" fill="white"/>
<path d="M32.9203 229.35L33.4503 229.27C33.2903 230.91 35.9103 229.73 36.7403 229.72C37.4003 229.72 36.8403 228.72 37.4903 228.65C37.8403 228.65 38.4903 228.55 38.3403 228.07C38.1203 227.35 38.4803 224.64 36.9203 225.13C36.3003 225.33 36.5003 224.13 35.8703 224.34C35.0803 224.58 32.2103 224.26 32.8703 225.77L32.3403 225.85C32.5503 227.02 32.7403 228.18 32.9203 229.35Z" fill="white"/>
<path d="M34.4105 235.77L34.9305 235.67C34.8205 237.31 37.4105 236.06 38.2305 236.02C38.8905 236.02 38.3005 235.02 38.9505 234.93C39.2905 234.93 39.9505 234.79 39.7805 234.32C39.5405 233.61 39.7805 230.89 38.2705 231.43C37.6505 231.64 37.8105 230.43 37.1905 230.67C36.4105 230.93 33.5305 230.67 34.2505 232.18L33.7305 232.28C34.0105 233.39 34.1805 234.55 34.4105 235.77Z" fill="white"/>
<path d="M36.1604 241.88L36.6904 241.81C36.5004 243.45 39.1404 242.3 39.9704 242.3C40.6204 242.3 40.0804 241.3 40.7304 241.24C41.0804 241.24 41.7304 241.14 41.5904 240.66C41.3804 239.94 41.7704 237.22 40.2004 237.66C39.5804 237.85 39.7904 236.66 39.2004 236.85C38.4104 237.09 35.5504 236.73 36.2004 238.25L35.6704 238.32C35.8104 239.54 36.0104 240.71 36.1604 241.88Z" fill="white"/>
<path d="M37.66 248.04L38.19 247.97C37.96 249.61 40.63 248.52 41.46 248.54C42.11 248.54 41.59 247.54 42.24 247.49C42.59 247.49 43.24 247.41 43.12 246.93C42.92 246.2 43.38 243.49 41.8 243.93C41.17 244.11 41.41 242.93 40.8 243.11C40 243.32 37.14 242.9 37.8 244.43L37.27 244.5L37.66 248.04Z" fill="white"/>
<path d="M39.4703 254.45L40.0003 254.38C39.8103 256.02 42.4603 254.88 43.2803 254.88C43.9403 254.88 43.4003 253.88 44.0503 253.82C44.4003 253.82 45.0503 253.73 44.9103 253.25C44.7003 252.52 45.1003 249.81 43.5403 250.25C42.9103 250.44 43.1303 249.25 42.5403 249.44C41.7403 249.67 38.8803 249.3 39.5403 250.83L39.0103 250.9L39.4703 254.45Z" fill="white"/>
<path d="M40.82 260.77L41.35 260.69C41.17 262.33 43.81 261.16 44.64 261.15C45.29 261.15 44.74 260.15 45.39 260.08C45.73 260.08 46.39 259.97 46.24 259.5C46.02 258.77 46.39 256.05 44.83 256.5C44.21 256.69 44.41 255.5 43.78 255.7C42.99 255.94 40.12 255.6 40.78 257.12L40.25 257.2C40.45 258.46 40.64 259.63 40.82 260.77Z" fill="white"/>
<path d="M42.8202 267.1L43.3402 266.98C43.3402 268.63 45.8402 267.26 46.6602 267.18C47.3102 267.18 46.6602 266.18 47.3202 266.06C47.6602 265.99 48.3202 265.87 48.1202 265.41C47.8402 264.7 47.9802 261.96 46.4702 262.57C45.8602 262.82 45.9602 261.57 45.3502 261.86C44.5802 262.16 41.7002 262.06 42.4902 263.51L41.9702 263.64C42.2602 264.77 42.5402 265.95 42.8202 267.1Z" fill="white"/>
<path d="M44.8802 273.1L45.4002 272.96C45.4002 274.61 47.9002 273.17 48.7202 273.07C49.3702 273 48.7202 272.07 49.3502 271.93C49.6902 271.85 50.3502 271.72 50.1302 271.26C49.8302 270.56 49.8902 267.82 48.3902 268.47C47.7902 268.73 47.8602 267.54 47.2602 267.79C46.5002 268.11 43.6102 268.08 44.4502 269.52L43.9302 269.65C44.2502 270.77 44.5702 271.95 44.8802 273.1Z" fill="white"/>
<path d="M42.8601 41.22L43.3801 41.36C43.3801 39.73 45.8801 41.2 46.7001 41.31C47.3501 41.4 46.7001 42.31 47.3001 42.46C47.6401 42.54 48.3001 42.68 48.0701 43.13C47.7601 43.82 47.7701 46.54 46.2801 45.87C45.6901 45.6 45.7301 46.79 45.1401 46.52C44.3801 46.19 41.5001 46.17 42.3601 44.76L41.8501 44.62C42.1901 43.48 42.5301 42.35 42.8601 41.22Z" fill="white"/>
<path d="M44.9104 35.24L45.4204 35.38C45.4704 33.74 47.9304 35.22 48.7504 35.33C49.3904 35.41 48.7504 36.33 49.3504 36.47C49.6904 36.56 50.3504 36.7 50.1204 37.15C49.8104 37.84 49.8104 40.56 48.3304 39.89C47.7404 39.62 47.7804 40.81 47.1904 40.54C46.4304 40.21 43.5504 40.19 44.4104 38.78L43.9004 38.63C44.2404 37.5 44.5704 36.37 44.9104 35.24Z" fill="white"/>
<path d="M46.8401 29.17L47.3601 29.32C47.3601 27.68 49.8601 29.16 50.6801 29.26C51.3301 29.35 50.6801 30.26 51.2801 30.41C51.6201 30.49 52.2801 30.64 52.0501 31.09C51.7401 31.77 51.7501 34.49 50.2601 33.82C49.6701 33.56 49.7101 34.74 49.1201 34.48C48.3601 34.15 45.4801 34.13 46.3401 32.72L45.8301 32.57C46.1701 31.44 46.5101 30.31 46.8401 29.17Z" fill="white"/>
<path d="M40.0801 50.51L40.6001 50.66C39.7301 52.06 42.6001 52.09 43.3801 52.42C43.9701 52.68 43.9001 51.56 44.5201 51.76C44.8501 51.87 45.4701 52.08 45.5201 51.59C45.6401 50.85 47.1401 48.59 45.5201 48.35C44.8701 48.27 45.5201 47.29 44.9101 47.21C44.0901 47.1 41.6401 45.62 41.5901 47.26L41.0801 47.12L40.0801 50.51Z" fill="white"/>
<path d="M38.3101 56.47L38.8301 56.6C37.9901 58.02 40.8301 57.99 41.6401 58.31C42.2401 58.56 42.1501 57.45 42.7701 57.63C43.1001 57.73 43.7701 57.93 43.7701 57.44C43.8701 56.7 45.3301 54.38 43.7001 54.2C43.0501 54.14 43.7001 53.14 43.0701 53.07C42.2501 52.98 39.7701 51.55 39.7501 53.19L39.2401 53.05C38.9401 54.19 38.6301 55.33 38.3101 56.47Z" fill="white"/>
<path d="M36.4805 62.38L37.0005 62.51C36.1805 63.94 39.0705 63.88 39.8405 64.18C40.4405 64.43 40.3305 63.31 40.9605 63.49C41.2905 63.59 41.9605 63.78 41.9605 63.29C42.0405 62.54 43.4705 60.2 41.8405 60.05C41.1905 59.99 41.8405 58.99 41.2005 58.93C40.3705 58.84 37.8705 57.45 37.8805 59.09L37.3605 58.96L36.4805 62.38Z" fill="white"/>
<path d="M35.1704 68.66L35.6904 68.8C34.8604 70.22 37.7504 70.17 38.5104 70.49C39.1204 70.73 39.0104 69.62 39.6404 69.8C39.9704 69.9 40.6404 70.09 40.6404 69.6C40.7304 68.86 42.1804 66.53 40.5504 66.37C39.9004 66.3 40.5504 65.31 39.9104 65.24C39.0904 65.15 36.6004 63.74 36.5904 65.38L36.0804 65.25L35.1704 68.66Z" fill="white"/>
<path d="M33.5801 75.1L34.0901 75.23C33.2601 76.65 36.1501 76.62 36.9101 76.94C37.5101 77.19 37.4101 76.08 38.0401 76.26C38.3701 76.36 39.0401 76.56 39.0401 76.07C39.1401 75.33 40.6001 73.01 38.9701 72.84C38.3201 72.77 38.9701 71.78 38.3501 71.7C37.5201 71.61 35.0401 70.18 35.0201 71.82L34.5101 71.68C34.2101 72.82 33.9001 73.96 33.5801 75.1Z" fill="white"/>
<path d="M32.2402 81.49L32.7702 81.6C32.0002 83.06 34.8802 82.9 35.6502 83.19C36.2702 83.41 36.1202 82.3 36.7502 82.46C37.0902 82.55 37.7502 82.71 37.7502 82.22C37.8102 81.48 39.1702 79.09 37.5302 78.99C36.8802 78.99 37.5302 77.93 36.8502 77.89C36.0302 77.83 33.4802 76.51 33.5402 78.15L33.0102 78.04C32.7802 79.19 32.5102 80.34 32.2402 81.49Z" fill="white"/>
<path d="M31.0103 87.77L31.5303 87.89C30.7403 89.34 33.6303 89.2 34.4003 89.49C35.0103 89.72 34.8803 88.61 35.5103 88.77C35.8503 88.86 36.5103 89.03 36.5103 88.54C36.5803 87.8 37.9603 85.42 36.3203 85.31C35.6703 85.26 36.3203 84.25 35.6503 84.2C34.8203 84.13 32.2903 82.8 32.3403 84.44L31.8103 84.32L31.0103 87.77Z" fill="white"/>
<path d="M30.2002 94.1L30.7102 94.22C29.9202 95.67 32.8102 95.55 33.5802 95.85C34.1902 96.08 34.0602 94.97 34.6902 95.14C35.0302 95.23 35.6902 95.4 35.6902 94.91C35.7602 94.16 37.1502 91.79 35.5202 91.67C34.8602 91.62 35.5202 90.61 34.8602 90.56C34.0302 90.49 31.5102 89.13 31.5402 90.77L31.0102 90.66L30.2002 94.1Z" fill="white"/>
<path d="M29.0103 100.34L29.5303 100.45C28.7503 101.91 31.6403 101.76 32.4203 102.04C33.0303 102.27 32.8803 101.15 33.5203 101.31C33.8503 101.4 34.5203 101.57 34.5203 101.08C34.5803 100.33 35.9403 97.94 34.3103 97.84C33.6503 97.84 34.3103 96.77 33.6303 96.73C32.8003 96.67 30.2603 95.35 30.3103 96.99L29.7903 96.88C29.5803 98.03 29.3103 99.19 29.0103 100.34Z" fill="white"/>
<path d="M28.1304 106.82L28.6604 106.91C27.9404 108.4 30.8204 108.14 31.6104 108.39C32.2304 108.59 32.0404 107.49 32.6804 107.62C33.0204 107.7 33.6804 107.84 33.6804 107.35C33.6804 106.6 34.9804 104.16 33.3404 104.12C32.6904 104.12 33.2804 103.05 32.6204 103.03C31.7904 103.03 29.2004 101.78 29.3204 103.42L28.7904 103.33C28.5804 104.49 28.3604 105.65 28.1304 106.82Z" fill="white"/>
<path d="M27.3604 113.3L27.8904 113.38C27.2204 114.9 30.0904 114.54 30.8904 114.77C31.5204 114.96 31.3004 113.85 31.8904 113.97C32.2304 114.03 32.8904 114.16 32.8904 113.67C32.8904 112.91 34.0904 110.43 32.4504 110.44C31.8004 110.44 32.3504 109.38 31.7004 109.38C30.8704 109.38 28.2404 108.23 28.4104 109.87L27.9104 109.77C27.7304 110.96 27.5504 112.13 27.3604 113.3Z" fill="white"/>
<path d="M26.9102 119.69L27.4302 119.79C26.7002 121.28 29.5802 121.04 30.3602 121.31C30.9802 121.51 30.8102 120.4 31.4402 120.55C31.7802 120.62 32.4402 120.77 32.4402 120.28C32.4402 119.53 33.7802 117.09 32.1402 117.03C31.4902 117.03 32.1402 115.97 31.4302 115.94C30.6102 115.94 28.0302 114.65 28.1302 116.29L27.6002 116.19C27.3802 117.36 27.1502 118.52 26.9102 119.69Z" fill="white"/>
<path d="M26.2305 125.98L26.7505 126.09C25.9805 127.57 28.8705 127.39 29.6405 127.67C30.2505 127.9 30.1105 126.78 30.7405 126.94C31.0805 127.02 31.7405 127.19 31.7405 126.69C31.8105 125.94 33.1605 123.53 31.5205 123.44C30.8705 123.44 31.5205 122.37 30.8405 122.33C30.0105 122.27 27.4705 120.96 27.5305 122.61L27.0105 122.5L26.2305 125.98Z" fill="white"/>
<path d="M25.75 132.62L26.27 132.72C25.53 134.21 28.42 133.99 29.2 134.25C29.81 134.46 29.64 133.35 30.28 133.5C30.62 133.57 31.28 133.73 31.28 133.23C31.28 132.48 32.64 130.04 31 129.98C30.34 129.98 31 128.91 30.3 128.88C29.47 128.88 26.89 127.57 26.99 129.22L26.46 129.12L25.75 132.62Z" fill="white"/>
<path d="M24.8501 139.06L25.3801 139.15C24.6601 140.65 27.5401 140.39 28.3201 140.65C28.9401 140.85 28.7601 139.74 29.4001 139.88C29.7401 139.95 30.4001 140.1 30.4001 139.6C30.4001 138.85 31.7201 136.4 30.0801 136.35C29.4201 136.35 30.0201 135.29 29.3601 135.26C28.5301 135.26 25.9501 133.99 26.0601 135.64L25.5301 135.55C25.3101 136.77 25.0801 137.89 24.8501 139.06Z" fill="white"/>
<path d="M24.6001 145.65L25.1301 145.7C24.5401 147.25 27.3901 146.76 28.1901 146.96C28.8201 147.11 28.5501 146.02 29.1901 146.1C29.5301 146.1 30.1901 146.25 30.1901 145.75C30.1901 144.99 31.1901 142.45 29.6001 142.54C28.9401 142.54 29.4501 141.48 28.7901 141.54C27.9601 141.54 25.2801 140.54 25.5301 142.18H25.0001C24.8501 143.28 24.7301 144.46 24.6001 145.65Z" fill="white"/>
<path d="M24.5 151.97H25.03C24.48 153.54 27.31 152.97 28.12 153.15C28.76 153.29 28.45 152.15 29.12 152.27C29.47 152.27 30.12 152.39 30.12 151.89C30.12 151.14 31.12 148.57 29.43 148.7C28.78 148.75 29.25 147.64 28.6 147.7C27.77 147.76 25.06 146.8 25.36 148.43H24.82L24.5 151.97Z" fill="white"/>
<path d="M24.3403 158.77H24.8803C24.3903 160.35 27.2003 159.68 28.0203 159.82C28.6603 159.93 28.3103 158.82 28.9603 158.9C29.3103 158.9 29.9603 158.98 29.9603 158.48C29.8903 157.73 30.7703 155.12 29.1403 155.32C28.4903 155.4 28.9203 154.27 28.2703 154.32C27.4403 154.41 24.6903 153.56 25.0603 155.17H24.4703C24.4303 156.36 24.3903 157.55 24.3403 158.77Z" fill="white"/>
<path d="M35.37 163.44H35.89C35.53 165.05 38.22 164.2 39.02 164.29C39.66 164.36 39.24 163.29 39.88 163.29C40.22 163.29 40.88 163.29 40.78 162.81C40.65 162.07 41.34 159.42 39.78 159.72C39.16 159.84 39.49 158.72 38.86 158.8C38.07 158.95 35.33 158.27 35.79 159.86H35.27L35.37 163.44Z" fill="white"/>
<path d="M35.5801 169.67H36.1001C35.7701 171.28 38.4501 170.38 39.2501 170.46C39.8901 170.52 39.4501 169.46 40.0901 169.46C40.4301 169.46 41.0901 169.46 40.9801 168.97C40.8401 168.23 41.4701 165.57 39.9001 165.89C39.2801 166.02 39.5901 164.89 38.9701 165C38.1701 165.16 35.4201 164.54 35.9201 166.11H35.3901C35.4601 167.3 35.5201 168.48 35.5801 169.67Z" fill="white"/>
<path d="M35.7305 175.88H36.2505C35.9405 177.49 38.6005 176.56 39.4105 176.62C40.0405 176.67 39.5905 175.62 40.2305 175.62C40.5705 175.62 41.2305 175.62 41.1105 175.12C40.9605 174.38 41.5605 171.71 40.0005 172.06C39.3705 172.2 39.6705 171.06 39.0005 171.18C38.2105 171.35 35.4505 170.76 36.0005 172.33H35.4805L35.7305 175.88Z" fill="white"/>
<path d="M36.4703 182.28H36.9903C36.6703 183.9 39.3403 182.98 40.1503 183.05C40.7803 183.05 40.3403 182.05 40.9803 182.05C41.3203 182.05 41.9803 182.05 41.8603 181.55C41.7203 180.81 42.3303 178.14 40.7703 178.48C40.1403 178.61 40.4503 177.48 39.8303 177.59C39.0303 177.76 36.2803 177.15 36.7803 178.72H36.2603L36.4703 182.28Z" fill="white"/>
<path d="M37.0103 188.91H37.5303C37.1903 190.52 39.8703 189.62 40.6803 189.7C41.3103 189.76 40.8803 188.7 41.5203 188.7C41.8603 188.7 42.5203 188.7 42.4103 188.21C42.2603 187.47 42.9003 184.81 41.3303 185.13C40.7103 185.26 41.0203 184.13 40.4003 184.24C39.6003 184.4 36.8503 183.77 37.3503 185.35H36.8203C36.8803 186.55 36.9403 187.77 37.0103 188.91Z" fill="white"/>
<path d="M37.7504 195.43H38.2704C38.0104 197.06 40.6404 196.04 41.4504 196.08C42.0904 196.08 41.6104 195.08 42.2504 195.08C42.5904 195.08 43.2504 195.08 43.1104 194.54C42.9404 193.81 43.4604 191.12 41.9004 191.54C41.2904 191.7 41.5504 190.54 40.9004 190.68C40.1104 190.88 37.3404 190.38 37.9004 191.93L37.3804 191.98C37.5304 193.07 37.6404 194.25 37.7504 195.43Z" fill="white"/>
<path d="M38.59 201.77H39.11C38.83 203.4 41.48 202.4 42.28 202.44C42.92 202.44 42.45 201.44 43.08 201.44C43.42 201.44 44.08 201.44 43.96 200.91C43.79 200.18 44.32 197.49 42.77 197.91C42.15 198.06 42.42 196.91 41.77 197.05C40.98 197.24 38.21 196.72 38.77 198.27H38.25C38.38 199.4 38.48 200.58 38.59 201.77Z" fill="white"/>
<path d="M39.7802 208.12H40.3002C40.0202 209.74 42.6702 208.76 43.4802 208.81C44.1102 208.81 43.6502 207.81 44.2902 207.81C44.6302 207.81 45.2902 207.81 45.1602 207.29C45.0002 206.56 45.5502 203.87 43.9902 204.29C43.3702 204.44 43.6502 203.29 42.9902 203.42C42.2002 203.6 39.4302 203.06 39.9902 204.62H39.4702C39.5902 205.77 39.6902 206.93 39.7802 208.12Z" fill="white"/>
<path d="M40.6603 214.43H41.1803C40.9203 216.06 43.5603 215.05 44.3603 215.08C45.0003 215.08 44.5203 214.08 45.1603 214.08C45.5003 214.08 46.1603 214.03 46.0303 213.54C45.8503 212.81 46.3703 210.11 44.8203 210.54C44.2003 210.7 44.4603 209.54 43.8203 209.68C43.0303 209.88 40.2603 209.38 40.8203 210.93H40.3003C40.4403 212.06 40.5503 213.25 40.6603 214.43Z" fill="white"/>
<path d="M41.8404 220.9L42.3504 220.84C42.1504 222.48 44.7504 221.36 45.5604 221.37C46.2004 221.37 45.6704 220.37 46.3104 220.31C46.6504 220.31 47.3104 220.22 47.1604 219.74C46.9604 219.01 47.3704 216.3 45.8304 216.74C45.2204 216.92 45.4404 215.74 44.8304 215.92C44.0504 216.15 41.2604 215.75 41.8804 217.28L41.3604 217.36L41.8404 220.9Z" fill="white"/>
<path d="M43.1403 227.34L43.6603 227.26C43.5103 228.91 46.0703 227.71 46.8803 227.69C47.5203 227.69 46.9603 226.69 47.6003 226.61C47.9403 226.56 48.6003 226.49 48.4303 226.02C48.2003 225.29 48.5303 222.56 47.0103 223.02C46.4003 223.23 46.5903 222.02 46.0103 222.24C45.2403 222.48 42.4303 222.18 43.1003 223.69L42.5903 223.78C42.7603 224.99 42.9503 226.17 43.1403 227.34Z" fill="white"/>
<path d="M44.7202 233.59L45.2302 233.53C45.0202 235.17 47.6202 234.08 48.4302 234.1C49.0702 234.1 48.5602 233.1 49.2002 233.04C49.5402 233.04 50.2002 232.97 50.0502 232.49C49.8602 231.75 50.3002 229.03 48.7602 229.49C48.1502 229.67 48.3802 228.49 47.7602 228.66C46.9802 228.87 44.1902 228.44 44.7602 229.99L44.2402 230.05C44.4302 231.22 44.5702 232.4 44.7202 233.59Z" fill="white"/>
<path d="M46.0101 239.77H46.5301C46.2701 241.42 48.9001 240.38 49.7101 240.42C50.3501 240.42 49.8601 239.42 50.5001 239.42C50.8401 239.42 51.5001 239.37 51.3601 238.88C51.1901 238.14 51.6901 235.43 50.1401 235.83C49.5201 235.99 49.7801 234.83 49.1401 234.98C48.3601 235.17 45.5801 234.68 46.1401 236.24H45.6201L46.0101 239.77Z" fill="white"/>
<path d="M47.6805 246.31L48.2005 246.25C47.9705 247.9 50.5805 246.81 51.3905 246.83C52.0305 246.83 51.5205 245.83 52.1605 245.83C52.5005 245.83 53.1605 245.76 53.0205 245.28C52.8305 244.54 53.2805 241.82 51.7405 242.28C51.1205 242.46 51.3605 241.28 50.7405 241.44C49.9605 241.66 47.1705 241.21 47.7405 242.76L47.2305 242.83L47.6805 246.31Z" fill="white"/>
<path d="M48.8503 252.77L49.3703 252.7C49.1603 254.35 51.7603 253.23 52.5703 253.24C53.2103 253.24 52.6903 252.24 53.3303 252.18C53.6703 252.18 54.3303 252.1 54.1803 251.62C53.9803 250.88 54.4003 248.16 52.8603 248.62C52.2503 248.8 52.4703 247.62 51.8603 247.79C51.0803 248.01 48.2903 247.61 48.8603 249.15L48.3403 249.22C48.5503 250.36 48.7003 251.55 48.8503 252.77Z" fill="white"/>
<path d="M50.6704 259.12L51.1804 259.01C51.1104 260.67 53.6104 259.35 54.4204 259.29C55.0604 259.29 54.4204 258.29 55.0904 258.17C55.4204 258.11 56.0904 258.01 55.8904 257.54C55.6304 256.82 55.8204 254.07 54.3304 254.65C53.7304 254.88 53.8604 253.65 53.2604 253.91C52.5004 254.19 49.6804 254.01 50.4304 255.5L49.9204 255.61L50.6704 259.12Z" fill="white"/>
<path d="M52.5502 265.2L53.0602 265.07C53.0602 266.74 55.4902 265.34 56.3002 265.27C56.9302 265.21 56.3002 264.27 56.9402 264.13C57.2702 264.06 57.9402 263.94 57.7202 263.47C57.4402 262.77 57.5602 260.01 56.0802 260.63C55.4902 260.87 55.5802 259.63 54.9902 259.91C54.2402 260.22 51.4202 260.12 52.2102 261.59L51.7002 261.71C52.0102 262.87 52.2702 264.03 52.5502 265.2Z" fill="white"/>
<path d="M54.7903 271.23L55.3003 271.09C55.3003 272.75 57.7403 271.26 58.5403 271.15C59.1803 271.06 58.5403 270.15 59.1303 269.98C59.4603 269.9 60.1303 269.76 59.8903 269.3C59.5803 268.6 59.5903 265.84 58.1403 266.52C57.5603 266.79 57.6003 265.59 57.0203 265.85C56.2803 266.19 53.4603 266.2 54.3003 267.64L53.8003 267.78C54.1403 268.933 54.4703 270.083 54.7903 271.23Z" fill="white"/>
<path d="M52.4204 48.06L52.9204 48.22C52.0504 49.61 54.8704 49.7 55.6004 50.05C56.3304 50.4 56.1304 49.2 56.7304 49.41C57.0504 49.53 57.6604 49.75 57.7304 49.26C57.8504 48.52 59.3704 46.26 57.7904 46C57.1504 45.91 57.8504 44.93 57.2204 44.84C56.4204 44.71 54.0504 43.17 53.9704 44.84L53.4704 44.68C53.1304 45.77 52.7804 46.93 52.4204 48.06Z" fill="white"/>
<path d="M54.4902 42.1L54.9902 42.25C54.1202 43.65 56.9402 43.74 57.6702 44.09C58.4002 44.44 58.2002 43.24 58.8002 43.45C59.1202 43.56 59.7202 43.79 59.8002 43.3C59.9302 42.55 61.4502 40.3 59.8602 40.04C59.2302 39.94 59.9202 38.97 59.2902 38.87C58.4902 38.75 56.1302 37.21 56.0502 38.87L55.5502 38.71C55.2002 39.83 54.8502 40.97 54.4902 42.1Z" fill="white"/>
<path d="M56.5903 36.1L57.0903 36.26C56.2203 37.66 59.0903 37.74 59.7703 38.09C60.4503 38.44 60.3003 37.24 60.9003 37.46C61.2203 37.57 61.8203 37.79 61.9003 37.31C62.0203 36.56 63.5403 34.31 61.9503 34.05C61.3203 33.95 62.0203 32.98 61.3803 32.88C60.5803 32.75 58.2203 31.22 58.1403 32.88L57.6403 32.73C57.3003 33.84 56.9503 34.97 56.5903 36.1Z" fill="white"/>
<path d="M50.5801 54.01L51.0801 54.16C50.2301 55.57 53.0801 55.6 53.7901 55.94C54.3701 56.2 54.3001 55.08 54.9101 55.28C55.2301 55.39 55.8401 55.6 55.9101 55.11C56.0201 54.36 57.4901 52.06 55.9101 51.85C55.2701 51.77 55.9101 50.78 55.3101 50.7C54.5101 50.59 52.1201 49.1 52.0701 50.7L51.5701 50.56L50.5801 54.01Z" fill="white"/>
<path d="M48.6704 59.93L49.1704 60.07C48.3504 61.49 51.1704 61.48 51.9104 61.81C52.6504 62.14 52.4104 60.94 53.0204 61.14C53.3504 61.24 53.9604 61.44 54.0204 60.95C54.1204 60.21 55.5604 57.88 53.9704 57.7C53.3404 57.62 53.9704 56.63 53.3604 56.55C52.5604 56.45 50.1504 54.99 50.1204 56.64L49.6204 56.5C49.3004 57.64 49.0104 58.77 48.6704 59.93Z" fill="white"/>
<path d="M47.27 66.22L47.77 66.36C46.94 67.78 49.77 67.79 50.5 68.12C51.08 68.39 51 67.26 51.61 67.46C51.94 67.56 52.54 67.77 52.61 67.28C52.72 66.53 54.18 64.22 52.61 64.02C51.97 63.94 52.61 62.96 52.01 62.87C51.2 62.77 48.8 61.29 48.76 62.94L48.26 62.8C47.92 63.94 47.6 65.08 47.27 66.22Z" fill="white"/>
<path d="M45.5903 72.66L46.0903 72.8C45.2403 74.22 48.0903 74.25 48.8003 74.58C49.5103 74.91 49.3103 73.73 49.9203 73.93C50.2403 74.04 50.8503 74.25 50.9203 73.76C51.0303 73.01 52.5103 70.71 50.9203 70.5C50.2903 70.41 50.9203 69.43 50.3303 69.34C49.5303 69.23 47.1303 67.74 47.0803 69.39L46.5803 69.24L45.5903 72.66Z" fill="white"/>
<path d="M44.1602 79.06L44.6602 79.18C43.8802 80.63 46.7102 80.54 47.4502 80.84C48.1902 81.14 47.9302 79.96 48.5402 80.13C48.8702 80.23 49.4902 80.41 49.5402 79.92C49.6102 79.17 50.9902 76.8 49.3902 76.66C48.7502 76.66 49.3902 75.59 48.7502 75.54C47.9402 75.46 45.4802 74.08 45.5102 75.73L45.0002 75.6L44.1602 79.06Z" fill="white"/>
<path d="M42.8604 85.32L43.3704 85.44C42.5804 86.89 45.3704 86.81 46.1504 87.12C46.7404 87.36 46.6304 86.24 47.2404 86.42C47.5704 86.52 48.1804 86.7 48.2404 86.21C48.3204 85.46 49.7104 83.1 48.1104 82.95C47.4804 82.89 48.1104 81.88 47.4804 81.82C46.6704 81.74 44.2304 80.34 44.2404 81.99L43.7304 81.86C43.4404 83.01 43.1604 84.17 42.8604 85.32Z" fill="white"/>
<path d="M41.9102 91.71L42.4102 91.84C41.6102 93.28 44.4102 93.23 45.1802 93.54C45.7702 93.79 45.6602 92.66 46.2802 92.84C46.6002 92.94 47.2202 93.13 47.2802 92.64C47.3702 91.89 48.7802 89.54 47.1802 89.38C46.5502 89.32 47.1802 88.31 46.5602 88.24C45.7502 88.16 43.3102 86.74 43.3102 88.39L42.8102 88.26C42.5002 89.41 42.2102 90.56 41.9102 91.71Z" fill="white"/>
<path d="M40.6602 97.96L41.1702 98.08C40.3802 99.54 43.1702 99.44 43.9602 99.75C44.5502 99.99 44.4302 98.86 45.0502 99.04C45.3702 99.13 45.9902 99.31 46.0502 98.82C46.1302 98.07 47.5002 95.69 45.9102 95.56C45.2702 95.5 45.9102 94.49 45.2702 94.43C44.4602 94.35 42.0002 92.97 42.0302 94.62L41.5202 94.5C41.2302 95.65 40.9502 96.77 40.6602 97.96Z" fill="white"/>
<path d="M39.6401 104.46L40.1501 104.56C39.4201 106.05 42.2401 105.84 43.0001 106.12C43.6001 106.34 43.4401 105.22 44.0601 105.37C44.3901 105.45 45.0601 105.61 45.0601 105.11C45.1101 104.36 46.3901 101.93 44.7901 101.85C44.1501 101.85 44.7901 100.78 44.1101 100.75C43.3001 100.75 40.7901 99.41 40.8801 101.06L40.3701 100.96L39.6401 104.46Z" fill="white"/>
<path d="M38.7603 110.97L39.2703 111.06C38.5903 112.57 41.4003 112.28 42.1703 112.52C42.7803 112.72 42.5803 111.61 43.1703 111.74C43.5003 111.81 44.1703 111.95 44.1703 111.45C44.1703 110.7 45.4103 108.22 43.8103 108.2C43.1703 108.2 43.7303 107.13 43.0903 107.12C42.2803 107.12 39.7303 105.88 39.8703 107.53L39.3603 107.45C39.1703 108.62 39.0103 109.77 38.7603 110.97Z" fill="white"/>
<path d="M38.1904 117.38L38.7004 117.5C37.9604 118.98 40.7804 118.8 41.5304 119.09C42.2804 119.38 41.9804 118.19 42.6004 118.34C42.9304 118.43 43.5504 118.6 43.6004 118.1C43.6604 117.34 44.9804 114.92 43.3804 114.83C42.7404 114.83 43.3804 113.75 42.7104 113.71C41.9004 113.66 39.4104 112.34 39.4704 113.99L38.9604 113.88C38.7004 115.05 38.4504 116.22 38.1904 117.38Z" fill="white"/>
<path d="M37.4004 123.7L37.9104 123.82C37.1304 125.29 39.9104 125.18 40.7004 125.48C41.4904 125.78 41.1704 124.59 41.7904 124.76C42.1204 124.85 42.7304 125.03 42.7904 124.53C42.8704 123.78 44.2404 121.38 42.6404 121.25C42.0104 121.25 42.6404 120.18 42.0004 120.12C41.1904 120.05 38.7304 118.67 38.7604 120.33L38.2504 120.21L37.4004 123.7Z" fill="white"/>
<path d="M36.8101 130.37L37.3201 130.49C36.5601 131.97 39.3801 131.8 40.1401 132.09C40.7401 132.31 40.6001 131.19 41.2101 131.35C41.5401 131.43 42.1601 131.6 42.2101 131.11C42.2801 130.35 43.6001 127.93 42.0001 127.83C41.3601 127.83 42.0001 126.75 41.3401 126.71C40.5301 126.65 38.0401 125.32 38.1001 126.98L37.5901 126.87C37.3201 128.04 37.0701 129.21 36.8101 130.37Z" fill="white"/>
<path d="M35.8003 136.83L36.3203 136.93C35.5803 138.43 38.4003 138.23 39.1603 138.5C39.7603 138.72 39.6003 137.6 40.2203 137.75C40.5503 137.83 41.2203 137.99 41.2203 137.49C41.2703 136.74 42.5703 134.3 40.9703 134.22C40.3303 134.22 40.9703 133.15 40.2903 133.11C39.4803 133.06 36.9803 131.76 37.0603 133.42L36.5403 133.32C36.2903 134.49 36.0103 135.66 35.8003 136.83Z" fill="white"/>
<path d="M35.4204 143.46L35.9404 143.52C35.3304 145.07 38.1304 144.64 38.9404 144.85C39.5504 145.02 39.3004 143.91 39.9404 144.01C40.2704 144.07 40.9404 144.18 40.9404 143.68C40.9404 142.92 42.0204 140.38 40.4204 140.43C39.7804 140.43 40.2904 139.37 39.6504 139.43C38.8404 139.43 36.2404 138.36 36.4504 140.01L35.9304 139.94C35.7204 141.08 35.5704 142.27 35.4204 143.46Z" fill="white"/>
<path d="M35.2002 149.77H35.7202C35.1502 151.33 37.9302 150.83 38.7202 151.02C39.3402 151.17 39.0602 150.02 39.7202 150.16C40.0602 150.16 40.7202 150.29 40.7202 149.79C40.7202 149.03 41.7202 146.47 40.1102 146.57C39.4702 146.57 39.9502 145.5 39.3102 145.57C38.5002 145.57 35.8702 144.57 36.1302 146.23H35.6102C35.4302 147.43 35.3202 148.62 35.2002 149.77Z" fill="white"/>
<path d="M35.1704 156.6H35.6904C35.2504 158.2 37.9904 157.47 38.7804 157.6C39.5704 157.73 39.0504 156.6 39.6904 156.66C40.0304 156.66 40.6904 156.72 40.6104 156.22C40.5204 155.47 41.3304 152.83 39.7404 153.05C39.1104 153.14 39.5004 152 38.8604 152.05C38.0604 152.16 35.3604 151.35 35.7504 152.97H35.2204C35.2104 154.21 35.1904 155.4 35.1704 156.6Z" fill="white"/>
<path d="M47.5702 157.19H48.1102C47.7102 158.82 50.4702 158 51.2902 158.1C51.9402 158.18 51.5302 157.1 52.1802 157.1C52.5302 157.1 53.1802 157.1 53.1002 156.63C52.9802 155.87 53.7202 153.18 52.1002 153.46C51.4602 153.57 51.8202 152.4 51.1702 152.46C50.3602 152.6 47.5702 151.87 48.0302 153.46H47.4902C47.5302 154.77 47.5502 155.98 47.5702 157.19Z" fill="white"/>
<path d="M47.5104 163.53H48.0404C47.6704 165.17 50.4204 164.31 51.2404 164.4C51.8904 164.47 51.4604 163.4 52.1204 163.4C52.4604 163.4 53.1204 163.4 53.0304 162.92C52.9104 162.16 53.6004 159.46 52.0304 159.76C51.3904 159.88 51.7304 158.76 51.0904 158.83C50.2804 158.97 47.4804 158.29 47.9604 159.9H47.4204C47.4404 161.11 47.4804 162.32 47.5104 163.53Z" fill="white"/>
<path d="M48.0602 170.09H48.5902C48.2002 171.73 50.9602 170.88 51.7802 170.98C52.4302 171.06 52.0102 169.98 52.6602 169.98C53.0102 169.98 53.6602 169.98 53.5802 169.5C53.4602 168.74 54.1802 166.04 52.5802 166.33C51.9402 166.45 52.2902 165.33 51.6502 165.39C50.8302 165.53 48.0402 164.83 48.5102 166.39H47.9702C48.0102 167.67 48.0102 168.88 48.0602 170.09Z" fill="white"/>
<path d="M48.37 176.87H48.9C48.51 178.5 51.27 177.68 52.08 177.78C52.73 177.86 52.32 176.78 52.97 176.78C53.32 176.78 53.97 176.78 53.9 176.31C53.78 175.55 54.52 172.86 52.9 173.14C52.26 173.25 52.62 172.14 51.97 172.19C51.16 172.33 48.37 171.6 48.82 173.19H48.29C48.33 174.45 48.35 175.66 48.37 176.87Z" fill="white"/>
<path d="M48.9202 183.54H49.4502C49.1302 185.19 51.8502 184.24 52.6702 184.31C53.3202 184.31 52.8602 183.31 53.5202 183.31C53.8702 183.31 54.5202 183.31 54.4202 182.79C54.2702 182.04 54.8802 179.32 53.2902 179.67C52.6502 179.81 52.9602 178.67 52.2902 178.76C51.4802 178.93 48.6702 178.33 49.1902 179.93H48.6602C48.7702 181.12 48.8402 182.33 48.9202 183.54Z" fill="white"/>
<path d="M49.5601 190.03H50.0901C49.7501 191.68 52.4801 190.75 53.3001 190.82C53.9501 190.88 53.5001 189.82 54.1601 189.82C54.5001 189.82 55.1601 189.82 55.0601 189.31C54.9201 188.56 55.5501 185.83 53.9501 186.17C53.3201 186.31 53.6301 185.17 52.9501 185.26C52.1401 185.43 49.3301 184.81 49.8501 186.41H49.3101L49.5601 190.03Z" fill="white"/>
<path d="M50.5601 196.55H51.1001C50.7501 198.2 53.4901 197.29 54.3101 197.37C54.9501 197.43 54.5101 196.37 55.1701 196.37C55.5101 196.37 56.1701 196.37 56.0701 195.87C55.9301 195.11 56.5901 192.39 54.9901 192.72C54.3501 192.85 54.6701 191.72 53.9901 191.8C53.1801 191.96 50.3801 191.32 50.8801 192.93H50.3501C50.4501 194.13 50.5101 195.34 50.5601 196.55Z" fill="white"/>
<path d="M51.2502 203.02H51.7802C51.4602 204.68 54.1802 203.73 55.0002 203.8C55.6502 203.85 55.1902 202.8 55.8502 202.8C56.1902 202.8 56.8502 202.8 56.7502 202.29C56.5902 201.54 57.2102 198.8 55.6202 199.16C54.9802 199.3 55.2902 198.16 54.6202 198.25C53.8102 198.42 51.0002 197.82 51.5202 199.42H50.9902C51.1002 200.59 51.1702 201.77 51.2502 203.02Z" fill="white"/>
<path d="M52.2204 209.66L52.7504 209.6C52.4904 211.27 55.1804 210.22 56.0004 210.25C56.6504 210.25 56.1604 209.25 56.8104 209.25C57.1504 209.25 57.8104 209.2 57.6904 208.7C57.5104 207.95 58.0204 205.2 56.4404 205.61C55.8104 205.77 56.0804 204.61 55.4404 204.74C54.6404 204.94 51.8104 204.44 52.3904 206.03L51.8604 206.08L52.2204 209.66Z" fill="white"/>
<path d="M53.3404 216.27L53.8704 216.2C53.6604 217.88 56.3104 216.74 57.1304 216.75C57.7904 216.75 57.2604 215.75 57.9104 215.67C58.2504 215.67 58.9104 215.58 58.7704 215.09C58.5704 214.35 59.0004 211.57 57.4304 212.09C56.8004 212.27 57.0304 211.09 56.4304 211.25C55.6404 211.47 52.7904 211.06 53.4304 212.63L52.9004 212.7L53.3404 216.27Z" fill="white"/>
<path d="M54.7304 222.69L55.2604 222.64C54.9904 224.31 57.6804 223.29 58.5004 223.33C59.1604 223.33 58.6704 222.33 59.3204 222.33C59.6704 222.33 60.3204 222.28 60.2104 221.79C60.0404 221.03 60.5804 218.27 59.0004 218.67C58.3604 218.83 58.6404 217.67 58.0004 217.78C57.1904 217.98 54.3604 217.45 54.9304 219.04L54.4004 219.09C54.5204 220.26 54.6304 221.48 54.7304 222.69Z" fill="white"/>
<path d="M55.8804 229.09H56.4104C56.0904 230.76 58.8104 229.79 59.6304 229.86C60.2903 229.91 59.8204 228.86 60.4804 228.86C60.8204 228.86 61.4804 228.86 61.3804 228.34C61.2204 227.58 61.8304 224.83 60.2304 225.19C59.6004 225.34 59.9004 224.19 59.2304 224.29C58.4204 224.46 55.6104 223.86 56.1404 225.48H55.6104L55.8804 229.09Z" fill="white"/>
<path d="M57.3202 235.77H57.8502C57.5702 237.44 60.2702 236.43 61.0902 236.48C61.7402 236.48 61.2602 235.48 61.9102 235.48C62.2602 235.48 62.9102 235.48 62.8002 234.94C62.6402 234.19 63.1902 231.42 61.6002 231.81C60.9702 231.97 61.2502 230.81 60.6002 230.92C59.7902 231.12 56.9702 230.57 57.5202 232.17L56.9902 232.22C57.1202 233.33 57.2202 234.55 57.3202 235.77Z" fill="white"/>
<path d="M58.3102 242.36L58.8402 242.31C58.5702 243.98 61.2602 242.93 62.0802 242.97C62.7302 242.97 62.2402 241.97 62.8902 241.92C63.2402 241.92 63.8902 241.92 63.7802 241.37C63.6002 240.61 64.1202 237.85 62.5402 238.26C61.9002 238.42 62.1702 237.26 61.5402 237.38C60.7402 237.58 57.9002 237.07 58.4802 238.66L57.9502 238.72L58.3102 242.36Z" fill="white"/>
<path d="M59.95 248.93L60.47 248.84C60.34 250.53 62.94 249.26 63.76 249.23C64.41 249.23 63.83 248.23 64.48 248.11C64.82 248.06 65.48 247.98 65.32 247.49C65.08 246.76 65.32 243.96 63.83 244.49C63.21 244.71 63.38 243.49 62.76 243.7C61.98 243.97 59.11 243.7 59.82 245.23L59.29 245.33L59.95 248.93Z" fill="white"/>
<path d="M61.6504 255.19L62.1804 255.08C62.0904 256.78 64.6504 255.44 65.4804 255.39C66.1304 255.39 65.4804 254.39 66.1604 254.25C66.5104 254.19 67.1604 254.09 66.9804 253.61C66.7204 252.88 66.9804 250.07 65.4104 250.61C64.8004 250.84 64.9404 249.61 64.3204 249.85C63.5504 250.13 60.6804 249.94 61.4304 251.46L60.9004 251.57C61.1604 252.77 61.4104 254 61.6504 255.19Z" fill="white"/>
<path d="M63.7401 261.42L64.2601 261.29C64.2601 262.99 66.7501 261.55 67.5701 261.46C68.2201 261.4 67.5701 260.46 68.2101 260.3C68.5501 260.23 69.2101 260.1 69.0001 259.62C68.7101 258.9 68.8101 256.09 67.3101 256.73C66.7101 256.99 66.7901 255.73 66.1901 256.01C65.4301 256.33 62.5501 256.25 63.3601 257.74L62.8501 257.87C63.1501 259.05 63.4401 260.24 63.7401 261.42Z" fill="white"/>
<path d="M65.4701 268.11L66.0101 267.98C66.0101 269.67 68.5001 268.23 69.3201 268.15C69.9601 268.08 69.3201 267.15 69.9601 266.98C70.3001 266.91 70.9601 266.78 70.7501 266.31C70.4601 265.59 70.5601 262.78 69.0601 263.42C68.4601 263.67 68.5401 262.42 67.9401 262.7C67.1801 263.02 64.3001 262.94 65.1101 264.43L64.6001 264.56C64.8801 265.77 65.1701 266.92 65.4701 268.11Z" fill="white"/>
<path d="M65.3203 45.54L65.8303 45.7C64.9403 47.12 67.8303 47.22 68.5603 47.57C69.2903 47.92 69.1003 46.71 69.7203 46.93C70.0403 47.04 70.6603 47.27 70.7203 46.77C70.8503 46.02 72.4003 43.7 70.7903 43.45C70.1403 43.35 70.8603 42.36 70.2103 42.26C69.3903 42.13 66.9803 40.56 66.9003 42.26L66.3903 42.1C66.0103 43.23 65.6903 44.38 65.3203 45.54Z" fill="white"/>
<path d="M67.6201 39.38L68.1301 39.54C67.2401 40.96 70.1301 41.06 70.8601 41.41C71.4501 41.7 71.4001 40.55 72.0101 40.77C72.3401 40.89 73.0101 41.12 73.0101 40.62C73.1401 39.86 74.6901 37.54 73.0801 37.29C72.4301 37.19 73.1401 36.21 72.5001 36.1C71.6801 35.97 69.2701 34.4 69.1901 36.1L68.6801 35.94C68.3501 37.07 68.0101 38.23 67.6201 39.38Z" fill="white"/>
<path d="M63.25 51.53L63.76 51.68C62.88 53.12 65.76 53.17 66.51 53.52C67.26 53.87 67.04 52.65 67.66 52.86C67.99 52.97 68.66 53.19 68.66 52.69C68.78 51.93 70.3 49.59 68.66 49.37C68.02 49.28 68.72 48.28 68.07 48.19C67.25 48.07 64.82 46.53 64.76 48.19L64.25 48.04C63.94 49.21 63.6 50.37 63.25 51.53Z" fill="white"/>
<path d="M61.6802 57.92L62.1902 58.07C61.3002 59.5 64.1902 59.58 64.9302 59.93C65.5202 60.21 65.4602 59.06 66.0802 59.28C66.4102 59.39 67.0202 59.62 67.0802 59.12C67.2102 58.36 68.7502 56.03 67.0802 55.79C66.4302 55.7 67.1402 54.71 66.5002 54.61C65.6802 54.48 63.2602 52.92 63.1802 54.61L62.6702 54.46C62.3902 55.61 62.0102 56.77 61.6802 57.92Z" fill="white"/>
<path d="M59.8203 64.45L60.3203 64.61C59.4303 66.03 62.3203 66.13 63.0503 66.48C63.7803 66.83 63.5903 65.62 64.2103 65.84C64.5303 65.96 65.1503 66.19 65.2103 65.69C65.3403 64.93 66.9003 62.61 65.2803 62.36C64.6403 62.26 65.3503 61.28 64.7103 61.17C63.8903 61.04 61.4803 59.46 61.4003 61.17L60.8903 61.01C60.5503 62.14 60.1803 63.29 59.8203 64.45Z" fill="white"/>
<path d="M58.2202 70.95L58.7302 71.08C57.9002 72.55 60.7802 72.51 61.5402 72.84C62.1402 73.1 62.0402 71.95 62.6702 72.14C63.0002 72.24 63.6702 72.44 63.6702 71.94C63.7702 71.18 65.2202 68.79 63.6002 68.62C62.9502 68.55 63.6002 67.53 62.9702 67.45C62.1502 67.36 59.6702 65.89 59.6602 67.58L59.1402 67.44L58.2202 70.95Z" fill="white"/>
<path d="M56.7603 77.3L57.2703 77.44C56.4303 78.9 59.2703 78.89 60.0703 79.22C60.6603 79.48 60.5803 78.33 61.2003 78.53C61.5303 78.63 62.2003 78.84 62.2003 78.33C62.3003 77.57 63.7703 75.19 62.1403 75.01C61.5003 74.93 62.1403 73.92 61.5203 73.84C60.7003 73.74 58.2403 72.25 58.2103 73.94L57.7003 73.8L56.7603 77.3Z" fill="white"/>
<path d="M55.6401 83.77L56.1501 83.92C55.3001 85.37 58.1501 85.38 58.9301 85.71C59.7101 86.04 59.4501 84.83 60.0701 85.03C60.4001 85.13 61.0201 85.34 61.0701 84.84C61.1801 84.08 62.6601 81.71 61.0701 81.51C60.4201 81.43 61.0701 80.42 60.4601 80.34C59.6401 80.23 57.1801 78.73 57.1501 80.42L56.6301 80.27C56.3001 81.47 56.0101 82.64 55.6401 83.77Z" fill="white"/>
<path d="M54.2305 90.15L54.7405 90.29C53.9105 91.76 56.7905 91.72 57.5505 92.05C58.1505 92.3 58.0505 91.16 58.6805 91.35C59.0105 91.45 59.6305 91.65 59.6805 91.15C59.7705 90.38 61.2305 87.99 59.6005 87.82C58.9505 87.75 59.6005 86.72 58.9705 86.65C58.1505 86.55 55.6805 85.09 55.6605 86.77L55.1505 86.64C54.8605 87.77 54.5405 88.98 54.2305 90.15Z" fill="white"/>
<path d="M53.0103 96.77L53.5303 96.89C52.7503 98.39 55.6303 98.24 56.4003 98.54C57.0103 98.77 56.8703 97.63 57.5003 97.79C57.8403 97.88 58.5003 98.06 58.5003 97.55C58.5703 96.79 59.9303 94.34 58.3003 94.22C57.6503 94.22 58.3003 93.13 57.6303 93.08C56.8103 93.02 54.2803 91.64 54.3303 93.33L53.8103 93.21L53.0103 96.77Z" fill="white"/>
<path d="M52.0103 103.38L52.5303 103.48C51.8003 105.01 54.6703 104.77 55.4503 105.04C56.0703 105.26 55.8903 104.12 56.5303 104.27C56.8703 104.34 57.5303 104.5 57.5303 103.99C57.5303 103.22 58.8603 100.73 57.2303 100.67C56.5803 100.67 57.1703 99.58 56.5203 99.55C55.6903 99.55 53.1203 98.21 53.2303 99.9L52.7003 99.8L52.0103 103.38Z" fill="white"/>
<path d="M51.27 109.91L51.79 110.04C51 111.53 53.88 111.42 54.64 111.72C55.4 112.02 55.12 110.81 55.75 110.99C56.09 111.08 56.75 111.27 56.75 110.76C56.82 109.99 58.22 107.55 56.59 107.42C55.94 107.37 56.59 106.32 55.93 106.26C55.11 106.19 52.59 104.79 52.62 106.48L52.1 106.36C51.84 107.54 51.56 108.77 51.27 109.91Z" fill="white"/>
<path d="M50.3301 116.34L50.8401 116.48C50.0101 117.96 52.8901 117.9 53.6501 118.23C54.2501 118.48 54.1601 117.33 54.7801 117.52C55.1101 117.62 55.7801 117.82 55.7801 117.31C55.8701 116.54 57.3201 114.13 55.7001 113.96C55.0501 113.89 55.7001 112.86 55.0701 112.79C54.2401 112.7 51.7601 111.24 51.7501 112.93L51.2401 112.8L50.3301 116.34Z" fill="white"/>
<path d="M49.5703 123.13L50.0903 123.26C49.2803 124.75 52.1703 124.65 52.9303 124.96C53.5403 125.2 53.4203 124.05 54.0403 124.23C54.3803 124.32 55.0403 124.51 55.0403 124C55.1203 123.23 56.5303 120.79 54.9003 120.65C54.2503 120.65 54.9003 119.56 54.2403 119.5C53.4203 119.42 50.9103 118 50.9403 119.7L50.4203 119.58L49.5703 123.13Z" fill="white"/>
<path d="M48.4004 129.7L48.9204 129.82C48.1404 131.32 51.0204 131.18 51.7904 131.48C52.4004 131.72 52.2604 130.57 52.8904 130.74C53.2304 130.83 53.8904 131.01 53.8904 130.5C53.9704 129.72 55.3404 127.27 53.7104 127.15C53.0604 127.15 53.7104 126.05 53.0404 126C52.2204 125.94 49.6904 124.55 49.7404 126.25L49.2204 126.13C48.9504 127.32 48.6804 128.51 48.4004 129.7Z" fill="white"/>
<path d="M47.8701 136.45L48.4001 136.53C47.7401 138.09 50.6001 137.71 51.4001 137.95C52.0201 138.13 51.7901 136.95 52.4001 137.12C52.7401 137.18 53.4001 137.31 53.4001 136.8C53.4001 136.02 54.5701 133.46 52.9401 133.48C52.2801 133.48 52.8301 132.38 52.1801 132.39C51.3501 132.39 48.7201 131.21 48.9001 132.9L48.3801 132.83C48.2201 134.03 48.0101 135.24 47.8701 136.45Z" fill="white"/>
<path d="M47.5 142.93L48.02 142.99C47.41 144.57 50.26 144.12 51.02 144.33C51.65 144.5 51.39 143.33 52.02 143.47C52.36 143.52 53.02 143.63 53.02 143.12C53.02 142.35 54.11 139.75 52.47 139.82C51.82 139.82 52.34 138.73 51.68 138.75C50.86 138.75 48.2 137.67 48.42 139.35L47.89 139.29L47.5 142.93Z" fill="white"/>
<path d="M47.4902 149.5H48.0202C47.4702 151.1 50.3002 150.5 51.1102 150.71C51.7402 150.86 51.4402 149.71 52.1102 149.81C52.4502 149.81 53.1102 149.94 53.1102 149.43C53.1102 148.65 54.0602 146.02 52.4302 146.15C51.7802 146.15 52.2502 145.06 51.6002 145.15C50.7702 145.21 48.0702 144.22 48.3602 145.89H47.8302C47.6802 147.06 47.5902 148.28 47.4902 149.5Z" fill="white"/>
<path d="M59.2101 154.62H59.7401C59.3501 156.25 62.1101 155.43 62.9201 155.53C63.5701 155.61 63.1601 154.53 63.8101 154.53C64.1601 154.53 64.8101 154.53 64.7401 154.06C64.6201 153.3 65.3501 150.61 63.7401 150.89C63.1001 151 63.4601 149.89 62.8201 149.94C62.0001 150.08 59.2201 149.35 59.6701 150.94H59.1401C59.1601 152.2 59.1901 153.41 59.2101 154.62Z" fill="white"/>
<path d="M59.1503 160.96H59.6803C59.3103 162.6 62.0603 161.74 62.8703 161.83C63.5203 161.9 63.1003 160.83 63.7503 160.83C64.1003 160.83 64.7503 160.83 64.6703 160.35C64.5403 159.59 65.2403 156.89 63.6703 157.19C63.0303 157.31 63.3803 156.19 62.7303 156.26C61.9203 156.4 59.1303 155.72 59.6003 157.33H59.0703L59.1503 160.96Z" fill="white"/>
<path d="M59.6901 167.52H60.2201C59.8401 169.16 62.5901 168.31 63.4101 168.41C64.0601 168.49 63.6401 167.41 64.3001 167.41C64.6401 167.41 65.3001 167.41 65.2201 166.93C65.0901 166.17 65.8101 163.47 64.2201 163.76C63.5801 163.88 63.9301 162.76 63.2901 162.83C62.4801 162.97 59.6901 162.26 60.1501 163.83H59.6201L59.6901 167.52Z" fill="white"/>
<path d="M60.0104 174.3H60.5404C60.1504 175.93 62.9104 175.11 63.7304 175.21C64.3804 175.29 63.9704 174.21 64.6204 174.21C64.9704 174.21 65.6204 174.21 65.5404 173.74C65.4204 172.98 66.1604 170.29 64.5404 170.57C63.9004 170.68 64.2604 169.57 63.6204 169.57C62.8004 169.71 60.0204 168.98 60.4704 170.57H59.9404L60.0104 174.3Z" fill="white"/>
<path d="M60.5503 180.97H61.0803C60.7603 182.62 63.4803 181.67 64.3103 181.74C64.9603 181.74 64.5003 180.74 65.1503 180.74C65.5003 180.74 66.1503 180.74 66.0503 180.23C65.9003 179.47 66.5203 176.75 64.9203 177.1C64.2903 177.24 64.5903 176.1 63.9203 176.19C63.1103 176.37 60.2903 175.76 60.8203 177.36H60.2803C60.4003 178.55 60.4803 179.77 60.5503 180.97Z" fill="white"/>
<path d="M61.1902 187.46H61.7202C61.3902 189.11 64.1202 188.18 64.9402 188.25C65.5902 188.31 65.1402 187.25 65.7902 187.25C66.1402 187.25 66.7902 187.25 66.7002 186.74C66.5502 185.99 67.1902 183.26 65.5902 183.6C64.9502 183.74 65.2702 182.6 64.5902 182.69C63.7802 182.86 60.9702 182.24 61.4802 183.84H60.9502C61.0602 185.04 61.1202 186.25 61.1902 187.46Z" fill="white"/>
<path d="M62.2002 193.98H62.7302C62.3802 195.63 65.1202 194.72 65.9402 194.8C66.5902 194.86 66.1502 193.8 66.8002 193.8C67.1502 193.8 67.8002 193.8 67.7102 193.3C67.5702 192.54 68.2202 189.82 66.6202 190.15C65.9802 190.28 66.3102 189.15 65.6202 189.23C64.8102 189.39 62.0002 188.75 62.5002 190.36H61.9702L62.2002 193.98Z" fill="white"/>
<path d="M62.8804 200.45H63.4104C63.0904 202.11 65.8104 201.16 66.6304 201.23C67.2804 201.23 66.8304 200.23 67.4804 200.23C67.8304 200.23 68.4804 200.23 68.3804 199.71C68.2304 198.96 68.8504 196.22 67.2504 196.58C66.6104 196.72 66.9204 195.58 66.2504 195.67C65.4404 195.84 62.6204 195.24 63.1504 196.84H62.6104C62.7304 198.03 62.8104 199.24 62.8804 200.45Z" fill="white"/>
<path d="M63.8602 207.09L64.3902 207.03C64.1302 208.7 66.8102 207.65 67.6402 207.68C68.2902 207.68 67.7902 206.68 68.4402 206.68C68.7902 206.68 69.4402 206.68 69.3202 206.13C69.1402 205.38 69.6602 202.63 68.0802 203.04C67.4402 203.2 67.7102 202.04 67.0802 202.17C66.2702 202.37 63.4402 201.87 64.0202 203.46H63.4902C63.6202 204.67 63.7402 205.88 63.8602 207.09Z" fill="white"/>
<path d="M65.0101 213.7L65.5401 213.63C65.3301 215.31 67.9801 214.17 68.8101 214.18C69.4601 214.18 68.9301 213.18 69.5801 213.1C69.9301 213.1 70.5801 213.01 70.4501 212.52C70.2401 211.78 70.6701 209 69.1001 209.52C68.4801 209.7 68.7001 208.52 68.1001 208.68C67.3101 208.9 64.4601 208.49 65.1001 210.06L64.5801 210.13C64.6601 211.29 64.8201 212.49 65.0101 213.7Z" fill="white"/>
<path d="M66.3703 220.12L66.9003 220.07C66.6203 221.75 69.3203 220.72 70.1403 220.76C70.7903 220.76 70.3103 219.76 70.9603 219.76C71.3003 219.76 71.9603 219.71 71.8503 219.22C71.6703 218.46 72.2203 215.7 70.6303 216.1C70.0003 216.26 70.2803 215.1 69.6303 215.21C68.8303 215.41 66.0003 214.88 66.5603 216.47L66.0303 216.52L66.3703 220.12Z" fill="white"/>
<path d="M67.5102 226.52H68.0402C67.7302 228.19 70.4502 227.22 71.2702 227.29C71.9202 227.34 71.4602 226.29 72.1102 226.29C72.4602 226.29 73.1102 226.29 73.0102 225.76C72.8602 225 73.4602 222.25 71.8702 222.61C71.2302 222.76 71.5402 221.61 70.8702 221.71C70.0602 221.88 67.2402 221.29 67.7702 222.9H67.2402L67.5102 226.52Z" fill="white"/>
<path d="M69.0104 233.2H69.5404C69.2504 234.87 71.9504 233.86 72.7804 233.91C73.4304 233.91 72.9504 232.91 73.6004 232.86C73.9404 232.86 74.6004 232.86 74.4904 232.32C74.3204 231.57 74.8804 228.8 73.2904 229.19C72.6504 229.35 72.9404 228.19 72.2904 228.31C71.4904 228.5 68.6604 227.95 69.2204 229.55L68.6904 229.6C68.7504 230.77 68.8604 231.98 69.0104 233.2Z" fill="white"/>
<path d="M69.9401 239.77L70.4701 239.72C70.2001 241.39 72.8901 240.34 73.7201 240.38C74.3701 240.38 73.8701 239.38 74.5301 239.33C74.8701 239.33 75.5301 239.33 75.4101 238.78C75.2301 238.02 75.7501 235.26 74.1701 235.67C73.5401 235.83 73.8101 234.67 73.1701 234.79C72.3701 234.99 69.5401 234.48 70.1701 236.07L69.6401 236.13C69.7101 237.36 69.8201 238.57 69.9401 239.77Z" fill="white"/>
<path d="M71.5802 246.36L72.1002 246.27C71.9802 247.96 74.5702 246.69 75.3902 246.66C76.0502 246.66 75.4702 245.66 76.1102 245.54C76.4602 245.49 77.1102 245.41 76.9502 244.93C76.7102 244.19 77.0002 241.39 75.4602 241.93C74.8402 242.15 75.0102 240.93 74.3902 241.14C73.6102 241.41 70.7402 241.14 71.4502 242.67L70.9302 242.77C71.1502 243.96 71.3702 245.16 71.5802 246.36Z" fill="white"/>
<path d="M73.29 252.62L73.81 252.51C73.73 254.21 76.29 252.87 77.11 252.82C77.76 252.82 77.11 251.82 77.8 251.68C78.14 251.62 78.8 251.52 78.62 251.04C78.36 250.31 78.62 247.5 77.05 248.04C76.43 248.27 76.57 247.04 75.96 247.28C75.18 247.57 72.31 247.37 73.06 248.89L72.54 249L73.29 252.62Z" fill="white"/>
<path d="M75.3705 258.85L75.8905 258.72C75.8905 260.42 78.3805 258.98 79.2005 258.89C79.8505 258.83 79.2005 257.89 79.8405 257.73C80.1805 257.66 80.8405 257.53 80.6305 257.05C80.3505 256.33 80.4505 253.52 78.9405 254.16C78.3405 254.42 78.4305 253.16 77.8305 253.44C77.0605 253.76 74.1805 253.68 75.0005 255.17L74.4805 255.3C74.7805 256.48 75.0805 257.67 75.3705 258.85Z" fill="white"/>
<path d="M77.1004 265.54L77.6204 265.41C77.6204 267.1 80.1104 265.66 80.9304 265.58C81.5804 265.51 80.9304 264.58 81.5704 264.41C81.9104 264.34 82.5704 264.21 82.3604 263.74C82.0804 263.02 82.1804 260.21 80.6704 260.85C80.0704 261.1 80.1604 259.85 79.5604 260.13C78.7904 260.45 75.9104 260.37 76.7304 261.86L76.2104 261.99C76.5104 263.17 76.8104 264.35 77.1004 265.54Z" fill="white"/>
<path d="M76.9502 42.68L77.4602 42.84C76.5702 44.26 79.4602 44.35 80.1902 44.71C80.9202 45.07 80.7302 43.85 81.3402 44.07C81.6702 44.18 82.3402 44.41 82.3402 43.91C82.4702 43.16 84.0202 40.84 82.4102 40.59C81.7602 40.49 82.4702 39.5 81.8302 39.4C81.0102 39.27 78.6002 37.69 78.5202 39.4L78.0102 39.25C77.6802 40.37 77.3202 41.52 76.9502 42.68Z" fill="white"/>
<path d="M74.8804 48.96L75.3904 49.11C74.5204 50.55 77.3904 50.6 78.1504 50.95C78.7404 51.23 78.6704 50.08 79.2904 50.29C79.6204 50.4 80.2404 50.62 80.2904 50.12C80.4104 49.36 81.9304 47.03 80.2904 46.8C79.6404 46.71 80.3404 45.71 79.7004 45.62C78.8804 45.5 76.4504 43.96 76.3804 45.62L75.8704 45.47C75.5804 46.64 75.2304 47.77 74.8804 48.96Z" fill="white"/>
<path d="M73.3101 55.35L73.8201 55.5C72.9401 56.93 75.8201 57.01 76.5601 57.36C77.3001 57.71 77.1001 56.49 77.7101 56.71C78.0401 56.82 78.6601 57.05 78.7101 56.55C78.8301 55.79 80.3701 53.46 78.7101 53.23C78.0701 53.13 78.7801 52.14 78.1301 52.04C77.3101 51.91 74.8901 50.36 74.8201 52.04L74.3101 51.88C74.0101 53.04 73.6701 54.19 73.3101 55.35Z" fill="white"/>
<path d="M71.4502 61.88L71.9602 62.04C71.0602 63.46 73.9602 63.56 74.6902 63.92C75.2702 64.2 75.2302 63.05 75.8402 63.27C76.1702 63.39 76.7802 63.62 76.8402 63.12C76.9702 62.36 78.5202 60.04 76.9102 59.79C76.2602 59.69 76.9802 58.71 76.3302 58.6C75.5202 58.47 73.1102 56.9 73.0202 58.6L72.5102 58.44C72.1802 59.57 71.8202 60.77 71.4502 61.88Z" fill="white"/>
<path d="M69.8501 68.38L70.3601 68.51C69.5301 69.98 72.4201 69.94 73.1701 70.27C73.9201 70.6 73.6801 69.38 74.3001 69.57C74.6301 69.67 75.3001 69.88 75.3001 69.37C75.3901 68.61 76.8501 66.22 75.2201 66.05C74.5701 65.98 75.2201 64.96 74.5901 64.88C73.7701 64.79 71.2901 63.32 71.2801 65.01L70.7701 64.87C70.4801 66.04 70.1601 67.21 69.8501 68.38Z" fill="white"/>
<path d="M68.3901 74.77L68.9001 74.91C68.0601 76.37 70.9001 76.36 71.7001 76.69C72.5001 77.02 72.2101 75.8 72.8301 76C73.1601 76.1 73.8301 76.31 73.8301 75.8C73.9301 75.04 75.4001 72.66 73.7801 72.48C73.1301 72.4 73.7801 71.39 73.1601 71.31C72.3401 71.21 69.8701 69.73 69.8501 71.41L69.3301 71.27L68.3901 74.77Z" fill="white"/>
<path d="M67.27 81.23L67.78 81.38C66.93 82.83 69.78 82.84 70.57 83.17C71.16 83.44 71.08 82.29 71.7 82.49C72.04 82.6 72.7 82.81 72.7 82.3C72.8 81.54 74.29 79.17 72.7 78.97C72.05 78.89 72.7 77.88 72.08 77.8C71.26 77.69 68.81 76.19 68.77 77.88L68.26 77.73L67.27 81.23Z" fill="white"/>
<path d="M65.8604 87.58L66.3804 87.72C65.5404 89.19 68.4304 89.15 69.1804 89.48C69.9304 89.81 69.6904 88.59 70.3104 88.78C70.6404 88.88 71.3104 89.08 71.3104 88.58C71.4004 87.81 72.8604 85.42 71.2404 85.25C70.5904 85.18 71.2404 84.15 70.6104 84.08C69.7904 83.98 67.3104 82.52 67.3004 84.2L66.7804 84.07C66.4904 85.24 66.1804 86.41 65.8604 87.58Z" fill="white"/>
<path d="M64.6704 94.19L65.1904 94.31C64.4204 95.81 67.3004 95.66 68.0704 95.96C68.6804 96.19 68.5404 95.05 69.1704 95.21C69.5004 95.3 70.1704 95.48 70.1704 94.97C70.2304 94.21 71.6004 91.76 69.9704 91.64C69.3204 91.64 69.9704 90.55 69.3004 90.5C68.4704 90.44 65.9404 89.06 65.9904 90.75L65.4704 90.64C65.2204 91.82 64.9504 93 64.6704 94.19Z" fill="white"/>
<path d="M63.6304 100.77L64.1504 100.87C63.4204 102.4 66.3004 102.16 67.0704 102.43C67.6904 102.65 67.5104 101.51 68.1504 101.66C68.4904 101.74 69.1504 101.89 69.1504 101.39C69.1504 100.61 70.4904 98.12 68.8504 98.06C68.2004 98.06 68.8004 96.97 68.1404 96.94C67.3204 96.94 64.7504 95.6 64.8504 97.29L64.3304 97.19C64.1004 98.43 63.8604 99.62 63.6304 100.77Z" fill="white"/>
<path d="M62.9102 107.34L63.4302 107.47C62.6302 108.96 65.5102 108.85 66.2802 109.15C66.8802 109.39 66.7602 108.24 67.3902 108.42C67.7202 108.51 68.3902 108.7 68.3902 108.19C68.4702 107.42 69.8602 104.98 68.2302 104.85C67.5802 104.8 68.2302 103.75 67.5802 103.7C66.7502 103.62 64.2402 102.22 64.2702 103.91L63.7502 103.79C63.4802 104.97 63.1902 106.16 62.9102 107.34Z" fill="white"/>
<path d="M62.0103 113.77L62.5203 113.91C61.6903 115.39 64.5803 115.33 65.3403 115.66C65.9403 115.91 65.8403 114.76 66.4603 114.95C66.8003 115.05 67.4603 115.25 67.4603 114.74C67.5603 113.97 69.0103 111.56 67.3803 111.39C66.7303 111.32 67.3803 110.29 66.7503 110.22C65.9303 110.13 63.4503 108.67 63.4403 110.37L62.9203 110.23L62.0103 113.77Z" fill="white"/>
<path d="M61.2002 120.56L61.7202 120.69C60.9202 122.18 63.8002 122.08 64.5702 122.39C65.1702 122.63 65.0502 121.48 65.6802 121.66C66.0102 121.75 66.6802 121.94 66.6802 121.43C66.7702 120.66 68.1702 118.22 66.5402 118.08C65.8902 118.03 66.5402 116.99 65.8902 116.93C65.0602 116.85 62.5602 115.43 62.5802 117.13L62.0602 117.01L61.2002 120.56Z" fill="white"/>
<path d="M60.0103 127.13L60.5303 127.25C59.7403 128.75 62.6203 128.61 63.3903 128.91C64.0003 129.15 63.8703 128 64.5003 128.17C64.8303 128.26 65.5003 128.44 65.5003 127.93C65.5703 127.16 66.9503 124.7 65.3103 124.58C64.6603 124.53 65.3103 123.48 64.6503 123.43C63.8203 123.37 61.3003 121.98 61.3403 123.68L60.8203 123.56C60.5903 124.77 60.3103 125.94 60.0103 127.13Z" fill="white"/>
<path d="M59.5 133.88L60.03 133.96C59.37 135.52 62.23 135.14 63.03 135.38C63.66 135.56 63.43 134.38 64.03 134.55C64.37 134.61 65.03 134.74 65.03 134.23C65.03 133.45 66.21 130.89 64.57 130.91C63.92 130.91 64.47 129.81 63.81 129.82C62.99 129.82 60.36 128.64 60.54 130.33L60.01 130.26C59.86 131.46 59.68 132.67 59.5 133.88Z" fill="white"/>
<path d="M59.1304 140.36L59.6604 140.42C59.0404 142 61.8904 141.55 62.6604 141.76C63.2904 141.93 63.0304 140.76 63.6604 140.9C64.0004 140.95 64.6604 141.06 64.6604 140.55C64.6604 139.78 65.7404 137.18 64.1104 137.25C63.4504 137.25 63.9704 136.16 63.3204 136.18C62.4904 136.18 59.8304 135.1 60.0604 136.78L59.5304 136.72C59.4204 137.94 59.2804 139.15 59.1304 140.36Z" fill="white"/>
<path d="M59.1304 146.93H59.6604C59.1104 148.53 61.9404 147.93 62.7404 148.14C63.3804 148.29 63.0704 147.14 63.7404 147.24C64.0804 147.24 64.7404 147.37 64.7404 146.86C64.7404 146.08 65.6904 143.45 64.0604 143.58C63.4104 143.63 63.8804 142.49 63.2304 142.58C62.4104 142.64 59.7004 141.65 60.0004 143.32H59.4704C59.3204 144.49 59.2204 145.71 59.1304 146.93Z" fill="white"/>
</svg>
