<svg width="121" height="133" viewBox="0 0 121 133" fill="none" xmlns="http://www.w3.org/2000/svg">
<path d="M0.740234 52.42L56.4402 0.599976C84.72 29.7327 106.622 64.4363 120.75 102.5L53.6802 132.09C39.3502 101.16 23.4102 74.4 0.740234 52.42Z" fill="#D8544F"/>
<path d="M56.0102 12.77L55.6002 13.13C57.2902 14.31 54.4602 15.46 53.9202 16.13C53.3802 16.8 52.9202 15.43 52.4102 15.88C52.1502 16.12 51.6602 16.59 51.3002 16.1C50.7502 15.35 47.9002 13.51 49.3702 12.64C49.9502 12.29 48.6902 11.53 49.2602 11.18C50.0002 10.73 51.4902 8.17999 52.5402 9.89999L52.9602 9.53997C54.0102 10.64 55.0102 11.71 56.0102 12.77Z" fill="white"/>
<path d="M61.4104 18.41L61.0104 18.77C62.6704 19.99 59.8104 21.06 59.2504 21.69C58.6904 22.32 58.2504 20.96 57.7404 21.4C57.4804 21.64 56.9704 22.1 56.6304 21.59C56.1004 20.83 53.3004 18.92 54.7904 18.1C55.3804 17.77 54.1404 16.97 54.7304 16.63C55.4804 16.21 57.0604 13.69 58.0504 15.45C58.2004 15.34 58.3404 15.22 58.4804 15.1C59.4404 16.2 60.4304 17.3 61.4104 18.41Z" fill="white"/>
<path d="M66.4302 24.69L66.0002 25.03C67.6502 26.26 64.7802 27.32 64.2102 27.95C63.6402 28.58 63.2102 27.2 62.7102 27.65C62.4402 27.88 61.9402 28.33 61.6002 27.83C61.0802 27.06 58.3002 25.14 59.8002 24.32C60.3902 23.99 59.1602 23.19 59.7502 22.86C60.5002 22.43 62.1002 19.93 63.0802 21.69C63.2302 21.58 63.3602 21.46 63.5002 21.35C64.4802 22.47 65.4602 23.57 66.4302 24.69Z" fill="white"/>
<path d="M71.72 31.09C71.57 31.2 71.42 31.31 71.28 31.43C72.92 32.67 70.03 33.7 69.47 34.33C68.91 34.96 68.47 33.58 67.98 34.02C67.71 34.25 67.2 34.7 66.86 34.19C66.36 33.42 63.59 31.48 65.1 30.67C65.7 30.34 64.47 29.54 65.1 29.2C65.85 28.79 67.47 26.29 68.43 28.06L68.86 27.73C69.8067 28.8433 70.76 29.9633 71.72 31.09Z" fill="white"/>
<path d="M76.6103 37.6L76.1503 37.91C77.7203 39.24 74.7703 40.09 74.1503 40.68C73.5303 41.27 73.2003 39.88 72.6603 40.28C72.3803 40.49 71.8403 40.91 71.5303 40.39C71.0603 39.6 68.4103 37.51 69.9703 36.8C70.6003 36.51 69.4103 35.63 70.0303 35.35C70.8103 34.98 72.5803 32.6 73.4403 34.42C73.6003 34.31 73.7503 34.2 73.9003 34.11C74.8103 35.27 75.7203 36.43 76.6103 37.6Z" fill="white"/>
<path d="M81.1802 44.06L80.7202 44.37C82.2802 45.71 79.3202 46.54 78.7202 47.12C78.1202 47.7 77.7902 46.31 77.2502 46.71C76.9602 46.93 76.4202 47.33 76.1202 46.81C75.6602 46.02 73.0302 43.91 74.5902 43.21C75.2102 42.93 74.0402 42.04 74.6602 41.76C75.4402 41.4 77.2302 39.03 78.0802 40.85L78.5302 40.54L81.1802 44.06Z" fill="white"/>
<path d="M85.3602 50.83L84.9002 51.13C86.4402 52.48 83.4802 53.29 82.9002 53.87C82.3202 54.45 81.9802 53.05 81.4302 53.45C81.1402 53.67 80.6001 54.07 80.3101 53.55C79.8601 52.75 77.2501 50.63 78.8101 49.93C79.4401 49.66 78.2702 48.76 78.8902 48.48C79.6802 48.13 81.4801 45.78 82.3101 47.6L82.7702 47.29C83.6102 48.47 84.4902 49.64 85.3602 50.83Z" fill="white"/>
<path d="M89.66 57.39L89.19 57.68C90.69 59.06 87.7 59.8 87.07 60.36C86.44 60.92 86.17 59.52 85.61 59.9C85.31 60.1 84.76 60.49 84.48 59.96C84.05 59.16 81.48 56.96 83.09 56.32C83.72 56.06 82.58 55.14 83.21 54.88C84.01 54.54 85.88 52.25 86.66 54.09L87.13 53.8L89.66 57.39Z" fill="white"/>
<path d="M93.7199 64.34L93.2399 64.6C94.6699 66.06 91.6399 66.6 90.9699 67.15C90.2999 67.7 90.0999 66.27 89.5299 66.62C89.2199 66.81 88.6499 67.16 88.3899 66.62C87.9999 65.8 85.5599 63.49 87.1899 62.93C87.8399 62.71 86.7399 61.74 87.3899 61.51C88.2099 61.22 90.2099 59.04 90.8899 60.91L91.3799 60.64C92.1699 61.87 92.9399 63.11 93.7199 64.34Z" fill="white"/>
<path d="M97.5304 71.39L97.0304 71.63C98.4004 73.14 95.3304 73.56 94.6404 74.05C93.9504 74.54 93.8203 73.14 93.2203 73.46C92.9003 73.63 92.3104 73.95 92.0804 73.41C91.7304 72.57 89.3904 70.17 91.0804 69.69C91.7404 69.5 90.6903 68.48 91.3503 68.28C92.1903 68.04 94.3004 65.96 94.8904 67.85L95.3904 67.61C96.0804 68.86 96.8104 70.12 97.5304 71.39Z" fill="white"/>
<path d="M100.85 78.44L100.36 78.69C101.76 80.17 98.7203 80.69 98.0503 81.2C97.3803 81.71 97.2104 80.31 96.6304 80.65C96.3204 80.83 95.7404 81.19 95.4904 80.65C95.1204 79.82 92.7403 77.48 94.3703 76.94C95.0203 76.73 93.9504 75.74 94.6004 75.52C95.4204 75.25 97.4604 73.1 98.1004 74.97L98.5904 74.72L100.85 78.44Z" fill="white"/>
<path d="M104.25 85.35L103.76 85.62C105.17 87.08 102.15 87.62 101.48 88.15C100.81 88.68 100.64 87.27 100.06 87.61C99.75 87.8 99.17 88.15 98.93 87.61C98.55 86.79 96.1701 84.45 97.7801 83.91C98.4301 83.69 97.36 82.7 98 82.48C98.81 82.19 100.83 80.02 101.48 81.89L101.96 81.63C102.733 82.87 103.497 84.11 104.25 85.35Z" fill="white"/>
<path d="M107.46 92.77L106.96 93.01C108.31 94.51 105.28 95.01 104.59 95.47C103.9 95.93 103.77 94.56 103.19 94.88C102.87 95.06 102.29 95.39 102.06 94.88C101.71 94.05 99.4002 91.66 101.06 91.17C101.71 90.97 100.67 89.96 101.32 89.75C102.14 89.49 104.24 87.4 104.83 89.28L105.32 89.04C106.01 90.22 106.74 91.48 107.46 92.77Z" fill="white"/>
<path d="M110.89 99.82L110.39 100.05C111.7 101.58 108.65 101.95 107.95 102.43C107.25 102.91 107.16 101.5 106.56 101.82C106.25 101.98 105.64 102.3 105.43 101.75C105.11 100.9 102.87 98.47 104.52 98.02C105.18 97.84 104.16 96.8 104.82 96.61C105.65 96.38 107.82 94.34 108.34 96.24L108.84 96C109.52 97.27 110.21 98.54 110.89 99.82Z" fill="white"/>
<path d="M58.1699 30.62L57.7299 30.97C59.3599 32.2 56.4299 33.28 55.8499 33.92C55.2699 34.56 54.8499 33.18 54.3299 33.63C54.0499 33.87 53.5399 34.33 53.1999 33.82C52.6899 33.06 49.9299 31.14 51.4599 30.3C52.0699 29.97 50.8399 29.17 51.4599 28.83C52.2299 28.4 53.9199 25.83 54.8599 27.63L55.2999 27.28L58.1699 30.62Z" fill="white"/>
<path d="M52.71 24.99C52.55 25.1 52.4099 25.22 52.2599 25.34C53.8899 26.56 50.9699 27.65 50.3799 28.29C49.7899 28.93 49.3799 27.55 48.8699 28C48.5899 28.24 48.07 28.7 47.74 28.19C47.23 27.43 44.4699 25.5 45.9999 24.67C46.6099 24.34 45.3799 23.53 45.9999 23.19C46.7699 22.76 48.45 20.19 49.4 22L49.8399 21.65L52.71 24.99Z" fill="white"/>
<path d="M62.7701 37.11L62.3201 37.46C63.9501 38.69 61.0101 39.77 60.4301 40.41C59.8501 41.05 59.4301 39.67 58.9201 40.11C58.6501 40.35 58.1201 40.8 57.7901 40.3C57.2901 39.53 54.5401 37.59 56.0701 36.76C56.6901 36.43 55.4601 35.62 56.0701 35.29C56.8401 34.86 58.54 32.29 59.47 34.11L59.9101 33.76L62.7701 37.11Z" fill="white"/>
<path d="M67.4997 43.38L67.0397 43.71C68.6397 44.98 65.6797 45.98 65.0397 46.6C64.3997 47.22 64.0397 45.84 63.5397 46.27C63.2497 46.5 62.7197 46.95 62.3997 46.43C61.9197 45.65 59.2197 43.66 60.7697 42.86C61.3997 42.55 60.1897 41.71 60.7697 41.39C61.5597 40.99 63.3097 38.51 64.1997 40.3L64.6597 39.96L67.4997 43.38Z" fill="white"/>
<path d="M72.01 50.04L71.54 50.35C73.08 51.69 70.06 52.54 69.42 53.13C68.78 53.72 68.49 52.32 67.93 52.72C67.63 52.94 67.07 53.35 66.78 52.83C66.33 52.02 63.72 49.91 65.32 49.2C65.96 48.92 64.8 48.03 65.43 47.74C66.24 47.38 68.13 44.99 68.93 46.82L69.41 46.51C70.3 47.69 71.18 48.86 72.01 50.04Z" fill="white"/>
<path d="M76.3598 56.77L75.8798 57.06C77.3598 58.46 74.2897 59.17 73.6197 59.73C72.9497 60.29 72.7298 58.89 72.1498 59.27C71.8398 59.47 71.2698 59.85 70.9898 59.27C70.5798 58.46 68.0498 56.27 69.6898 55.6C70.3498 55.35 69.2097 54.42 69.8697 54.16C70.6897 53.83 72.6898 51.54 73.4198 53.39L73.8998 53.1L76.3598 56.77Z" fill="white"/>
<path d="M80.22 63.63L79.74 63.94C81.26 65.29 78.23 66.11 77.59 66.69C76.95 67.27 76.67 65.87 76.1 66.27C75.8 66.48 75.24 66.89 74.96 66.36C74.52 65.56 71.96 63.41 73.55 62.72C74.19 62.44 73.04 61.53 73.68 61.26C74.49 60.9 76.41 58.54 77.18 60.38L77.66 60.07L80.22 63.63Z" fill="white"/>
<path d="M84.1597 70.29L83.6897 70.6C85.2197 71.95 82.2097 72.79 81.5697 73.39C80.9297 73.99 80.6497 72.58 80.0897 72.98C79.7997 73.2 79.2397 73.61 78.9497 73.09C78.5097 72.29 75.9497 70.16 77.5097 69.45C78.1497 69.17 76.9897 68.28 77.6197 67.99C78.4297 67.62 80.3097 65.23 81.0997 67.06L81.5697 66.75L84.1597 70.29Z" fill="white"/>
<path d="M88.0101 77.44L87.5301 77.74C89.0201 79.12 85.9801 79.88 85.3201 80.45C84.8101 80.9 84.4301 79.62 83.8601 80C83.5501 80.21 82.9801 80.61 82.7101 80.07C82.2901 79.26 79.7601 77.07 81.3801 76.41C82.0301 76.15 80.8901 75.23 81.5401 74.96C82.3601 74.61 84.3201 72.29 85.0501 74.14L85.5401 73.84L88.0101 77.44Z" fill="white"/>
<path d="M92.0097 84.25L91.5197 84.53C92.9797 85.94 89.9197 86.64 89.2497 87.19C88.5797 87.74 88.3697 86.33 87.7897 86.71C87.4797 86.91 86.8997 87.29 86.6397 86.71C86.2397 85.89 83.7697 83.65 85.4097 83.03C86.0597 82.78 84.9497 81.84 85.5997 81.58C86.4297 81.25 88.4397 78.99 89.1397 80.85C89.2997 80.75 89.4597 80.65 89.6297 80.56L92.0097 84.25Z" fill="white"/>
<path d="M95.41 91.48L94.9 91.71C96.23 93.24 93.08 93.63 92.36 94.11C91.64 94.59 91.56 93.19 90.94 93.5C90.61 93.67 89.99 93.99 89.78 93.44C89.45 92.6 87.18 90.16 88.89 89.7C89.57 89.52 88.54 88.48 89.22 88.29C90.08 88.05 92.32 86.01 92.84 87.9L93.36 87.67C94.01 88.93 94.73 90.21 95.41 91.48Z" fill="white"/>
<path d="M98.42 98.48C98.24 98.54 98.0701 98.62 97.8901 98.69C99.1601 100.25 96.0001 100.53 95.2501 100.98C94.6601 101.34 94.4901 100.03 93.8601 100.32C93.5201 100.47 92.8601 100.77 92.7001 100.21C92.4101 99.36 90.2301 96.86 91.9501 96.46C92.6401 96.31 91.65 95.24 92.34 95.08C93.21 94.87 95.5401 92.92 95.9901 94.82L96.5101 94.61C97.1501 95.9 97.79 97.19 98.42 98.48Z" fill="white"/>
<path d="M50.7601 36.93L50.3302 37.26C51.9002 38.45 49.0801 39.48 48.5101 40.1C47.9401 40.72 47.5601 39.39 47.0601 39.82C46.7901 40.05 46.2901 40.49 45.9701 40C45.4801 39.26 42.8202 37.4 44.3002 36.6C44.8902 36.29 43.7102 35.51 44.3002 35.18C45.0502 34.77 46.6702 32.34 47.5802 34.04L48.0001 33.71C48.9268 34.7767 49.8468 35.85 50.7601 36.93Z" fill="white"/>
<path d="M45.5101 31.49L45.0801 31.83C46.6501 33.01 43.8301 34.05 43.2601 34.67C42.6901 35.29 42.3201 33.95 41.8101 34.38C41.5401 34.61 41.0401 35.05 40.7201 34.57C40.2301 33.83 37.5801 31.97 39.0501 31.17C39.6401 30.85 38.4601 30.08 39.0501 29.75C39.6401 29.42 41.4201 26.9 42.3201 28.61L42.7501 28.27L45.5101 31.49Z" fill="white"/>
<path d="M55.1699 43.19L54.7399 43.52C56.2999 44.71 53.4699 45.74 52.9099 46.35C52.3499 46.96 51.9599 45.64 51.4599 46.06C51.1899 46.29 50.6799 46.73 50.3699 46.24C49.8899 45.5 47.2399 43.63 48.7199 42.83C49.3199 42.52 48.1399 41.74 48.7199 41.41C49.2999 41.08 51.0899 38.57 51.9899 40.29L52.4199 39.95L55.1699 43.19Z" fill="white"/>
<path d="M59.7 49.23L59.27 49.55C60.8 50.77 57.95 51.73 57.36 52.33C56.77 52.93 56.44 51.59 55.92 52C55.64 52.22 55.13 52.65 54.82 52.15C54.36 51.4 51.76 49.48 53.26 48.72C53.87 48.42 52.7 47.61 53.26 47.3C54.02 46.91 55.71 44.53 56.57 46.3L56.9999 45.97C57.9299 47.03 58.82 48.12 59.7 49.23Z" fill="white"/>
<path d="M64.0698 55.65L63.6098 55.95C65.0898 57.24 62.1798 58.05 61.5598 58.62C60.9398 59.19 60.6698 57.84 60.1298 58.22C59.8398 58.43 59.2998 58.82 59.0198 58.32C58.5898 57.55 56.0798 55.51 57.6298 54.83C58.2498 54.56 57.1198 53.7 57.7398 53.42C58.5198 53.07 60.3398 50.78 61.1098 52.55L61.5598 52.25C62.3998 53.38 63.2398 54.51 64.0698 55.65Z" fill="white"/>
<path d="M68.21 62.18L67.74 62.45C69.16 63.8 66.21 64.45 65.56 65.02C64.91 65.59 64.71 64.21 64.15 64.57C63.85 64.76 63.29 65.13 63.03 64.62C62.64 63.83 60.21 61.7 61.79 61.09C62.42 60.84 61.33 59.94 61.96 59.69C62.76 59.38 64.68 57.18 65.38 58.97C65.53 58.87 65.69 58.78 65.85 58.69L68.21 62.18Z" fill="white"/>
<path d="M71.8999 68.77L71.4399 69.06C72.8999 70.37 69.9799 71.15 69.3599 71.71C68.7399 72.27 68.4799 70.92 67.9399 71.3C67.6499 71.5 67.0999 71.89 66.8299 71.38C66.4099 70.61 63.9399 68.53 65.4899 67.88C66.1099 67.61 64.9999 66.74 65.6199 66.47C66.3999 66.13 68.2499 63.86 68.9899 65.63C69.1399 65.53 69.2899 65.43 69.4499 65.34L71.8999 68.77Z" fill="white"/>
<path d="M75.6797 75.17L75.2297 75.47C76.6997 76.76 73.7997 77.57 73.2297 78.15C72.6597 78.73 72.3397 77.36 71.7997 77.75C71.5197 77.96 70.9797 78.36 70.6997 77.85C70.2697 77.08 67.7897 75.03 69.3197 74.35C69.9397 74.08 68.8197 73.22 69.4397 72.94C70.2097 72.58 72.0297 70.29 72.7897 72.06L73.2397 71.76C74.0097 72.89 74.8597 74.03 75.6797 75.17Z" fill="white"/>
<path d="M79.3398 82.06L78.8798 82.34C80.3098 83.68 77.3798 84.4 76.7498 84.95C76.1198 85.5 75.8898 84.15 75.3398 84.52C75.0398 84.71 74.4898 85.09 74.2298 84.58C73.8298 83.8 71.3998 81.69 72.9698 81.05C73.5898 80.8 72.4998 79.91 73.1198 79.65C73.9098 79.32 75.7998 77.09 76.4998 78.87L76.9698 78.59L79.3398 82.06Z" fill="white"/>
<path d="M83.2299 88.62L82.7598 88.89C84.1498 90.26 81.2098 90.89 80.5598 91.44C79.9098 91.99 79.7198 90.62 79.1598 90.98C78.8598 91.17 78.2999 91.54 78.0499 90.98C77.6699 90.19 75.2898 87.98 76.8698 87.43C77.4998 87.19 76.4398 86.28 77.0598 86.04C77.8598 85.72 79.7998 83.55 80.4698 85.34L80.9398 85.06C81.6998 86.28 82.4699 87.45 83.2299 88.62Z" fill="white"/>
<path d="M86.4699 95.59L85.9699 95.81C87.2399 97.28 84.2099 97.65 83.5199 98.12C82.8299 98.59 82.7499 97.23 82.1499 97.53C81.8399 97.69 81.2399 98 81.0399 97.46C80.7299 96.65 78.5399 94.3 80.1899 93.86C80.8399 93.69 79.8599 92.69 80.5099 92.51C81.3399 92.28 83.5099 90.31 83.9999 92.14L84.4999 91.91L86.4699 95.59Z" fill="white"/>
<path d="M89.3398 102.33L88.8298 102.53C90.0498 104.04 86.9998 104.3 86.2898 104.73C85.5798 105.16 85.5498 103.82 84.9398 104.1C84.6198 104.24 84.0098 104.53 83.8298 103.99C83.5498 103.17 81.4598 100.75 83.1198 100.38C83.7898 100.23 82.8298 99.2 83.4998 99.04C84.3398 98.85 86.5898 96.97 87.0098 98.81L87.5198 98.6C88.1298 99.85 88.7398 101.09 89.3398 102.33Z" fill="white"/>
<path d="M42.4601 43.54L42.0501 43.87C43.5701 45 40.86 46.02 40.31 46.62C39.76 47.22 39.39 45.94 38.91 46.36C38.65 46.58 38.17 47.01 37.91 46.55C37.43 45.84 34.8501 44.06 36.2701 43.28C36.8401 42.97 35.6901 42.23 36.2701 41.91C36.9901 41.51 38.5401 39.14 39.4301 40.78L39.84 40.45L42.4601 43.54Z" fill="white"/>
<path d="M37.3499 38.33L36.9399 38.66C38.4599 39.79 35.7499 40.81 35.2099 41.42C34.6699 42.03 34.2799 40.73 33.7999 41.15C33.5399 41.38 33.0599 41.81 32.7499 41.34C32.2699 40.63 29.6899 38.85 31.1099 38.07C31.6799 37.76 30.5299 37.02 31.1099 36.7C31.8299 36.3 33.3799 33.93 34.2699 35.57L34.6799 35.24L37.3499 38.33Z" fill="white"/>
<path d="M46.7697 49.55L46.3597 49.88C47.8697 51.01 45.1497 52.04 44.6097 52.63C44.0697 53.22 43.6897 51.94 43.2097 52.36C42.9497 52.58 42.4597 53.01 42.1597 52.54C41.6897 51.83 39.1597 50.04 40.5397 49.26C41.1097 48.95 39.9597 48.21 40.5397 47.89C41.2597 47.49 42.8197 45.13 43.6897 46.78L44.1097 46.45L46.7697 49.55Z" fill="white"/>
<path d="M51.1997 55.35L50.7797 55.67C52.2697 56.84 49.5198 57.79 48.9598 58.37C48.3998 58.95 48.0597 57.66 47.5597 58.06C47.2897 58.28 46.7997 58.7 46.4997 58.22C46.0497 57.49 43.4997 55.66 44.9697 54.91C45.5497 54.62 44.4197 53.84 44.9697 53.54C45.6997 53.16 47.3098 50.85 48.1498 52.54L48.5697 52.22L51.1997 55.35Z" fill="white"/>
<path d="M55.46 61.53L55.02 61.82C56.46 63.06 53.65 63.82 53.02 64.41C52.39 65 52.15 63.67 51.63 64.04C51.36 64.24 50.8399 64.63 50.5599 64.14C50.1499 63.4 47.6999 61.45 49.1899 60.78C49.7899 60.51 48.7 59.7 49.29 59.42C50.04 59.08 51.78 56.85 52.54 58.55L52.98 58.26C53.83 59.35 54.65 60.43 55.46 61.53Z" fill="white"/>
<path d="M59.5097 67.77L59.0597 68.04C60.4497 69.33 57.5997 70.04 56.9797 70.54C56.3597 71.04 56.1397 69.76 55.5997 70.11C55.3197 70.3 54.7897 70.66 54.5297 70.17C54.1397 69.41 51.7797 67.37 53.2997 66.76C53.9097 66.53 52.8497 65.66 53.4597 65.42C54.0697 65.18 56.0697 62.97 56.7497 64.69C56.8997 64.59 57.0497 64.51 57.2097 64.42C58.0097 65.56 58.7397 66.69 59.5097 67.77Z" fill="white"/>
<path d="M63.1298 74.12L62.6898 74.4C64.1098 75.66 61.2898 76.4 60.6898 76.98C60.0898 77.56 59.8298 76.22 59.3098 76.59C59.0298 76.79 58.5098 77.17 58.2398 76.68C57.8298 75.94 55.4298 73.95 56.9198 73.3C57.5098 73.05 56.4398 72.21 57.0298 71.95C57.7798 71.61 59.5498 69.4 60.2798 71.11L60.7198 70.82L63.1298 74.12Z" fill="white"/>
<path d="M66.8301 80.29L66.3901 80.58C67.8201 81.82 65.0301 82.63 64.4401 83.19C63.8501 83.75 63.5801 82.44 63.0601 82.81C62.7901 83.02 62.2701 83.41 62.0001 82.92C61.5801 82.18 59.1601 80.21 60.6401 79.55C61.2401 79.28 60.1501 78.46 60.7401 78.18C61.3301 77.9 63.2201 75.6 63.9701 77.31L64.4101 77.01L66.8301 80.29Z" fill="white"/>
<path d="M70.4198 86.92L69.9698 87.2C71.3598 88.47 68.5398 89.2 67.9698 89.73C67.3998 90.26 67.1298 88.96 66.5998 89.32C66.3098 89.52 65.7898 89.89 65.5298 89.39C65.1398 88.64 62.7798 86.62 64.2798 86C64.8798 85.75 63.8198 84.9 64.4198 84.64C65.1798 84.32 66.9898 82.14 67.6798 83.86L68.1298 83.58C68.8798 84.69 69.6498 85.77 70.4198 86.92Z" fill="white"/>
<path d="M74.2199 93.23L73.7699 93.49C75.1299 94.8 72.2899 95.49 71.6699 95.97C71.0499 96.45 70.8499 95.18 70.3099 95.53C70.0199 95.72 69.4799 96.08 69.2399 95.58C68.8599 94.82 66.5499 92.75 68.0699 92.16C68.6799 91.93 67.6499 91.06 68.2499 90.82C69.0099 90.51 70.8799 88.39 71.5299 90.11L71.9799 89.85C72.7299 90.97 73.4799 92.1 74.2199 93.23Z" fill="white"/>
<path d="M77.3997 99.93L76.9197 100.15C78.1697 101.56 75.2397 101.94 74.5697 102.4C73.8997 102.86 73.8297 101.54 73.2497 101.84C72.9497 101.99 72.3797 102.3 72.1697 101.78C71.8697 101 69.7397 98.78 71.3297 98.31C71.9597 98.14 70.9997 97.18 71.6297 97C72.4297 96.77 74.4997 94.86 74.9897 96.62L75.4697 96.4C76.1197 97.57 76.7597 98.77 77.3997 99.93Z" fill="white"/>
<path d="M80.2297 106.42L79.7397 106.62C80.9297 108.07 77.9897 108.34 77.2997 108.77C76.6097 109.2 76.5897 107.89 75.9997 108.16C75.6897 108.31 75.0997 108.58 74.9197 108.07C74.6497 107.28 72.6097 104.96 74.2097 104.58C74.8497 104.44 73.9197 103.45 74.5697 103.29C75.3697 103.09 77.5697 101.29 77.9497 103.04L78.4397 102.84L80.2297 106.42Z" fill="white"/>
<path d="M33.7898 49.63L33.3798 49.95C34.8998 51.08 32.1899 52.11 31.6499 52.71C31.1099 53.31 30.7198 52.02 30.2398 52.44C29.9798 52.67 29.4998 53.1 29.1898 52.63C28.7098 51.92 26.1298 50.14 27.5498 49.36C28.1198 49.05 26.9698 48.36 27.5498 47.99C28.1298 47.62 29.8198 45.22 30.6998 46.86L31.1098 46.54C32.0098 47.56 32.8998 48.6 33.7898 49.63Z" fill="white"/>
<path d="M28.6799 44.41L28.2699 44.74C29.7999 45.87 27.0799 46.89 26.5399 47.5C25.9999 48.11 25.6199 46.81 25.1299 47.23C24.8699 47.45 24.3899 47.88 24.0799 47.42C23.5999 46.71 21.0299 44.93 22.4499 44.15C23.0099 43.84 21.8699 43.1 22.4499 42.78C23.0299 42.46 24.7199 40.01 25.5999 41.65L26.0099 41.32L28.6799 44.41Z" fill="white"/>
<path d="M38.0999 55.64L37.6899 55.96C39.1999 57.1 36.4799 58.12 35.9399 58.71C35.3999 59.3 35.0199 58.03 34.5399 58.44C34.2799 58.66 33.7899 59.09 33.4799 58.62C33.0199 57.91 30.4799 56.13 31.8699 55.35C32.4399 55.03 31.2999 54.29 31.8699 53.97C32.5899 53.58 34.1499 51.21 35.0299 52.86L35.4399 52.53L38.0999 55.64Z" fill="white"/>
<path d="M42.5298 61.44L42.1098 61.75C43.5898 62.92 40.8498 63.87 40.2898 64.45C39.7298 65.03 39.3898 63.74 38.8898 64.15C38.6198 64.36 38.1298 64.78 37.8298 64.3C37.3798 63.58 34.8298 61.74 36.2998 61C36.8798 60.7 35.7498 59.93 36.2998 59.63C37.0298 59.25 38.6398 56.93 39.4798 58.63L39.8998 58.32L42.5298 61.44Z" fill="white"/>
<path d="M46.7798 67.61L46.3498 67.9C47.7798 69.14 44.9798 69.95 44.3498 70.5C43.7198 71.05 43.4798 69.75 42.9598 70.13C42.6798 70.33 42.1698 70.71 41.8898 70.23C41.4698 69.48 39.0298 67.53 40.5198 66.87C41.1198 66.6 40.0298 65.78 40.6198 65.51C41.3698 65.16 43.1098 62.94 43.8698 64.64L44.2998 64.35C45.1598 65.44 46.0098 66.52 46.7798 67.61Z" fill="white"/>
<path d="M50.83 73.89L50.38 74.16C51.77 75.45 48.92 76.16 48.3 76.65C47.68 77.14 47.47 75.87 46.93 76.23C46.64 76.41 46.11 76.78 45.85 76.28C45.47 75.53 43.11 73.48 44.63 72.88C45.23 72.64 44.1799 71.78 44.7799 71.53C45.5499 71.23 47.39 69.09 48.08 70.81L48.5299 70.54C49.2999 71.65 50.07 72.77 50.83 73.89Z" fill="white"/>
<path d="M54.4501 80.21L54.0101 80.49C55.4301 81.75 52.6101 82.49 52.0101 83.07C51.4101 83.65 51.1501 82.31 50.6301 82.68C50.3501 82.88 49.8301 83.26 49.5601 82.77C49.1501 82.03 46.7502 80.04 48.2402 79.39C48.8302 79.13 47.7601 78.29 48.3501 78.03C49.1101 77.7 50.8701 75.49 51.6001 77.2L52.0401 76.91L54.4501 80.21Z" fill="white"/>
<path d="M58.1499 86.38L57.7099 86.67C59.1399 87.92 56.3499 88.72 55.7599 89.28C55.1699 89.84 54.8999 88.53 54.3799 88.91C54.1099 89.11 53.5899 89.5 53.3199 89.01C52.8999 88.27 50.4799 86.3 51.9599 85.64C52.5599 85.37 51.4699 84.55 52.0599 84.27C52.6499 83.99 54.5399 81.7 55.2899 83.4L55.7299 83.1L58.1499 86.38Z" fill="white"/>
<path d="M61.7399 93.01L61.2899 93.29C62.6799 94.57 59.8599 95.29 59.2899 95.82C58.7199 96.35 58.4499 95.05 57.9199 95.41C57.6399 95.61 57.1099 95.98 56.8599 95.48C56.4599 94.73 54.0999 92.71 55.6099 92.09C56.2099 91.84 55.1499 90.99 55.7499 90.73C56.5099 90.41 58.3199 88.24 59.0099 89.95L59.4599 89.67C60.1899 90.77 61.0099 91.9 61.7399 93.01Z" fill="white"/>
<path d="M65.5398 99.32L65.0798 99.59C66.4398 100.89 63.5998 101.59 62.9798 102.07C62.3598 102.55 62.1598 101.28 61.6198 101.63C61.3298 101.82 60.7998 102.17 60.5498 101.63C60.1798 100.87 57.8698 98.8 59.3898 98.21C59.9998 97.98 58.9598 97.11 59.5598 96.87C60.3298 96.56 62.1898 94.44 62.8498 96.17L63.2998 95.9C64.0098 97.07 64.7898 98.2 65.5398 99.32Z" fill="white"/>
<path d="M68.7098 106.03L68.2298 106.25C69.4798 107.66 66.5498 108.03 65.8898 108.49C65.2298 108.95 65.1398 107.64 64.5598 107.93C64.2598 108.09 63.6898 108.39 63.4798 107.88C63.1798 107.1 61.0498 104.88 62.6398 104.41C63.2698 104.23 62.3098 103.27 62.9398 103.1C63.7398 102.87 65.8098 100.95 66.3098 102.71L66.7898 102.49C67.4298 103.67 68.0798 104.85 68.7098 106.03Z" fill="white"/>
<path d="M71.5398 112.52L71.0498 112.72C72.2398 114.17 69.2998 114.44 68.6098 114.86C67.9198 115.28 67.8898 113.99 67.3098 114.26C66.9898 114.4 66.4098 114.68 66.2298 114.16C65.9598 113.37 63.9198 111.05 65.5198 110.68C66.1598 110.53 65.2298 109.54 65.8798 109.39C66.6798 109.19 68.8798 107.39 69.2598 109.13L69.7498 108.93C70.3498 110.13 70.9498 111.32 71.5398 112.52Z" fill="white"/>
<path d="M25.8299 58.09L25.3999 58.42C26.9699 59.62 24.1399 60.64 23.5699 61.26C22.9999 61.88 22.6199 60.54 22.1099 60.97C21.8399 61.19 21.3399 61.63 21.0199 61.14C20.5299 60.4 17.8899 58.53 19.3699 57.74C19.9599 57.42 18.7799 56.64 19.3699 56.31C19.9599 55.98 21.7599 53.47 22.6499 55.18L23.0799 54.85L25.8299 58.09Z" fill="white"/>
<path d="M20.5999 52.62L20.1699 52.95C21.7399 54.15 18.9099 55.17 18.3399 55.79C17.7699 56.41 17.3899 55.07 16.8799 55.5C16.6099 55.72 16.1099 56.16 15.7899 55.68C15.2999 54.93 12.6599 53.06 14.1399 52.27C14.7299 51.95 13.5499 51.17 14.1399 50.84C14.8799 50.44 16.5299 48 17.4199 49.72L17.8499 49.38L20.5999 52.62Z" fill="white"/>
<path d="M30.2202 64.38L29.7902 64.71C31.3502 65.91 28.5102 66.93 27.9402 67.54C27.3702 68.15 27.0002 66.82 26.4902 67.24C26.2202 67.47 25.7102 67.91 25.4002 67.41C24.9202 66.67 22.2802 64.79 23.7702 64C24.3602 63.68 23.1802 62.89 23.7702 62.57C24.5202 62.17 26.1602 59.74 27.0502 61.46L27.4802 61.13C28.4102 62.21 29.3102 63.29 30.2202 64.38Z" fill="white"/>
<path d="M34.7399 70.45L34.2999 70.77C35.8199 72 32.9699 72.95 32.3799 73.55C31.7899 74.15 31.4499 72.8 30.9299 73.21C30.6499 73.43 30.1399 73.86 29.8299 73.36C29.3699 72.6 26.7799 70.67 28.2899 69.91C28.8899 69.62 27.7299 68.8 28.2899 68.49C29.0499 68.11 30.7599 65.73 31.6099 67.49L32.0499 67.17C33.0099 68.25 33.8499 69.34 34.7399 70.45Z" fill="white"/>
<path d="M39.07 76.91L38.62 77.2C40.09 78.51 37.17 79.3 36.55 79.86C35.93 80.42 35.66 79.08 35.11 79.46C34.83 79.67 34.29 80.06 34 79.56C33.58 78.78 31.07 76.72 32.63 76.05C33.25 75.78 32.13 74.92 32.75 74.65C33.53 74.3 35.36 72.02 36.13 73.78L36.58 73.49C37.41 74.63 38.25 75.77 39.07 76.91Z" fill="white"/>
<path d="M43.1898 83.47L42.7198 83.74C44.1398 85.1 41.1798 85.74 40.5298 86.3C39.8798 86.86 39.6698 85.48 39.1098 85.84C38.8098 86.03 38.2498 86.4 37.9898 85.84C37.5998 85.06 35.1798 82.91 36.7698 82.3C37.3998 82.06 36.3098 81.15 36.9498 80.91C37.7498 80.6 39.6898 78.4 40.3698 80.19L40.8398 79.92C41.6298 81.12 42.4098 82.3 43.1898 83.47Z" fill="white"/>
<path d="M46.8598 90.07C46.6998 90.16 46.5498 90.26 46.3998 90.36C47.8498 91.67 44.9198 92.44 44.2998 93C43.6798 93.56 43.4197 92.2 42.8797 92.58C42.5797 92.78 42.0398 93.17 41.7698 92.66C41.3498 91.88 38.8797 89.79 40.4397 89.14C41.0597 88.88 39.9497 88 40.5697 87.73C41.3597 87.39 43.2198 85.13 43.9598 86.91C44.1098 86.81 44.2598 86.71 44.4198 86.62L46.8598 90.07Z" fill="white"/>
<path d="M50.6101 96.51L50.1601 96.81C51.6201 98.12 48.7201 98.91 48.1001 99.48C47.4801 100.05 47.2101 98.7 46.6701 99.08C46.3901 99.29 45.8501 99.68 45.5701 99.17C45.1501 98.4 42.6701 96.33 44.2101 95.66C44.8301 95.39 43.7101 94.53 44.3301 94.25C44.9501 93.97 46.9401 91.61 47.6901 93.38L48.1401 93.08L50.6101 96.51Z" fill="white"/>
<path d="M54.2497 103.43L53.7797 103.71C55.2097 105.06 52.2697 105.77 51.6397 106.32C51.0097 106.87 50.7797 105.51 50.2197 105.87C49.9297 106.07 49.3797 106.45 49.1197 105.93C48.7197 105.15 46.2997 103.03 47.8597 102.4C48.4897 102.14 47.3997 101.25 48.0297 100.99C48.8197 100.67 50.7197 98.44 51.4197 100.23L51.8897 99.94L54.2497 103.43Z" fill="white"/>
<path d="M58.1101 110.02L57.6301 110.3C59.0301 111.67 56.0701 112.3 55.4201 112.84C54.7701 113.38 54.5801 112.01 54.0201 112.36C53.7101 112.56 53.1501 112.92 52.9101 112.36C52.5301 111.57 50.1601 109.36 51.7501 108.8C52.3801 108.57 51.3201 107.65 51.9401 107.41C52.7401 107.1 54.7001 104.93 55.3601 106.72L55.8301 106.45L58.1101 110.02Z" fill="white"/>
<path d="M61.3201 117.02L60.8101 117.24C62.0901 118.72 59.0501 119.07 58.3501 119.54C57.6501 120.01 57.5901 118.64 56.9901 118.94C56.6701 119.1 56.0701 119.4 55.8701 118.87C55.5601 118.06 53.3901 115.69 55.0401 115.26C55.6901 115.09 54.7101 114.08 55.3701 113.9C56.2001 113.68 58.3701 111.72 58.8601 113.55L59.3601 113.33C60.0101 114.56 60.6701 115.77 61.3201 117.02Z" fill="white"/>
</svg>
