<svg width="127" height="156" viewBox="0 0 127 156" fill="none" xmlns="http://www.w3.org/2000/svg">
<path d="M86.4898 155.24L126.83 96.55C100.84 70.77 79.6598 38.08 65.1698 0.77002L0.00976562 23.97C19.4398 75.58 49.3198 120.57 86.4898 155.24Z" fill="#D8544F"/>
<path d="M12.7002 40.97L13.1502 40.73C12.0802 39.53 14.7802 38.99 15.4202 38.53C16.0602 38.07 16.0702 39.26 16.6102 38.96C16.9002 38.8 17.4402 38.48 17.6102 38.96C17.8602 39.65 19.6902 41.59 18.2102 42.08C17.6102 42.27 18.4502 43.08 17.8502 43.29C17.2502 43.5 15.0902 45.41 14.7402 43.84L14.2902 44.07C13.7502 43.02 13.2202 42 12.7002 40.97Z" fill="white"/>
<path d="M9.93018 35.55L10.3902 35.33C9.34018 34.11 12.0102 33.61 12.7002 33.17C13.3902 32.73 13.3302 33.91 13.8802 33.62C14.1802 33.46 14.7302 33.16 14.8802 33.62C15.1102 34.32 16.8802 36.29 15.4102 36.75C14.8202 36.93 15.6302 37.75 15.0402 37.96C14.2802 38.19 12.2302 40.02 11.9102 38.45L11.4502 38.67C10.9502 37.63 10.4402 36.59 9.93018 35.55Z" fill="white"/>
<path d="M17.0102 49.41L17.4602 49.18C17.8102 50.75 19.8302 48.88 20.5802 48.63C21.1702 48.43 20.3702 47.63 20.9302 47.41C21.2302 47.27 21.8002 47.02 21.5202 46.62C21.1002 46.02 20.6102 43.4 19.3402 44.32C18.8402 44.68 18.6602 43.53 18.1502 43.89C17.6402 44.25 14.8102 44.89 15.8802 46.09L15.4302 46.33C16.0102 47.35 16.4902 48.38 17.0102 49.41Z" fill="white"/>
<path d="M19.7904 54.82L20.2404 54.58C20.6204 56.14 22.6104 54.23 23.3404 53.96C24.0704 53.69 23.1104 53.02 23.6704 52.74C23.9704 52.6 24.5404 52.33 24.2504 51.94C23.8204 51.35 23.2504 48.74 22.0304 49.68C21.5304 50.05 21.3304 48.9 20.8304 49.28C20.3304 49.66 17.5104 50.34 18.6004 51.52L18.1504 51.76C18.7004 52.77 19.2504 53.77 19.7904 54.82Z" fill="white"/>
<path d="M22.5003 60.23L22.9503 59.99C23.3503 61.54 25.3103 59.61 26.0403 59.33C26.6203 59.11 25.8003 58.39 26.3503 58.11C26.6503 57.96 27.2103 57.68 26.9203 57.3C26.4903 56.71 25.9203 54.11 24.6703 55.06C24.1803 55.45 23.9603 54.3 23.4703 54.68C22.9803 55.06 20.1603 55.79 21.2703 56.96L20.8203 57.2L22.5003 60.23Z" fill="white"/>
<path d="M25.8202 65.57L26.2702 65.32C26.6502 66.88 28.6302 64.96 29.3702 64.69C29.9502 64.47 29.1302 63.75 29.6902 63.47C29.9802 63.32 30.5502 63.05 30.2602 62.66C29.8302 62.07 29.2602 59.46 28.0202 60.41C27.5302 60.79 27.3202 59.65 26.8202 60.02C26.3202 60.39 23.5102 61.11 24.6102 62.28L24.1602 62.53C24.7202 63.54 25.2702 64.55 25.8202 65.57Z" fill="white"/>
<path d="M29.0104 71.2L29.4604 70.96C29.8304 72.52 31.8204 70.61 32.5604 70.35C33.3004 70.09 32.3304 69.35 32.8904 69.13C33.1904 68.98 33.7604 68.71 33.4704 68.32C33.0404 67.73 32.4704 65.12 31.2504 66.06C30.7504 66.43 30.5504 65.29 30.0504 65.66C29.5504 66.03 26.7604 66.77 27.8504 67.9L27.4004 68.14C27.9504 69.16 28.5004 70.18 29.0104 71.2Z" fill="white"/>
<path d="M32.4101 76.63L32.8501 76.37C33.3001 77.91 35.2001 75.92 35.9201 75.62C36.6401 75.32 35.6501 74.68 36.2001 74.39C36.4901 74.23 37.0401 73.93 36.7401 73.56C36.2801 72.98 35.6201 70.4 34.4201 71.39C33.9401 71.79 33.6901 70.65 33.2001 71.04C32.7101 71.43 29.9401 72.26 31.0801 73.39L30.6401 73.65L32.4101 76.63Z" fill="white"/>
<path d="M35.7803 81.87L36.2203 81.61C36.6503 83.16 38.5703 81.18 39.3003 80.88C39.8703 80.65 39.0303 79.94 39.5803 79.65C39.8703 79.49 40.4303 79.2 40.1303 78.82C39.6803 78.25 39.0303 75.65 37.8203 76.64C37.3403 77.03 37.0903 75.89 36.6103 76.28C36.1303 76.67 33.3303 77.47 34.4703 78.61L34.0103 78.87L35.7803 81.87Z" fill="white"/>
<path d="M39.4802 86.97L39.9202 86.72C40.3402 88.27 42.2702 86.3 43.0002 86.01C43.5802 85.78 42.7402 85.07 43.2902 84.78C43.5902 84.62 44.1402 84.34 43.8502 83.96C43.4002 83.37 42.7702 80.78 41.5502 81.75C41.0602 82.14 40.8302 81 40.3402 81.39C39.8502 81.78 37.0602 82.56 38.1802 83.7L37.7402 83.96L39.4802 86.97Z" fill="white"/>
<path d="M42.8701 92.17L43.3101 91.91C43.7601 93.46 45.6601 91.46 46.3901 91.16C46.9601 90.93 46.1101 90.22 46.6601 89.93C46.9501 89.77 47.5001 89.48 47.2001 89.1C46.7401 88.52 46.0801 85.93 44.8801 86.92C44.4001 87.32 44.1401 86.18 43.6601 86.58C43.1801 86.98 40.3901 87.78 41.5401 88.92L41.1001 89.18L42.8701 92.17Z" fill="white"/>
<path d="M46.6 97.39L47.02 97.11C47.53 98.64 49.35 96.58 50.07 96.25C50.63 95.99 49.76 95.32 50.29 95C50.58 94.83 51.12 94.52 50.8 94.15C50.32 93.59 49.56 91.03 48.4 92.07C47.93 92.48 47.64 91.35 47.17 91.76C46.7 92.17 43.95 93.1 45.17 94.19L44.75 94.47L46.6 97.39Z" fill="white"/>
<path d="M50.4204 102.52L50.8404 102.23C51.4004 103.75 53.1504 101.63 53.8404 101.28C54.4004 101 53.5004 100.36 54.0304 100.02C54.3104 99.84 54.8404 99.52 54.5104 99.16C54.0104 98.61 53.1704 96.07 52.0304 97.16C51.5804 97.59 51.2504 96.47 50.8004 96.9C50.3504 97.33 47.6204 98.33 48.8004 99.39L48.3804 99.68L50.4204 102.52Z" fill="white"/>
<path d="M54.41 107.37L54.84 107.1C55.33 108.64 57.17 106.6 57.89 106.28C58.46 106.03 57.59 105.34 58.13 105.03C58.42 104.87 58.96 104.56 58.65 104.19C58.17 103.62 57.44 101.04 56.26 102.06C55.79 102.47 55.51 101.34 55.03 101.74C54.55 102.14 51.8 103.04 52.97 104.15L52.54 104.42C53.17 105.4 53.79 106.39 54.41 107.37Z" fill="white"/>
<path d="M58.1601 112.31L58.6001 112.05C59.0601 113.61 60.9501 111.6 61.6701 111.3C62.3901 111 61.4001 110.3 61.9401 110.05C62.2301 109.89 62.7801 109.6 62.4801 109.22C62.0201 108.64 61.3301 106.04 60.1401 107.04C59.6601 107.44 59.4001 106.29 58.9201 106.69C58.4401 107.09 55.6501 107.91 56.8001 109.05L56.3701 109.31C57.0101 110.31 57.5701 111.31 58.1601 112.31Z" fill="white"/>
<path d="M62.3002 117.36L62.7302 117.09C63.2202 118.64 65.0702 116.6 65.7902 116.28C66.3602 116.03 65.4902 115.34 66.0402 115.03C66.3202 114.87 66.8702 114.56 66.5602 114.19C66.0902 113.62 65.3602 111.03 64.1702 112.05C63.7002 112.46 63.4202 111.32 62.9502 111.73C62.4802 112.14 59.7102 113.01 60.8802 114.12L60.4502 114.39C61.0702 115.38 61.6902 116.37 62.3002 117.36Z" fill="white"/>
<path d="M66.0101 122.54L66.4401 122.26C66.9401 123.8 68.7701 121.74 69.4401 121.41C70.1101 121.08 69.1401 120.48 69.6701 120.16C69.9601 119.99 70.5001 119.68 70.1901 119.31C69.7101 118.75 68.9401 116.17 67.7801 117.21C67.3101 117.62 67.0201 116.48 66.5501 116.89C66.0801 117.3 63.3201 118.21 64.5501 119.32L64.1201 119.59L66.0101 122.54Z" fill="white"/>
<path d="M70.2604 127.41L70.6704 127.1C71.3004 128.59 72.9504 126.39 73.6704 126C74.3904 125.61 73.2804 125.1 73.7904 124.74C74.0604 124.55 74.5804 124.19 74.2304 123.85C73.7104 123.33 72.7404 120.85 71.6604 121.95C71.2304 122.4 70.8404 121.29 70.4104 121.74C69.9804 122.19 67.3004 123.32 68.5704 124.32L68.1704 124.63C68.8504 125.55 69.5604 126.48 70.2604 127.41Z" fill="white"/>
<path d="M74.44 131.99L74.84 131.67C75.51 133.14 77.1 130.89 77.78 130.49C78.46 130.09 77.37 129.6 77.87 129.22C78.13 129.02 78.64 128.66 78.28 128.32C77.74 127.81 76.71 125.32 75.66 126.49C75.24 126.95 74.82 125.86 74.4 126.32C73.98 126.78 71.34 127.98 72.64 128.95L72.25 129.27L74.44 131.99Z" fill="white"/>
<path d="M78.9299 136.37L79.3099 136.04C80.0399 137.49 81.5399 135.17 82.1999 134.74C82.8599 134.31 81.7499 133.87 82.1999 133.47C82.4499 133.26 82.9499 132.87 82.5799 132.55C82.0199 132.07 80.8799 129.63 79.8799 130.83C79.4799 131.31 79.0199 130.23 78.6199 130.71C78.2199 131.19 75.6199 132.5 76.9599 133.41L76.5799 133.75L78.9299 136.37Z" fill="white"/>
<path d="M18.5103 32.54L18.9703 32.3C17.8803 31.07 20.6403 30.51 21.3003 30.05C21.9603 29.59 21.9603 30.79 22.5203 30.48C22.8103 30.32 23.3703 29.99 23.5203 30.48C23.7703 31.19 25.6503 33.18 24.1303 33.68C23.5203 33.88 24.3703 34.68 23.7703 34.92C23.0003 35.18 20.9403 37.09 20.5803 35.48L20.1103 35.72C19.5903 34.64 19.0103 33.59 18.5103 32.54Z" fill="white"/>
<path d="M22.9303 41.18L23.4003 40.95C23.7503 42.55 25.8203 40.64 26.5903 40.38C27.1903 40.18 26.3703 39.38 26.9503 39.14C27.2603 39 27.8403 38.73 27.5603 38.33C27.1303 37.71 26.6203 35.03 25.3203 35.97C24.8103 36.34 24.6203 35.16 24.1003 35.53C23.5803 35.9 20.6903 36.53 21.7803 37.79L21.3203 38.03C21.8603 39.08 22.4003 40.13 22.9303 41.18Z" fill="white"/>
<path d="M25.7701 46.77L26.2301 46.52C26.6201 48.12 28.6501 46.17 29.4101 45.89C30.0101 45.68 29.1701 44.89 29.7501 44.64C30.0501 44.5 30.6301 44.22 30.3401 43.82C29.9001 43.21 29.3401 40.54 28.0601 41.5C27.5501 41.89 27.3501 40.71 26.8301 41.1C26.3101 41.49 23.4401 42.19 24.5501 43.39L24.1001 43.64C24.6601 44.63 25.2201 45.67 25.7701 46.77Z" fill="white"/>
<path d="M28.5501 52.26L29.0001 52.01C29.4101 53.6 31.4201 51.62 32.1701 51.34C32.9201 51.06 31.9201 50.34 32.4901 50.09C32.7901 49.93 33.3701 49.65 33.0701 49.26C32.6201 48.65 32.0701 45.99 30.7701 46.97C30.2601 47.36 30.0401 46.19 29.5301 46.58C29.0201 46.97 26.1501 47.77 27.2801 48.91L26.8301 49.16L28.5501 52.26Z" fill="white"/>
<path d="M31.94 57.77L32.4 57.53C32.8 59.12 34.82 57.16 35.57 56.88C36.17 56.66 35.33 55.88 35.9 55.63C36.21 55.47 36.78 55.2 36.49 54.8C36.04 54.19 35.49 51.53 34.2 52.5C33.69 52.88 33.48 51.71 32.97 52.1C32.46 52.49 29.58 53.21 30.7 54.41L30.25 54.66L31.94 57.77Z" fill="white"/>
<path d="M35.2403 63.49L35.7003 63.24C36.0803 64.84 38.1203 62.89 38.8803 62.62C39.4803 62.4 38.6403 61.62 39.2103 61.37C39.5203 61.22 40.1003 60.95 39.8103 60.54C39.3703 59.94 38.8103 57.26 37.5303 58.23C37.0203 58.61 36.8203 57.43 36.3003 57.81C35.7803 58.19 32.9103 58.9 34.0103 60.11L33.5503 60.36L35.2403 63.49Z" fill="white"/>
<path d="M38.6904 69.05L39.1404 68.78C39.6004 70.36 41.5404 68.32 42.2904 68.01C42.8804 67.77 42.0104 67.06 42.5704 66.75C42.8704 66.59 43.4304 66.29 43.1204 65.9C42.6604 65.31 41.9804 62.67 40.7504 63.69C40.2504 64.09 40.0004 62.93 39.5004 63.33C39.0004 63.73 36.1604 64.57 37.3304 65.77L36.8804 66.04C37.4904 67.01 38.0904 68.03 38.6904 69.05Z" fill="white"/>
<path d="M42.1401 74.41L42.5901 74.15C43.0101 75.77 45.0101 73.7 45.7401 73.4C46.4701 73.1 45.4701 72.4 46.0301 72.14C46.3301 71.98 46.9001 71.68 46.5901 71.29C46.1301 70.7 45.4701 68.05 44.2301 69.06C43.7401 69.46 43.4901 68.3 42.9901 68.7C42.4901 69.1 39.6401 69.91 40.8001 71.08L40.3501 71.34L42.1401 74.41Z" fill="white"/>
<path d="M45.9204 79.63L46.3704 79.37C46.8104 80.96 48.7804 78.95 49.5304 78.65C50.1204 78.42 49.2704 77.65 49.8304 77.39C50.1304 77.23 50.7004 76.94 50.4004 76.55C49.9404 75.95 49.2904 73.29 48.0504 74.29C47.5504 74.69 47.3104 73.52 46.8104 73.92C46.3104 74.32 43.4504 75.12 44.6004 76.29L44.1504 76.55L45.9204 79.63Z" fill="white"/>
<path d="M49.4003 84.96L49.8503 84.69C50.3103 86.28 52.2503 84.24 53.0003 83.93C53.5903 83.68 52.7203 82.93 53.2803 82.66C53.5803 82.5 54.1403 82.2 53.8303 81.81C53.3603 81.22 52.6803 78.57 51.4503 79.59C50.9603 79.99 50.7003 78.83 50.2103 79.23C49.7203 79.63 46.8603 80.47 48.0103 81.63L47.5703 81.9L49.4003 84.96Z" fill="white"/>
<path d="M53.2103 90.3L53.6503 90.02C54.1703 91.59 56.0303 89.47 56.7703 89.14C57.3503 88.87 56.4503 88.14 57.0003 87.86C57.2903 87.69 57.8503 87.37 57.5203 86.99C57.0303 86.42 56.2503 83.79 55.0603 84.85C54.5803 85.28 54.2803 84.12 53.8003 84.54C53.3203 84.96 50.5003 85.91 51.7203 87.02L51.2803 87.31C51.9303 88.3 52.5703 89.3 53.2103 90.3Z" fill="white"/>
<path d="M57.1301 95.56L57.5601 95.26C58.1301 96.81 59.9301 94.64 60.6501 94.26C61.3701 93.88 60.3001 93.32 60.8401 92.98C61.1301 92.79 61.6701 92.46 61.3301 92.09C60.8201 91.53 59.9601 88.93 58.8001 90.03C58.3401 90.47 58.0001 89.32 57.5301 89.76C57.0601 90.2 54.2801 91.22 55.5301 92.31L55.1001 92.6L57.1301 95.56Z" fill="white"/>
<path d="M61.2103 100.52L61.6503 100.25C62.1503 101.82 64.0403 99.73 64.7803 99.4C65.3603 99.14 64.4703 98.45 65.0203 98.13C65.3103 97.96 65.8703 97.64 65.5503 97.26C65.0703 96.68 64.3103 94.04 63.1103 95.09C62.6303 95.51 62.3403 94.34 61.8503 94.76C61.3603 95.18 58.5403 96.08 59.7403 97.22L59.3003 97.5L61.2103 100.52Z" fill="white"/>
<path d="M65.0602 105.58L65.5002 105.31C65.9702 106.9 67.9102 104.85 68.6502 104.54C69.3902 104.23 68.3602 103.54 68.9202 103.27C69.2202 103.1 69.7902 102.8 69.4702 102.41C69.0002 101.82 68.3002 99.16 67.0702 100.18C66.5802 100.59 66.3202 99.42 65.8302 99.82C65.3402 100.22 62.4802 101.07 63.6602 102.24L63.2202 102.51L65.0602 105.58Z" fill="white"/>
<path d="M69.2904 110.77L69.7304 110.49C70.2304 112.07 72.1304 109.99 72.8604 109.66C73.5904 109.33 72.5604 108.66 73.1104 108.38C73.4104 108.21 73.9704 107.9 73.6504 107.52C73.1704 106.94 72.4204 104.29 71.2104 105.33C70.7304 105.75 70.4404 104.58 69.9504 105C69.4604 105.42 66.6404 106.31 67.8404 107.45L67.4004 107.73L69.2904 110.77Z" fill="white"/>
<path d="M73.0904 116.05L73.5204 115.77C74.0404 117.34 75.9104 115.23 76.6504 114.9C77.2304 114.63 76.3304 113.9 76.8804 113.62C77.1704 113.44 77.7304 113.13 77.4004 112.75C76.9104 112.17 76.1304 109.53 74.9404 110.59C74.4604 111.01 74.1604 109.85 73.6804 110.27C73.2004 110.69 70.3804 111.62 71.5904 112.75L71.1504 113.03L73.0904 116.05Z" fill="white"/>
<path d="M77.44 121.03L77.86 120.72C78.5 122.25 80.19 119.99 80.86 119.6C81.41 119.29 80.46 118.67 80.98 118.3C81.26 118.1 81.79 117.74 81.44 117.39C80.9 116.85 79.9 114.29 78.8 115.39C78.36 115.85 77.96 114.72 77.52 115.18C77.08 115.64 74.34 116.8 75.64 117.82L75.23 118.14L77.44 121.03Z" fill="white"/>
<path d="M81.7202 125.77L82.1302 125.44C82.8102 126.95 84.4402 124.65 85.1302 124.24C85.8202 123.83 84.7202 123.32 85.2302 122.94C85.5002 122.74 86.0202 122.36 85.6502 122.02C85.1002 121.5 84.0402 118.96 82.9702 120.14C82.5402 120.62 82.1102 119.49 81.6802 119.96C81.2502 120.43 78.5402 121.67 79.8802 122.66L79.4702 122.99L81.7202 125.77Z" fill="white"/>
<path d="M86.31 130.21L86.71 129.87C87.45 131.35 88.99 128.98 89.71 128.54C90.43 128.1 89.26 127.64 89.71 127.24C89.97 127.03 90.48 126.63 90.1 126.3C89.53 125.8 88.36 123.3 87.34 124.54C86.93 125.03 86.46 123.92 86.05 124.41C85.64 124.9 82.98 126.24 84.35 127.18L83.96 127.52C84.74 128.42 85.53 129.31 86.31 130.21Z" fill="white"/>
<path d="M28.0103 27.32L28.4603 27.09C27.4003 25.88 30.1003 25.35 30.7503 24.9C31.4003 24.45 31.3903 25.63 31.9403 25.33C32.2303 25.17 32.7703 24.85 32.9403 25.33C33.1803 26.03 35.0003 27.97 33.5203 28.45C32.9203 28.65 33.7503 29.45 33.1603 29.67C32.4103 29.92 30.3803 31.77 30.0403 30.2L29.5903 30.43L28.0103 27.32Z" fill="white"/>
<path d="M32.33 35.77L32.79 35.54C33.13 37.11 35.16 35.26 35.91 35C36.5 34.81 35.7 34 36.26 33.79C36.57 33.65 37.14 33.4 36.86 33C36.44 32.4 35.96 29.78 34.69 30.69C34.19 31.05 34.01 29.9 33.5 30.26C32.99 30.62 30.16 31.26 31.22 32.45L30.77 32.68L32.33 35.77Z" fill="white"/>
<path d="M35.08 41.2L35.53 40.96C35.9 42.52 37.9 40.63 38.64 40.36C39.22 40.15 38.41 39.42 38.97 39.15C39.27 39 39.84 38.74 39.56 38.34C39.13 37.75 38.56 35.14 37.34 36.07C36.84 36.44 36.65 35.3 36.15 35.66C35.65 36.02 32.82 36.77 33.91 37.9L33.46 38.14L35.08 41.2Z" fill="white"/>
<path d="M37.7701 46.63L38.2101 46.39C38.6001 47.94 40.5701 46.02 41.3101 45.74C41.8901 45.53 41.0701 44.8 41.6301 44.52C41.9301 44.37 42.4901 44.1 42.2001 43.71C41.7701 43.12 41.2001 40.52 39.9601 41.47C39.4601 41.85 39.2501 40.71 38.7601 41.08C38.2701 41.45 35.4501 42.18 36.5501 43.35L36.1001 43.59L37.7701 46.63Z" fill="white"/>
<path d="M41.0602 51.98L41.5102 51.77C41.8802 53.33 43.8702 51.42 44.6102 51.15C45.1902 50.94 44.3802 50.21 44.9402 49.93C45.2302 49.78 45.8002 49.52 45.5102 49.13C45.0802 48.53 44.5102 45.92 43.2802 46.87C42.7902 47.24 42.5902 46.09 42.0802 46.47C41.5702 46.85 38.7702 47.54 39.8602 48.72L39.4102 48.96L41.0602 51.98Z" fill="white"/>
<path d="M44.2504 57.62L44.7004 57.39C45.0704 58.95 47.0704 57.05 47.8104 56.79C48.3904 56.58 47.5804 55.79 48.1404 55.57C48.4404 55.43 49.0104 55.16 48.7304 54.77C48.3004 54.18 47.7304 51.56 46.5104 52.5C46.0104 52.87 45.8204 51.72 45.3204 52.09C44.8204 52.46 41.9904 53.09 43.0804 54.32L42.6304 54.56L44.2504 57.62Z" fill="white"/>
<path d="M47.6001 63.07L48.0101 62.77C48.4501 64.32 50.3501 62.34 51.0801 62.04C51.6601 61.8 50.8201 61.1 51.3601 60.81C51.6601 60.65 52.2101 60.36 51.9101 59.98C51.4601 59.4 50.8101 56.82 49.6001 57.8C49.1201 58.2 48.8701 57.06 48.3901 57.45C47.9101 57.84 45.1101 58.65 46.2501 59.78L45.8101 60.04L47.6001 63.07Z" fill="white"/>
<path d="M50.9402 68.32L51.3802 68.07C51.8102 69.62 53.7302 67.65 54.4602 67.36C55.0402 67.13 54.2002 66.42 54.7502 66.13C55.0502 65.97 55.6002 65.68 55.3102 65.3C54.8502 64.72 54.2202 62.13 53.0102 63.11C52.5202 63.5 52.2802 62.36 51.8002 62.75C51.3202 63.14 48.5202 63.92 49.6402 65.07L49.2002 65.32L50.9402 68.32Z" fill="white"/>
<path d="M54.6101 73.45L55.0501 73.19C55.4701 74.75 57.4101 72.79 58.1401 72.5C58.7201 72.28 57.8901 71.56 58.4401 71.27C58.7301 71.12 59.2901 70.84 59.0001 70.45C58.5501 69.87 57.9301 67.27 56.7101 68.24C56.2201 68.63 56.0001 67.48 55.5001 67.87C55.0001 68.26 52.2101 69.02 53.3401 70.17L52.8901 70.43C53.4701 71.43 54.0101 72.44 54.6101 73.45Z" fill="white"/>
<path d="M58.01 78.66L58.44 78.4C58.88 79.95 60.79 77.97 61.52 77.67C62.1 77.44 61.26 76.73 61.8 76.44C62.09 76.28 62.65 75.99 62.35 75.61C61.89 75.03 61.24 72.44 60.03 73.43C59.55 73.82 59.31 72.68 58.82 73.07C58.33 73.46 55.55 74.27 56.68 75.41L56.25 75.66C56.81 76.66 57.4 77.66 58.01 78.66Z" fill="white"/>
<path d="M61.6801 83.9L62.1101 83.63C62.6101 85.16 64.4401 83.1 65.1601 82.78C65.7301 82.52 64.8601 81.85 65.3901 81.53C65.6801 81.36 66.2201 81.05 65.9101 80.68C65.4301 80.12 64.6801 77.55 63.5101 78.59C63.0401 79 62.7501 77.87 62.2801 78.28C61.8101 78.69 59.0601 79.59 60.2801 80.69L59.8501 80.97L61.6801 83.9Z" fill="white"/>
<path d="M65.4902 89.05L65.9102 88.77C66.4502 90.29 68.2202 88.18 68.9102 87.83C69.4702 87.56 68.5702 86.91 69.1002 86.58C69.3802 86.4 69.9102 86.08 69.5902 85.71C69.0902 85.17 68.2602 82.62 67.1202 83.71C66.6702 84.14 66.3402 83.01 65.8902 83.44C65.4402 83.87 62.7002 84.86 63.8902 85.92L63.4702 86.21C64.1802 87.13 64.8302 88.09 65.4902 89.05Z" fill="white"/>
<path d="M69.1501 94.19L69.5701 93.9C70.1201 95.43 71.8901 93.32 72.5701 92.97C73.2501 92.62 72.2401 92.05 72.7701 91.71C73.0501 91.54 73.5801 91.21 73.2601 90.85C72.7601 90.3 71.9301 87.75 70.7901 88.85C70.3401 89.27 70.0101 88.15 69.5601 88.57C69.1101 88.99 66.3701 89.98 67.5601 91.05L67.1401 91.33L69.1501 94.19Z" fill="white"/>
<path d="M72.9402 99.4L73.3602 99.12C73.8902 100.65 75.6802 98.56 76.3602 98.22C77.0402 97.88 76.0402 97.29 76.5702 96.97C76.8502 96.79 77.3902 96.47 77.0702 96.11C76.5802 95.55 75.7702 92.98 74.6202 94.04C74.1602 94.46 73.8502 93.33 73.3902 93.75C72.9302 94.17 70.1902 95.13 71.3902 96.21L70.9702 96.49L72.9402 99.4Z" fill="white"/>
<path d="M77.0101 104.24L77.4401 103.97C77.9401 105.51 79.7701 103.45 80.4401 103.12C81.1101 102.79 80.1301 102.19 80.6701 101.87C80.9601 101.7 81.5001 101.39 81.1801 101.02C80.7001 100.46 79.9401 97.87 78.7801 98.91C78.3101 99.32 78.0201 98.19 77.5501 98.6C77.0801 99.01 74.3201 99.92 75.5501 101.02L75.1201 101.3C75.7201 102.28 76.3501 103.26 77.0101 104.24Z" fill="white"/>
<path d="M80.8103 109.28L81.2303 109C81.7803 110.52 83.5503 108.41 84.2303 108.06C84.9103 107.71 83.8903 107.14 84.4203 106.8C84.7003 106.63 85.2303 106.3 84.9103 105.94C84.4103 105.39 83.5703 102.83 82.4403 103.94C81.9803 104.37 81.6603 103.24 81.2003 103.67C80.7403 104.1 78.0103 105.08 79.2003 106.15L78.7803 106.44L80.8103 109.28Z" fill="white"/>
<path d="M85.0104 114.2L85.4104 113.9C86.0404 115.39 87.7004 113.19 88.4104 112.81C89.1204 112.43 88.0304 111.91 88.5404 111.55C88.8104 111.36 89.3304 111.01 88.9804 110.66C88.4604 110.14 87.5004 107.66 86.4204 108.75C85.9904 109.2 85.6104 108.09 85.1704 108.53C84.7304 108.97 82.0604 110.1 83.3204 111.11L82.9204 111.41L85.0104 114.2Z" fill="white"/>
<path d="M89.1903 118.89L89.5803 118.57C90.2503 120.05 91.8503 117.8 92.5803 117.41C93.3103 117.02 92.1703 116.51 92.6703 116.14C92.9403 115.94 93.4503 115.57 93.0903 115.24C92.5603 114.73 91.5303 112.24 90.4803 113.4C90.0603 113.86 89.6503 112.76 89.2203 113.21C88.7903 113.66 86.1503 114.86 87.4503 115.84L87.0503 116.16L89.1903 118.89Z" fill="white"/>
<path d="M93.7799 123.52L94.1699 123.19C94.8899 124.64 96.3999 122.33 97.0599 121.9C97.7199 121.47 96.6199 121.03 97.0599 120.63C97.3099 120.43 97.8099 120.04 97.4399 119.72C96.8799 119.23 95.7499 116.79 94.7499 117.98C94.3499 118.46 93.8899 117.38 93.4899 117.85C93.0899 118.32 90.4899 119.63 91.8199 120.54L91.4399 120.88L93.7799 123.52Z" fill="white"/>
<path d="M40.75 26.51L41.2 26.29C41.52 27.86 43.58 26.04 44.33 25.8C45.08 25.56 44.14 24.8 44.71 24.6C45.01 24.46 45.59 24.22 45.32 23.82C44.91 23.21 44.47 20.58 43.19 21.46C42.68 21.82 42.52 20.66 42.01 21.02C41.5 21.38 38.65 21.95 39.69 23.17L39.23 23.39L40.75 26.51Z" fill="white"/>
<path d="M43.4101 31.97L43.8601 31.74C44.2001 33.31 46.2301 31.45 46.9801 31.19C47.5701 30.99 46.7701 30.19 47.3301 29.98C47.6301 29.84 48.2001 29.59 47.9301 29.19C47.5101 28.59 47.0201 25.97 45.7501 26.88C45.2401 27.24 45.0701 26.09 44.5601 26.45C44.0501 26.81 41.2201 27.45 42.2901 28.65L41.8301 28.88L43.4101 31.97Z" fill="white"/>
<path d="M46.0104 37.44L46.4604 37.21C46.8304 38.77 48.8304 36.88 49.5704 36.62C50.3104 36.36 49.3504 35.62 49.9104 35.4C50.2104 35.26 50.7804 34.99 50.4904 34.6C50.0704 34.01 49.5404 31.39 48.2904 32.32C47.7904 32.69 47.5904 31.55 47.0904 31.91C46.5904 32.27 43.7704 32.91 44.8504 34.14L44.4004 34.38L46.0104 37.44Z" fill="white"/>
<path d="M49.2004 42.85L49.6604 42.62C50.0104 44.18 52.0204 42.31 52.7704 42.05C53.3604 41.84 52.5504 41.05 53.1104 40.83C53.4204 40.69 53.9904 40.43 53.7104 40.04C53.2804 39.44 52.7704 36.82 51.5104 37.74C51.0104 38.11 50.8304 36.96 50.3204 37.32C49.8104 37.68 46.9904 38.32 48.0604 39.54L47.6104 39.77L49.2004 42.85Z" fill="white"/>
<path d="M52.3 48.54L52.76 48.31C53.1 49.88 55.13 48.02 55.87 47.77C56.61 47.52 55.66 46.77 56.23 46.56C56.53 46.42 57.1 46.16 56.83 45.77C56.41 45.16 55.92 42.54 54.65 43.45C54.14 43.82 53.97 42.67 53.46 43.03C52.95 43.39 50.12 44.03 51.18 45.22L50.73 45.46C51.26 46.48 51.78 47.51 52.3 48.54Z" fill="white"/>
<path d="M55.5604 54.05L56.0104 53.77C56.4304 55.32 58.3704 53.37 59.1004 53.08C59.8304 52.79 58.8504 52.14 59.4004 51.85C59.7004 51.7 60.2604 51.42 59.9604 51.04C59.5204 50.45 58.9604 47.85 57.6904 48.82C57.2004 49.21 56.9704 48.07 56.4804 48.45C55.9904 48.83 53.1904 49.59 54.3004 50.75L53.8604 51L55.5604 54.05Z" fill="white"/>
<path d="M58.8204 59.35L59.2604 59.11C59.6604 60.66 61.6204 58.73 62.3504 58.45C63.0804 58.17 62.1104 57.45 62.6604 57.22C62.9604 57.07 63.5204 56.79 63.2304 56.4C62.7904 55.82 62.2304 53.21 60.9704 54.17C60.4804 54.56 60.2604 53.41 59.7604 53.79C59.2604 54.17 56.4604 54.91 57.5704 56.07L57.1304 56.32L58.8204 59.35Z" fill="white"/>
<path d="M62.4 64.53L62.85 64.29C63.24 65.85 65.21 63.93 65.95 63.65C66.53 63.43 65.71 62.65 66.26 62.43C66.56 62.28 67.13 62 66.84 61.62C66.4 61.02 65.84 58.41 64.59 59.36C64.09 59.75 63.88 58.6 63.39 58.97C62.9 59.34 60.08 60.07 61.18 61.24L60.73 61.49L62.4 64.53Z" fill="white"/>
<path d="M65.6903 69.77L66.1303 69.52C66.5503 71.07 68.4903 69.12 69.2203 68.83C69.9503 68.54 68.9703 67.89 69.5203 67.6C69.8203 67.45 70.3803 67.17 70.0803 66.79C69.6403 66.2 69.0803 63.6 67.8003 64.56C67.3103 64.95 67.0903 63.81 66.6003 64.19C66.1103 64.57 63.3003 65.33 64.4203 66.49L64.0103 66.77L65.6903 69.77Z" fill="white"/>
<path d="M69.3002 75.1L69.7302 74.84C70.2102 76.38 72.0702 74.35 72.8002 74.04C73.3702 73.79 72.5102 73.1 73.0502 72.8C73.3402 72.63 73.8902 72.33 73.5802 71.96C73.1102 71.39 72.4002 68.81 71.2102 69.82C70.7402 70.23 70.4702 69.09 69.9902 69.49C69.5102 69.89 66.7402 70.77 67.9102 71.87L67.4702 72.14L69.3002 75.1Z" fill="white"/>
<path d="M73.0101 80.32L73.4301 80.04C73.9601 81.56 75.7601 79.48 76.4301 79.15C77.1001 78.82 76.1101 78.22 76.6401 77.9C76.9301 77.72 77.4701 77.4 77.1501 77.04C76.6601 76.48 75.8701 73.92 74.7101 74.97C74.2501 75.39 73.9501 74.27 73.4801 74.68C73.0101 75.09 70.2701 76.05 71.4801 77.13L71.0601 77.41L73.0101 80.32Z" fill="white"/>
<path d="M76.6002 85.52L77.0202 85.24C77.5402 86.77 79.3502 84.69 80.0202 84.35C80.6902 84.01 79.7002 83.42 80.2402 83.1C80.5202 82.93 81.0602 82.61 80.7402 82.24C80.2502 81.69 79.4602 79.12 78.3102 80.17C77.8502 80.59 77.5402 79.46 77.0802 79.87C76.6202 80.28 73.8702 81.23 75.0802 82.32L74.6602 82.6L76.6002 85.52Z" fill="white"/>
<path d="M80.3004 90.77L80.7304 90.49C81.2304 92.03 83.0604 89.97 83.7304 89.64C84.4004 89.31 83.4304 88.71 83.9604 88.39C84.2504 88.22 84.7904 87.91 84.4704 87.54C83.9904 86.98 83.2304 84.4 82.0604 85.44C81.6004 85.85 81.3004 84.72 80.8304 85.13C80.3604 85.54 77.6104 86.45 78.8304 87.55L78.4004 87.83L80.3004 90.77Z" fill="white"/>
<path d="M84.2504 95.69L84.6904 95.43C85.1604 96.98 87.0304 94.94 87.7504 94.63C88.4704 94.32 87.4604 93.69 88.0004 93.38C88.2904 93.22 88.8404 92.92 88.5304 92.54C88.0604 91.97 87.3404 89.38 86.1504 90.39C85.6804 90.8 85.4104 89.66 84.9304 90.06C84.4504 90.46 81.6804 91.33 82.8504 92.45L82.4204 92.72L84.2504 95.69Z" fill="white"/>
<path d="M88.0103 100.77L88.4403 100.49C88.9603 102.02 90.7603 99.94 91.4403 99.6C92.1203 99.26 91.1203 98.67 91.6603 98.35C91.9403 98.18 92.4803 97.86 92.1603 97.49C91.6703 96.93 90.8803 94.36 89.7203 95.42C89.2603 95.84 88.9503 94.7 88.4903 95.12C88.0303 95.54 85.2803 96.48 86.4903 97.57L86.0703 97.85L88.0103 100.77Z" fill="white"/>
<path d="M92.1003 105.77L92.5203 105.47C93.1103 106.97 94.8103 104.8 95.5203 104.47C96.0703 104.18 95.1503 103.56 95.6703 103.21C95.9403 103.03 96.4703 102.68 96.1303 102.33C95.6103 101.8 94.7003 99.27 93.5903 100.33C93.1503 100.77 92.7903 99.65 92.3503 100.09C91.9103 100.53 89.2103 101.6 90.4603 102.63L90.0503 102.93C90.7303 103.9 91.4203 104.84 92.1003 105.77Z" fill="white"/>
<path d="M96.2201 110.54L96.6301 110.23C97.2601 111.72 98.9001 109.5 99.6301 109.11C100.36 108.72 99.2401 108.21 99.7501 107.85C100.02 107.65 100.53 107.3 100.18 106.95C99.6501 106.44 98.6701 103.95 97.6001 105.07C97.1701 105.52 96.7801 104.42 96.3401 104.87C95.9001 105.32 93.2501 106.47 94.5301 107.46L94.1201 107.77C94.8001 108.69 95.5101 109.62 96.2201 110.54Z" fill="white"/>
<path d="M100.74 115.25L101.13 114.92C101.83 116.38 103.38 114.1 104.05 113.68C104.72 113.26 103.62 112.8 104.11 112.42C104.37 112.21 104.87 111.83 104.51 111.51C103.96 111.01 102.88 108.51 101.85 109.73C101.44 110.2 101.01 109.11 100.59 109.58C100.17 110.05 97.5902 111.3 98.8802 112.24L98.4902 112.57C99.2502 113.46 100.01 114.35 100.74 115.25Z" fill="white"/>
<path d="M51.7102 23.21L52.1602 22.98C52.5002 24.55 54.5302 22.7 55.2802 22.46C55.8702 22.26 55.0802 21.46 55.6502 21.25C55.9502 21.11 56.5202 20.86 56.2502 20.46C55.8302 19.85 55.3602 17.23 54.0902 18.13C53.5802 18.49 53.4102 17.34 52.9002 17.7C52.3902 18.06 49.5502 18.7 50.6102 19.88L50.1602 20.11C50.6702 21.14 51.1902 22.18 51.7102 23.21Z" fill="white"/>
<path d="M54.2604 28.7L54.7204 28.47C55.0704 30.03 57.0804 28.15 57.8304 27.9C58.4204 27.69 57.6104 26.95 58.1704 26.68C58.4704 26.54 59.0504 26.28 58.7704 25.89C58.3404 25.29 57.8304 22.67 56.5704 23.59C56.0704 23.96 55.8904 22.81 55.3804 23.18C54.8704 23.55 52.0504 24.18 53.1204 25.39L52.6704 25.62L54.2604 28.7Z" fill="white"/>
<path d="M57.4304 34.13L57.8804 33.9C58.2304 35.46 60.2504 33.6 61.0004 33.35C61.5904 33.15 60.7904 32.4 61.3504 32.14C61.6604 32 62.2304 31.74 61.9504 31.35C61.5304 30.74 61.0404 28.12 59.7804 29.03C59.2704 29.4 59.1004 28.25 58.5904 28.61C58.0804 28.97 55.2504 29.61 56.3104 30.81L55.8604 31.04C56.3804 32.07 56.9104 33.09 57.4304 34.13Z" fill="white"/>
<path d="M60.4899 39.84L60.9499 39.62C61.2799 41.19 63.3199 39.34 64.0699 39.09C64.6599 38.9 63.8599 38.09 64.4299 37.88C64.7299 37.74 65.3099 37.49 65.0299 37.1C64.6199 36.49 64.1499 33.86 62.8699 34.77C62.3599 35.13 62.1999 33.98 61.6899 34.33C61.1799 34.68 58.3399 35.33 59.3999 36.51L58.9399 36.74C59.4599 37.77 60.0099 38.77 60.4899 39.84Z" fill="white"/>
<path d="M63.71 45.37L64.15 45.12C64.56 46.67 66.51 44.74 67.25 44.46C67.83 44.23 67 43.51 67.56 43.23C67.85 43.08 68.41 42.8 68.12 42.42C67.68 41.83 67.12 39.23 65.86 40.19C65.37 40.57 65.15 39.43 64.66 39.81C64.17 40.19 61.36 40.93 62.47 42.09L62.02 42.34C62.59 43.35 63.15 44.36 63.71 45.37Z" fill="white"/>
<path d="M66.9303 50.7L67.3803 50.45C67.7703 52.01 69.7403 50.09 70.4703 49.81C71.2003 49.53 70.2303 48.87 70.7903 48.59C71.0903 48.44 71.6503 48.17 71.3603 47.78C70.9303 47.19 70.3603 44.58 69.1203 45.53C68.6203 45.91 68.4103 44.76 67.9103 45.14C67.4103 45.52 64.6103 46.24 65.7103 47.41L65.2603 47.65C65.8203 48.67 66.3803 49.68 66.9303 50.7Z" fill="white"/>
<path d="M70.4801 55.9L70.9301 55.66C71.3101 57.22 73.2901 55.31 74.0301 55.04C74.7701 54.77 73.8001 54.04 74.3601 53.82C74.6501 53.67 75.2201 53.4 74.9301 53.01C74.5001 52.42 73.9301 49.8 72.7001 50.75C72.2001 51.12 72.0001 49.97 71.5001 50.35C71.0001 50.73 68.1901 51.42 69.2801 52.6L68.8301 52.84L70.4801 55.9Z" fill="white"/>
<path d="M73.73 61.19L74.18 60.95C74.58 62.51 76.53 60.57 77.27 60.29C77.85 60.07 77.02 59.29 77.58 59.06C77.87 58.91 78.44 58.63 78.15 58.25C77.7 57.66 77.15 55.05 75.88 56.01C75.39 56.39 75.17 55.24 74.68 55.62C74.19 56 71.38 56.74 72.49 57.91L72.04 58.16C72.61 59.17 73.17 60.18 73.73 61.19Z" fill="white"/>
<path d="M77.31 66.52L77.74 66.25C78.2 67.8 80.08 65.78 80.81 65.48C81.38 65.23 80.52 64.54 81.07 64.24C81.36 64.08 81.91 63.78 81.6 63.4C81.14 62.83 80.45 60.24 79.25 61.25C78.78 61.65 78.51 60.51 78.03 60.91C77.55 61.31 74.78 62.15 75.93 63.28L75.5 63.54C76.1 64.53 76.71 65.52 77.31 66.52Z" fill="white"/>
<path d="M81.0103 71.77L81.4303 71.49C81.9503 73.02 83.7603 70.95 84.4303 70.62C84.9903 70.36 84.1103 69.69 84.6503 69.37C84.9303 69.2 85.4703 68.88 85.1603 68.52C84.6703 67.96 83.9003 65.39 82.7403 66.44C82.2803 66.85 81.9803 65.72 81.5103 66.13C81.0403 66.54 78.2903 67.48 79.5103 68.57L79.0903 68.85C79.7203 69.77 80.3603 70.77 81.0103 71.77Z" fill="white"/>
<path d="M84.5301 76.98L84.9601 76.7C85.4701 78.24 87.2901 76.17 87.9601 75.84C88.6301 75.51 87.6501 74.91 88.1801 74.59C88.4701 74.42 89.0101 74.11 88.6901 73.74C88.2101 73.18 87.4401 70.6 86.2801 71.65C85.8101 72.06 85.5201 70.93 85.0501 71.34C84.5801 71.75 81.8301 72.68 83.0501 73.77L82.6201 74.05C83.2701 75.02 83.9001 76 84.5301 76.98Z" fill="white"/>
<path d="M88.19 82.28L88.62 82.01C89.12 83.55 90.96 81.5 91.68 81.18C92.25 80.92 91.38 80.24 91.91 79.93C92.2 79.76 92.75 79.45 92.43 79.08C92.01 78.51 91.21 75.93 90.01 76.96C89.54 77.37 89.25 76.23 88.78 76.64C88.31 77.05 85.54 77.94 86.72 79.05L86.29 79.32L88.19 82.28Z" fill="white"/>
<path d="M92.1203 87.21L92.5503 86.95C93.0203 88.5 94.9003 86.48 95.6203 86.17C96.3403 85.86 95.3303 85.23 95.8803 84.93C96.1703 84.76 96.7203 84.47 96.4103 84.09C95.9503 83.51 95.2503 80.91 94.0503 81.92C93.5803 82.33 93.3103 81.18 92.8303 81.58C92.3503 81.98 89.5803 82.82 90.7403 83.96L90.3003 84.22L92.1203 87.21Z" fill="white"/>
<path d="M95.8402 92.34L96.2702 92.06C96.7802 93.6 98.5902 91.53 99.2702 91.2C99.9502 90.87 98.9602 90.27 99.4902 89.94C99.7802 89.77 100.32 89.46 100 89.09C99.5202 88.53 98.7402 85.95 97.5802 87C97.1102 87.42 96.8102 86.28 96.3402 86.69C95.8702 87.1 93.1302 88.03 94.3402 89.13L93.9102 89.41C94.5702 90.38 95.2102 91.36 95.8402 92.34Z" fill="white"/>
<path d="M99.9001 97.36L100.31 97.06C100.9 98.57 102.61 96.41 103.31 96.06C103.86 95.77 102.95 95.14 103.47 94.8C103.75 94.61 104.27 94.27 103.94 93.92C103.43 93.38 102.53 90.85 101.42 91.92C100.97 92.36 100.62 91.25 100.17 91.68C99.7201 92.11 97.0201 93.17 98.2701 94.21L97.8501 94.51C98.5401 95.46 99.2201 96.41 99.9001 97.36Z" fill="white"/>
<path d="M104.01 102.14L104.41 101.83C105.04 103.32 106.69 101.12 107.41 100.73C108.13 100.34 107.03 99.83 107.54 99.47C107.81 99.28 108.32 98.92 107.98 98.58C107.45 98.06 106.48 95.58 105.4 96.68C104.97 97.13 104.59 96.02 104.15 96.47C103.71 96.92 101.05 98.04 102.32 99.05L101.91 99.36L104.01 102.14Z" fill="white"/>
<path d="M108.47 106.87L108.86 106.55C109.55 108.02 111.12 105.75 111.79 105.34C112.46 104.93 111.37 104.45 111.86 104.07C112.12 103.86 112.63 103.49 112.27 103.16C111.72 102.66 110.65 100.16 109.62 101.36C109.21 101.83 108.78 100.74 108.36 101.2C107.94 101.66 105.36 102.91 106.63 103.86L106.24 104.18L108.47 106.87Z" fill="white"/>
<path d="M61.6604 17.84L62.1004 17.63C62.4104 19.14 64.4004 17.38 65.1004 17.15C65.8004 16.92 64.9204 16.24 65.4704 15.99C65.7604 15.86 66.3204 15.63 66.0604 15.24C65.6604 14.65 65.2304 12.12 63.9904 12.98C63.5004 13.32 63.3404 12.21 62.8504 12.55C62.3604 12.89 59.6004 13.45 60.6104 14.63L60.1704 14.84L61.6604 17.84Z" fill="white"/>
<path d="M64.0703 23.15L64.5103 22.93C64.8403 24.44 66.8103 22.66 67.5103 22.42C68.2103 22.18 67.3103 21.5 67.8603 21.25C68.1503 21.12 68.7103 20.88 68.4403 20.49C68.0403 19.91 67.5703 17.39 66.3403 18.26C65.8503 18.61 65.6903 17.5 65.1903 17.85C64.6903 18.2 62.0103 18.77 63.0103 19.96L62.5703 20.18C63.0703 21.17 63.5703 22.16 64.0703 23.15Z" fill="white"/>
<path d="M67.0803 28.41L67.5303 28.19C67.8403 29.71 69.8203 27.93 70.5303 27.7C71.1003 27.51 70.3303 26.78 70.8803 26.54C71.1803 26.4 71.7303 26.16 71.4703 25.78C71.0703 25.2 70.6203 22.67 69.3903 23.53C68.8903 23.88 68.7403 22.77 68.2403 23.11C67.7403 23.45 65.0103 24.03 66.0103 25.2L65.5703 25.42C66.0903 26.42 66.5903 27.41 67.0803 28.41Z" fill="white"/>
<path d="M70.0103 33.95L70.4503 33.73C70.7603 35.25 72.7503 33.49 73.4503 33.26C74.0203 33.08 73.2603 32.34 73.8103 32.1C74.1103 31.97 74.6703 31.73 74.4003 31.35C74.0103 30.76 73.5803 28.23 72.3403 29.08C71.8403 29.43 71.6903 28.32 71.1903 28.65C70.6903 28.98 67.9503 29.55 69.0103 30.77L68.5703 30.99L70.0103 33.95Z" fill="white"/>
<path d="M73.0102 39.3L73.4402 39.06C73.8202 40.56 75.7302 38.72 76.4402 38.46C77.1502 38.2 76.2102 37.55 76.7602 37.28C77.0402 37.14 77.5902 36.88 77.3102 36.5C76.8902 35.93 76.3102 33.42 75.1502 34.33C74.6702 34.7 74.4702 33.59 73.9802 33.95C73.4902 34.31 70.7802 34.95 71.8402 36.13L71.4102 36.36L73.0102 39.3Z" fill="white"/>
<path d="M76.1103 44.46L76.5503 44.23C76.9103 45.74 78.8403 43.9 79.5503 43.64C80.2603 43.38 79.3303 42.73 79.8703 42.47C80.1603 42.33 80.7103 42.07 80.4303 41.7C80.0203 41.12 79.4903 38.61 78.2803 39.51C77.8003 39.87 77.6103 38.76 77.1203 39.12C76.6303 39.48 73.9103 40.12 74.9603 41.28L74.5303 41.51L76.1103 44.46Z" fill="white"/>
<path d="M79.5004 49.51L79.9304 49.28C80.2904 50.79 82.2204 48.97 82.9304 48.72C83.5004 48.52 82.7204 47.8 83.2604 47.54C83.5504 47.4 84.1004 47.15 83.8304 46.77C83.4104 46.19 82.9004 43.67 81.6904 44.57C81.2004 44.93 81.0204 43.82 80.5304 44.17C80.0404 44.52 77.3104 45.17 78.3604 46.32L77.9204 46.55L79.5004 49.51Z" fill="white"/>
<path d="M82.59 54.64L83.02 54.4C83.4 55.91 85.31 54.06 86.02 53.8C86.73 53.54 85.8 52.89 86.34 52.62C86.62 52.48 87.17 52.22 86.89 51.84C86.47 51.27 85.89 48.75 84.72 49.67C84.24 50.03 84.04 48.92 83.56 49.28C83.08 49.64 80.35 50.33 81.42 51.46L80.98 51.7C81.52 52.67 82.06 53.66 82.59 54.64Z" fill="white"/>
<path d="M86.0103 59.77L86.4403 59.52C86.8703 61.01 88.7103 59.09 89.4403 58.8C89.9903 58.57 89.1703 57.9 89.7003 57.61C89.9803 57.46 90.5203 57.18 90.2303 56.81C89.7803 56.26 89.1403 53.81 87.9703 54.71C87.5103 55.1 87.2703 54 86.8003 54.38C86.3303 54.76 83.6303 55.54 84.7403 56.63L84.3203 56.88L86.0103 59.77Z" fill="white"/>
<path d="M89.5102 64.88L89.9202 64.62C90.4002 66.1 92.1802 64.12 92.9202 63.81C93.4702 63.56 92.6202 62.91 93.1402 62.61C93.4202 62.45 93.9502 62.15 93.6402 61.79C93.1802 61.25 92.4602 58.79 91.3202 59.79C90.8702 60.19 90.5902 59.1 90.1402 59.49C89.6902 59.88 87.0102 60.77 88.1102 61.77L87.7002 62.04L89.5102 64.88Z" fill="white"/>
<path d="M92.8801 69.94L93.3001 69.68C93.7801 71.16 95.5601 69.19 96.2501 68.88C96.9401 68.57 95.9601 67.98 96.4801 67.68C96.7601 67.52 97.2901 67.22 96.9801 66.86C96.5201 66.32 95.8001 63.86 94.6701 64.86C94.2101 65.25 93.9401 64.16 93.4801 64.55C93.0201 64.94 90.3501 65.8 91.4801 66.87L91.0601 67.13L92.8801 69.94Z" fill="white"/>
<path d="M96.3701 75.08L96.7901 74.82C97.2601 76.31 99.0601 74.36 99.7901 74.06C100.34 73.82 99.5101 73.15 100.03 72.86C100.31 72.7 100.84 72.41 100.54 72.05C100.08 71.49 99.3901 69.05 98.2401 69.98C97.7801 70.37 97.5201 69.27 97.0601 69.66C96.6001 70.05 93.9101 70.88 95.0601 71.96L94.6401 72.22C95.1901 73.17 95.7801 74.13 96.3701 75.08Z" fill="white"/>
<path d="M100.12 79.87L100.55 79.62C100.98 81.12 102.82 79.19 103.55 78.9C104.28 78.61 103.29 78 103.82 77.71C104.1 77.56 104.64 77.28 104.34 76.91C103.9 76.35 103.25 73.84 102.08 74.8C101.62 75.18 101.37 74.08 100.9 74.46C100.43 74.84 97.7402 75.62 98.9002 76.72L98.4702 76.97C99.0102 77.94 99.5502 78.9 100.12 79.87Z" fill="white"/>
<path d="M103.67 84.85L104.09 84.58C104.57 86.07 106.35 84.09 107.09 83.78C107.83 83.47 106.8 82.88 107.32 82.58C107.6 82.42 108.13 82.12 107.82 81.76C107.36 81.22 106.63 78.76 105.5 79.76C105.04 80.16 104.77 79.06 104.31 79.46C103.85 79.86 101.18 80.71 102.31 81.78L101.9 82.04L103.67 84.85Z" fill="white"/>
<path d="M107.55 89.77L107.95 89.48C108.51 90.94 110.19 88.88 110.87 88.54C111.55 88.2 110.53 87.66 111.03 87.33C111.3 87.15 111.82 86.83 111.49 86.49C111.01 85.97 110.16 83.49 109.08 84.56C108.64 84.98 108.31 83.9 107.87 84.32C107.43 84.74 104.81 85.72 106 86.73L105.6 87.01L107.55 89.77Z" fill="white"/>
<path d="M111.46 94.36L111.85 94.07C112.45 95.51 114.07 93.41 114.74 93.07C115.41 92.73 114.38 92.2 114.87 91.86C115.14 91.68 115.64 91.34 115.31 91.01C114.81 90.5 113.9 88.07 112.84 89.15C112.42 89.58 112.06 88.51 111.63 88.93C111.2 89.35 108.63 90.42 109.83 91.4L109.43 91.69L111.46 94.36Z" fill="white"/>
<path d="M115.75 98.97L116.14 98.66C116.79 100.08 118.32 97.91 118.98 97.52C119.64 97.13 118.58 96.66 119.06 96.3C119.32 96.11 119.81 95.75 119.47 95.43C118.94 94.94 117.93 92.56 116.92 93.67C116.52 94.12 116.11 93.06 115.7 93.51C115.29 93.96 112.7 95.12 114 96.04L113.62 96.35L115.75 98.97Z" fill="white"/>
</svg>
