<svg width="195" height="135" viewBox="0 0 195 135" fill="none" xmlns="http://www.w3.org/2000/svg">
<path d="M1.15015 76.04H0.390137L0.990143 -0.0100097C11.3001 -0.22001 119.83 5.09 194.84 82.12L139.59 134.12C101.21 96.92 54.0101 76.04 1.15015 76.04Z" fill="#D8544F"/>
<path d="M137.55 89.34L137.25 89.72C138.8 90.42 136.61 91.9 136.25 92.56C135.96 93.07 135.31 92.13 134.97 92.56C134.78 92.81 134.44 93.3 134.08 92.95C133.52 92.4 130.93 91.35 132.03 90.35C132.47 89.95 131.32 89.52 131.75 89.11C132.18 88.7 133.22 86.11 134.3 87.45L134.6 87.07L137.55 89.34Z" fill="white"/>
<path d="M142.67 93.28L142.36 93.65C143.89 94.4 141.65 95.81 141.27 96.45C140.89 97.09 140.34 96 139.98 96.45C139.79 96.69 139.43 97.17 139.08 96.81C138.54 96.25 135.97 95.12 137.08 94.15C137.54 93.77 136.4 93.31 136.84 92.92C137.28 92.53 138.4 90.01 139.45 91.33C139.56 91.21 139.66 91.08 139.76 90.96L142.67 93.28Z" fill="white"/>
<path d="M147.76 97.22L147.44 97.58C148.96 98.36 146.68 99.72 146.28 100.35C145.88 100.98 145.36 99.88 144.99 100.35C144.79 100.6 144.42 101.06 144.08 100.69C143.56 100.13 141.02 98.93 142.18 98C142.64 97.62 141.52 97.14 141.98 96.76C142.44 96.38 143.61 93.9 144.63 95.24L144.95 94.87C145.88 95.65 146.83 96.43 147.76 97.22Z" fill="white"/>
<path d="M152.62 101.77L152.3 102.13C153.81 102.91 151.53 104.27 151.12 104.9C150.71 105.53 150.22 104.42 149.84 104.9C149.64 105.14 149.27 105.61 148.93 105.23C148.41 104.66 145.88 103.46 147.04 102.53C147.51 102.16 146.39 101.67 146.85 101.29C147.31 100.91 148.49 98.43 149.5 99.78C149.6 99.65 149.72 99.54 149.82 99.42L152.62 101.77Z" fill="white"/>
<path d="M157.74 106.35L157.41 106.7C158.91 107.49 156.63 108.84 156.22 109.46C155.81 110.08 155.32 108.98 154.94 109.46C154.74 109.7 154.36 110.16 154.03 109.79C153.51 109.22 151.03 108 152.16 107.08C152.63 106.71 151.51 106.21 151.97 105.84C152.43 105.47 153.63 102.98 154.63 104.34L154.95 103.98L157.74 106.35Z" fill="white"/>
<path d="M26.1902 44.21C26.1902 44.36 26.1902 44.53 26.1902 44.69C27.8402 44.53 26.8502 46.95 26.9102 47.69C26.9102 48.29 25.9102 47.78 25.9102 48.38C25.9102 48.7 25.9102 49.29 25.3902 49.16C24.6402 48.96 21.9502 49.32 22.3102 47.88C22.4602 47.31 21.3102 47.5 21.4302 46.93C21.6002 46.2 21.0202 43.57 22.6102 44.17C22.6102 44.02 22.6102 43.85 22.6102 43.69L26.1902 44.21Z" fill="white"/>
<path d="M19.7802 43.53V44.01C21.4202 43.84 20.4702 46.26 20.5302 47.01C20.5802 47.61 19.5302 47.12 19.5302 47.71C19.5302 48.03 19.5302 48.63 19.0202 48.5C18.2702 48.3 15.5902 48.7 15.9302 47.26C16.0702 46.68 14.9302 46.89 15.0402 46.32C15.2002 45.58 14.6002 42.97 16.1902 43.55V43.06L19.7802 43.53Z" fill="white"/>
<path d="M13.2399 42.77V43.25C14.8799 43.07 13.9299 45.5 13.9899 46.25C14.0399 46.85 12.9899 46.35 12.9899 46.95C12.9899 47.27 12.9899 47.87 12.4799 47.74C11.7399 47.54 9.05995 47.94 9.39995 46.5C9.53995 45.92 8.39993 46.13 8.50993 45.55C8.66993 44.82 8.06993 42.21 9.65993 42.79V42.3L13.2399 42.77Z" fill="white"/>
<path d="M32.51 45.14L32.45 45.62C34.11 45.52 33.05 47.9 33.08 48.62C33.11 49.34 32.08 48.69 32.03 49.28C32.03 49.59 31.97 50.2 31.48 50.05C30.75 49.83 28.03 50.1 28.48 48.68C28.65 48.11 27.48 48.28 27.63 47.68C27.78 47.08 27.33 44.32 28.9 44.97C28.9 44.81 28.9 44.65 28.9 44.49L32.51 45.14Z" fill="white"/>
<path d="M38.8101 46.08L38.7501 46.56C40.4101 46.5 39.2801 48.85 39.2901 49.56C39.3001 50.27 38.2901 49.56 38.2301 50.2C38.2301 50.51 38.1401 51.11 37.6601 50.95C36.9201 50.71 34.2001 50.95 34.6601 49.51C34.8401 48.95 33.6601 49.08 33.8201 48.51C34.0401 47.79 33.6101 45.15 35.1701 45.83L35.2301 45.35L38.8101 46.08Z" fill="white"/>
<path d="M45.27 47.68C45.27 47.84 45.22 48.01 45.2 48.16C46.86 48.1 45.72 50.45 45.73 51.21C45.73 51.81 44.73 51.21 44.66 51.84C44.66 52.15 44.57 52.75 44.09 52.59C43.36 52.34 40.63 52.54 41.09 51.13C41.27 50.57 40.09 50.69 40.26 50.13C40.49 49.41 40.06 46.77 41.62 47.46C41.62 47.3 41.62 47.14 41.69 46.98L45.27 47.68Z" fill="white"/>
<path d="M52.0102 49.19C52.0102 49.35 51.9602 49.52 51.9402 49.68C53.6002 49.63 52.4502 51.97 52.4602 52.68C52.4702 53.39 51.4602 52.68 51.3902 53.3C51.3902 53.62 51.3002 54.22 50.8102 54.05C50.0802 53.8 47.3502 53.99 47.8102 52.58C47.9902 52.01 46.8102 52.14 46.9802 51.58C47.1502 51.02 46.8002 48.22 48.3502 48.92C48.3502 48.76 48.3502 48.6 48.4202 48.44L52.0102 49.19Z" fill="white"/>
<path d="M58.5 50.98C58.5 51.14 58.43 51.29 58.4 51.45C60.07 51.45 58.78 53.76 58.74 54.51C58.74 55.11 57.74 54.51 57.63 55.07C57.57 55.39 57.48 55.97 57.01 55.79C56.28 55.49 53.54 55.53 54.08 54.16C54.29 53.61 53.08 53.66 53.31 53.16C53.58 52.46 53.31 49.8 54.84 50.58C54.84 50.42 54.91 50.26 54.94 50.11L58.5 50.98Z" fill="white"/>
<path d="M64.8301 52.88C64.8301 53.04 64.7701 53.2 64.7301 53.36C66.4101 53.41 65.1101 55.66 65.0601 56.42C65.0601 57.02 64.0601 56.42 63.9401 56.97C63.8901 57.29 63.7901 57.87 63.3201 57.68C62.6001 57.39 59.8501 57.41 60.4001 56.04C60.6201 55.5 59.4001 55.54 59.6301 55.04C59.8601 54.54 59.6301 51.69 61.1701 52.47C61.1701 52.31 61.2401 52.16 61.2801 52L64.8301 52.88Z" fill="white"/>
<path d="M71.1299 55.2C71.1299 55.36 71.0599 55.52 71.0199 55.67C72.6999 55.73 71.3798 57.99 71.3398 58.74C71.3398 59.34 70.3399 58.74 70.2199 59.29C70.1599 59.6 70.0598 60.19 69.5898 60C68.8698 59.71 66.1099 59.71 66.6699 58.34C66.8899 57.79 65.6699 57.83 65.9099 57.28C66.1499 56.73 65.9099 53.92 67.4699 54.72C67.4699 54.56 67.5299 54.4 67.5699 54.25L71.1299 55.2Z" fill="white"/>
<path d="M77.39 57.29C77.39 57.45 77.32 57.6 77.28 57.76C78.96 57.86 77.58 60.08 77.52 60.83C77.46 61.58 76.52 60.77 76.38 61.35C76.32 61.66 76.2 62.25 75.73 62.04C75.02 61.73 72.26 61.67 72.85 60.31C73.08 59.77 71.85 59.78 72.11 59.24C72.4 58.55 72.24 55.89 73.74 56.72C73.74 56.56 73.81 56.41 73.85 56.25L77.39 57.29Z" fill="white"/>
<path d="M83.7599 59.77C83.7599 59.92 83.6698 60.08 83.6198 60.23C85.2998 60.41 83.8099 62.55 83.6999 63.3C83.6099 63.89 82.6999 63.19 82.5299 63.76C82.4499 64.07 82.3099 64.64 81.8499 64.42C81.1499 64.07 78.3699 63.88 79.0399 62.56C79.2999 62.03 78.0899 61.99 78.3599 61.45C78.6299 60.91 78.6598 58.13 80.1198 59.02C80.1698 58.87 80.2199 58.72 80.2599 58.56L83.7599 59.77Z" fill="white"/>
<path d="M90.0098 62.42C89.9498 62.57 89.8998 62.72 89.8498 62.87C91.5298 63.12 89.9298 65.19 89.7898 65.93C89.6798 66.51 88.7898 65.78 88.5998 66.34C88.4998 66.65 88.3298 67.21 87.8798 66.97C87.1898 66.59 84.4198 66.29 85.1498 64.97C85.4398 64.46 84.2198 64.36 84.5098 63.84C84.7998 63.32 84.9598 60.54 86.3898 61.5C86.4398 61.34 86.4998 61.19 86.5498 61.04L90.0098 62.42Z" fill="white"/>
<path d="M96.0699 65.35L95.9199 65.81C97.6099 66.01 96.0799 68.14 95.9199 68.88C95.8299 69.47 94.9199 68.76 94.7399 69.33C94.6599 69.63 94.5099 70.21 94.0499 69.98C93.3499 69.62 90.5799 69.38 91.2599 68.08C91.5299 67.55 90.3199 67.49 90.5899 66.96C90.8599 66.43 90.9299 63.63 92.3799 64.56L92.5299 64.1L96.0699 65.35Z" fill="white"/>
<path d="M102.08 68.12L101.94 68.59C103.62 68.77 102.13 70.91 102.02 71.66C101.91 72.41 101.02 71.55 100.86 72.12C100.77 72.43 100.63 73.01 100.17 72.78C99.4702 72.42 96.6902 72.22 97.3502 70.9C97.6202 70.37 96.4102 70.32 96.6702 69.79C96.9302 69.26 96.9602 66.45 98.4302 67.36C98.4802 67.21 98.5202 67.05 98.5702 66.9L102.08 68.12Z" fill="white"/>
<path d="M108.27 71.31C108.22 71.46 108.17 71.62 108.11 71.77C109.8 72.01 108.23 74.1 108.11 74.84C107.99 75.58 107.11 74.7 106.93 75.27C106.84 75.56 106.67 76.14 106.22 75.9C105.53 75.53 102.75 75.24 103.46 73.9C103.74 73.39 102.53 73.3 102.81 72.78C103.09 72.26 103.21 69.45 104.65 70.41C104.7 70.25 104.75 70.1 104.81 69.95C106.01 70.42 107.11 70.87 108.27 71.31Z" fill="white"/>
<path d="M114.44 74.14C114.39 74.29 114.33 74.45 114.27 74.6C115.96 74.87 114.34 76.92 114.19 77.66C114.04 78.4 113.19 77.49 112.99 78.06C112.89 78.36 112.72 78.93 112.26 78.67C111.58 78.29 108.81 77.94 109.55 76.67C109.85 76.17 108.63 76.05 108.92 75.54C109.21 75.03 109.41 72.22 110.83 73.21L111.01 72.77L114.44 74.14Z" fill="white"/>
<path d="M120.41 77.62L120.2 78.05C121.86 78.47 120.02 80.36 119.8 81.05C119.58 81.74 118.8 80.8 118.56 81.34C118.44 81.62 118.2 82.17 117.78 81.88C117.12 81.44 114.38 80.88 115.25 79.64C115.6 79.17 114.39 78.94 114.73 78.46C115.07 77.98 115.55 75.24 116.88 76.34C116.94 76.19 117.02 76.05 117.09 75.9L120.41 77.62Z" fill="white"/>
<path d="M126.01 81.13C125.94 81.27 125.86 81.41 125.78 81.55C127.43 82.03 125.52 83.83 125.26 84.55C125 85.27 124.26 84.26 124.01 84.79C123.87 85.07 123.61 85.61 123.2 85.3C122.57 84.84 119.84 84.14 120.76 82.98C121.12 82.52 119.92 82.24 120.29 81.78C120.66 81.32 121.24 78.6 122.52 79.78L122.75 79.35L126.01 81.13Z" fill="white"/>
<path d="M131.85 85.1L131.58 85.5C133.18 86.12 131.09 87.73 130.77 88.41C130.45 89.09 129.77 88.03 129.48 88.53C129.32 88.8 129 89.3 128.62 88.96C128.03 88.45 125.36 87.51 126.4 86.45C126.81 86.03 125.63 85.66 126.04 85.23C126.45 84.8 127.31 82.23 128.48 83.42L128.76 83.02L131.85 85.1Z" fill="white"/>
<path d="M134.5 74.01L134.21 74.41C135.81 75.05 133.65 76.65 133.31 77.32C132.97 77.99 132.31 76.93 132.01 77.43C131.83 77.69 131.5 78.2 131.12 77.85C130.54 77.32 127.87 76.36 128.94 75.3C129.37 74.88 128.19 74.49 128.62 74.06C129.05 73.63 129.98 71 131.14 72.27L131.43 71.87L134.5 74.01Z" fill="white"/>
<path d="M139.85 77.77L139.54 78.15C141.13 78.85 138.91 80.38 138.54 81.04C138.17 81.7 137.54 80.62 137.23 81.1C137.05 81.36 136.7 81.86 136.33 81.5C135.77 80.96 133.12 79.91 134.23 78.89C134.68 78.48 133.51 78.06 133.95 77.65C134.39 77.24 135.42 74.65 136.53 75.93L136.83 75.55L139.85 77.77Z" fill="white"/>
<path d="M145.17 81.6C145.06 81.73 144.96 81.86 144.85 81.98C146.42 82.71 144.16 84.18 143.78 84.83C143.4 85.48 142.83 84.39 142.47 84.83C142.29 85.09 141.93 85.57 141.56 85.21C141.01 84.66 138.39 83.54 139.56 82.55C140.02 82.15 138.86 81.71 139.31 81.3C139.76 80.89 140.85 78.3 141.94 79.65C142.04 79.53 142.14 79.4 142.25 79.28L145.17 81.6Z" fill="white"/>
<path d="M150.27 86.02L149.96 86.4C151.52 87.13 149.26 88.6 148.87 89.25C148.48 89.9 147.93 88.8 147.57 89.25C147.37 89.5 147.02 89.99 146.66 89.62C146.11 89.06 143.5 87.94 144.66 86.96C145.12 86.56 143.96 86.11 144.41 85.71C144.86 85.31 145.97 82.71 147.04 84.07L147.36 83.69L150.27 86.02Z" fill="white"/>
<path d="M155.63 90.47L155.32 90.85C156.87 91.59 154.61 93.04 154.22 93.69C153.83 94.34 153.28 93.24 152.92 93.69C152.73 93.94 152.36 94.42 152.01 94.05C151.46 93.49 148.87 92.36 150.01 91.38C150.46 90.98 149.31 90.53 149.77 90.13C150.23 89.73 151.34 87.13 152.4 88.5L152.72 88.13L155.63 90.47Z" fill="white"/>
<path d="M160.63 95.08L160.3 95.43C161.81 96.26 159.45 97.58 159.03 98.2C158.61 98.82 158.12 97.7 157.72 98.2C157.51 98.44 157.13 98.89 156.79 98.51C156.27 97.93 153.73 96.66 154.94 95.75C155.42 95.38 154.29 94.87 154.77 94.49C155.25 94.11 156.52 91.64 157.51 93.02L157.85 92.66L160.63 95.08Z" fill="white"/>
<path d="M165.42 99.63C165.3 99.74 165.19 99.86 165.08 99.98C166.59 100.8 164.23 102.12 163.81 102.75C163.39 103.38 162.9 102.25 162.5 102.7C162.29 102.94 161.91 103.4 161.57 103.02C161.06 102.44 158.52 101.17 159.72 100.25C160.21 99.88 159.07 99.37 159.55 99C160.03 98.63 161.3 96.14 162.29 97.53C162.4 97.4 162.52 97.29 162.63 97.17L165.42 99.63Z" fill="white"/>
<path d="M19.8201 32.59C19.8201 32.75 19.8201 32.92 19.8201 33.08C21.4801 32.85 20.5801 35.34 20.6601 36.08C20.7201 36.69 19.6601 36.21 19.6601 36.82C19.6601 37.14 19.6601 37.75 19.1601 37.63C18.4001 37.46 15.6801 37.93 16.0001 36.46C16.1201 35.87 14.9401 36.11 15.0601 35.52C15.1801 34.93 14.5201 32.14 16.1501 32.69C16.1501 32.53 16.1501 32.36 16.1501 32.19L19.8201 32.59Z" fill="white"/>
<path d="M13.2902 32.15C13.2902 32.31 13.2902 32.48 13.2902 32.64C14.9502 32.4 14.0702 34.89 14.1602 35.64C14.2402 36.25 13.1602 35.79 13.1602 36.39C13.1602 36.72 13.1602 37.32 12.6702 37.22C11.9002 37.04 9.20022 37.55 9.49022 36.07C9.61022 35.48 8.44022 35.74 8.55022 35.15C8.69022 34.4 7.97022 31.77 9.61022 32.3C9.61022 32.14 9.61022 31.97 9.61022 31.81L13.2902 32.15Z" fill="white"/>
<path d="M26.2599 33.29C26.2599 33.45 26.2599 33.62 26.2599 33.78C27.9399 33.61 26.9499 36.06 27.0099 36.83C27.0599 37.43 26.0099 36.93 26.0099 37.54C26.0099 37.85 26.0099 38.47 25.4799 38.34C24.7299 38.14 21.9899 38.52 22.3499 37.07C22.4899 36.48 21.3499 36.7 21.4399 36.07C21.5299 35.44 21.0099 32.67 22.6199 33.27C22.6199 33.1 22.6199 32.94 22.6199 32.78C23.8099 32.97 25.0099 33.12 26.2599 33.29Z" fill="white"/>
<path d="M32.6902 34C32.6902 34.16 32.6902 34.32 32.6402 34.49C34.3302 34.35 33.2701 36.78 33.3101 37.55C33.3101 38.16 32.3102 37.63 32.2602 38.23C32.2602 38.55 32.2102 39.16 31.7102 39.02C30.9602 38.8 28.2102 39.12 28.6002 37.68C28.7602 37.1 27.6002 37.28 27.7202 36.68C27.9102 35.95 27.3702 33.28 28.9802 33.91C28.9802 33.75 28.9802 33.59 28.9802 33.42L32.6902 34Z" fill="white"/>
<path d="M39.3 35.37L39.24 35.86C40.93 35.73 39.87 38.16 39.9 38.93C39.9 39.53 38.9 39 38.85 39.6C38.85 39.92 38.79 40.53 38.3 40.39C37.55 40.17 34.78 40.47 35.19 39.03C35.35 38.45 34.19 38.62 34.31 38.03C34.43 37.44 33.97 34.64 35.58 35.27C35.58 35.11 35.58 34.95 35.63 34.78L39.3 35.37Z" fill="white"/>
<path d="M46.14 36.64C46.14 36.8 46.14 36.97 46.09 37.13C47.77 37.01 46.7 39.43 46.74 40.2C46.74 40.81 45.74 40.27 45.67 40.87C45.67 41.2 45.62 41.8 45.12 41.65C44.37 41.43 41.6 41.72 42.01 40.28C42.18 39.7 41.01 39.87 41.14 39.28C41.27 38.69 40.82 35.87 42.42 36.52C42.42 36.36 42.42 36.19 42.42 36.03L46.14 36.64Z" fill="white"/>
<path d="M52.8401 38.19C52.8401 38.36 52.7901 38.52 52.7601 38.68C54.4601 38.68 53.2401 41 53.2301 41.77C53.2301 42.38 52.2301 41.77 52.1201 42.38C52.1201 42.7 52.0101 43.3 51.5201 43.13C50.7701 42.86 47.9901 43.01 48.5201 41.59C48.7201 41.03 47.5201 41.13 47.7001 40.59C47.9501 39.87 47.5901 37.19 49.1601 37.92C49.1601 37.76 49.2101 37.6 49.2401 37.44L52.8401 38.19Z" fill="white"/>
<path d="M59.34 39.88C59.34 40.04 59.29 40.2 59.26 40.36C60.96 40.36 59.73 42.69 59.71 43.46C59.71 44.07 58.71 43.46 58.6 44.06C58.6 44.38 58.48 44.98 57.99 44.81C57.25 44.54 54.46 44.67 54.99 43.25C55.2 42.7 53.99 42.79 54.18 42.25C54.37 41.71 54.07 38.85 55.64 39.58L55.73 39.1L59.34 39.88Z" fill="white"/>
<path d="M65.81 41.99C65.81 42.14 65.75 42.31 65.73 42.47C67.43 42.47 66.18 44.8 66.17 45.57C66.17 46.17 65.1701 45.57 65.0501 46.17C65.0501 46.48 64.93 47.09 64.44 46.91C63.7 46.64 60.91 46.75 61.44 45.34C61.64 44.77 60.44 44.86 60.62 44.34C60.87 43.62 60.54 40.93 62.1 41.68L62.19 41.19C63.38 41.43 64.6 41.7 65.81 41.99Z" fill="white"/>
<path d="M72.2499 43.86C72.2499 44.02 72.18 44.18 72.15 44.34C73.86 44.34 72.5499 46.68 72.5099 47.44C72.5099 48.05 71.5099 47.44 71.3799 48.01C71.3299 48.33 71.2299 48.93 70.7499 48.74C70.0199 48.45 67.2099 48.49 67.7499 47.1C67.9699 46.54 66.75 46.6 66.96 46.04C67.17 45.48 66.9599 42.64 68.5099 43.42C68.5099 43.26 68.57 43.1 68.61 42.94L72.2499 43.86Z" fill="white"/>
<path d="M78.8 46.11L78.68 46.58C80.39 46.7 78.96 48.93 78.88 49.69C78.81 50.29 77.88 49.62 77.71 50.21C77.64 50.52 77.52 51.11 77.04 50.9C76.32 50.57 73.5 50.49 74.12 49.12C74.37 48.58 73.12 48.58 73.39 48.03C73.66 47.48 73.57 44.65 75.08 45.5C75.08 45.34 75.17 45.18 75.21 45.03C76.41 45.39 77.61 45.77 78.8 46.11Z" fill="white"/>
<path d="M85.2802 48.56C85.2802 48.72 85.1902 48.88 85.1402 49.03C86.8502 49.22 85.3102 51.38 85.2002 52.13C85.1002 52.73 84.2002 52.02 84.0002 52.6C83.9202 52.91 83.7702 53.49 83.3002 53.26C82.5902 52.91 79.7602 52.7 80.4502 51.37C80.7302 50.84 79.4502 50.79 79.7602 50.25C80.0702 49.71 80.1002 46.89 81.5802 47.8C81.6302 47.64 81.6802 47.49 81.7202 47.33L85.2802 48.56Z" fill="white"/>
<path d="M91.4999 51.3C91.4999 51.46 91.4199 51.62 91.3699 51.77C93.0899 51.92 91.6299 54.13 91.5399 54.89C91.4699 55.49 90.5399 54.8 90.3599 55.39C90.2899 55.7 90.1599 56.29 89.6799 56.07C88.9599 55.74 86.1399 55.6 86.7799 54.25C87.0399 53.71 85.7799 53.7 86.0599 53.15C86.3399 52.6 86.2699 49.76 87.7799 50.64C87.7799 50.48 87.8699 50.33 87.9099 50.17L91.4999 51.3Z" fill="white"/>
<path d="M97.7 53.88L97.58 54.35C99.29 54.48 97.8699 56.71 97.7899 57.47C97.7099 58.23 96.7899 57.4 96.6199 57.98C96.5499 58.3 96.43 58.89 95.95 58.67C95.22 58.34 92.4 58.24 93.02 56.88C93.27 56.33 92.0199 56.33 92.2799 55.78C92.5399 55.23 92.4499 52.39 93.9699 53.25C94.0199 53.09 94.0599 52.93 94.0999 52.78L97.7 53.88Z" fill="white"/>
<path d="M104.11 56.87C104.06 57.03 104.01 57.19 103.97 57.34C105.68 57.52 104.18 59.7 104.07 60.46C103.99 61.06 103.07 60.35 102.89 60.93C102.81 61.24 102.67 61.84 102.2 61.6C101.48 61.25 98.6499 61.07 99.3199 59.73C99.5899 59.19 98.3199 59.15 98.6199 58.61C98.9199 58.07 98.8899 55.22 100.39 56.13C100.44 55.98 100.48 55.82 100.53 55.66L104.11 56.87Z" fill="white"/>
<path d="M110.48 59.5C110.43 59.65 110.38 59.81 110.32 59.97C112.04 60.18 110.48 62.32 110.32 63.08C110.23 63.68 109.32 62.95 109.13 63.53C109.04 63.84 108.88 64.42 108.41 64.18C107.71 63.82 104.88 63.57 105.58 62.24C105.86 61.72 104.58 61.64 104.9 61.11C105.22 60.58 105.27 57.73 106.74 58.68C106.79 58.52 106.85 58.37 106.89 58.21L110.48 59.5Z" fill="white"/>
<path d="M116.66 62.77C116.6 62.91 116.53 63.06 116.47 63.21C118.16 63.57 116.38 65.56 116.18 66.29C116.03 66.87 115.18 66.07 114.94 66.63C114.82 66.92 114.6 67.49 114.16 67.21C113.48 66.79 110.68 66.28 111.51 65.04C111.85 64.54 110.61 64.36 110.94 63.86C111.27 63.36 111.64 60.56 113.03 61.62C113.09 61.47 113.17 61.32 113.23 61.18C114.37 61.77 115.52 62.26 116.66 62.77Z" fill="white"/>
<path d="M122.49 66.13L122.27 66.57C123.96 66.99 122.09 68.9 121.87 69.63C121.69 70.2 120.87 69.37 120.6 69.91C120.47 70.2 120.23 70.76 119.8 70.46C119.14 70.02 116.35 69.46 117.24 68.21C117.59 67.72 116.36 67.49 116.71 67.01C117.06 66.53 117.55 63.75 118.9 64.86L119.11 64.42L122.49 66.13Z" fill="white"/>
<path d="M128.56 69.94C128.47 70.07 128.38 70.21 128.3 70.35C129.94 70.92 127.89 72.63 127.59 73.35C127.29 74.07 126.59 73 126.29 73.52C126.13 73.8 125.83 74.32 125.43 74C124.81 73.5 122.07 72.65 123.08 71.54C123.48 71.09 122.27 70.76 122.67 70.31C123.07 69.86 123.84 67.17 125.08 68.38L125.34 67.97L128.56 69.94Z" fill="white"/>
<path d="M140.71 64.61L140.41 65.02C142.09 65.69 139.83 67.38 139.48 68.09C139.13 68.8 138.48 67.69 138.12 68.21C137.93 68.48 137.59 69.03 137.19 68.66C136.58 68.11 133.76 67.11 134.88 65.99C135.33 65.55 134.09 65.15 134.53 64.7C134.97 64.25 135.95 61.47 137.17 62.8L137.47 62.38L140.71 64.61Z" fill="white"/>
<path d="M146.34 68.56L146.03 68.96C147.69 69.68 145.38 71.3 145.03 71.96C144.68 72.62 144.03 71.53 143.66 72.04C143.47 72.31 143.11 72.84 142.72 72.47C142.12 71.9 139.34 70.82 140.5 69.74C140.97 69.31 139.73 68.87 140.19 68.44C140.65 68.01 141.71 65.27 142.89 66.62C143 66.49 143.1 66.35 143.2 66.22C144.23 67.01 145.29 67.77 146.34 68.56Z" fill="white"/>
<path d="M151.95 72.5L151.62 72.9C153.27 73.66 150.91 75.21 150.52 75.9C150.13 76.59 149.52 75.45 149.15 75.95C148.95 76.22 148.57 76.73 148.15 76.35C147.57 75.78 144.82 74.62 146 73.58C146.48 73.16 145.26 72.69 145.73 72.27C146.2 71.85 147.33 69.14 148.48 70.52L148.8 70.12C149.87 70.92 150.92 71.71 151.95 72.5Z" fill="white"/>
<path d="M157.33 77.11L157.01 77.5C158.65 78.26 156.29 79.82 155.89 80.5C155.49 81.18 154.89 80.04 154.52 80.5C154.32 80.77 153.95 81.28 153.57 80.9C152.99 80.32 150.24 79.16 151.43 78.12C151.91 77.7 150.69 77.23 151.17 76.81C151.65 76.39 152.78 73.69 153.92 75.07C154.02 74.93 154.13 74.81 154.24 74.67L157.33 77.11Z" fill="white"/>
<path d="M163.01 81.77L162.68 82.17C164.32 82.94 161.95 84.48 161.55 85.17C161.15 85.86 160.55 84.7 160.18 85.17C159.98 85.43 159.6 85.94 159.23 85.56C158.66 84.97 155.92 83.8 157.11 82.76C157.59 82.35 156.38 81.88 156.85 81.45C157.32 81.02 158.48 78.34 159.61 79.73L159.93 79.33L163.01 81.77Z" fill="white"/>
<path d="M168.27 86.54L167.92 86.92C169.51 87.77 167.04 89.17 166.6 89.83C166.16 90.49 165.6 89.32 165.23 89.83C165.01 90.09 164.61 90.57 164.23 90.17C163.69 89.56 161.02 88.25 162.23 87.28C162.74 86.89 161.55 86.36 162.05 85.97C162.55 85.58 163.87 82.97 164.91 84.4L165.26 84.03L168.27 86.54Z" fill="white"/>
<path d="M173.31 91.29L172.96 91.66C174.56 92.52 172.09 93.92 171.65 94.57C171.21 95.22 170.65 94.06 170.28 94.57C170.06 94.82 169.66 95.3 169.28 94.9C168.74 94.3 166.06 92.98 167.28 92.01C167.79 91.62 166.6 91.09 167.1 90.7C167.6 90.31 168.92 87.7 169.96 89.13C170.08 89 170.2 88.89 170.31 88.76C171.36 89.58 172.33 90.43 173.31 91.29Z" fill="white"/>
<path d="M20.1 21.88C20.1 22.04 20.1 22.22 20.1 22.39C21.85 22.15 20.92 24.76 21.01 25.57C21.08 26.21 19.96 25.71 19.96 26.35C19.96 26.69 19.96 27.35 19.44 27.21C18.64 27.03 15.79 27.54 16.11 25.99C16.23 25.38 15 25.64 15.11 24.99C15.26 24.21 14.52 21.44 16.24 21.99C16.24 21.82 16.24 21.64 16.24 21.47L20.1 21.88Z" fill="white"/>
<path d="M13.26 21.46C13.26 21.63 13.26 21.8 13.26 21.98C15 21.71 14.1 24.33 14.2 25.14C14.28 25.77 13.15 25.3 13.2 25.93C13.2 26.27 13.2 26.93 12.69 26.8C11.89 26.62 9.05001 27.17 9.35001 25.62C9.47001 25 8.24001 25.28 8.35001 24.62C8.49001 23.84 7.72001 21.08 9.44001 21.62C9.44001 21.45 9.44001 21.28 9.44001 21.11L13.26 21.46Z" fill="white"/>
<path d="M26.8698 22.57C26.8698 22.74 26.8698 22.91 26.8698 23.09C28.6298 22.89 27.6099 25.48 27.6799 26.28C27.7299 26.91 26.6199 26.39 26.5999 27.03C26.5999 27.36 26.5999 28.03 26.0499 27.87C25.2599 27.67 22.3898 28.09 22.7498 26.56C22.8998 25.95 21.6498 26.18 21.7498 25.56C21.9398 24.78 21.2799 22 22.9799 22.62C22.9799 22.44 22.9799 22.27 22.9799 22.1L26.8698 22.57Z" fill="white"/>
<path d="M33.6198 23.27C33.6198 23.45 33.6198 23.62 33.5698 23.79C35.3398 23.64 34.2498 26.19 34.2998 27C34.2998 27.63 33.2298 27.08 33.1898 27.72C33.1898 28.06 33.1898 28.72 32.6298 28.55C31.8298 28.32 28.9498 28.68 29.3498 27.16C29.5198 26.55 28.2598 26.75 28.4198 26.16C28.6198 25.39 28.0298 22.6 29.7198 23.25C29.7198 23.08 29.7198 22.91 29.7698 22.73L33.6198 23.27Z" fill="white"/>
<path d="M40.5602 24.67C40.5602 24.84 40.5602 25.01 40.5102 25.18C42.2802 25.04 41.1802 27.59 41.2202 28.4C41.2202 29.04 40.1602 28.48 40.1202 29.12C40.1202 29.45 40.0702 30.12 39.5402 29.94C38.7502 29.72 35.8602 30.05 36.2702 28.54C36.4402 27.93 35.1902 28.12 35.3402 27.54C35.5502 26.77 34.9702 23.98 36.6602 24.63C36.6602 24.46 36.6602 24.29 36.7102 24.12L40.5602 24.67Z" fill="white"/>
<path d="M47.75 25.96C47.75 26.13 47.75 26.3 47.7 26.47C49.47 26.34 48.36 28.89 48.4 29.69C48.4 30.33 47.33 29.77 47.29 30.4C47.29 30.74 47.29 31.4 46.71 31.23C45.92 31 43.02 31.32 43.45 29.8C43.61 29.19 42.36 29.38 42.52 28.8C42.68 28.22 42.16 25.23 43.85 25.9C43.85 25.73 43.85 25.56 43.9 25.39L47.75 25.96Z" fill="white"/>
<path d="M54.8001 27.55L54.7101 28.06C56.4901 28.06 55.23 30.49 55.22 31.3C55.22 31.93 54.14 31.3 54.06 31.94C54.06 32.28 53.9501 32.94 53.4301 32.73C52.6501 32.46 49.7301 32.63 50.2401 31.14C50.4501 30.55 49.18 30.66 49.37 30.07C49.63 29.31 49.23 26.5 50.88 27.25L51.01 26.77L54.8001 27.55Z" fill="white"/>
<path d="M61.6199 29.27C61.6199 29.45 61.5699 29.61 61.5399 29.78C63.3299 29.78 62.0499 32.22 62.0299 33.02C62.0299 33.66 60.9599 33.02 60.8699 33.67C60.8699 34 60.7499 34.67 60.2399 34.45C59.4599 34.18 56.5299 34.33 57.0499 32.84C57.2599 32.26 55.9799 32.36 56.1899 31.76C56.4399 31.01 56.0599 28.19 57.7099 28.96C57.7099 28.79 57.7699 28.62 57.7899 28.45L61.6199 29.27Z" fill="white"/>
<path d="M68.4299 31.44L68.3399 31.95C70.1299 31.95 68.8299 34.4 68.8199 35.2C68.8199 35.84 67.7399 35.2 67.6599 35.83C67.6599 36.17 67.5299 36.83 67.0199 36.62C66.2399 36.34 63.3099 36.47 63.8399 34.99C64.0499 34.39 62.7699 34.5 62.9799 33.9C63.1899 33.3 62.8599 30.32 64.5099 31.1L64.5999 30.59L68.4299 31.44Z" fill="white"/>
<path d="M75.1901 33.37C75.1901 33.54 75.1301 33.7 75.0901 33.87C76.8901 33.87 75.5301 36.32 75.4901 37.13C75.4901 37.76 74.4101 37.13 74.3101 37.73C74.2601 38.07 74.1601 38.73 73.6501 38.5C72.8801 38.2 69.9401 38.26 70.5001 36.8C70.7301 36.21 69.4501 36.28 69.6701 35.69C69.9501 34.94 69.6701 32.12 71.2801 32.93C71.2801 32.76 71.3401 32.6 71.3801 32.43L75.1901 33.37Z" fill="white"/>
<path d="M82.0902 35.69C82.0402 35.85 82.0002 36.02 81.9602 36.19C83.7602 36.3 82.2702 38.65 82.1902 39.44C82.1202 40.08 81.1002 39.38 80.9702 39.99C80.8902 40.32 80.7702 40.94 80.2702 40.72C79.5102 40.39 76.5502 40.32 77.1902 38.88C77.4502 38.31 76.1902 38.32 76.4102 37.74C76.7302 37.01 76.5802 34.18 78.1802 35.07L78.3002 34.57L82.0902 35.69Z" fill="white"/>
<path d="M88.9 38.22L88.7499 38.71C90.5499 38.9 88.9499 41.17 88.8299 41.97C88.7399 42.59 87.7499 41.85 87.5799 42.46C87.4899 42.79 87.3399 43.4 86.8499 43.16C86.0999 42.8 83.1399 42.6 83.8499 41.16C84.1399 40.6 82.8499 40.56 83.1199 39.99C83.3899 39.42 83.4499 36.45 85.0099 37.4L85.1599 36.91L88.9 38.22Z" fill="white"/>
<path d="M95.4499 41.05L95.3099 41.55C97.1099 41.69 95.5899 44.02 95.5099 44.81C95.4299 45.45 94.4199 44.73 94.2799 45.35C94.1999 45.67 94.0699 46.3 93.5699 46.07C92.8099 45.72 89.8499 45.6 90.5099 44.18C90.7799 43.61 89.5099 43.6 89.7399 43.03C89.9699 42.46 89.9499 39.47 91.5299 40.38C91.5799 40.21 91.6299 40.05 91.6699 39.89L95.4499 41.05Z" fill="white"/>
<path d="M102.01 43.77C102.01 43.94 101.92 44.1 101.88 44.27C103.68 44.39 102.2 46.73 102.12 47.54C102.05 48.17 101.03 47.47 100.9 48.08C100.82 48.41 100.7 49.03 100.2 48.81C99.4301 48.47 96.4701 48.38 97.1101 46.95C97.3701 46.37 96.1101 46.38 96.3301 45.8C96.6501 45.07 96.4901 42.23 98.0901 43.13C98.0901 42.97 98.1701 42.8 98.2201 42.63L102.01 43.77Z" fill="white"/>
<path d="M108.71 46.82L108.56 47.31C110.36 47.48 108.8 49.79 108.7 50.58C108.61 51.21 107.61 50.48 107.45 51.09C107.37 51.41 107.23 52.04 106.73 51.8C105.98 51.43 103.01 51.26 103.73 49.8C104.01 49.24 102.73 49.2 102.99 48.64C103.33 47.92 103.26 45.08 104.83 46.03L104.98 45.53L108.71 46.82Z" fill="white"/>
<path d="M115.41 49.54L115.25 50.03C117.05 50.23 115.43 52.5 115.3 53.29C115.21 53.92 114.21 53.16 114.05 53.77C113.96 54.09 113.8 54.71 113.3 54.46C112.56 54.08 109.59 53.84 110.3 52.46C110.59 51.91 109.3 51.84 109.58 51.28C109.94 50.57 109.94 47.73 111.5 48.72L111.65 48.22L115.41 49.54Z" fill="white"/>
<path d="M121.92 52.95L121.72 53.42C123.5 53.79 121.64 55.88 121.44 56.65C121.28 57.26 120.36 56.43 120.13 57.01C120.01 57.32 119.79 57.92 119.32 57.63C118.6 57.19 115.66 56.68 116.53 55.37C116.88 54.85 115.58 54.66 115.92 54.14C116.36 53.47 116.64 50.67 118.1 51.78C118.16 51.62 118.24 51.46 118.31 51.31L121.92 52.95Z" fill="white"/>
<path d="M128.06 56.42L127.83 56.88C129.6 57.31 127.66 59.32 127.42 60.09C127.24 60.69 126.35 59.82 126.1 60.4C125.96 60.7 125.72 61.29 125.26 60.98C124.57 60.51 121.63 59.9 122.55 58.63C122.92 58.12 121.63 57.88 122 57.38C122.46 56.72 122.86 53.95 124.28 55.1C124.36 54.95 124.43 54.79 124.5 54.64L128.06 56.42Z" fill="white"/>
<path d="M134.45 60.37L134.17 60.8C135.91 61.39 133.76 63.2 133.45 63.93C133.2 64.51 132.4 63.58 132.09 64.13C131.93 64.42 131.62 64.97 131.19 64.63C130.54 64.11 127.66 63.24 128.71 62.06C129.13 61.59 127.85 61.26 128.27 60.78C128.69 60.3 129.48 57.47 130.78 58.78L131.06 58.34L134.45 60.37Z" fill="white"/>
<path d="M129.95 96.68L129.64 97.08C131.25 97.77 128.99 99.37 128.64 100.08C128.34 100.61 127.64 99.66 127.31 100.16C127.12 100.43 126.77 100.94 126.39 100.58C125.82 100.03 123.13 98.98 124.26 97.92C124.72 97.5 123.53 97.07 123.98 96.64C124.43 96.21 125.48 93.53 126.61 94.85L126.92 94.45L129.95 96.68Z" fill="white"/>
<path d="M135.35 100.52L135.03 100.91C136.63 101.64 134.32 103.18 133.93 103.86C133.54 104.54 132.93 103.41 132.6 103.91C132.4 104.18 132.04 104.68 131.67 104.31C131.12 103.75 128.45 102.64 129.61 101.6C130.08 101.19 128.9 100.74 129.36 100.32C129.82 99.9 130.94 97.25 132.04 98.6L132.36 98.2L135.35 100.52Z" fill="white"/>
<path d="M140.53 105.01L140.21 105.4C141.8 106.14 139.49 107.67 139.1 108.34C138.71 109.01 138.1 107.9 137.77 108.39C137.57 108.65 137.21 109.15 136.84 108.78C136.29 108.21 133.63 107.09 134.84 106.06C135.3 105.65 134.13 105.2 134.59 104.78C135.05 104.36 136.18 101.72 137.28 103.07L137.6 102.68L140.53 105.01Z" fill="white"/>
<path d="M146.01 109.52L145.68 109.91C147.27 110.66 144.95 112.18 144.55 112.85C144.15 113.52 143.6 112.4 143.23 112.85C143.03 113.11 142.66 113.61 142.3 113.24C141.74 112.67 139.1 111.53 140.3 110.51C140.77 110.1 139.6 109.64 140.06 109.23C140.52 108.82 141.67 106.17 142.75 107.53L143.07 107.14L146.01 109.52Z" fill="white"/>
<path d="M151.12 114.2L150.78 114.57C152.31 115.4 149.91 116.78 149.47 117.43C149.03 118.08 148.54 116.93 148.14 117.43C147.92 117.68 147.52 118.15 147.14 117.76C146.62 117.17 144.05 115.89 145.28 114.94C145.77 114.56 144.62 114.04 145.11 113.65C145.6 113.26 146.91 110.65 147.91 112.11C148.02 111.98 148.14 111.86 148.25 111.74L151.12 114.2Z" fill="white"/>
<path d="M20.5798 53.5C20.5798 53.67 20.5798 53.84 20.5298 54.01C22.2398 53.84 21.1898 56.36 21.2398 57.16C21.2398 57.78 20.2398 57.26 20.1798 57.88C20.1798 58.21 20.1298 58.88 19.6298 58.7C18.8698 58.49 16.0798 58.87 16.4698 57.37C16.6198 56.77 15.4098 56.98 15.5598 56.37C15.7498 55.6 15.1798 52.87 16.8098 53.49C16.8098 53.32 16.8098 53.15 16.8598 52.98L20.5798 53.5Z" fill="white"/>
<path d="M13.82 52.93C13.82 53.09 13.82 53.27 13.82 53.43C15.52 53.24 14.4999 55.79 14.5599 56.57C14.5599 57.2 13.56 56.69 13.51 57.31C13.51 57.64 13.5099 58.31 12.9699 58.14C12.2099 57.94 9.42997 58.35 9.79997 56.85C9.94997 56.25 8.73995 56.47 8.87995 55.85C9.06995 55.08 8.45995 52.35 10.1 52.95C10.1 52.78 10.1 52.61 10.1 52.44L13.82 52.93Z" fill="white"/>
<path d="M27.0999 54.28L27.0399 54.78C28.7599 54.65 27.6399 57.15 27.6699 57.94C27.6699 58.57 26.6699 58.02 26.5899 58.64C26.5899 58.97 26.5199 59.64 26.0199 59.45C25.2599 59.22 22.4499 59.53 22.8799 58.04C23.0499 57.45 21.8799 57.62 21.9999 57.04C22.2099 56.29 21.6999 53.53 23.3299 54.19C23.3299 54.03 23.3299 53.86 23.3799 53.69L27.0999 54.28Z" fill="white"/>
<path d="M33.79 55.77L33.73 56.27C35.44 56.15 34.32 58.64 34.34 59.44C34.34 60.06 33.34 59.51 33.25 60.13C33.25 60.46 33.18 61.08 32.68 60.93C31.92 60.7 29.11 61 29.55 59.51C29.73 58.91 28.5 59.09 28.67 58.51C28.89 57.75 28.39 55 30.01 55.67L30.07 55.17L33.79 55.77Z" fill="white"/>
<path d="M40.7201 57.1L40.6601 57.6C42.3801 57.49 41.2401 59.98 41.2601 60.77C41.2601 61.4 40.2601 60.83 40.1701 61.46C40.1701 61.78 40.0901 62.41 39.5901 62.26C38.8301 62.02 36.0201 62.26 36.4601 60.82C36.6401 60.22 35.4601 60.38 35.5901 59.82C35.8101 59.07 35.3301 56.31 36.9401 56.99C36.9401 56.82 36.9401 56.65 37.0101 56.49L40.7201 57.1Z" fill="white"/>
<path d="M47.5099 58.77C47.5099 58.94 47.4399 59.1 47.4099 59.27C49.1399 59.27 47.8499 61.66 47.8299 62.45C47.8299 63.08 46.7799 62.45 46.6899 63.08C46.6399 63.4 46.5599 64.03 46.0599 63.84C45.3099 63.57 42.4799 63.69 43.0099 62.24C43.2299 61.65 42.0099 61.75 42.1999 61.17C42.4599 60.43 42.1399 57.66 43.7199 58.43C43.7199 58.26 43.7899 58.09 43.8199 57.93L47.5099 58.77Z" fill="white"/>
<path d="M54.0802 60.53C54.0802 60.7 54.0102 60.87 53.9802 61.03C55.7202 61.03 54.4102 63.44 54.3802 64.22C54.3502 65 53.3802 64.22 53.2402 64.84C53.1902 65.16 53.1002 65.78 52.6102 65.6C51.8602 65.32 49.0302 65.43 49.5602 63.98C49.7802 63.4 48.5602 63.49 48.7502 62.9C48.9402 62.31 48.7502 59.4 50.2902 60.17C50.2902 60 50.3602 59.84 50.3902 59.67L54.0802 60.53Z" fill="white"/>
<path d="M60.6202 62.77C60.6202 62.94 60.5602 63.1 60.5202 63.27C62.2502 63.27 60.9402 65.68 60.9002 66.46C60.9002 67.09 59.9002 66.46 59.7602 67.07C59.7102 67.4 59.6102 68.07 59.1202 67.83C58.3802 67.54 55.5302 67.64 56.1202 66.19C56.3402 65.61 55.1202 65.69 55.3102 65.11C55.5902 64.38 55.3102 61.61 56.8702 62.39C56.8702 62.22 56.9402 62.05 56.9702 61.89L60.6202 62.77Z" fill="white"/>
<path d="M67.1301 64.77L67.0101 65.27C68.7501 65.32 67.3701 67.68 67.3201 68.47C67.2701 69.09 66.2702 68.47 66.1502 69.04C66.0902 69.37 65.9901 69.99 65.5001 69.79C64.7601 69.48 61.9101 69.5 62.5001 68.07C62.7401 67.5 61.5001 67.55 61.7201 66.98C62.0101 66.25 61.7901 63.47 63.3501 64.29C63.3501 64.13 63.4202 63.96 63.4602 63.8L67.1301 64.77Z" fill="white"/>
<path d="M73.7503 67.11C73.7003 67.27 73.6503 67.43 73.6103 67.59C75.3503 67.73 73.8403 70.01 73.7403 70.79C73.6703 71.41 72.6903 70.71 72.5503 71.31C72.4703 71.63 72.3303 72.24 71.8503 72.02C71.1203 71.68 68.2503 71.56 68.9203 70.17C69.1903 69.61 67.9203 69.61 68.1903 69.04C68.4603 68.47 68.4503 65.55 69.9703 66.45C70.0203 66.28 70.0603 66.12 70.1103 65.96L73.7503 67.11Z" fill="white"/>
<path d="M80.2798 69.69C80.2798 69.85 80.1798 70 80.1198 70.17C81.8598 70.37 80.2498 72.58 80.1198 73.36C80.0198 73.97 79.0698 73.24 78.8998 73.83C78.8098 74.14 78.6398 74.75 78.1698 74.5C77.4598 74.14 74.5898 73.9 75.3198 72.5C75.6098 71.96 74.3198 71.9 74.6398 71.35C74.9598 70.8 75.0498 67.88 76.5398 68.84L76.6998 68.36L80.2798 69.69Z" fill="white"/>
<path d="M86.5501 72.56C86.5001 72.72 86.4601 72.88 86.4101 73.04C88.1501 73.2 86.6101 75.46 86.5001 76.25C86.4201 76.86 85.4501 76.15 85.3001 76.75C85.2201 77.07 85.0701 77.67 84.5901 77.45C83.8701 77.09 81.0001 76.94 81.6801 75.55C81.9501 75 80.6801 74.97 80.9701 74.41C81.2601 73.85 81.2601 70.92 82.7801 71.84C82.8301 71.68 82.8701 71.52 82.9201 71.36L86.5501 72.56Z" fill="white"/>
<path d="M92.7998 75.26C92.7998 75.42 92.7098 75.59 92.6598 75.75C94.4098 75.89 92.8998 78.17 92.7998 78.96C92.7198 79.58 91.7498 78.87 91.5998 79.47C91.5298 79.8 91.3898 80.4 90.8998 80.18C90.1698 79.83 87.2998 79.71 87.9698 78.31C88.2298 77.75 86.9698 77.73 87.2398 77.17C87.5098 76.61 87.4898 73.68 89.0198 74.58C89.0698 74.42 89.1098 74.25 89.1598 74.09L92.7998 75.26Z" fill="white"/>
<path d="M99.25 78.4L99.1 78.88C100.83 79.08 99.25 81.31 99.1 82.09C99 82.7 98.05 81.96 97.88 82.57C97.8 82.88 97.63 83.49 97.16 83.25C96.44 82.88 93.57 82.67 94.28 81.25C94.57 80.7 93.28 80.65 93.59 80.1C93.9 79.55 93.96 76.62 95.46 77.57L95.61 77.08L99.25 78.4Z" fill="white"/>
<path d="M105.67 81.16C105.62 81.32 105.56 81.48 105.5 81.64C107.24 81.88 105.6 84.07 105.5 84.84C105.39 85.45 104.45 84.7 104.27 85.29C104.17 85.6 104 86.21 103.53 85.95C102.82 85.58 99.9498 85.29 100.69 83.95C100.99 83.41 99.6898 83.33 100.03 82.78C100.37 82.23 100.48 79.32 101.96 80.3C102.02 80.14 102.07 79.98 102.12 79.82L105.67 81.16Z" fill="white"/>
<path d="M111.89 84.61C111.82 84.76 111.75 84.91 111.67 85.06C113.39 85.45 111.53 87.47 111.31 88.22C111.09 88.97 110.31 87.99 110.03 88.56C109.9 88.86 109.67 89.44 109.23 89.15C108.55 88.7 105.7 88.15 106.59 86.89C106.94 86.39 105.69 86.19 106.03 85.68C106.37 85.17 106.83 82.29 108.22 83.4L108.43 82.94L111.89 84.61Z" fill="white"/>
<path d="M117.74 88.09C117.66 88.24 117.58 88.39 117.51 88.54C119.21 88.99 117.26 90.93 117.01 91.67C116.76 92.41 116.01 91.4 115.72 91.96C115.58 92.26 115.32 92.82 114.89 92.52C114.23 92.05 111.4 91.4 112.33 90.17C112.71 89.68 111.46 89.44 111.83 88.94C112.2 88.44 112.77 85.6 114.11 86.75L114.34 86.3L117.74 88.09Z" fill="white"/>
<path d="M123.42 91.98L123.16 92.41C124.84 92.95 122.79 94.78 122.49 95.51C122.27 96.08 121.49 95.18 121.18 95.73C121.03 96.02 120.73 96.57 120.32 96.24C119.68 95.75 116.89 94.96 117.89 93.78C118.29 93.31 117.06 93 117.45 92.53C117.84 92.06 118.58 89.24 119.86 90.46L120.11 90.03L123.42 91.98Z" fill="white"/>
<path d="M116.19 99.11L115.9 99.53C117.51 100.14 115.33 101.84 114.98 102.53C114.63 103.22 113.98 102.15 113.68 102.68C113.5 102.95 113.17 103.47 112.79 103.14C112.21 102.62 109.53 101.7 110.61 100.59C111.05 100.14 109.86 99.78 110.29 99.33C110.72 98.88 111.67 96.16 112.82 97.42L113.11 97.01L116.19 99.11Z" fill="white"/>
<path d="M121.63 102.68L121.33 103.08C122.92 103.73 120.7 105.38 120.33 106.08C120.04 106.62 119.33 105.68 119.02 106.19C118.83 106.46 118.5 106.98 118.12 106.63C117.56 106.1 114.9 105.12 116.01 104.04C116.45 103.61 115.28 103.21 115.72 102.78C116.16 102.35 117.19 99.64 118.31 100.93L118.61 100.52C119.62 101.23 120.63 101.95 121.63 102.68Z" fill="white"/>
<path d="M126.87 106.89L126.57 107.29C128.16 107.95 125.93 109.59 125.57 110.29C125.21 110.99 124.62 109.9 124.26 110.4C124.08 110.67 123.73 111.2 123.36 110.84C122.8 110.31 120.15 109.31 121.27 108.24C121.71 107.8 120.54 107.41 120.98 106.97C121.42 106.53 122.46 103.85 123.58 105.14C123.68 105 123.77 104.87 123.88 104.73L126.87 106.89Z" fill="white"/>
<path d="M132.38 111.12L132.07 111.52C133.65 112.18 131.42 113.81 131.07 114.52C130.72 115.23 130.07 114.12 129.76 114.63C129.57 114.9 129.23 115.41 128.86 115.06C128.3 114.52 125.66 113.52 126.78 112.44C127.23 112.01 126.06 111.62 126.5 111.18C126.94 110.74 128 108.06 129.1 109.36C129.2 109.23 129.3 109.09 129.41 108.96L132.38 111.12Z" fill="white"/>
<path d="M137.59 115.51C137.48 115.64 137.38 115.77 137.26 115.9C138.81 116.65 136.47 118.14 136.07 118.8C135.67 119.46 135.14 118.35 134.75 118.8C134.55 119.06 134.17 119.55 133.82 119.18C133.29 118.61 130.71 117.47 131.89 116.46C132.37 116.06 131.23 115.6 131.69 115.19C132.15 114.78 133.37 112.19 134.4 113.52L134.73 113.13L137.59 115.51Z" fill="white"/>
<path d="M142.55 119.92L142.22 120.3C143.76 121.06 141.42 122.54 141.01 123.2C140.6 123.86 140.08 122.75 139.69 123.2C139.49 123.45 139.11 123.95 138.76 123.58C138.24 123.01 135.66 121.85 136.85 120.85C137.33 120.46 136.19 119.98 136.66 119.58C137.13 119.18 138.34 116.58 139.37 117.92L139.7 117.54L142.55 119.92Z" fill="white"/>
<path d="M13.3099 62.52C13.3099 62.69 13.3099 62.86 13.3099 63.03C14.9899 62.8 14.0099 65.36 14.0699 66.15C14.1199 66.78 13.0699 66.27 13.0699 66.9C13.0699 67.23 13.07 67.9 12.54 67.74C11.79 67.55 9.05996 68.01 9.41996 66.5C9.55996 65.9 8.41995 66.15 8.50995 65.5C8.67995 64.73 8.06994 62.01 9.68994 62.59V62.08L13.3099 62.52Z" fill="white"/>
<path d="M19.9202 63.61C19.9202 63.78 19.9202 63.95 19.9202 64.12C21.5902 63.9 20.6002 66.46 20.6602 67.24C20.6602 67.87 19.6602 67.37 19.6602 67.99C19.6602 68.32 19.6602 68.99 19.1402 68.83C18.3802 68.64 15.6502 69.08 16.0102 67.58C16.1602 66.97 15.0102 67.21 15.1102 66.58C15.2802 65.82 14.6902 63.09 16.3002 63.67C16.3002 63.51 16.3002 63.33 16.3002 63.17L19.9202 63.61Z" fill="white"/>
<path d="M26.76 64.59C26.76 64.76 26.76 64.93 26.76 65.1C28.44 64.9 27.44 67.44 27.49 68.23C27.49 68.85 26.49 68.34 26.49 68.97C26.49 69.3 26.49 69.97 25.96 69.8C25.2 69.61 22.46 70.04 22.83 68.53C22.98 67.93 21.83 68.17 21.93 67.53C22.12 66.76 21.53 64.04 23.14 64.63C23.14 64.46 23.14 64.29 23.14 64.12L26.76 64.59Z" fill="white"/>
<path d="M33.4801 65.86C33.4801 66.03 33.4301 66.19 33.4101 66.36C35.1001 66.26 33.9401 68.73 33.9501 69.52C33.9501 70.15 32.9501 69.59 32.8601 70.2C32.8601 70.54 32.7701 71.15 32.2801 71C31.5401 70.76 28.7701 71 29.2201 69.57C29.4101 68.98 28.2201 69.15 28.3801 68.57C28.5401 67.99 28.1801 65.08 29.7601 65.75C29.7601 65.59 29.7601 65.42 29.8301 65.25L33.4801 65.86Z" fill="white"/>
<path d="M40.0102 67.28C40.0102 67.44 39.9602 67.61 39.9402 67.78C41.6402 67.68 40.4702 70.15 40.4702 70.94C40.4702 71.57 39.4702 71 39.3802 71.62C39.3802 71.95 39.2802 72.56 38.7902 72.41C38.0502 72.17 35.2702 72.41 35.7402 70.96C35.9202 70.37 34.7402 70.53 34.9002 69.96C35.1202 69.21 34.7102 66.46 36.2902 67.14C36.2902 66.98 36.3402 66.81 36.3602 66.64L40.0102 67.28Z" fill="white"/>
<path d="M46.4901 69.12C46.4901 69.29 46.4401 69.46 46.4201 69.62C48.1201 69.53 46.9401 72 46.9401 72.79C46.9401 73.41 45.94 72.84 45.84 73.46C45.84 73.79 45.74 74.41 45.25 74.25C44.5 74.01 41.7301 74.25 42.2001 72.79C42.3901 72.2 41.2001 72.35 41.3601 71.79C41.5901 71.04 41.1901 68.29 42.7701 68.98C42.7701 68.81 42.82 68.65 42.84 68.48L46.4901 69.12Z" fill="white"/>
<path d="M53.0101 70.77L52.9201 71.27C54.6201 71.27 53.3801 73.65 53.3601 74.44C53.3601 75.06 52.3601 74.44 52.2401 75.09C52.2401 75.41 52.1201 76.09 51.6301 75.86C50.8901 75.6 48.1001 75.79 48.6301 74.32C48.8401 73.74 47.6301 73.86 47.8201 73.32C48.0701 72.58 47.7301 69.81 49.3001 70.55C49.3001 70.38 49.3001 70.21 49.3801 70.05L53.0101 70.77Z" fill="white"/>
<path d="M59.55 72.77C59.55 72.93 59.4699 73.1 59.4399 73.26C61.1499 73.26 59.77 75.66 59.71 76.44C59.66 77.07 58.7099 76.44 58.5599 77.03C58.4999 77.36 58.3899 77.97 57.9099 77.78C57.1799 77.48 54.37 77.53 54.96 76.1C55.19 75.52 53.9599 75.59 54.1899 75.02C54.4899 74.29 54.2899 71.52 55.8199 72.33L55.9399 71.83L59.55 72.77Z" fill="white"/>
<path d="M66.08 74.92C66.03 75.08 65.99 75.24 65.94 75.4C67.65 75.51 66.17 77.81 66.07 78.59C66 79.21 65.07 78.52 64.89 79.13C64.82 79.45 64.6801 80.05 64.2101 79.84C63.4901 79.51 60.67 79.45 61.32 78.04C61.58 77.48 60.32 77.49 60.61 76.93C60.94 76.22 60.86 73.45 62.36 74.32C62.36 74.15 62.45 73.99 62.5 73.83L66.08 74.92Z" fill="white"/>
<path d="M72.3502 77.42L72.2302 77.91C73.9502 77.97 72.5402 80.31 72.4702 81.09C72.4102 81.71 71.4702 81.09 71.3102 81.67C71.2402 81.99 71.1303 82.6 70.6503 82.4C69.9203 82.1 67.1002 82.11 67.7002 80.68C67.9502 80.11 66.7002 80.16 66.9502 79.59C67.2002 79.02 67.0902 76.1 68.6202 76.92L68.7402 76.43L72.3502 77.42Z" fill="white"/>
<path d="M78.6099 79.77L78.49 80.26C80.21 80.26 78.83 82.67 78.77 83.45C78.72 84.07 77.7699 83.45 77.6199 84.04C77.5499 84.36 77.45 84.98 76.96 84.78C76.23 84.48 73.41 84.52 73.96 83.09C74.19 82.51 72.9599 82.57 73.1899 82C73.4899 81.27 73.2899 78.5 74.8199 79.31L75.0099 78.77L78.6099 79.77Z" fill="white"/>
<path d="M85.0702 82.5C85.0702 82.66 84.9902 82.82 84.9402 82.99C86.6602 83.08 85.2102 85.4 85.1202 86.18C85.0502 86.8 84.1202 86.12 83.9502 86.73C83.8702 87.05 83.7402 87.66 83.2702 87.45C82.5402 87.13 79.7202 87.08 80.3502 85.67C80.6102 85.1 79.3502 85.13 79.6202 84.56C79.9402 83.84 79.8302 81.07 81.3402 81.93C81.3902 81.76 81.4302 81.61 81.4702 81.44L85.0702 82.5Z" fill="white"/>
<path d="M91.5001 84.87C91.4501 85.03 91.4101 85.2 91.3601 85.36C93.0801 85.49 91.5601 87.77 91.4601 88.55C91.3701 89.17 90.4601 88.46 90.2701 89.07C90.1901 89.39 90.0401 90 89.5701 89.77C88.8501 89.44 86.0301 89.32 86.7001 87.93C86.9701 87.37 85.7001 87.36 85.9901 86.8C86.2801 86.24 86.2801 83.32 87.7801 84.21C87.7801 84.05 87.8701 83.89 87.9201 83.73C89.1201 84.1 90.3101 84.49 91.5001 84.87Z" fill="white"/>
<path d="M97.7601 87.93C97.7001 88.09 97.6401 88.25 97.5701 88.4C99.2801 88.69 97.5701 90.81 97.3601 91.57C97.1501 92.33 96.3601 91.39 96.1201 91.98C96.0001 92.29 95.8001 92.87 95.3501 92.61C94.6701 92.21 91.8501 91.85 92.6601 90.53C92.9801 90 91.7401 89.88 92.0601 89.35C92.3801 88.82 92.6901 85.93 94.0601 86.95C94.1201 86.79 94.1901 86.63 94.2501 86.48L97.7601 87.93Z" fill="white"/>
<path d="M103.67 91.06L103.46 91.51C105.16 91.86 103.33 93.91 103.12 94.67C102.95 95.26 102.12 94.45 101.86 95.03C101.73 95.33 101.51 95.91 101.07 95.63C100.4 95.21 97.59 94.74 98.45 93.45C98.79 92.94 97.57 92.77 97.9 92.25C98.23 91.73 98.67 88.86 100.04 89.93L100.25 89.47L103.67 91.06Z" fill="white"/>
<path d="M109.42 94.59L109.19 95.03C110.87 95.46 108.93 97.41 108.67 98.15C108.41 98.89 107.67 97.89 107.39 98.45C107.25 98.75 106.99 99.31 106.57 99.01C105.92 98.56 103.14 97.95 104.07 96.71C104.44 96.21 103.22 95.99 103.59 95.49C103.96 94.99 104.54 92.15 105.86 93.29C105.93 93.14 106.01 92.99 106.09 92.84L109.42 94.59Z" fill="white"/>
<path d="M184.1 85.77C183.97 85.87 183.86 85.98 183.73 86.09C185.31 87.09 182.73 88.17 182.27 88.76C181.81 89.35 181.27 88.14 180.88 88.55C180.65 88.77 180.21 89.2 179.88 88.76C179.36 88.1 176.71 86.49 178.02 85.71C178.55 85.39 177.37 84.71 177.89 84.4C178.41 84.09 179.89 81.69 180.89 83.23L181.26 82.91C182.19 83.86 183.14 84.77 184.1 85.77Z" fill="white"/>
<path d="M176.16 77.99C176.04 78.11 175.91 78.2 175.79 78.32C174.79 76.79 173.5 79.12 172.84 79.53C172.18 79.94 173.46 80.45 172.99 80.84C172.75 81.04 172.27 81.42 172.72 81.76C173.41 82.29 175 84.83 175.91 83.65C176.28 83.17 176.91 84.31 177.3 83.84C177.69 83.37 180.3 82.16 178.72 81.14L179.08 80.81L176.16 77.99Z" fill="white"/>
<path d="M171.01 73.09L170.65 73.44C169.58 71.93 168.39 74.32 167.76 74.75C167.13 75.18 168.41 75.65 167.97 76.05C167.73 76.27 167.27 76.66 167.73 76.99C168.43 77.49 170.11 79.99 170.97 78.78C171.32 78.29 171.97 79.41 172.37 78.93C172.77 78.45 175.3 77.14 173.67 76.18L174.03 75.84L171.01 73.09Z" fill="white"/>
<path d="M45.1195 13.83C45.1195 14 45.1195 14.16 45.0695 14.32C43.3595 13.6 43.9295 16.32 43.7295 17.02C43.5295 17.72 44.7295 17.46 44.6695 18.02C44.6695 18.33 44.5195 18.93 45.0595 19.02C45.8895 19.02 48.6595 20.36 48.5695 18.83C48.5695 18.22 49.7295 18.83 49.6995 18.21C49.6995 17.45 50.7795 15.07 48.9795 15.11C48.9795 14.94 48.9795 14.78 48.9795 14.62L45.1195 13.83Z" fill="white"/>
<path d="M38.2499 12.58V13.07C36.5099 12.4 37.2499 15.07 37.0099 15.82C36.8799 16.4 38.0099 16.22 38.0099 16.82C38.0099 17.14 37.8999 17.73 38.4399 17.76C39.2599 17.76 42.0699 18.99 41.9199 17.46C41.8499 16.85 43.0699 17.41 43.0099 16.8C42.9499 16.02 44.0099 13.61 42.1899 13.71V13.22L38.2499 12.58Z" fill="white"/>
<path d="M31.24 11.77V12.26C29.51 11.62 30.24 14.26 30.05 15.03C29.92 15.6 31.05 15.42 31.05 16.03C31.05 16.35 30.94 16.94 31.49 16.96C32.31 16.96 35.12 18.14 34.95 16.61C34.88 16 36.0899 16.55 36.0299 15.94C35.9499 15.16 36.95 12.74 35.17 12.86V12.37L31.24 11.77Z" fill="white"/>
<path d="M24.2998 10.9V11.39C22.5698 10.74 23.2998 13.39 23.0998 14.16C22.9598 14.74 24.0998 14.55 24.0998 15.16C24.0998 15.48 23.9898 16.08 24.5398 16.09C25.3598 16.09 28.1698 17.29 28.0098 15.76C27.9298 15.15 29.1498 15.7 29.0898 15.09C29.0098 14.32 30.0298 11.89 28.2398 12.01V11.52L24.2998 10.9Z" fill="white"/>
<path d="M17.3296 10.2V10.69C15.5996 10.02 16.3296 12.69 16.1096 13.45C15.9696 14.02 17.1596 13.85 17.1096 14.45C17.1096 14.77 16.9896 15.37 17.5396 15.38C18.3596 15.38 21.1696 16.6 21.0096 15.07C20.9396 14.46 22.1596 15.02 22.0996 14.41C22.0296 13.64 23.0496 11.22 21.2596 11.32C21.2596 11.16 21.2596 10.99 21.2596 10.83L17.3296 10.2Z" fill="white"/>
<path d="M10.0798 9.45C10.0798 9.61 10.0798 9.78002 10.0798 9.94002C8.31977 9.35002 9.07975 12 8.96975 12.74C8.85975 13.32 10.0298 13.1 9.96975 13.74C9.96975 14.06 9.89976 14.66 10.4398 14.65C11.2598 14.65 14.1298 15.73 13.8998 14.21C13.8098 13.6 15.0498 14.11 14.9698 13.5C14.8598 12.73 15.7898 10.27 13.9698 10.45C13.9698 10.29 13.9698 10.12 13.9698 9.95L10.0798 9.45Z" fill="white"/>
<path d="M55.8298 16C55.8298 16.17 55.8298 16.33 55.7698 16.49C57.5698 16.49 56.4098 18.84 56.4398 19.61C56.4398 20.22 55.3598 19.61 55.2998 20.21C55.2998 20.54 55.2398 21.14 54.7098 20.96C53.9098 20.69 50.9598 20.81 51.4098 19.39C51.5798 18.82 50.2998 18.92 50.4798 18.39C50.6598 17.86 50.1498 14.96 51.8598 15.71L51.9198 15.22L55.8298 16Z" fill="white"/>
<path d="M62.6797 17.53C62.6797 17.7 62.6297 17.86 62.6097 18.02C64.4197 18.07 63.1697 20.37 63.1697 21.15C63.1697 21.75 62.0697 21.15 61.9997 21.71C61.9997 22.03 61.8997 22.64 61.3797 22.44C60.5797 22.14 57.6197 22.17 58.1197 20.77C58.3197 20.2 57.0197 20.27 57.2197 19.7C57.4697 18.98 57.0197 16.28 58.7097 17.07C58.7097 16.92 58.7597 16.75 58.7797 16.59L62.6797 17.53Z" fill="white"/>
<path d="M69.5198 19.1L69.4298 19.58C71.2398 19.68 69.9198 21.95 69.8998 22.72C69.8998 23.33 68.7998 22.66 68.7098 23.25C68.6598 23.57 68.5798 24.16 68.0598 23.96C67.2698 23.64 64.3098 23.58 64.8398 22.21C65.0598 21.65 63.7598 21.67 63.9698 21.12C64.2398 20.42 63.8798 17.7 65.5398 18.54C65.5398 18.37 65.6098 18.22 65.6298 18.05C66.9298 18.4 68.2298 18.77 69.5198 19.1Z" fill="white"/>
<path d="M76.4895 21.38L76.3995 21.86C78.2195 21.97 76.8695 24.24 76.8395 25C76.8395 25.61 75.7495 24.93 75.6495 25.53C75.6495 25.84 75.5095 26.45 74.9995 26.23C74.2095 25.91 71.2295 25.82 71.7895 24.44C72.0095 23.89 70.7095 23.9 70.9195 23.35C71.1295 22.8 70.8495 19.92 72.5095 20.78C72.5095 20.62 72.5795 20.45 72.6095 20.3L76.4895 21.38Z" fill="white"/>
<path d="M83.7195 23.63C83.7195 23.79 83.6595 23.95 83.6195 24.11C85.4295 24.24 84.0795 26.49 84.0495 27.26C84.0495 27.86 82.9595 27.18 82.8495 27.77C82.8495 28.09 82.7095 28.68 82.1895 28.46C81.4095 28.13 78.4195 28.02 78.9895 26.65C79.2195 26.09 77.9095 26.09 78.1295 25.54C78.3495 24.99 78.0795 22.11 79.7395 22.98C79.7395 22.83 79.8095 22.66 79.8395 22.5L83.7195 23.63Z" fill="white"/>
<path d="M90.7699 26.17C90.7199 26.32 90.6799 26.47 90.6399 26.63C92.4699 26.86 90.9399 29.02 90.8599 29.78C90.7999 30.38 89.7599 29.64 89.6199 30.22C89.5399 30.53 89.4099 31.12 88.9099 30.87C88.1299 30.5 85.1399 30.23 85.7999 28.87C86.0599 28.33 84.7499 28.26 85.0099 27.72C85.2699 27.18 85.1899 24.32 86.7999 25.28C86.7999 25.12 86.8899 24.97 86.9299 24.81C88.2199 25.28 89.4899 25.71 90.7699 26.17Z" fill="white"/>
<path d="M97.5797 28.83C97.5797 28.99 97.4897 29.15 97.4497 29.3C99.2697 29.55 97.7297 31.7 97.6397 32.45C97.5797 33.05 96.5397 32.31 96.3997 32.88C96.3197 33.2 96.1797 33.78 95.6797 33.53C94.9097 33.15 91.9097 32.84 92.5797 31.53C92.8497 31 91.5797 30.91 91.7997 30.38C92.1397 29.7 91.9996 26.98 93.6196 27.95C93.6196 27.79 93.7097 27.63 93.7497 27.48L97.5797 28.83Z" fill="white"/>
<path d="M104.32 31.95C104.27 32.1 104.23 32.26 104.18 32.42C106.01 32.68 104.45 34.81 104.35 35.57C104.27 36.17 103.25 35.41 103.1 35.99C103.02 36.3 102.88 36.89 102.38 36.63C101.61 36.24 98.5997 35.92 99.2897 34.63C99.5597 34.1 98.2897 34 98.5197 33.47C98.7497 32.94 98.7397 30.06 100.35 31.05C100.4 30.89 100.45 30.74 100.49 30.58L104.32 31.95Z" fill="white"/>
<path d="M111.01 34.86L110.86 35.32C112.68 35.63 111.05 37.72 110.93 38.47C110.81 39.22 109.83 38.28 109.67 38.86C109.58 39.16 109.41 39.74 108.92 39.47C108.16 39.07 105.16 38.65 105.92 37.35C106.21 36.83 104.92 36.71 105.18 36.17C105.44 35.63 105.51 32.78 107.1 33.82L107.25 33.35L111.01 34.86Z" fill="white"/>
<path d="M117.82 38.19L117.64 38.64C119.46 39.05 117.69 41.04 117.53 41.77C117.37 42.5 116.44 41.53 116.23 42.09C116.12 42.4 115.93 42.96 115.44 42.67C114.7 42.22 111.7 41.67 112.51 40.41C112.83 39.91 111.51 39.71 111.83 39.2C112.15 38.69 112.36 35.85 113.9 36.96L114.08 36.51L117.82 38.19Z" fill="white"/>
<path d="M124.5 41.77C124.43 41.91 124.37 42.07 124.29 42.21C126.11 42.69 124.23 44.58 124.03 45.31C123.83 46.04 122.93 45.02 122.7 45.57C122.58 45.85 122.36 46.42 121.88 46.11C121.16 45.64 118.16 44.94 119.04 43.74C119.39 43.26 118.04 42.99 118.42 42.51C118.8 42.03 119.12 39.2 120.62 40.37C120.68 40.22 120.76 40.07 120.82 39.93L124.5 41.77Z" fill="white"/>
<path d="M130.86 45.57L130.67 46.02C132.49 46.46 130.67 48.41 130.51 49.15C130.36 49.73 129.41 48.89 129.2 49.44C129.09 49.74 128.88 50.3 128.39 50C127.66 49.54 124.67 48.92 125.49 47.68C125.82 47.19 124.49 46.95 124.84 46.46C125.19 45.97 125.43 43.11 126.95 44.25L127.14 43.8L130.86 45.57Z" fill="white"/>
<path d="M137.2 49.26L137.02 49.71C138.83 50.14 137.02 52.12 136.89 52.86C136.76 53.6 135.79 52.59 135.58 53.15C135.47 53.45 135.28 54.02 134.79 53.72C134.05 53.26 131.05 52.65 131.87 51.4C132.19 50.9 130.87 50.68 131.2 50.18C131.53 49.68 131.76 46.82 133.29 47.95L133.47 47.5L137.2 49.26Z" fill="white"/>
<path d="M143.7 53.43C143.63 53.57 143.56 53.72 143.5 53.87C145.31 54.36 143.45 56.26 143.25 57C143.09 57.58 142.15 56.7 141.93 57.25C141.81 57.55 141.58 58.1 141.11 57.79C140.39 57.31 137.4 56.6 138.27 55.39C138.61 54.91 137.27 54.63 137.64 54.15C138.01 53.67 138.33 50.82 139.82 52L140.02 51.56C141.25 52.18 142.48 52.77 143.7 53.43Z" fill="white"/>
<path d="M150.19 57.25L149.97 57.69C151.78 58.24 149.85 60.07 149.63 60.8C149.41 61.53 148.54 60.48 148.3 61.02C148.17 61.31 147.93 61.86 147.46 61.53C146.75 61.04 143.77 60.25 144.68 59.06C145.04 58.58 143.74 58.29 144.09 57.81C144.44 57.33 144.88 54.51 146.34 55.73L146.55 55.29L150.19 57.25Z" fill="white"/>
<path d="M156.39 61.77C156.3 61.9 156.22 62.04 156.13 62.18C157.9 62.86 155.75 64.5 155.44 65.18C155.13 65.86 154.38 64.75 154.07 65.27C153.91 65.54 153.61 66.07 153.17 65.7C152.5 65.15 149.58 64.11 150.62 63.03C151.04 62.59 149.74 62.18 150.16 61.74C150.58 61.3 151.31 58.59 152.66 59.91L152.92 59.5C154.09 60.23 155.24 60.98 156.39 61.77Z" fill="white"/>
<path d="M162.19 66.22C162.09 66.35 161.99 66.48 161.9 66.62C163.64 67.37 161.41 68.91 161.07 69.62C160.73 70.33 160.07 69.16 159.69 69.62C159.52 69.89 159.19 70.38 158.77 70.01C158.12 69.44 155.23 68.28 156.33 67.25C156.77 66.84 155.49 66.37 155.92 65.95C156.35 65.53 157.23 62.86 158.52 64.24L158.8 63.84L162.19 66.22Z" fill="white"/>
<path d="M168.31 70.88L168 71.25C169.71 72.1 167.36 73.5 167 74.14C166.64 74.78 166 73.63 165.61 74.14C165.42 74.4 165.06 74.87 164.61 74.48C164 73.87 161.16 72.58 162.33 71.61C162.79 71.23 161.54 70.7 162 70.31C162.46 69.92 163.5 67.31 164.72 68.75L165.04 68.38C166.14 69.19 167.23 70.02 168.31 70.88Z" fill="white"/>
</svg>
