<svg width="119" height="128" viewBox="0 0 119 128" fill="none" xmlns="http://www.w3.org/2000/svg">
<path d="M118.68 49.42L65.6798 0.359985C42.1498 24.52 16.5298 55.93 0.0898438 100.02L61.9098 127.02C76.2298 96.12 96.0098 71.4 118.68 49.42Z" fill="#D8544F"/>
<path d="M64.2296 27.86L64.6396 28.2C63.0396 29.31 65.7796 30.45 66.3096 31.09C66.8396 31.73 67.3096 30.42 67.7596 30.87C68.0196 31.11 68.4996 31.56 68.8396 31.1C69.3496 30.39 72.0496 28.66 70.6296 27.81C70.0596 27.47 71.2596 26.76 70.6896 26.41C70.1196 26.06 68.4696 23.49 67.5096 25.14L67.0996 24.79L64.2296 27.86Z" fill="white"/>
<path d="M69.65 22.71L70.06 23.06C68.46 24.16 71.2 25.3 71.73 25.94C72.26 26.58 72.73 25.27 73.18 25.72C73.44 25.96 73.91 26.42 74.25 25.95C74.77 25.24 77.47 23.52 76.05 22.66C75.48 22.32 76.68 21.61 76.11 21.26C75.54 20.91 73.89 18.34 72.93 19.99L72.52 19.64L69.65 22.71Z" fill="white"/>
<path d="M59.5996 33.85L60.0096 34.2C58.4196 35.31 61.1696 36.45 61.6996 37.08C62.2296 37.71 62.6996 36.41 63.1496 36.85C63.3996 37.09 63.8796 37.55 64.2196 37.08C64.7196 36.36 67.4196 34.63 65.9896 33.78C65.4096 33.44 66.6196 32.72 66.0496 32.38C65.3296 31.94 63.8196 29.47 62.8596 31.12L62.4496 30.77L59.5996 33.85Z" fill="white"/>
<path d="M54.86 39.63L55.28 39.97C53.71 41.11 56.49 42.18 57.04 42.8C57.59 43.42 58.04 42.1 58.48 42.54C58.75 42.76 59.23 43.21 59.56 42.73C60.05 42.01 62.7 40.22 61.25 39.4C60.66 39.08 61.85 38.33 61.25 38C60.52 37.59 58.95 35.16 58.03 36.83L57.61 36.49L54.86 39.63Z" fill="white"/>
<path d="M50.2696 45.77L50.7096 46.08C49.1896 47.3 52.0396 48.22 52.6196 48.8C53.1996 49.38 53.5396 48.08 54.0596 48.48C54.3296 48.69 54.8496 49.11 55.1496 48.62C55.5996 47.87 58.1496 45.96 56.6696 45.23C56.0696 44.93 57.2196 44.14 56.6696 43.83C55.9196 43.46 54.2096 41.11 53.3796 42.83L52.9396 42.52C52.0096 43.63 51.1396 44.7 50.2696 45.77Z" fill="white"/>
<path d="M45.8999 52.07L46.3499 52.37C44.8799 53.64 47.7799 54.44 48.3499 55C48.9199 55.56 49.2299 54.23 49.7699 54.61C50.0599 54.81 50.5899 55.2 50.8699 54.71C51.2899 53.95 53.7799 51.94 52.2499 51.27C51.6399 51 52.7499 50.15 52.1399 49.88C51.3599 49.54 49.5499 47.28 48.7899 49.02L48.3399 48.72C47.5499 49.83 46.7199 50.96 45.8999 52.07Z" fill="white"/>
<path d="M42.0098 58.41L42.4498 58.72C40.9498 59.95 43.7998 60.85 44.3898 61.43C44.9798 62.01 45.2898 60.68 45.8198 61.08C46.0898 61.29 46.6098 61.7 46.9098 61.21C47.3498 60.46 49.9098 58.52 48.3798 57.8C47.7798 57.52 48.9198 56.7 48.3198 56.41C47.5598 56.04 45.8298 53.71 45.0198 55.41L44.5798 55.1C43.6798 56.22 42.8198 57.31 42.0098 58.41Z" fill="white"/>
<path d="M37.9497 64.6L38.3897 64.91C36.8797 66.13 39.7097 67.05 40.2897 67.65C40.8697 68.25 41.2097 66.91 41.7197 67.32C41.9897 67.53 42.5097 67.95 42.7997 67.46C43.2597 66.72 45.7997 64.8 44.3097 64.06C43.7197 63.76 44.8597 62.96 44.3097 62.66C43.7597 62.36 41.8697 59.93 41.0397 61.66L40.5997 61.35L37.9497 64.6Z" fill="white"/>
<path d="M34.0098 71.25L34.4598 71.55C32.9898 72.81 35.8498 73.65 36.4598 74.22C37.0698 74.79 37.3498 73.46 37.8698 73.85C38.1598 74.06 38.6798 74.46 38.9598 73.96C39.3998 73.21 41.8798 71.23 40.3698 70.53C39.7598 70.25 40.8798 69.42 40.2698 69.14C39.6598 68.86 37.7398 66.49 36.9598 68.22L36.5198 67.92L34.0098 71.25Z" fill="white"/>
<path d="M29.9199 77.57L30.3699 77.86C28.9299 79.15 31.8199 79.93 32.4399 80.48C33.0599 81.03 33.2999 79.7 33.8399 80.08C34.1299 80.28 34.6699 80.67 34.9399 80.16C35.3499 79.4 37.7899 77.36 36.2499 76.71C35.6399 76.45 36.7299 75.59 36.1199 75.32C35.3499 74.98 33.5199 72.74 32.7899 74.48L32.3299 74.19L29.9199 77.57Z" fill="white"/>
<path d="M26.4199 84.32L26.8999 84.56C25.5799 85.96 28.5599 86.46 29.2299 86.95C29.8999 87.44 30.0199 86.1 30.5999 86.42C30.9099 86.59 31.4799 86.92 31.7099 86.42C32.0499 85.63 34.3099 83.42 32.7099 82.89C32.0699 82.69 33.0899 81.75 32.4499 81.54C31.6399 81.28 29.5799 79.24 29.0199 81.03L28.5299 80.78L26.4199 84.32Z" fill="white"/>
<path d="M23.29 90.86L23.78 91.09C22.51 92.53 25.51 92.91 26.2 93.37C26.89 93.83 26.97 92.5 27.56 92.8C27.88 92.96 28.46 93.26 28.67 92.74C28.97 91.94 31.15 89.64 29.52 89.2C28.87 89.03 29.86 88.05 29.2 87.86C28.38 87.63 26.2 85.69 25.75 87.48L25.25 87.26C24.59 88.46 23.94 89.66 23.29 90.86Z" fill="white"/>
<path d="M20.5698 97.62L21.0798 97.82C19.8798 99.31 22.9098 99.54 23.6298 99.96C24.3498 100.38 24.3498 99.06 24.9598 99.33C25.2798 99.47 25.8898 99.75 26.0598 99.21C26.3298 98.41 28.3798 96.01 26.7298 95.66C26.0698 95.52 26.9998 94.5 26.3398 94.35C25.5098 94.16 23.2498 92.35 22.8498 94.14L22.3498 93.95C21.7498 95.17 21.1598 96.4 20.5698 97.62Z" fill="white"/>
<path d="M72.26 34.86C72.4 34.97 72.52 35.08 72.65 35.2C71.11 36.2 73.72 37.36 74.22 37.97C74.72 38.58 75.15 37.35 75.61 37.78C75.85 38.01 76.3 38.45 76.61 38.01C77.11 37.34 79.71 35.72 78.36 34.89C77.82 34.56 78.98 33.89 78.44 33.55C77.9 33.21 76.35 30.73 75.44 32.3L75.05 31.96C74.11 32.92 73.19 33.89 72.26 34.86Z" fill="white"/>
<path d="M77.5097 30L77.8897 30.33C76.3497 31.33 78.9597 32.5 79.4597 33.11C79.9597 33.72 80.3897 32.49 80.8497 32.92C81.0897 33.15 81.5397 33.59 81.8497 33.15C82.3497 32.48 84.9497 30.86 83.5997 30.03C83.0597 29.7 84.2197 29.03 83.6797 28.69C83.1397 28.35 81.5897 25.87 80.6797 27.44L80.2897 27.1L77.5097 30Z" fill="white"/>
<path d="M67.77 40.54L68.16 40.88C66.62 41.88 69.24 43.04 69.74 43.65C70.24 44.26 70.67 43.02 71.12 43.45C71.36 43.68 71.8199 44.12 72.1199 43.67C72.6199 43 75.2099 41.37 73.8599 40.54C73.3099 40.21 74.4699 39.54 73.9299 39.2C73.3899 38.86 71.8299 36.39 70.9299 37.96L70.5399 37.63C69.5999 38.6 68.69 39.57 67.77 40.54Z" fill="white"/>
<path d="M63.1698 46.01L63.5598 46.34C62.0498 47.41 64.6898 48.47 65.2198 49.06C65.7498 49.65 66.1298 48.41 66.5998 48.83C66.8498 49.05 67.3098 49.48 67.5998 49.03C68.0698 48.34 70.5998 46.66 69.2498 45.87C68.6998 45.55 69.8398 44.87 69.2498 44.53C68.5498 44.12 67.0798 41.78 66.1798 43.36L65.7798 43.04C65.0098 44.03 64.0598 45.01 63.1698 46.01Z" fill="white"/>
<path d="M58.7096 51.85C58.8496 51.95 58.9896 52.05 59.1196 52.16C57.6596 53.3 60.3696 54.22 60.9196 54.78C61.4696 55.34 61.8096 54.1 62.2996 54.49C62.5596 54.69 63.0496 55.1 63.2996 54.64C63.7396 53.93 66.2196 52.13 64.7996 51.41C64.2296 51.12 65.3296 50.41 64.7996 50.08C64.0796 49.71 62.4796 47.45 61.6596 49.08L61.2396 48.78C60.4096 49.77 59.5496 50.82 58.7096 51.85Z" fill="white"/>
<path d="M54.4497 57.77L54.8797 58.06C53.4697 59.26 56.2197 60.06 56.7997 60.6C57.3797 61.14 57.6597 59.87 58.1697 60.24C58.4397 60.44 58.9397 60.82 59.1697 60.35C59.5797 59.63 61.9897 57.74 60.5297 57.08C59.9397 56.81 61.0197 56.02 60.4397 55.75C59.6997 55.42 57.9897 53.24 57.2497 54.88L56.8197 54.6C56.0597 55.68 55.2597 56.77 54.4497 57.77Z" fill="white"/>
<path d="M50.6197 63.82L51.0397 64.12C49.5897 65.28 52.3097 66.12 52.8697 66.73C53.4297 67.34 53.7397 66.03 54.2297 66.42C54.4997 66.62 54.9897 67.02 55.2297 66.55C55.6597 65.84 58.1097 64.01 56.6797 63.31C56.1097 63.03 57.1997 62.26 56.6797 61.97C55.9597 61.61 54.3297 59.37 53.5397 60.97L53.1197 60.67L50.6197 63.82Z" fill="white"/>
<path d="M46.71 69.69L47.13 69.99C45.67 71.14 48.37 72.06 48.92 72.63C49.47 73.2 49.8 71.94 50.28 72.33C50.54 72.54 51.03 72.94 51.28 72.48C51.72 71.77 54.18 69.97 52.76 69.24C52.19 68.96 53.29 68.24 52.76 67.91C52.05 67.53 50.45 65.27 49.64 66.91L49.23 66.6C48.39 67.62 47.55 68.65 46.71 69.69Z" fill="white"/>
<path d="M42.8896 76L43.3196 76.3C41.8996 77.48 44.6196 78.3 45.1896 78.87C45.7596 79.44 46.0496 78.16 46.5496 78.53C46.8196 78.74 47.3196 79.13 47.5496 78.65C47.9696 77.94 50.3796 76.07 48.9296 75.39C48.3596 75.12 49.4296 74.33 48.8596 74.06C48.1296 73.7 46.4596 71.49 45.6996 73.14L45.2796 72.85L42.8896 76Z" fill="white"/>
<path d="M38.8799 82L39.3099 82.28C37.9199 83.5 40.6699 84.28 41.2499 84.81C41.8299 85.34 42.0899 84.07 42.5999 84.44C42.8799 84.64 43.3899 85.01 43.5999 84.53C43.9999 83.81 46.3599 81.89 44.8999 81.25C44.3099 80.99 45.3699 80.18 44.7899 79.92C44.0499 79.58 42.3299 77.42 41.6099 79.08L41.1799 78.8L38.8799 82Z" fill="white"/>
<path d="M35.46 88.41L35.92 88.65C34.64 89.97 37.48 90.48 38.11 90.96C38.74 91.44 38.88 90.16 39.43 90.47C39.72 90.64 40.27 90.96 40.49 90.47C40.83 89.72 43.01 87.61 41.49 87.11C40.88 86.91 41.86 86.02 41.25 85.82C40.48 85.56 38.54 83.59 37.98 85.28L37.52 85.05C36.82 86.17 36.14 87.29 35.46 88.41Z" fill="white"/>
<path d="M32.3896 94.63L32.8596 94.85C31.6296 96.21 34.4896 96.62 35.1496 97.06C35.8096 97.5 35.8896 96.24 36.4496 96.53C36.7496 96.69 37.3096 96.99 37.5096 96.53C37.8096 95.77 39.9196 93.59 38.3696 93.16C37.7496 92.98 38.6996 92.06 38.0796 91.87C37.2996 91.64 35.2696 89.76 34.7796 91.47L34.3096 91.25C33.663 92.3633 33.023 93.49 32.3896 94.63Z" fill="white"/>
<path d="M29.71 101.06L30.2 101.26C29.04 102.67 31.93 102.92 32.61 103.34C33.29 103.76 33.31 102.48 33.88 102.75C34.19 102.88 34.77 103.16 34.94 102.65C35.21 101.88 37.2 99.65 35.62 99.26C34.99 99.12 35.89 98.16 35.26 98C34.47 97.82 32.34 96 31.93 97.76L31.45 97.57L29.71 101.06Z" fill="white"/>
<path d="M81.0097 41.43L81.3797 41.77C79.8597 42.77 82.3797 43.9 82.8597 44.5C83.3397 45.1 83.7797 43.91 84.2197 44.34C84.4497 44.57 84.8797 45 85.2197 44.58C85.7197 43.93 88.2797 42.4 86.9797 41.58C86.4597 41.25 87.5997 40.58 87.0797 40.28C86.5597 39.98 85.0797 37.5 84.1397 39.01L83.7697 38.67C82.8697 39.58 82.0097 40.51 81.0097 41.43Z" fill="white"/>
<path d="M86.22 36.77L86.6 37.11C85.07 38.11 87.6 39.23 88.08 39.84C88.56 40.45 89 39.24 89.44 39.67C89.67 39.9 90.1 40.34 90.44 39.91C90.94 39.27 93.5 37.73 92.2 36.91C91.67 36.58 92.81 35.91 92.29 35.6C91.77 35.29 90.29 32.83 89.36 34.34L88.99 34L86.22 36.77Z" fill="white"/>
<path d="M76.5696 46.9L76.9396 47.24C75.4196 48.24 77.9396 49.36 78.4296 49.96C78.9196 50.56 79.3496 49.37 79.7896 49.79C80.0196 50.02 80.4596 50.46 80.7896 50.03C81.2796 49.38 83.7896 47.83 82.5296 47.03C81.9996 46.7 83.1396 46.03 82.6196 45.73C82.0996 45.43 80.6196 42.96 79.6796 44.47L79.3096 44.14C78.3829 45.0533 77.4696 45.9733 76.5696 46.9Z" fill="white"/>
<path d="M72.0096 52.16L72.3896 52.48C70.8996 53.48 73.4596 54.58 73.9596 55.17C74.4596 55.76 74.8596 54.55 75.3096 54.96C75.5496 55.18 75.9896 55.61 76.3096 55.17C76.7896 54.51 79.3096 52.92 77.9696 52.17C77.4396 51.85 78.5596 51.17 78.0296 50.86C77.4996 50.55 75.9596 48.15 75.0296 49.68L74.6496 49.35L72.0096 52.16Z" fill="white"/>
<path d="M67.55 57.77L67.95 58.07C66.51 59.17 69.13 60.07 69.66 60.66C70.19 61.25 70.54 60.01 71.01 60.4C71.26 60.6 71.73 61.01 72.01 60.56C72.45 59.88 74.9 58.17 73.52 57.44C72.97 57.15 74.06 56.44 73.52 56.14C72.98 55.84 71.3 53.54 70.52 55.14L70.12 54.84L67.55 57.77Z" fill="white"/>
<path d="M63.3101 63.51L63.7201 63.8C62.3201 64.94 65.0001 65.8 65.5501 66.3C66.1001 66.8 66.4001 65.61 66.8901 65.98C67.1501 66.18 67.6401 66.56 67.8901 66.1C68.3101 65.41 70.6801 63.6 69.2701 62.93C68.7001 62.67 69.7701 61.93 69.2001 61.64C68.6301 61.35 66.8601 59.15 66.1101 60.74L65.6901 60.46L63.3101 63.51Z" fill="white"/>
<path d="M59.4796 69.32L59.8796 69.61C58.4496 70.72 61.0896 71.61 61.6196 72.19C62.1496 72.77 62.4796 71.52 62.9596 71.91C63.2096 72.11 63.6796 72.51 63.9596 72.06C64.3896 71.37 66.8096 69.63 65.4296 68.92C64.8796 68.63 65.9496 67.92 65.4296 67.62C64.9096 67.32 63.1896 65.04 62.4296 66.62L62.0196 66.32L59.4796 69.32Z" fill="white"/>
<path d="M55.5701 74.97L55.9701 75.28C54.5401 76.37 57.1501 77.28 57.6701 77.88C58.1901 78.48 58.5401 77.21 59.0101 77.61C59.2601 77.82 59.7301 78.22 60.0101 77.77C60.4501 77.09 62.8701 75.37 61.5101 74.64C60.9601 74.35 62.0401 73.64 61.5101 73.33C60.9801 73.02 59.3001 70.73 58.5101 72.33L58.1101 72.03L55.5701 74.97Z" fill="white"/>
<path d="M51.75 81.07L52.16 81.36C50.75 82.49 53.4 83.36 53.94 83.9C54.48 84.44 54.79 83.22 55.27 83.6C55.53 83.8 56.01 84.18 56.27 83.73C56.69 83.03 59.06 81.26 57.66 80.57C57.11 80.29 58.17 79.57 57.66 79.27C57.15 78.97 55.37 76.73 54.6 78.33L54.19 78.03L51.75 81.07Z" fill="white"/>
<path d="M47.7397 86.85L48.1597 87.13C46.7797 88.29 49.4497 89.13 50.0097 89.62C50.5697 90.11 50.8397 88.92 51.3297 89.29C51.5997 89.48 52.0897 89.86 52.3297 89.4C52.7297 88.7 55.0597 86.86 53.6497 86.21C53.0797 85.95 54.1197 85.21 53.5597 84.92C52.9997 84.63 51.2097 82.45 50.4797 84.05L50.0597 83.77L47.7397 86.85Z" fill="white"/>
<path d="M44.2998 93.05L44.7498 93.28C43.4798 94.55 46.2398 95.09 46.8498 95.57C47.4598 96.05 47.6098 94.8 48.1398 95.12C48.4198 95.28 48.9498 95.61 49.1398 95.12C49.4798 94.4 51.6498 92.38 50.1398 91.86C49.5498 91.66 50.5198 90.8 49.9298 90.6C49.1798 90.33 47.3298 88.38 46.7498 90.03L46.3098 89.79C45.6698 90.88 45.0098 91.96 44.2998 93.05Z" fill="white"/>
<path d="M41.21 99.06L41.67 99.28C40.44 100.59 43.23 101.03 43.86 101.47C44.49 101.91 44.6 100.68 45.14 100.98C45.43 101.13 45.97 101.43 46.14 100.98C46.45 100.25 48.54 98.16 47.03 97.71C46.43 97.53 47.37 96.64 46.77 96.45C46.01 96.21 44.07 94.34 43.56 96L43.11 95.78C42.49 96.85 41.85 97.96 41.21 99.06Z" fill="white"/>
<path d="M38.5 105.28L38.97 105.48C37.81 106.84 40.63 107.13 41.28 107.55C41.93 107.97 41.98 106.73 42.54 106.99C42.84 107.13 43.4 107.41 43.54 106.92C43.81 106.17 45.79 103.99 44.26 103.62C43.64 103.47 44.54 102.55 43.93 102.39C43.16 102.19 41.11 100.39 40.69 102.1L40.22 101.91L38.5 105.28Z" fill="white"/>
<path d="M92.1101 44.62L92.5001 44.98C90.9401 45.98 93.5801 47.25 94.0801 47.9C94.5801 48.55 95.0201 47.3 95.4801 47.77C95.7301 48.01 96.1801 48.49 96.4801 48.05C96.9801 47.39 99.6001 45.86 98.2401 44.95C97.6901 44.58 98.8601 43.95 98.3201 43.58C97.6301 43.1 96.2201 40.58 95.2601 42.15L94.8801 41.79C94.0101 42.77 93.0101 43.67 92.1101 44.62Z" fill="white"/>
<path d="M86.8699 49.54L87.2599 49.9C85.7099 50.9 88.3499 52.17 88.8499 52.81C89.3499 53.45 89.7899 52.22 90.2499 52.68C90.4999 52.93 90.9499 53.4 91.2499 52.96C91.7499 52.3 94.3599 50.75 92.9899 49.85C92.4399 49.48 93.6099 48.85 93.0599 48.48C92.5099 48.11 90.9399 45.48 90.0599 47.06L89.6599 46.7L86.8699 49.54Z" fill="white"/>
<path d="M82.2399 54.9L82.6399 55.26C81.1099 56.26 83.7799 57.49 84.3099 58.12C84.8399 58.75 85.2299 57.5 85.6999 57.95C85.9499 58.19 86.4199 58.65 86.6999 58.21C87.1699 57.53 89.6999 55.93 88.3599 55.06C87.7999 54.71 88.9399 54.06 88.3599 53.69C87.6599 53.24 86.1699 50.77 85.2699 52.35C85.1299 52.24 84.9999 52.12 84.8699 52L82.2399 54.9Z" fill="white"/>
<path d="M77.7497 60.65L78.1697 60.98C76.6897 62.08 79.4297 63.14 79.9897 63.75C80.5497 64.36 80.8797 63.09 81.3697 63.51C81.6397 63.74 82.1297 64.17 82.3697 63.72C82.8197 63.02 85.3097 61.31 83.8797 60.5C83.2997 60.18 84.4197 59.5 83.8797 59.14C83.3397 58.78 81.5397 56.34 80.7197 57.96L80.2997 57.63L77.7497 60.65Z" fill="white"/>
<path d="M73.4697 66.51L73.8997 66.82C72.4697 67.98 75.2597 68.93 75.8397 69.51C76.4197 70.09 76.7097 68.81 77.2197 69.21C77.4997 69.43 78.0097 69.84 78.2797 69.37C78.6997 68.66 81.1197 66.85 79.6397 66.1C79.0497 65.81 80.1397 65.05 79.5497 64.75C78.7997 64.37 77.0797 62.06 76.3297 63.7L75.8897 63.39L73.4697 66.51Z" fill="white"/>
<path d="M65.68 78.24L66.1 78.57C64.62 79.66 67.35 80.74 67.91 81.34C68.47 81.94 68.8 80.68 69.29 81.11C69.56 81.33 70.05 81.77 70.29 81.31C70.74 80.61 73.21 78.89 71.78 78.09C71.21 77.76 72.31 77.09 71.78 76.72C71.06 76.31 69.44 73.92 68.63 75.54L68.21 75.21C67.37 76.22 66.52 77.22 65.68 78.24Z" fill="white"/>
<path d="M61.8296 84.48L62.2596 84.8C60.8296 85.93 63.5896 86.92 64.1696 87.51C64.7496 88.1 65.0296 86.82 65.5396 87.23C65.8096 87.45 66.3196 87.87 66.5396 87.41C66.9696 86.7 69.3896 84.91 67.9296 84.15C67.3396 83.85 68.4296 83.1 67.8496 82.79C67.1096 82.4 65.4196 80.07 64.6596 81.71L64.2296 81.39C63.4596 82.41 62.6496 83.45 61.8296 84.48Z" fill="white"/>
<path d="M57.7998 90.38L58.2298 90.69C56.8298 91.85 59.6098 92.77 60.2298 93.35C60.8498 93.93 61.0798 92.65 61.5898 93.04C61.8698 93.25 62.3898 93.66 62.6498 93.19C63.0498 92.48 65.4298 90.63 63.9498 89.91C63.3598 89.62 64.4198 88.85 63.8398 88.56C63.0898 88.18 61.3298 85.89 60.6198 87.56L60.1798 87.25C59.3698 88.28 58.5798 89.33 57.7998 90.38Z" fill="white"/>
<path d="M54.3496 96.77L54.8196 97.03C53.5296 98.31 56.3996 98.97 57.0496 99.48C57.6996 99.99 57.8296 98.7 58.3896 99.05C58.6796 99.24 59.2396 99.59 59.4596 99.1C59.7896 98.35 61.9896 96.32 60.4596 95.74C59.8496 95.51 60.8396 94.65 60.2196 94.41C59.4396 94.11 57.4696 92.01 56.8996 93.71L56.4396 93.45C55.7296 94.51 55.0096 95.61 54.3496 96.77Z" fill="white"/>
<path d="M51.27 102.89L51.75 103.13C50.51 104.46 53.41 105 54.08 105.49C54.75 105.98 54.83 104.69 55.39 105.02C55.7 105.19 56.27 105.53 56.47 105.02C56.77 104.26 58.89 102.16 57.32 101.63C56.69 101.42 57.65 100.53 57.02 100.32C56.23 100.04 54.17 98.03 53.68 99.74L53.2 99.5C52.55 100.63 51.91 101.77 51.27 102.89Z" fill="white"/>
<path d="M48.5898 109.28L49.0798 109.5C47.9098 110.88 50.8398 111.27 51.5298 111.73C52.2198 112.19 52.2398 110.9 52.8198 111.19C53.1398 111.35 53.7198 111.65 53.8998 111.19C54.1598 110.43 56.1698 108.19 54.5698 107.78C53.9298 107.61 54.8298 106.68 54.1998 106.49C53.3898 106.26 51.1998 104.36 50.8298 106.08L50.3298 105.86L48.5898 109.28Z" fill="white"/>
<path d="M69.6101 72.45L70.0101 72.77C68.5501 73.88 71.3001 74.92 71.8701 75.52C72.4401 76.12 72.7501 74.85 73.2501 75.27C73.5201 75.49 74.0101 75.92 74.2501 75.46C74.6901 74.76 77.1501 73.02 75.7001 72.22C75.1201 71.91 76.2301 71.22 75.6501 70.86C75.0701 70.5 73.2801 68.1 72.4801 69.72L72.0501 69.39C71.2901 70.41 70.4501 71.44 69.6101 72.45Z" fill="white"/>
<path d="M99.84 52.14L100.2 52.49C98.72 53.41 101.2 54.65 101.67 55.27C102.14 55.89 102.57 54.71 103 55.16C103.23 55.4 103.65 55.85 104 55.44C104.48 54.82 107 53.39 105.69 52.52C105.18 52.16 106.29 51.58 105.78 51.22C105.27 50.86 103.78 48.38 102.91 49.84L102.54 49.49L99.84 52.14Z" fill="white"/>
<path d="M94.8298 56.77C94.9498 56.89 95.0698 57.01 95.1998 57.12C93.7198 58.04 96.1998 59.28 96.6798 59.89C97.1598 60.5 97.5698 59.34 97.9998 59.78C98.2298 60.01 98.6598 60.46 98.9998 60.05C99.4798 59.43 102 57.99 100.68 57.12C100.16 56.77 101.27 56.19 100.76 55.83C100.25 55.47 98.7598 52.99 97.8798 54.46L97.5198 54.11C96.5998 54.98 95.7098 55.86 94.8298 56.77Z" fill="white"/>
<path d="M90.3998 61.77L90.7698 62.11C89.3198 63.11 91.8398 64.24 92.3198 64.84C92.7998 65.44 93.1998 64.26 93.6398 64.69C93.8798 64.92 94.3198 65.36 94.6398 64.94C95.0998 64.31 97.5498 62.82 96.2398 61.94C95.7198 61.6 96.8098 60.94 96.2898 60.64C95.7698 60.34 94.2398 57.86 93.3798 59.35C93.2498 59.24 93.1198 59.13 92.9998 59.01L90.3998 61.77Z" fill="white"/>
<path d="M86.0897 67.18L86.4897 67.49C85.0797 68.49 87.6597 69.56 88.1797 70.13C88.6997 70.7 89.0297 69.52 89.4997 69.92C89.7497 70.14 90.2097 70.56 90.4997 70.13C90.9297 69.47 93.2997 67.87 91.9497 67.13C91.4097 66.81 92.4697 66.13 91.9497 65.84C91.4297 65.55 89.7597 63.17 88.9497 64.69L88.5597 64.37L86.0897 67.18Z" fill="white"/>
<path d="M82.0098 72.68L82.4098 72.98C81.0498 74.06 83.6798 74.98 84.2298 75.54C84.7798 76.1 85.0498 74.89 85.5298 75.27C85.7898 75.48 86.2698 75.88 86.5298 75.44C86.9398 74.76 89.2498 73.07 87.8498 72.36C87.2998 72.07 88.3298 71.36 87.7798 71.07C87.0798 70.7 85.4698 68.51 84.7798 70.07L84.3098 69.77L82.0098 72.68Z" fill="white"/>
<path d="M74.4998 83.7L74.8999 84.02C73.4899 85.02 76.0699 86.08 76.5899 86.66C77.1099 87.24 77.4299 86.05 77.8999 86.45C78.1399 86.67 78.6099 87.09 78.8999 86.66C79.3299 86 81.6799 84.4 80.3299 83.66C79.7999 83.35 80.8499 82.66 80.3299 82.37C79.8099 82.08 78.1499 79.7 77.3299 81.22L76.9399 80.9L74.4998 83.7Z" fill="white"/>
<path d="M70.8101 89.57L71.2101 89.88C69.8401 90.94 72.4501 91.88 72.9901 92.46C73.5301 93.04 73.8101 91.82 74.2901 92.22C74.5401 92.43 75.0201 92.83 75.2901 92.39C75.7001 91.72 78.0101 90.06 76.6301 89.32C76.0801 89.03 77.1201 88.32 76.5701 88.04C76.0201 87.76 74.3001 85.44 73.5701 86.98L73.1701 86.67L70.8101 89.57Z" fill="white"/>
<path d="M66.9297 95.12L67.3397 95.41C65.9997 96.5 68.6297 97.41 69.1797 97.95C69.7297 98.49 69.9897 97.3 70.4797 97.67C70.7397 97.88 71.2197 98.27 71.4797 97.82C71.8597 97.15 74.1297 95.43 72.7397 94.73C72.1797 94.46 73.1897 93.73 72.6397 93.45C72.0897 93.17 70.2997 90.91 69.6397 92.45L69.2297 92.15C68.4397 93.15 67.6797 94.13 66.9297 95.12Z" fill="white"/>
<path d="M63.6099 101.09L64.0499 101.35C62.8199 102.54 65.5299 103.2 66.1399 103.68C66.7499 104.16 66.8799 102.96 67.3999 103.29C67.6799 103.47 68.1999 103.81 68.3999 103.35C68.7199 102.65 70.8199 100.75 69.3999 100.18C68.8199 99.95 69.7699 99.18 69.1899 98.92C68.4499 98.63 66.5999 96.62 66.0499 98.22L65.6199 97.97C64.9299 99.01 64.2699 100.04 63.6099 101.09Z" fill="white"/>
<path d="M60.6299 106.89L61.0799 107.13C59.8999 108.37 62.6299 108.91 63.2599 109.38C63.8899 109.85 63.9799 108.63 64.5199 108.95C64.7999 109.11 65.3399 109.44 65.5199 108.95C65.8199 108.24 67.8399 106.27 66.3599 105.75C65.7599 105.55 66.6799 104.75 66.0899 104.51C65.3399 104.24 63.4199 102.31 62.9299 103.93L62.4799 103.69L60.6299 106.89Z" fill="white"/>
<path d="M58.0098 112.92L58.4698 113.13C57.3498 114.42 60.1098 114.82 60.7698 115.26C61.2798 115.6 61.4398 114.48 61.9898 114.76C62.2898 114.91 62.8398 115.21 62.9898 114.76C63.2498 114.04 65.1698 111.98 63.6598 111.55C63.0598 111.37 63.9198 110.5 63.3198 110.32C62.5598 110.09 60.5298 108.32 60.1298 109.9L59.6698 109.69C59.1598 110.77 58.5898 111.83 58.0098 112.92Z" fill="white"/>
<path d="M78.2796 78.27L78.6796 78.58C77.2896 79.58 79.8797 80.63 80.3997 81.2C80.9197 81.77 81.2396 80.57 81.7096 80.98C81.9596 81.19 82.4296 81.6 82.7096 81.17C83.1296 80.51 85.4796 78.88 84.1096 78.17C83.5696 77.87 84.6196 77.17 84.1096 76.88C83.5996 76.59 81.8896 74.24 81.1096 75.77L80.7096 75.46C79.8896 76.36 79.0796 77.31 78.2796 78.27Z" fill="white"/>
<path d="M64.0099 11.77L64.4099 12.14C62.6899 13.27 65.4699 14.49 65.9899 15.14C66.5099 15.79 66.9899 14.47 67.4999 14.93C67.7599 15.18 68.2199 15.67 68.5999 15.19C69.1599 14.45 72.0499 12.71 70.5999 11.81C70.0299 11.44 71.3099 10.72 70.7499 10.35C70.0299 9.87997 68.6199 7.28997 67.5199 8.97997L67.1199 8.60998L64.0099 11.77Z" fill="white"/>
<path d="M58.4501 17.23L58.8701 17.58C57.1801 18.74 60.0001 19.9 60.5401 20.58C61.0801 21.26 61.5401 19.87 62.0501 20.33C62.3001 20.57 62.7901 21.04 63.1501 20.55C63.7001 19.81 66.5301 17.99 65.0801 17.13C64.5001 16.78 65.7601 16.03 65.1801 15.68C64.4501 15.23 62.9501 12.68 61.9101 14.4L61.5001 14.04C60.4801 15.09 59.4601 16.15 58.4501 17.23Z" fill="white"/>
<path d="M53.2798 23.32L53.6898 23.67C52.0198 24.85 54.8398 25.98 55.3898 26.67C55.9398 27.36 56.3898 25.95 56.8898 26.41C57.1498 26.65 57.6398 27.12 57.9898 26.63C58.5298 25.88 61.3498 24.05 59.8898 23.19C59.2998 22.84 60.5598 22.08 59.9798 21.73C59.2398 21.29 57.7298 18.73 56.6998 20.48L56.2898 20.13L53.2798 23.32Z" fill="white"/>
<path d="M47.83 29.53C47.97 29.64 48.12 29.76 48.25 29.88C46.59 31.07 49.43 32.18 49.97 32.82C50.51 33.46 50.97 32.1 51.46 32.55C51.73 32.79 52.22 33.25 52.57 32.76C53.1 32 55.9 30.16 54.43 29.31C53.84 28.97 55.09 28.2 54.51 27.85C53.77 27.41 52.24 24.85 51.23 26.62L50.81 26.27L47.83 29.53Z" fill="white"/>
<path d="M42.7801 35.86L43.2201 36.18C41.6301 37.46 44.5301 38.39 45.1301 38.99C45.7301 39.59 46.1301 38.23 46.6101 38.64C46.8901 38.86 47.4101 39.29 47.7301 38.78C48.2201 38.01 50.9201 36.01 49.3901 35.26C48.7801 34.95 49.9901 34.12 49.3901 33.81C48.6201 33.42 46.9301 31.01 46.0201 32.81L45.5701 32.48L42.7801 35.86Z" fill="white"/>
<path d="M38.0101 42.15L38.4601 42.47C36.8701 43.75 39.7901 44.67 40.3801 45.26C40.9701 45.85 41.3801 44.49 41.8601 44.9C42.1501 45.12 42.6701 45.54 42.9801 45.03C43.4601 44.26 46.1401 42.24 44.6101 41.5C44.0001 41.2 45.1901 40.35 44.6101 40.05C43.8401 39.67 42.1401 37.26 41.2401 39.05L40.8001 38.73L38.0101 42.15Z" fill="white"/>
<path d="M33.6896 48.77L34.1296 49.09C32.5596 50.38 35.4796 51.28 36.1296 51.87C36.7796 52.46 37.0696 51.09 37.5996 51.5C37.8796 51.72 38.4096 52.14 38.7196 51.63C39.1896 50.85 41.8496 48.81 40.3096 48.08C39.6896 47.78 40.8896 46.93 40.3096 46.63C39.5296 46.26 37.8096 43.87 36.9296 45.63L36.4896 45.31C35.4996 46.46 34.5896 47.6 33.6896 48.77Z" fill="white"/>
<path d="M29.2197 55.15L29.6797 55.46C28.1397 56.78 31.0897 57.6 31.6797 58.18C32.2697 58.76 32.6097 57.37 33.1497 57.77C33.4397 57.98 33.9697 58.38 34.2697 57.86C34.7197 57.08 37.2697 54.97 35.7597 54.28C35.1397 54.01 36.2997 53.12 35.6797 52.84C34.8997 52.49 33.0997 50.15 32.2797 51.96L31.8197 51.65L29.2197 55.15Z" fill="white"/>
<path d="M25.0098 61.95L25.4898 62.22C24.0198 63.63 27.0198 64.27 27.6698 64.82C28.3198 65.37 28.5498 63.97 29.1098 64.33C29.4198 64.53 29.9698 64.9 30.2498 64.33C30.6598 63.52 33.1498 61.33 31.5498 60.7C30.9098 60.46 32.0298 59.52 31.3898 59.27C30.5798 58.96 28.6598 56.74 27.9298 58.57L27.4498 58.3C26.5898 59.54 25.7898 60.77 25.0098 61.95Z" fill="white"/>
<path d="M21.0098 68.84L21.4898 69.09C20.0898 70.55 23.1298 71.09 23.7998 71.57C24.4698 72.05 24.6498 70.69 25.2298 71.02C25.5398 71.2 26.1198 71.54 26.3698 71.02C26.7398 70.2 29.1398 67.88 27.5098 67.35C26.8598 67.15 27.9298 66.16 27.2798 65.95C26.4598 65.67 24.4098 63.55 23.7698 65.41L23.2898 65.15C22.4898 66.37 21.7298 67.6 21.0098 68.84Z" fill="white"/>
<path d="M17.4697 75.77L17.9497 76.04C16.5097 77.47 19.5197 78.04 20.1697 78.6C20.8197 79.16 21.0397 77.74 21.5997 78.1C21.8997 78.29 22.4697 78.66 22.7297 78.1C23.1197 77.28 25.5597 75.02 23.9597 74.45C23.3197 74.22 24.4097 73.27 23.7697 73.03C22.9597 72.73 20.9997 70.53 20.3097 72.38L19.8297 72.11L17.4697 75.77Z" fill="white"/>
<path d="M13.8896 82.53L14.3596 82.8C12.9196 84.22 15.9096 84.86 16.5596 85.39C17.2096 85.92 17.4196 84.54 17.9896 84.9C18.2896 85.09 18.8496 85.46 19.1096 84.9C19.5096 84.09 21.9496 81.84 20.3596 81.25C19.7196 81.02 20.8196 80.07 20.1896 79.83C19.3796 79.52 17.4496 77.29 16.7396 79.14L16.2696 78.87C15.4696 80.11 14.6696 81.32 13.8896 82.53Z" fill="white"/>
<path d="M10.48 89.77L10.96 90.03C9.57998 91.48 12.58 92.03 13.25 92.53C13.92 93.03 14.09 91.66 14.66 92C14.97 92.18 15.54 92.53 15.79 92C16.15 91.18 18.52 88.87 16.91 88.33C16.26 88.11 17.33 87.14 16.69 86.92C15.88 86.64 13.85 84.49 13.22 86.35L12.73 86.09L10.48 89.77Z" fill="white"/>
<path d="M6.85986 96.77L7.34986 97.01C5.99986 98.5 9.01986 98.96 9.70986 99.45C10.2399 99.84 10.5199 98.55 11.0999 98.88C11.4099 99.05 11.9999 99.39 12.2299 98.88C12.5699 98.06 14.8699 95.7 13.2299 95.2C12.5699 95 13.6199 94.01 12.9699 93.8C12.1499 93.54 10.0599 91.45 9.47986 93.32L8.98986 93.07C8.28986 94.23 7.56986 95.47 6.85986 96.77Z" fill="white"/>
</svg>
