<svg width="194" height="135" viewBox="0 0 194 135" fill="none" xmlns="http://www.w3.org/2000/svg">
<path d="M191.27 76.04H192.03L193.08 -0.00998971C182.76 -0.21999 75.6599 7.14001 0.649902 84.17L52.8299 134.11C91.2099 96.92 138.43 76.04 191.27 76.04Z" fill="#D8544F"/>
<path d="M56.4596 89.9L56.7696 90.3C55.1396 91 57.3996 92.58 57.7696 93.3C58.1396 94.02 58.7696 92.88 59.0996 93.38C59.2896 93.64 59.6396 94.16 60.0196 93.79C60.5996 93.23 63.3096 92.18 62.1896 91.12C61.7396 90.7 62.9296 90.27 62.4896 89.85C62.0496 89.43 61.0097 86.75 59.8697 88.08L59.5597 87.68L56.4596 89.9Z" fill="white"/>
<path d="M51.09 93.92L51.41 94.31C49.8 95.06 52.11 96.56 52.5 97.23C52.89 97.9 53.5 96.78 53.83 97.23C54.03 97.49 54.39 97.99 54.76 97.61C55.33 97.05 58.01 95.9 56.85 94.89C56.38 94.48 57.57 94.02 57.11 93.61C56.65 93.2 55.53 90.61 54.42 91.92L54.11 91.53L51.09 93.92Z" fill="white"/>
<path d="M45.7398 97.93L46.0698 98.31C44.4898 99.1 46.8298 100.54 47.2398 101.2C47.6498 101.86 48.2398 100.73 48.5798 101.2C48.7798 101.45 49.1598 101.94 49.5198 101.56C50.0698 100.98 52.7198 99.78 51.5198 98.79C51.0398 98.4 52.2198 97.91 51.7498 97.51C51.2798 97.11 50.0898 94.51 49.0198 95.89L48.6898 95.51C47.7198 96.33 46.7298 97.13 45.7398 97.93Z" fill="white"/>
<path d="M40.6299 102.58L40.9599 102.96C39.3799 103.75 41.7299 105.19 42.1399 105.85C42.5499 106.51 43.1399 105.37 43.4799 105.85C43.6799 106.1 44.0599 106.59 44.4199 106.2C44.9599 105.62 47.5999 104.41 46.4199 103.43C45.9399 103.03 47.1199 102.54 46.6399 102.14C46.1599 101.74 44.9799 99.14 43.9099 100.53C43.8099 100.4 43.6899 100.28 43.5799 100.16L40.6299 102.58Z" fill="white"/>
<path d="M35.2599 107.27L35.5899 107.64C34.0199 108.44 36.3699 109.87 36.7799 110.52C37.1899 111.17 37.7799 110.04 38.1099 110.52C38.3199 110.77 38.6999 111.26 39.1099 110.87C39.6499 110.28 42.2699 109.06 41.1099 108.08C40.6399 107.69 41.8099 107.2 41.3299 106.8C40.8499 106.4 39.6499 103.8 38.5899 105.2L38.2599 104.83L35.2599 107.27Z" fill="white"/>
<path d="M172.72 44.67C172.72 44.83 172.72 45.01 172.72 45.17C171 44.98 171.99 47.5 171.93 48.29C171.88 48.92 172.93 48.4 172.93 49.02C172.93 49.36 172.93 50.02 173.46 49.85C174.23 49.65 177.02 50.06 176.67 48.56C176.53 47.97 177.74 48.18 177.6 47.56C177.46 46.94 178.07 44.09 176.41 44.69C176.41 44.52 176.41 44.35 176.41 44.19L172.72 44.67Z" fill="white"/>
<path d="M179.38 44.06V44.56C177.68 44.36 178.63 46.89 178.56 47.67C178.5 48.29 179.56 47.8 179.56 48.42C179.56 48.75 179.56 49.42 180.08 49.24C180.86 49.05 183.63 49.5 183.3 48C183.16 47.4 184.37 47.63 184.24 47C184.08 46.24 184.75 43.53 183.09 44.11V43.61L179.38 44.06Z" fill="white"/>
<path d="M166.15 45.55C166.15 45.71 166.15 45.88 166.2 46.05C164.48 45.91 165.55 48.4 165.51 49.18C165.51 49.81 166.51 49.27 166.59 49.88C166.59 50.21 166.59 50.83 167.14 50.69C167.91 50.47 170.72 50.79 170.32 49.31C170.16 48.72 171.38 48.91 171.22 48.31C171.02 47.56 171.58 44.83 169.94 45.48C169.94 45.31 169.94 45.14 169.89 44.98L166.15 45.55Z" fill="white"/>
<path d="M159.59 46.43L159.65 46.93C157.93 46.84 159.06 49.3 159.04 50.08C159.04 50.7 160.09 50.14 160.14 50.75C160.14 51.08 160.21 51.7 160.72 51.54C161.48 51.3 164.3 51.54 163.87 50.09C163.69 49.51 164.87 49.66 164.75 49.09C164.53 48.35 165.02 45.61 163.39 46.29L163.33 45.79L159.59 46.43Z" fill="white"/>
<path d="M152.87 48L152.93 48.5C151.21 48.41 152.35 50.87 152.33 51.65C152.31 52.43 153.38 51.7 153.44 52.32C153.44 52.65 153.51 53.27 154.02 53.11C154.78 52.86 157.61 53.11 157.16 51.64C156.98 51.06 158.16 51.2 158.04 50.64C157.92 50.08 158.29 47.16 156.67 47.85C156.67 47.68 156.67 47.52 156.6 47.35L152.87 48Z" fill="white"/>
<path d="M145.9 49.47C145.9 49.64 145.9 49.81 145.97 49.97C144.24 49.9 145.4 52.34 145.38 53.13C145.38 53.75 146.38 53.13 146.48 53.79C146.48 54.12 146.56 54.79 147.07 54.57C147.83 54.33 150.67 54.57 150.21 53.09C150.03 52.5 151.26 52.65 151.08 52.09C150.86 51.35 151.32 48.6 149.7 49.3L149.64 48.8L145.9 49.47Z" fill="white"/>
<path d="M139.08 51.23C139.08 51.4 139.15 51.56 139.18 51.72C137.44 51.72 138.75 54.11 138.78 54.9C138.78 55.52 139.78 54.9 139.93 55.49C139.98 55.82 140.07 56.43 140.56 56.24C141.32 55.95 144.17 56.03 143.63 54.6C143.41 54.02 144.63 54.1 144.44 53.52C144.17 52.79 144.44 50.04 142.89 50.83C142.89 50.66 142.82 50.5 142.79 50.33L139.08 51.23Z" fill="white"/>
<path d="M132.48 53.12C132.48 53.28 132.54 53.44 132.58 53.61C130.83 53.61 132.16 56 132.19 56.78C132.22 57.56 133.19 56.78 133.34 57.38C133.4 57.7 133.49 58.31 133.98 58.12C134.73 57.83 137.59 57.89 137.04 56.46C136.82 55.89 138.04 55.96 137.85 55.38C137.58 54.65 137.85 51.9 136.28 52.69L136.19 52.2L132.48 53.12Z" fill="white"/>
<path d="M125.91 55.43C125.91 55.59 125.98 55.76 126.01 55.92C124.27 55.92 125.61 58.32 125.64 59.1C125.64 59.72 126.69 59.1 126.8 59.69C126.85 60.01 126.94 60.63 127.44 60.43C128.19 60.14 131.05 60.18 130.44 58.75C130.22 58.17 131.44 58.24 131.25 57.67C130.97 56.94 131.25 54.17 129.67 54.98C129.67 54.82 129.61 54.65 129.57 54.49L125.91 55.43Z" fill="white"/>
<path d="M119.38 57.51C119.38 57.67 119.45 57.83 119.49 58C117.74 58.07 119.14 60.4 119.2 61.18C119.25 61.8 120.25 61.13 120.37 61.74C120.43 62.06 120.54 62.67 121.03 62.46C121.78 62.15 124.65 62.12 124.03 60.71C123.79 60.14 125.03 60.17 124.81 59.61C124.52 58.89 124.73 56.13 123.16 56.97C123.16 56.8 123.09 56.64 123.05 56.48L119.38 57.51Z" fill="white"/>
<path d="M112.73 59.98C112.78 60.14 112.82 60.3 112.87 60.46C111.12 60.62 112.64 62.86 112.74 63.64C112.82 64.25 113.8 63.54 113.95 64.14C114.03 64.46 114.17 65.06 114.65 64.83C115.38 64.48 118.26 64.32 117.59 62.94C117.32 62.39 118.59 62.36 118.32 61.81C117.99 61.11 118.05 58.35 116.52 59.26C116.52 59.1 116.43 58.94 116.38 58.78C115.16 59.17 113.94 59.57 112.73 59.98Z" fill="white"/>
<path d="M106.16 62.65C106.22 62.8 106.27 62.96 106.32 63.12C104.58 63.35 106.21 65.53 106.32 66.3C106.43 66.9 107.38 66.15 107.55 66.74C107.65 67.06 107.82 67.65 108.29 67.4C109 67.02 111.89 66.74 111.15 65.4C110.86 64.86 112.15 64.78 111.83 64.24C111.46 63.55 111.41 60.8 109.91 61.77C109.91 61.61 109.81 61.46 109.75 61.3L106.16 62.65Z" fill="white"/>
<path d="M99.8695 65.6L100.02 66.08C98.2695 66.27 99.8196 68.5 99.9196 69.27C100.01 69.88 100.98 69.16 101.14 69.75C101.22 70.07 101.37 70.67 101.85 70.43C102.58 70.07 105.46 69.87 104.77 68.5C104.5 67.95 105.77 67.91 105.49 67.36C105.21 66.81 105.18 63.89 103.66 64.83C103.61 64.67 103.56 64.51 103.52 64.35L99.8695 65.6Z" fill="white"/>
<path d="M93.5896 68.39C93.5896 68.56 93.6796 68.72 93.7296 68.88C91.9796 69.05 93.4896 71.29 93.5996 72.07C93.6796 72.69 94.6596 71.97 94.7996 72.56C94.8796 72.88 95.0196 73.49 95.5096 73.25C96.2396 72.9 99.1296 72.72 98.4596 71.34C98.1896 70.79 99.4596 70.76 99.1896 70.2C98.9196 69.64 98.9296 66.73 97.3896 67.66C97.3896 67.5 97.2996 67.33 97.2496 67.17L93.5896 68.39Z" fill="white"/>
<path d="M87.1197 71.62L87.2697 72.09C85.5197 72.31 87.1197 74.51 87.2697 75.28C87.3697 75.89 88.3297 75.15 88.4897 75.74C88.5897 76.05 88.7397 76.65 89.2197 76.41C89.9397 76.03 92.8297 75.77 92.1097 74.41C91.8297 73.86 93.1097 73.79 92.8097 73.25C92.4497 72.56 92.4397 69.79 90.9297 70.76C90.9297 70.6 90.8297 70.44 90.7697 70.28L87.1197 71.62Z" fill="white"/>
<path d="M80.6695 74.46C80.7195 74.62 80.7795 74.78 80.8395 74.94C79.0895 75.19 80.7395 77.35 80.8395 78.12C80.9495 78.73 81.8995 77.96 82.0795 78.55C82.1795 78.86 82.3495 79.45 82.8195 79.2C83.5395 78.81 86.4195 78.48 85.6695 77.14C85.3695 76.61 86.6695 76.5 86.3395 75.97C86.0095 75.44 85.8795 72.52 84.3995 73.53C84.3395 73.37 84.2795 73.21 84.2295 73.05L80.6695 74.46Z" fill="white"/>
<path d="M74.4195 77.99L74.6395 78.44C72.9095 78.85 74.7795 80.83 74.9995 81.58C75.1795 82.17 75.9995 81.33 76.2895 81.89C76.4095 82.19 76.6495 82.76 77.0995 82.47C77.7795 82.02 80.6295 81.47 79.7495 80.18C79.3895 79.68 80.6495 79.46 80.2995 78.96C79.9495 78.46 79.4995 75.61 78.1095 76.73C78.0395 76.58 77.9595 76.42 77.8995 76.27L74.4195 77.99Z" fill="white"/>
<path d="M68.55 81.55L68.78 81.99C67.06 82.46 69.02 84.36 69.27 85.1C69.47 85.68 70.27 84.81 70.57 85.36C70.71 85.66 70.97 86.22 71.41 85.91C72.07 85.43 74.91 84.75 73.97 83.53C73.6 83.05 74.85 82.78 74.48 82.3C74.11 81.82 73.54 78.98 72.19 80.15C72.11 80.01 72.04 79.85 71.96 79.71C70.82 80.32 69.68 80.93 68.55 81.55Z" fill="white"/>
<path d="M62.4399 85.59L62.7099 86C61.0399 86.62 63.1899 88.33 63.5199 89C63.8499 89.67 64.5199 88.62 64.8399 89.15C65.0099 89.43 65.3299 89.96 65.7399 89.61C66.3499 89.08 69.1399 88.15 68.0799 87.04C67.6599 86.59 68.8899 86.22 68.4699 85.77C68.0499 85.32 67.1899 82.59 65.9599 83.86L65.6799 83.44L62.4399 85.59Z" fill="white"/>
<path d="M59.9299 74.41C60.0299 74.54 60.13 74.68 60.22 74.82C58.56 75.46 60.7599 77.13 61.0999 77.82C61.4399 78.51 62.0999 77.44 62.4299 77.95C62.6099 78.22 62.94 78.76 63.34 78.4C63.94 77.87 66.71 76.92 65.62 75.81C65.19 75.37 66.4 74.99 65.98 74.55C65.56 74.11 64.62 71.37 63.42 72.66C63.32 72.52 63.2199 72.39 63.1299 72.25L59.9299 74.41Z" fill="white"/>
<path d="M54.3698 78.22L54.6798 78.62C53.0398 79.31 55.2898 80.92 55.6798 81.62C56.0698 82.32 56.6798 81.21 57.0198 81.71C57.2098 81.98 57.5598 82.5 57.9398 82.14C58.5298 81.59 61.2698 80.56 60.1398 79.49C59.6898 79.06 60.8998 78.65 60.4598 78.21C60.0198 77.77 58.9998 75.1 57.8298 76.41L57.5298 76.01L54.3698 78.22Z" fill="white"/>
<path d="M48.8399 82.03L49.1598 82.43C47.5398 83.15 49.8298 84.69 50.1598 85.37C50.4898 86.05 51.1599 84.94 51.4999 85.43C51.6899 85.7 52.0598 86.21 52.4298 85.84C53.0098 85.28 55.7198 84.18 54.5698 83.14C54.1098 82.72 55.2998 82.28 54.8498 81.86C54.3998 81.44 53.3098 78.79 52.1798 80.12C52.0698 80 51.9699 79.86 51.8599 79.73L48.8399 82.03Z" fill="white"/>
<path d="M43.52 86.49L43.84 86.88C42.22 87.61 44.52 89.15 44.9 89.83C45.21 90.36 45.9 89.38 46.24 89.88C46.44 90.15 46.8 90.65 47.17 90.28C47.75 89.72 50.45 88.61 49.29 87.57C48.83 87.16 50.03 86.71 49.57 86.29C49.11 85.87 48.02 83.22 46.89 84.57C46.79 84.43 46.68 84.3 46.58 84.17C45.55 84.94 44.54 85.77 43.52 86.49Z" fill="white"/>
<path d="M37.94 90.97L38.25 91.36C36.64 92.1 38.95 93.63 39.33 94.3C39.71 94.97 40.33 93.86 40.67 94.35C40.87 94.62 41.23 95.12 41.6 94.75C42.17 94.18 44.86 93.06 43.7 92.03C43.24 91.62 44.43 91.17 43.97 90.75C43.51 90.33 42.41 87.68 41.29 89.03L40.97 88.64L37.94 90.97Z" fill="white"/>
<path d="M32.7197 95.62C32.8397 95.75 32.9397 95.87 33.0597 95.99C31.4897 96.81 33.8897 98.21 34.3197 98.86C34.7497 99.51 35.2597 98.36 35.6597 98.86C35.8797 99.12 36.2597 99.59 36.6597 99.21C37.1897 98.62 39.8297 97.35 38.5997 96.39C38.1097 96 39.2797 95.5 38.7997 95.11C38.3197 94.72 37.0497 92.11 36.0097 93.55L35.6697 93.17L32.7197 95.62Z" fill="white"/>
<path d="M27.73 100.22C27.85 100.34 27.95 100.47 28.07 100.59C26.5 101.41 28.9 102.81 29.33 103.45C29.76 104.09 30.27 102.96 30.67 103.45C30.89 103.7 31.27 104.18 31.67 103.79C32.2 103.2 34.84 101.94 33.61 100.98C33.12 100.59 34.29 100.08 33.8 99.69C33.31 99.3 32.05 96.69 31.01 98.13L30.68 97.76C29.66 98.56 28.7 99.39 27.73 100.22Z" fill="white"/>
<path d="M178.49 33.77C178.49 33.93 178.49 34.11 178.49 34.28C176.78 34.02 177.67 36.59 177.57 37.38C177.5 38 178.57 37.53 178.57 38.15C178.57 38.49 178.57 39.15 179.07 39C179.85 38.83 182.64 39.36 182.34 37.84C182.22 37.24 183.43 37.51 183.34 36.9C183.19 36.13 183.95 33.43 182.26 33.97C182.26 33.8 182.26 33.62 182.26 33.46L178.49 33.77Z" fill="white"/>
<path d="M171.85 34.36C171.85 34.53 171.85 34.7 171.85 34.87C170.13 34.66 171.11 37.2 171.03 37.99C170.97 38.61 172.03 38.11 172.09 38.73C172.09 39.06 172.09 39.73 172.61 39.56C173.39 39.37 176.2 39.81 175.86 38.31C175.72 37.71 176.94 37.95 176.8 37.31C176.66 36.67 177.31 33.83 175.63 34.42C175.63 34.25 175.63 34.08 175.63 33.91L171.85 34.36Z" fill="white"/>
<path d="M165.23 34.98C165.23 35.16 165.23 35.32 165.28 35.49C163.55 35.32 164.59 37.84 164.54 38.62C164.49 39.25 165.54 38.72 165.61 39.34C165.61 39.67 165.61 40.34 166.16 40.16C166.94 39.95 169.76 40.32 169.38 38.83C169.22 38.24 170.45 38.44 170.3 37.83C170.15 37.22 170.72 34.35 169.05 34.97C169.05 34.8 169.05 34.63 169.05 34.46L165.23 34.98Z" fill="white"/>
<path d="M158.42 36.28C158.42 36.45 158.42 36.62 158.47 36.79C156.74 36.63 157.79 39.14 157.74 39.93C157.74 40.55 158.74 40.02 158.81 40.64C158.81 40.97 158.81 41.64 159.37 41.46C160.14 41.24 162.98 41.6 162.58 40.11C162.43 39.52 163.65 39.71 163.5 39.11C163.31 38.35 163.9 35.62 162.24 36.25C162.24 36.08 162.24 35.91 162.24 35.74L158.42 36.28Z" fill="white"/>
<path d="M151.37 37.48C151.37 37.64 151.37 37.81 151.37 37.98C149.64 37.83 150.7 40.34 150.66 41.13C150.66 41.75 151.66 41.21 151.74 41.83C151.74 42.17 151.74 42.83 152.29 42.65C153.07 42.43 155.9 42.77 155.51 41.28C155.35 40.68 156.58 40.88 156.42 40.28C156.26 39.68 156.81 36.79 155.15 37.43C155.15 37.26 155.15 37.09 155.15 36.92L151.37 37.48Z" fill="white"/>
<path d="M144.45 38.96C144.45 39.13 144.5 39.29 144.53 39.46C142.78 39.41 144 41.84 144 42.63C144 43.25 145 42.63 145.13 43.27C145.13 43.61 145.23 44.22 145.73 44.05C146.5 43.79 149.36 43.99 148.87 42.53C148.68 41.94 149.87 42.07 149.74 41.48C149.61 40.89 149.91 37.99 148.29 38.71C148.29 38.55 148.24 38.38 148.21 38.21L144.45 38.96Z" fill="white"/>
<path d="M137.75 40.58C137.75 40.75 137.75 40.91 137.82 41.08C136.07 41.08 137.3 43.46 137.31 44.25C137.31 44.88 138.31 44.25 138.44 44.9C138.44 45.22 138.55 45.84 139.05 45.67C139.81 45.41 142.68 45.58 142.19 44.13C141.99 43.55 143.19 43.66 143.05 43.08C142.8 42.34 143.21 39.58 141.58 40.31C141.58 40.15 141.58 39.98 141.51 39.81L137.75 40.58Z" fill="white"/>
<path d="M131.06 42.64C131.06 42.8 131.12 42.97 131.14 43.14C129.39 43.14 130.63 45.53 130.64 46.31C130.64 46.94 131.69 46.31 131.77 46.95C131.77 47.28 131.88 47.9 132.38 47.72C133.16 47.46 136.02 47.62 135.52 46.16C135.32 45.57 136.57 45.69 136.37 45.1C136.17 44.51 136.52 41.6 134.9 42.35C134.9 42.18 134.9 42.01 134.82 41.85L131.06 42.64Z" fill="white"/>
<path d="M124.41 44.46C124.41 44.62 124.47 44.78 124.51 44.95C122.75 44.95 124.06 47.35 124.08 48.14C124.08 48.76 125.14 48.14 125.24 48.74C125.29 49.07 125.37 49.69 125.87 49.5C126.63 49.21 129.51 49.31 128.98 47.86C128.76 47.29 129.98 47.37 129.8 46.79C129.54 46.05 129.86 43.29 128.25 44.07L128.16 43.58L124.41 44.46Z" fill="white"/>
<path d="M117.64 46.66L117.76 47.15C116 47.24 117.43 49.56 117.5 50.34C117.56 50.96 118.57 50.29 118.69 50.89C118.76 51.22 118.87 51.82 119.37 51.61C120.12 51.29 123.02 51.25 122.37 49.84C122.12 49.28 123.37 49.3 123.14 48.73C122.91 48.16 123.02 45.25 121.44 46.1C121.44 45.93 121.36 45.77 121.32 45.61L117.64 46.66Z" fill="white"/>
<path d="M110.94 49.08C110.94 49.24 111.03 49.4 111.08 49.56C109.32 49.72 110.86 51.97 110.97 52.75C111.05 53.36 112.03 52.65 112.19 53.25C112.27 53.57 112.41 54.17 112.9 53.94C113.63 53.59 116.54 53.42 115.9 52.04C115.62 51.49 116.9 51.46 116.62 50.91C116.34 50.36 116.34 47.44 114.8 48.35C114.75 48.19 114.7 48.03 114.66 47.87L110.94 49.08Z" fill="white"/>
<path d="M104.5 51.77C104.5 51.93 104.58 52.09 104.63 52.25C102.86 52.37 104.33 54.67 104.4 55.45C104.47 56.07 105.47 55.38 105.6 55.98C105.67 56.3 105.8 56.92 106.29 56.7C107.04 56.37 109.94 56.28 109.29 54.88C109.04 54.31 110.29 54.32 110.06 53.76C109.83 53.2 109.89 50.27 108.33 51.15C108.33 50.98 108.24 50.82 108.2 50.66L104.5 51.77Z" fill="white"/>
<path d="M98.0799 54.33L98.1999 54.82C96.4399 54.92 97.8699 57.24 97.9399 58.02C97.9999 58.64 99.0099 57.96 99.1299 58.57C99.1999 58.89 99.3099 59.5 99.8099 59.29C100.56 58.96 103.46 58.9 102.81 57.49C102.56 56.93 103.81 56.95 103.59 56.38C103.28 55.66 103.47 52.88 101.89 53.75L101.77 53.26L98.0799 54.33Z" fill="white"/>
<path d="M91.4497 57.3C91.4997 57.46 91.5397 57.63 91.5897 57.79C89.8197 57.94 91.3296 60.21 91.4296 60.99C91.4996 61.6 92.4897 60.9 92.6397 61.5C92.7197 61.81 92.8497 62.43 93.3397 62.2C94.0797 61.85 96.9897 61.71 96.3397 60.32C96.0797 59.76 97.3397 59.74 97.0897 59.18C96.8397 58.62 96.8596 55.69 95.2996 56.61C95.2996 56.44 95.2097 56.28 95.1697 56.12L91.4497 57.3Z" fill="white"/>
<path d="M84.8599 59.9L85.0099 60.38C83.2499 60.57 84.8199 62.8 84.9299 63.58C85.0099 64.19 85.9999 63.46 86.1499 64.06C86.2399 64.37 86.3899 64.98 86.8699 64.74C87.6099 64.38 90.5199 64.17 89.8199 62.74C89.5399 62.2 90.8199 62.14 90.5299 61.59C90.2399 61.04 90.2099 58.11 88.6799 59.06C88.6799 58.9 88.5799 58.74 88.5399 58.58L84.8599 59.9Z" fill="white"/>
<path d="M78.4495 63.18C78.5095 63.33 78.5795 63.49 78.6495 63.64C76.8895 63.99 78.6995 66.05 78.8795 66.81C79.0395 67.41 79.9395 66.6 80.1595 67.17C80.2795 67.48 80.4895 68.06 80.9495 67.78C81.6595 67.37 84.5395 66.9 83.7095 65.6C83.3695 65.09 84.6395 64.92 84.3095 64.4C83.9795 63.88 83.6495 61 82.1995 62.06C82.1395 61.91 82.0695 61.76 82.0095 61.6L78.4495 63.18Z" fill="white"/>
<path d="M72.3997 66.51C72.4797 66.66 72.5497 66.81 72.6197 66.96C70.8797 67.37 72.7697 69.36 72.9897 70.11C73.1597 70.7 74.0397 69.86 74.2797 70.43C74.4097 70.73 74.6497 71.3 75.0997 71.01C75.7797 70.56 78.6597 70.01 77.7697 68.73C77.4197 68.23 78.6897 68.01 78.3297 67.51C77.9697 67.01 77.5197 64.14 76.1197 65.26C76.0497 65.11 75.9797 64.96 75.8997 64.81L72.3997 66.51Z" fill="white"/>
<path d="M66.1096 70.32L66.3696 70.75C64.6696 71.3 66.7496 73.1 67.0496 73.82C67.2896 74.39 68.0496 73.48 68.3796 74.02C68.5396 74.31 68.8296 74.85 69.2496 74.52C69.8896 74.02 72.7296 73.2 71.7096 72.04C71.2996 71.57 72.5596 71.25 72.1496 70.78C71.7396 70.31 70.9996 67.53 69.7096 68.78L69.4496 68.35L66.1096 70.32Z" fill="white"/>
<path d="M53.7097 64.64L54.0097 65.07C52.2597 65.73 54.5597 67.5 54.9097 68.24C55.1897 68.82 55.9097 67.84 56.3097 68.38C56.4897 68.67 56.8397 69.23 57.2597 68.86C57.8997 68.31 60.7997 67.33 59.6697 66.16C59.2197 65.7 60.4997 65.3 60.0497 64.83C59.5997 64.36 58.6497 61.5 57.3697 62.83L57.0697 62.4C55.9497 63.15 54.8197 63.89 53.7097 64.64Z" fill="white"/>
<path d="M47.8498 68.6L48.1698 69.03C46.4398 69.74 48.7998 71.44 49.1698 72.16C49.5398 72.88 50.2198 71.73 50.5798 72.27C50.7698 72.55 51.1298 73.1 51.5798 72.72C52.1998 72.15 55.0798 71.08 53.9098 69.95C53.4298 69.5 54.7098 69.07 54.2398 68.62C53.7698 68.17 52.7298 65.33 51.4998 66.71L51.1898 66.28L47.8498 68.6Z" fill="white"/>
<path d="M42.0097 72.57L42.3397 72.98C40.6297 73.73 43.0297 75.37 43.4297 76.08C43.8297 76.79 44.4297 75.63 44.8397 76.16C45.0297 76.44 45.4097 76.97 45.8397 76.58C46.4497 76 49.2997 74.86 48.0997 73.77C47.6097 73.33 48.8697 72.87 48.3997 72.43C47.9297 71.99 46.7997 69.19 45.6097 70.59L45.2797 70.17L42.0097 72.57Z" fill="white"/>
<path d="M36.4095 77.21L36.7395 77.62C35.0395 78.37 37.4395 80.01 37.8395 80.72C38.2395 81.43 38.8395 80.26 39.2495 80.79C39.4495 81.07 39.8195 81.6 40.2495 81.21C40.8595 80.62 43.6895 79.48 42.4895 78.38C41.9995 77.95 43.2595 77.49 42.7895 77.04C42.3195 76.59 41.1795 73.81 39.9895 75.21L39.6595 74.8L36.4095 77.21Z" fill="white"/>
<path d="M30.5197 81.88L30.8497 82.29C29.1597 83.05 31.5597 84.67 31.9697 85.38C32.3797 86.09 32.9697 84.92 33.3697 85.44C33.5697 85.72 33.9497 86.25 34.3697 85.86C34.9697 85.27 37.7997 84.11 36.5997 83.03C36.1097 82.59 37.3697 82.13 36.8897 81.68C36.4097 81.23 35.2597 78.45 34.0797 79.86L33.7497 79.45L30.5197 81.88Z" fill="white"/>
<path d="M25.01 86.77L25.36 87.17C23.71 88.02 26.22 89.5 26.66 90.17C27.1 90.84 27.66 89.66 28.08 90.17C28.3 90.44 28.7 90.94 29.08 90.54C29.64 89.92 32.41 88.62 31.08 87.6C30.57 87.19 31.81 86.67 31.3 86.25C30.79 85.83 29.48 83.13 28.38 84.6L28.02 84.2C27.06 85 26.01 85.87 25.01 86.77Z" fill="white"/>
<path d="M19.7498 91.51L20.1098 91.91C18.4498 92.76 20.9698 94.24 21.4098 94.91C21.8498 95.58 22.4098 94.4 22.8198 94.91C23.0398 95.18 23.4398 95.68 23.8198 95.28C24.3898 94.66 27.1598 93.35 25.8798 92.34C25.3598 91.93 26.5998 91.41 26.0898 90.99C25.5798 90.57 24.2698 87.87 23.1698 89.34C23.0598 89.2 22.9298 89.08 22.8198 88.94L19.7498 91.51Z" fill="white"/>
<path d="M178.37 22.77C178.37 22.94 178.37 23.13 178.37 23.3C176.58 23.01 177.5 25.72 177.37 26.55C177.29 27.2 178.45 26.71 178.44 27.37C178.44 27.72 178.44 28.37 178.96 28.26C179.78 28.09 182.7 28.66 182.4 27.06C182.28 26.43 183.55 26.72 183.4 26.06C183.26 25.26 184.06 22.42 182.29 22.98C182.29 22.8 182.29 22.62 182.29 22.44L178.37 22.77Z" fill="white"/>
<path d="M171.41 23.34V23.87C169.6 23.64 170.61 26.31 170.53 27.14C170.46 27.79 171.61 27.27 171.62 27.93C171.62 28.27 171.62 28.93 172.17 28.8C172.99 28.61 175.93 29.09 175.58 27.51C175.44 26.87 176.72 27.13 176.58 26.51C176.41 25.71 177.13 22.86 175.37 23.46C175.37 23.28 175.37 23.11 175.37 22.93C174.06 23.06 172.73 23.19 171.41 23.34Z" fill="white"/>
<path d="M164.46 23.95C164.46 24.13 164.46 24.3 164.46 24.48C162.64 24.29 163.72 26.94 163.66 27.76C163.61 28.42 164.76 27.87 164.78 28.52C164.78 28.87 164.78 29.52 165.35 29.38C166.17 29.17 169.13 29.58 168.74 28.01C168.58 27.39 169.86 27.61 169.74 27.01C169.55 26.21 170.19 23.36 168.44 24.01C168.44 23.84 168.44 23.66 168.44 23.49C167.107 23.6167 165.78 23.77 164.46 23.95Z" fill="white"/>
<path d="M157.3 25.27C157.3 25.44 157.3 25.62 157.3 25.8C155.49 25.62 156.58 28.26 156.52 29.09C156.47 29.74 157.61 29.19 157.64 29.84C157.64 30.19 157.64 30.84 158.22 30.7C159.03 30.48 162 30.88 161.6 29.31C161.44 28.68 162.73 28.9 162.6 28.31C162.4 27.51 163.04 24.65 161.29 25.31C161.29 25.14 161.29 24.96 161.29 24.78C159.94 24.9 158.62 25.09 157.3 25.27Z" fill="white"/>
<path d="M149.89 26.47C149.89 26.65 149.89 26.83 149.89 27C148.08 26.84 149.18 29.47 149.12 30.3C149.12 30.95 150.22 30.39 150.25 31.05C150.25 31.4 150.25 32.05 150.83 31.9C151.65 31.68 154.62 32.06 154.21 30.49C154.05 29.86 155.34 30.08 155.21 29.49C155.01 28.7 155.64 25.83 153.89 26.49C153.89 26.31 153.89 26.13 153.89 25.96L149.89 26.47Z" fill="white"/>
<path d="M142.62 27.99C142.62 28.16 142.62 28.33 142.7 28.51C140.87 28.44 142.13 31 142.13 31.83C142.13 32.49 143.23 31.83 143.3 32.52C143.3 32.87 143.4 33.52 143.94 33.34C144.74 33.07 147.74 33.29 147.24 31.76C147.04 31.14 148.34 31.28 148.15 30.67C147.9 29.88 148.36 27 146.65 27.75C146.65 27.58 146.65 27.4 146.57 27.22L142.62 27.99Z" fill="white"/>
<path d="M135.58 29.65C135.58 29.82 135.63 29.99 135.66 30.17C133.82 30.11 135.09 32.67 135.09 33.49C135.09 34.15 136.2 33.49 136.28 34.18C136.28 34.52 136.38 35.18 136.91 34.99C137.72 34.72 140.72 34.93 140.22 33.39C140.01 32.78 141.32 32.91 141.12 32.3C140.87 31.52 141.31 28.63 139.61 29.39C139.61 29.21 139.55 29.04 139.53 28.86L135.58 29.65Z" fill="white"/>
<path d="M128.55 31.77C128.55 31.94 128.6 32.12 128.63 32.29C126.79 32.24 128.08 34.8 128.08 35.62C128.08 36.28 129.19 35.62 129.27 36.3C129.27 36.64 129.38 37.3 129.91 37.11C130.72 36.84 133.72 37.03 133.21 35.49C133 34.88 134.31 35 134.11 34.39C133.86 33.62 134.28 30.71 132.58 31.49C132.58 31.31 132.58 31.14 132.5 30.96L128.55 31.77Z" fill="white"/>
<path d="M121.56 33.63C121.56 33.8 121.62 33.97 121.66 34.15C119.81 34.15 121.17 36.66 121.19 37.48C121.19 38.14 122.31 37.48 122.4 38.13C122.45 38.47 122.54 39.13 123.06 38.93C123.86 38.63 126.88 38.75 126.33 37.23C126.11 36.62 127.42 36.71 127.2 36.11C126.93 35.33 127.29 32.44 125.59 33.25L125.5 32.72L121.56 33.63Z" fill="white"/>
<path d="M114.44 35.9L114.56 36.41C112.71 36.49 114.21 38.93 114.27 39.76C114.33 40.41 115.39 39.7 115.52 40.34C115.59 40.68 115.7 41.34 116.22 41.1C117.01 40.77 120.05 40.74 119.41 39.26C119.16 38.67 120.48 38.7 120.23 38.1C119.98 37.5 120.12 34.44 118.47 35.33C118.47 35.16 118.38 34.99 118.34 34.81L114.44 35.9Z" fill="white"/>
<path d="M107.39 38.39L107.54 38.89C105.69 39.05 107.3 41.42 107.4 42.24C107.49 42.88 108.52 42.14 108.68 42.77C108.76 43.11 108.91 43.77 109.42 43.5C110.19 43.13 113.25 42.98 112.53 41.5C112.25 40.92 113.53 40.9 113.31 40.31C113.09 39.72 113.03 36.67 111.41 37.62L111.26 37.12L107.39 38.39Z" fill="white"/>
<path d="M100.62 41.19C100.62 41.36 100.71 41.53 100.75 41.7C98.8996 41.81 100.42 44.23 100.5 45.05C100.56 45.7 101.61 44.98 101.75 45.62C101.82 45.96 101.95 46.62 102.47 46.37C103.25 46.03 106.3 45.96 105.64 44.48C105.38 43.89 106.71 43.91 106.45 43.31C106.13 42.56 106.3 39.65 104.65 40.56C104.65 40.39 104.56 40.22 104.52 40.05L100.62 41.19Z" fill="white"/>
<path d="M93.8697 43.82L93.9897 44.33C92.1397 44.43 93.6297 46.86 93.6997 47.69C93.7497 48.34 94.8197 47.63 94.9397 48.27C95.0097 48.61 95.1297 49.27 95.6497 49.03C96.4397 48.69 99.4897 48.65 98.8497 47.17C98.5897 46.57 99.9197 46.6 99.6697 46C99.3597 45.24 99.5697 42.33 97.9097 43.23L97.7897 42.71L93.8697 43.82Z" fill="white"/>
<path d="M86.89 46.89C86.94 47.06 86.99 47.23 87.03 47.4C85.18 47.55 86.75 49.94 86.84 50.76C86.92 51.41 87.96 50.67 88.11 51.3C88.19 51.63 88.33 52.3 88.84 52.04C89.62 51.68 92.68 51.55 91.99 50.09C91.71 49.5 93.04 49.49 92.77 48.9C92.5 48.31 92.55 45.24 90.92 46.19L90.78 45.67L86.89 46.89Z" fill="white"/>
<path d="M80.0098 49.57C80.0598 49.74 80.1098 49.91 80.1698 50.08C78.3098 50.26 79.9398 52.62 80.0598 53.44C80.1398 54.08 81.1798 53.32 81.3398 53.95C81.4298 54.28 81.5798 54.95 82.0898 54.67C82.8598 54.29 85.9198 54.09 85.1898 52.67C84.8998 52.1 86.1898 52.05 85.9498 51.47C85.5898 50.74 85.6398 47.82 84.0298 48.8C83.9798 48.63 83.9198 48.47 83.8698 48.3L80.0098 49.57Z" fill="white"/>
<path d="M73.2096 52.98C73.2796 53.14 73.3496 53.3 73.4096 53.46C71.5696 53.81 73.4096 55.99 73.6396 56.79C73.7996 57.42 74.7596 56.57 74.9796 57.18C75.0996 57.5 75.3196 58.11 75.7996 57.82C76.5496 57.39 79.5796 56.91 78.7096 55.55C78.3596 55.01 79.7096 54.84 79.3596 54.29C79.0096 53.74 78.6796 50.72 77.1596 51.83L76.9496 51.34L73.2096 52.98Z" fill="white"/>
<path d="M66.8498 56.43L67.0698 56.91C65.2398 57.32 67.2098 59.42 67.4398 60.21C67.6198 60.83 68.5398 59.96 68.7898 60.56C68.9298 60.87 69.1698 61.48 69.6398 61.17C70.3698 60.7 73.3898 60.17 72.4598 58.8C72.0898 58.27 73.4598 58.05 73.0598 57.52C72.5898 56.84 72.2298 53.98 70.7498 55.15L70.5298 54.67L66.8498 56.43Z" fill="white"/>
<path d="M60.2098 60.39C60.3098 60.54 60.3998 60.69 60.4898 60.84C58.6898 61.41 60.8698 63.31 61.1798 64.07C61.4298 64.67 62.2598 63.72 62.5698 64.29C62.7398 64.59 63.0498 65.16 63.4898 64.82C64.1698 64.3 67.1398 63.45 66.0798 62.23C65.6598 61.73 66.9698 61.41 66.5498 60.91C66.1298 60.41 65.3698 57.49 63.9998 58.77L63.7298 58.32C62.5598 59.01 61.3798 59.69 60.2098 60.39Z" fill="white"/>
<path d="M63.2196 97.7L63.5296 98.1C61.9196 98.79 64.1796 100.38 64.5296 101.1C64.8196 101.64 65.5296 100.69 65.8596 101.19C66.0496 101.46 66.3996 101.97 66.7796 101.61C67.3496 101.05 70.0296 100.01 68.8996 98.94C68.4496 98.52 69.6396 98.09 69.1896 97.67C68.7396 97.25 67.6796 94.55 66.5496 95.88L66.2496 95.48L63.2196 97.7Z" fill="white"/>
<path d="M57.8195 101.54L58.1395 101.93C56.5495 102.66 58.8495 104.2 59.2495 104.88C59.5595 105.41 60.2495 104.43 60.5795 104.93C60.7695 105.19 61.1395 105.7 61.5095 105.33C62.0595 104.77 64.7295 103.65 63.5595 102.62C63.0995 102.2 64.2695 101.76 63.8195 101.34C63.3695 100.92 62.2295 98.26 61.1295 99.61L60.8195 99.22L57.8195 101.54Z" fill="white"/>
<path d="M52.64 106.03L52.96 106.42C51.38 107.16 53.69 108.69 54.08 109.36C54.47 110.03 55.08 108.92 55.41 109.41C55.61 109.67 55.97 110.17 56.34 109.8C56.89 109.23 59.55 108.11 58.34 107.08C57.87 106.67 59.05 106.22 58.59 105.8C58.13 105.38 56.99 102.74 55.9 104.09L55.58 103.7L52.64 106.03Z" fill="white"/>
<path d="M47.1997 110.55L47.5296 110.94C45.9496 111.68 48.2597 113.2 48.6597 113.87C49.0597 114.54 49.6096 113.42 49.9896 113.87C50.1796 114.13 50.5497 114.64 50.9197 114.26C51.4697 113.7 54.1097 112.55 52.9197 111.53C52.4497 111.12 53.6196 110.66 53.1596 110.25C52.6996 109.84 51.5397 107.19 50.4697 108.55L50.1397 108.16L47.1997 110.55Z" fill="white"/>
<path d="M42.0596 115.23L42.4096 115.6C40.8696 116.43 43.2796 117.81 43.7096 118.45C44.1396 119.09 44.6396 117.95 45.0496 118.45C45.2596 118.7 45.6596 119.18 45.9996 118.79C46.5196 118.19 49.0996 116.92 47.8696 115.96C47.3796 115.58 48.5196 115.06 48.0296 114.68C47.5396 114.3 46.2296 111.68 45.2296 113.13C45.1196 113.01 44.9996 112.89 44.8896 112.76L42.0596 115.23Z" fill="white"/>
<path d="M172.57 54.46C172.57 54.63 172.57 54.8 172.62 54.97C170.91 54.81 171.96 57.33 171.91 58.12C171.91 58.74 172.91 58.22 172.98 58.84C172.98 59.17 172.98 59.84 173.52 59.66C174.29 59.45 177.08 59.83 176.69 58.33C176.53 57.73 177.74 57.94 177.59 57.33C177.4 56.56 177.98 53.83 176.34 54.45C176.34 54.28 176.34 54.11 176.34 53.94L172.57 54.46Z" fill="white"/>
<path d="M179.34 53.89C179.34 54.05 179.34 54.23 179.34 54.39C177.63 54.2 178.65 56.75 178.59 57.53C178.53 58.31 179.59 57.65 179.65 58.27C179.65 58.6 179.65 59.27 180.18 59.1C180.95 58.89 183.73 59.31 183.36 57.8C183.21 57.2 184.41 57.42 184.27 56.8C184.08 56.04 184.69 53.3 183.05 53.91C183.05 53.74 183.05 53.57 183.05 53.4L179.34 53.89Z" fill="white"/>
<path d="M166.01 55.24L166.07 55.75C164.36 55.62 165.47 58.12 165.45 58.91C165.45 59.53 166.45 58.98 166.53 59.6C166.53 59.93 166.6 60.6 167.1 60.41C167.86 60.19 170.67 60.49 170.23 59.01C170.06 58.41 171.28 58.59 171.11 58.01C170.9 57.26 171.41 54.5 169.79 55.17L169.73 54.66L166.01 55.24Z" fill="white"/>
<path d="M159.37 56.71L159.43 57.21C157.71 57.09 158.83 59.58 158.81 60.38C158.81 61 159.81 60.44 159.9 61.07C159.9 61.4 159.97 62.02 160.47 61.87C161.24 61.64 164.04 61.93 163.61 60.45C163.43 59.85 164.66 60.02 164.48 59.45C164.26 58.69 164.76 55.93 163.14 56.61L163.08 56.11L159.37 56.71Z" fill="white"/>
<path d="M152.43 58.07C152.43 58.24 152.43 58.41 152.5 58.57C150.78 58.46 151.91 60.95 151.9 61.74C151.9 62.37 152.9 61.81 152.99 62.43C152.99 62.75 153.07 63.38 153.57 63.23C154.32 62.99 157.14 63.23 156.69 61.78C156.52 61.19 157.69 61.35 157.57 60.78C157.35 60.03 157.83 57.27 156.21 57.95L156.15 57.45L152.43 58.07Z" fill="white"/>
<path d="M145.65 59.77L145.74 60.27C144.01 60.27 145.3 62.67 145.33 63.46C145.33 64.08 146.33 63.46 146.47 64.08C146.47 64.41 146.6 65.03 147.09 64.85C147.84 64.57 150.68 64.69 150.15 63.24C149.93 62.66 151.15 62.76 150.96 62.17C150.77 61.58 151.01 58.67 149.43 59.43L149.34 58.93L145.65 59.77Z" fill="white"/>
<path d="M139.08 61.51L139.17 62.01C137.44 62.01 138.74 64.41 138.77 65.2C138.77 65.83 139.82 65.2 139.92 65.81C139.97 66.14 140.06 66.76 140.55 66.58C141.3 66.29 144.13 66.4 143.55 64.95C143.34 64.37 144.55 64.47 144.36 63.88C144.17 63.29 144.36 60.37 142.82 61.15L142.73 60.65L139.08 61.51Z" fill="white"/>
<path d="M132.54 63.77C132.54 63.94 132.6 64.1 132.64 64.27C130.91 64.27 132.22 66.68 132.25 67.46C132.28 68.24 133.25 67.46 133.4 68.07C133.45 68.4 133.55 69.02 134.03 68.83C134.78 68.54 137.63 68.64 137.03 67.19C136.81 66.61 138.03 66.69 137.83 66.11C137.56 65.38 137.83 62.61 136.28 63.39C136.28 63.22 136.21 63.05 136.18 62.89L132.54 63.77Z" fill="white"/>
<path d="M126.01 65.77C126.01 65.93 126.09 66.1 126.12 66.26C124.39 66.31 125.77 68.67 125.82 69.46C125.82 70.08 126.82 69.46 126.99 70.04C127.05 70.36 127.15 70.98 127.64 70.78C128.38 70.47 131.24 70.5 130.64 69.07C130.4 68.49 131.64 68.54 131.42 67.97C131.13 67.24 131.35 64.47 129.79 65.29C129.79 65.12 129.71 64.96 129.68 64.79L126.01 65.77Z" fill="white"/>
<path d="M119.41 68.1C119.41 68.26 119.51 68.42 119.55 68.58C117.81 68.72 119.32 71 119.42 71.78C119.49 72.4 120.47 71.7 120.62 72.3C120.69 72.62 120.83 73.23 121.31 73.01C122.04 72.67 124.91 72.55 124.24 71.15C123.97 70.59 125.24 70.59 124.97 70.03C124.7 69.47 124.71 66.54 123.19 67.43C123.14 67.27 123.1 67.11 123.05 66.95L119.41 68.1Z" fill="white"/>
<path d="M112.88 70.68C112.88 70.84 112.98 71 113.04 71.16C111.3 71.36 112.92 73.57 113.04 74.35C113.14 74.96 114.09 74.23 114.26 74.82C114.35 75.13 114.52 75.74 114.99 75.49C115.71 75.13 118.57 74.89 117.84 73.49C117.55 72.95 118.84 72.89 118.52 72.34C118.16 71.64 118.11 68.87 116.62 69.83C116.57 69.67 116.51 69.51 116.46 69.35L112.88 70.68Z" fill="white"/>
<path d="M106.61 73.55C106.66 73.71 106.7 73.88 106.75 74.04C105.01 74.2 106.55 76.46 106.66 77.24C106.74 77.86 107.66 77.14 107.86 77.74C107.95 78.06 108.09 78.67 108.57 78.44C109.29 78.09 112.17 77.94 111.48 76.54C111.21 75.99 112.48 75.96 112.2 75.4C111.92 74.84 111.9 71.92 110.38 72.84C110.33 72.67 110.29 72.51 110.24 72.35L106.61 73.55Z" fill="white"/>
<path d="M100.36 76.26C100.41 76.42 100.45 76.59 100.5 76.75C98.7596 76.89 100.26 79.17 100.36 79.96C100.44 80.58 101.41 79.87 101.56 80.47C101.64 80.79 101.78 81.4 102.26 81.18C102.99 80.83 105.86 80.7 105.2 79.3C104.93 78.75 106.2 78.73 105.92 78.17C105.64 77.61 105.67 74.68 104.14 75.58C104.14 75.42 104.05 75.25 104 75.09L100.36 76.26Z" fill="white"/>
<path d="M93.9199 79.4L94.0699 79.88C92.3299 80.08 93.9099 82.31 94.0699 83.09C94.1599 83.7 95.1199 82.96 95.2799 83.57C95.3699 83.88 95.5299 84.49 96.0099 84.25C96.7199 83.88 99.5899 83.67 98.8799 82.25C98.5999 81.7 99.8799 81.65 99.5799 81.1C99.2799 80.55 99.2099 77.61 97.7099 78.57L97.5599 78.08L93.9199 79.4Z" fill="white"/>
<path d="M87.4999 82.17C87.4999 82.33 87.6099 82.49 87.6599 82.64C85.9299 82.88 87.5699 85.07 87.6599 85.85C87.7699 86.46 88.7099 85.7 88.8899 86.29C88.9899 86.61 89.1599 87.21 89.6299 86.96C90.3399 86.58 93.2099 86.29 92.4699 84.96C92.1699 84.42 93.4699 84.34 93.1299 83.8C92.7599 83.1 92.6799 80.33 91.1999 81.31C91.1399 81.15 91.0799 80.99 91.0299 80.83L87.4999 82.17Z" fill="white"/>
<path d="M81.2798 85.61L81.4898 86.07C79.7698 86.46 81.6398 88.48 81.8598 89.23C82.0298 89.82 82.8598 89 83.1398 89.56C83.2698 89.86 83.4997 90.44 83.9397 90.15C84.6197 89.71 87.4698 89.15 86.5798 87.9C86.2298 87.39 87.4797 87.2 87.1297 86.68C86.7797 86.16 86.3398 83.3 84.9498 84.4L84.7398 83.94L81.2798 85.61Z" fill="white"/>
<path d="M75.4297 89.1C75.5097 89.25 75.5897 89.4 75.6597 89.55C73.9597 90 75.9097 91.94 76.1597 92.69C76.3597 93.27 77.1597 92.41 77.4497 92.97C77.5897 93.26 77.8497 93.83 78.2797 93.53C78.9397 93.06 81.7697 92.41 80.8397 91.18C80.4597 90.68 81.7097 90.45 81.3397 89.95C80.9697 89.45 80.3997 86.6 79.0597 87.76C78.9797 87.61 78.8997 87.46 78.8297 87.31C77.6897 87.9 76.5597 88.5 75.4297 89.1Z" fill="white"/>
<path d="M69.7595 92.99L70.0095 93.43C68.3295 93.96 70.3895 95.79 70.6795 96.52C70.9095 97.1 71.6795 96.19 71.9895 96.74C72.1495 97.03 72.4395 97.58 72.8495 97.25C73.4895 96.76 76.2896 95.97 75.2796 94.79C74.8796 94.32 76.1096 94.01 75.7196 93.54C75.3296 93.07 74.5896 90.26 73.3096 91.47L73.0596 91.04L69.7595 92.99Z" fill="white"/>
<path d="M77.0097 100.12L77.3097 100.54C75.6997 101.15 77.8797 102.85 78.2297 103.54C78.5797 104.23 79.2297 103.16 79.5297 103.68C79.7097 103.96 80.0397 104.48 80.4197 104.14C80.9997 103.62 83.6797 102.71 82.5997 101.59C82.1597 101.15 83.3497 100.79 82.9197 100.34C82.4897 99.89 81.5397 97.17 80.3797 98.43L80.0897 98.02L77.0097 100.12Z" fill="white"/>
<path d="M71.5496 103.69C71.6496 103.82 71.7396 103.96 71.8496 104.09C70.2496 104.75 72.4796 106.39 72.8496 107.09C73.2196 107.79 73.8496 106.69 74.1496 107.2C74.3396 107.48 74.6796 107.99 75.0596 107.64C75.6196 107.11 78.2796 106.13 77.1696 105.05C76.7196 104.62 77.8996 104.22 77.4596 103.79C77.0196 103.36 75.9896 100.65 74.8696 101.94L74.5696 101.54C73.5596 102.24 72.5496 102.97 71.5496 103.69Z" fill="white"/>
<path d="M66.3 107.91C66.41 108.04 66.51 108.18 66.61 108.31C65.02 108.96 67.25 110.6 67.61 111.31C67.97 112.02 68.56 110.91 68.92 111.42C69.1 111.69 69.45 112.21 69.82 111.85C70.38 111.32 73.03 110.33 71.91 109.25C71.47 108.81 72.64 108.42 72.2 107.99C71.76 107.56 70.72 104.86 69.6 106.15L69.3 105.75L66.3 107.91Z" fill="white"/>
<path d="M60.7996 112.13L61.1096 112.54C59.5296 113.2 61.7596 114.83 62.1096 115.54C62.4596 116.25 63.1096 115.14 63.4096 115.64C63.5996 115.92 63.9496 116.43 64.3196 116.08C64.8796 115.53 67.5196 114.54 66.3896 113.46C65.9396 113.03 67.1096 112.63 66.6696 112.2C66.2296 111.77 65.1696 109.08 64.0696 110.38L63.7696 109.97L60.7996 112.13Z" fill="white"/>
<path d="M55.5896 116.53L55.9196 116.92C54.3796 117.67 56.7096 119.16 57.1196 119.82C57.5296 120.48 58.0496 119.37 58.4296 119.82C58.6396 120.07 59.0196 120.57 59.3596 120.19C59.8996 119.63 62.4696 118.49 61.2896 117.48C60.8196 117.08 61.9596 116.61 61.4896 116.21C61.0196 115.81 59.8096 113.21 58.7796 114.54L58.4496 114.15L55.5896 116.53Z" fill="white"/>
<path d="M50.6399 120.94L50.9699 121.33C49.4299 122.08 51.7699 123.56 52.1799 124.22C52.5899 124.88 53.1099 123.77 53.4899 124.22C53.6999 124.48 54.0799 124.97 54.4199 124.6C54.9499 124.03 57.5199 122.87 56.3299 121.87C55.8599 121.48 56.9999 121 56.5299 120.6C56.0599 120.2 54.8399 117.6 53.8199 118.94L53.4899 118.56C52.5299 119.37 51.5799 120.16 50.6399 120.94Z" fill="white"/>
<path d="M179.85 63.48V63.98C178.18 63.76 179.16 66.32 179.1 67.1C179.04 67.88 180.1 67.23 180.1 67.86C180.1 68.19 180.1 68.86 180.63 68.69C181.38 68.51 184.11 68.96 183.75 67.46C183.61 66.86 184.75 67.1 184.66 66.46C184.48 65.69 185.1 62.97 183.48 63.55V63.04L179.85 63.48Z" fill="white"/>
<path d="M173.24 64.57C173.24 64.74 173.24 64.91 173.24 65.08C171.56 64.87 172.56 67.42 172.5 68.21C172.5 68.83 173.5 68.33 173.5 68.95C173.5 69.29 173.5 69.95 174.02 69.79C174.78 69.6 177.51 70.04 177.15 68.54C177 67.93 178.15 68.17 178.05 67.54C177.88 66.78 178.47 64.05 176.86 64.63C176.86 64.47 176.86 64.29 176.86 64.13L173.24 64.57Z" fill="white"/>
<path d="M166.4 65.55C166.4 65.72 166.4 65.89 166.4 66.06C164.72 65.86 165.72 68.4 165.67 69.19C165.67 69.82 166.67 69.31 166.67 69.93C166.67 70.27 166.67 70.93 167.2 70.76C167.96 70.57 170.7 71 170.33 69.5C170.18 68.89 171.33 69.13 171.23 68.5C171.13 67.87 171.63 65.01 170.02 65.6C170.02 65.43 170.02 65.27 170.02 65.1L166.4 65.55Z" fill="white"/>
<path d="M159.68 66.83C159.68 67 159.73 67.16 159.75 67.33C158.06 67.23 159.22 69.7 159.21 70.49C159.21 71.12 160.21 70.55 160.3 71.17C160.3 71.5 160.39 72.17 160.88 71.97C161.62 71.73 164.39 72.02 163.94 70.54C163.75 69.95 164.94 70.11 164.78 69.54C164.56 68.79 164.98 66.04 163.4 66.72C163.4 66.55 163.4 66.38 163.33 66.21L159.68 66.83Z" fill="white"/>
<path d="M153.17 68.25C153.17 68.42 153.17 68.58 153.24 68.75C151.54 68.65 152.71 71.12 152.71 71.91C152.71 72.54 153.71 71.97 153.8 72.59C153.8 72.92 153.9 73.54 154.39 73.38C155.13 73.14 157.91 73.38 157.44 71.93C157.26 71.34 158.44 71.5 158.28 70.93C158.06 70.18 158.47 67.42 156.89 68.11C156.89 67.95 156.89 67.78 156.82 67.61L153.17 68.25Z" fill="white"/>
<path d="M146.67 70.1C146.67 70.26 146.72 70.43 146.74 70.6C145.04 70.51 146.22 72.97 146.23 73.76C146.23 74.38 147.23 73.82 147.32 74.43C147.32 74.76 147.42 75.43 147.91 75.23C148.66 74.98 151.44 75.23 150.91 73.76C150.72 73.17 151.91 73.32 151.75 72.76C151.52 72.01 151.92 69.26 150.34 69.95C150.34 69.78 150.34 69.62 150.27 69.45L146.67 70.1Z" fill="white"/>
<path d="M140.2 71.71L140.29 72.21C138.59 72.16 139.83 74.59 139.86 75.38C139.86 76 140.86 75.38 140.97 76.02C140.97 76.35 141.1 76.97 141.58 76.8C142.32 76.54 145.12 76.72 144.58 75.26C144.38 74.68 145.58 74.8 145.4 74.21C145.14 73.47 145.48 70.71 143.91 71.44C143.91 71.28 143.91 71.11 143.83 70.94L140.2 71.71Z" fill="white"/>
<path d="M133.61 73.7C133.61 73.87 133.69 74.03 133.72 74.19C132.01 74.19 133.39 76.59 133.45 77.38C133.5 78 134.45 77.38 134.6 77.96C134.67 78.29 134.78 78.9 135.26 78.71C135.98 78.41 138.8 78.46 138.21 77.03C137.97 76.45 139.21 76.52 138.97 75.94C138.73 75.36 138.87 72.45 137.34 73.26C137.34 73.09 137.26 72.92 137.23 72.76L133.61 73.7Z" fill="white"/>
<path d="M127.09 75.9L127.22 76.39C125.51 76.49 126.99 78.79 127.09 79.57C127.17 80.19 128.09 79.5 128.27 80.11C128.35 80.44 128.49 81.04 128.96 80.82C129.68 80.5 132.5 80.43 131.84 79.03C131.58 78.47 132.84 78.48 132.56 77.91C132.28 77.34 132.31 74.43 130.8 75.3L130.67 74.81L127.09 75.9Z" fill="white"/>
<path d="M120.81 78.4L120.93 78.9C119.22 78.95 120.63 81.3 120.7 82.08C120.75 82.7 121.7 82.08 121.86 82.65C121.92 82.98 122.04 83.59 122.52 83.39C123.25 83.09 126.07 83.09 125.46 81.67C125.22 81.1 126.46 81.14 126.21 80.57C125.91 79.85 126.08 77.08 124.54 77.91C124.54 77.74 124.47 77.58 124.43 77.42L120.81 78.4Z" fill="white"/>
<path d="M114.56 80.77C114.56 80.93 114.64 81.1 114.67 81.26C112.96 81.31 114.33 83.67 114.4 84.45C114.45 85.07 115.4 84.45 115.55 85.04C115.62 85.36 115.72 85.98 116.21 85.78C116.94 85.48 119.76 85.51 119.21 84.08C118.97 83.51 120.21 83.57 119.97 83C119.68 82.27 119.88 79.5 118.34 80.31C118.34 80.14 118.27 79.98 118.23 79.82L114.56 80.77Z" fill="white"/>
<path d="M108.09 83.49C108.09 83.65 108.18 83.82 108.22 83.98C106.51 84.07 107.96 86.39 108.05 87.17C108.11 87.79 109.05 87.11 109.22 87.72C109.3 88.04 109.43 88.65 109.9 88.44C110.63 88.12 113.45 88.07 112.81 86.66C112.56 86.09 113.81 86.12 113.54 85.55C113.27 84.98 113.34 82.06 111.82 82.92C111.82 82.76 111.74 82.6 111.69 82.43L108.09 83.49Z" fill="white"/>
<path d="M101.67 85.87C101.67 86.03 101.76 86.19 101.81 86.35C100.09 86.49 101.61 88.76 101.71 89.55C101.8 90.17 102.71 89.46 102.9 90.07C102.98 90.38 103.13 90.99 103.6 90.77C104.32 90.44 107.14 90.31 106.47 88.92C106.2 88.37 107.47 88.36 107.18 87.8C106.89 87.24 106.88 84.32 105.39 85.21C105.39 85.05 105.3 84.89 105.25 84.72L101.67 85.87Z" fill="white"/>
<path d="M95.4096 88.93C95.4696 89.09 95.5296 89.25 95.5996 89.4C93.8896 89.69 95.5996 91.81 95.8096 92.57C96.0196 93.33 96.8096 92.39 97.0496 92.98C97.1696 93.29 97.3696 93.87 97.8196 93.61C98.4996 93.21 101.32 92.84 100.51 91.52C100.19 91 101.43 90.88 101.11 90.35C100.79 89.82 100.48 86.93 99.1096 87.94L98.9196 87.48L95.4096 88.93Z" fill="white"/>
<path d="M89.4996 92.06L89.7096 92.52C88.0196 92.87 89.8396 94.92 90.0596 95.67C90.2796 96.42 91.0596 95.46 91.3196 96.03C91.4396 96.33 91.6696 96.91 92.1096 96.64C92.7696 96.21 95.5896 95.74 94.7196 94.45C94.3796 93.94 95.6096 93.77 95.2696 93.25C94.9296 92.73 94.4996 89.86 93.1296 90.93L92.9196 90.47L89.4996 92.06Z" fill="white"/>
<path d="M83.7496 95.59L83.9896 96.04C82.3096 96.47 84.2496 98.42 84.4996 99.16C84.7496 99.9 85.4996 98.9 85.7796 99.46C85.9196 99.75 86.1796 100.32 86.6096 100.02C87.2496 99.56 90.0296 98.95 89.0996 97.71C88.7296 97.22 89.9596 96.99 89.5896 96.49C89.2196 95.99 88.5896 93.16 87.3196 94.29L87.0796 93.84L83.7496 95.59Z" fill="white"/>
<path d="M10.2801 83.54L10.6501 83.87C9.03009 84.87 11.5901 85.98 12.0601 86.58C12.5301 87.18 13.0601 85.98 13.4701 86.4C13.7001 86.63 14.1301 87.06 14.4701 86.63C15.0001 85.97 17.7001 84.41 16.4001 83.63C15.8701 83.3 17.0701 82.63 16.5501 82.32C16.0301 82.01 14.6301 79.56 13.5501 81.09L13.1801 80.75L10.2801 83.54Z" fill="white"/>
<path d="M18.4199 75.86L18.7799 76.2C19.8499 74.68 21.0799 77.05 21.7799 77.48C22.4799 77.91 21.1399 78.39 21.5999 78.78C21.8499 79 22.3199 79.39 21.8599 79.72C21.1599 80.24 19.5099 82.77 18.6099 81.56C18.2499 81.07 17.6099 82.21 17.2099 81.72C16.8099 81.23 14.2099 79.98 15.8399 78.98L15.4699 78.65L18.4199 75.86Z" fill="white"/>
<path d="M23.75 71.03L24.1 71.38C25.21 69.89 26.36 72.31 26.98 72.76C27.6 73.21 26.31 73.66 26.75 74.07C26.99 74.29 27.44 74.69 26.98 75.02C26.26 75.5 24.53 78.02 23.68 76.76C23.33 76.26 22.62 77.37 22.27 76.88C21.92 76.39 19.35 75.02 21.01 74.08L20.66 73.73L23.75 71.03Z" fill="white"/>
<path d="M151.54 13.77C151.54 13.93 151.54 14.09 151.54 14.26C153.28 13.56 152.64 16.26 152.84 17C153.04 17.74 151.79 17.42 151.84 18C151.84 18.31 151.98 18.92 151.43 18.94C150.59 18.94 147.78 20.23 147.9 18.69C147.9 18.08 146.73 18.69 146.78 18.05C146.78 17.28 145.78 14.87 147.56 14.93C147.56 14.77 147.56 14.61 147.51 14.44L151.54 13.77Z" fill="white"/>
<path d="M158.47 12.66V13.15C160.23 12.51 159.47 15.21 159.66 15.94C159.79 16.52 158.61 16.33 158.66 16.94C158.66 17.26 158.76 17.86 158.21 17.87C157.38 17.87 154.53 19.05 154.71 17.51C154.79 16.9 153.55 17.44 153.62 16.83C153.7 16.04 152.71 13.6 154.51 13.73V13.24L158.47 12.66Z" fill="white"/>
<path d="M165.55 12.01C165.55 12.18 165.55 12.34 165.55 12.51C167.31 11.89 166.55 14.57 166.7 15.32C166.83 15.9 165.64 15.69 165.7 16.32C165.7 16.64 165.79 17.24 165.24 17.24C164.41 17.24 161.56 18.36 161.76 16.83C161.85 16.21 160.61 16.75 160.68 16.13C160.78 15.35 159.82 12.9 161.61 13.05C161.61 12.89 161.61 12.72 161.61 12.55L165.55 12.01Z" fill="white"/>
<path d="M172.55 11.24C172.55 11.4 172.55 11.56 172.55 11.73C174.3 11.1 173.55 13.79 173.71 14.53C173.87 15.27 172.65 14.91 172.71 15.53C172.71 15.85 172.8 16.46 172.25 16.46C171.43 16.46 168.57 17.6 168.77 16.06C168.85 15.45 167.62 15.98 167.69 15.37C167.78 14.6 166.81 12.13 168.6 12.28C168.6 12.12 168.6 11.95 168.6 11.79C169.91 11.58 171.23 11.41 172.55 11.24Z" fill="white"/>
<path d="M179.58 10.66C179.58 10.82 179.58 10.99 179.58 11.15C181.33 10.52 180.58 13.21 180.75 13.95C180.88 14.53 179.69 14.34 179.75 14.95C179.75 15.28 179.85 15.88 179.3 15.89C178.47 15.89 175.62 17.04 175.81 15.51C175.89 14.89 174.65 15.43 174.72 14.82C174.81 14.04 173.83 11.59 175.63 11.73C175.63 11.56 175.63 11.39 175.63 11.23L179.58 10.66Z" fill="white"/>
<path d="M186.89 10.04C186.89 10.21 186.89 10.37 186.89 10.54C188.67 9.96999 187.82 12.63 187.95 13.38C188.06 13.97 186.88 13.72 186.9 14.32C186.9 14.65 186.96 15.25 186.41 15.24C185.59 15.24 182.69 16.24 182.94 14.72C183.05 14.11 181.79 14.6 181.88 13.98C181.97 13.36 181.12 10.72 182.88 10.98V10.49L186.89 10.04Z" fill="white"/>
<path d="M140.72 15.77C140.71 15.9332 140.71 16.0968 140.72 16.26C138.91 16.26 140.03 18.61 139.98 19.38C139.98 20 141.07 19.38 141.12 20.01C141.12 20.34 141.17 20.94 141.7 20.78C142.51 20.52 145.48 20.7 145.05 19.26C144.89 18.68 146.17 18.81 146.05 18.26C145.93 17.71 146.44 14.81 144.71 15.54C144.71 15.37 144.71 15.21 144.66 15.04L140.72 15.77Z" fill="white"/>
<path d="M133.79 17.18C133.79 17.34 133.79 17.5 133.86 17.67C132.03 17.67 133.25 20.03 133.23 20.8C133.21 21.57 134.33 20.8 134.4 21.4C134.4 21.71 134.48 22.33 135.01 22.14C135.81 21.85 138.8 21.94 138.32 20.52C138.13 19.95 139.43 20.04 139.24 19.46C139.05 18.88 139.52 16.02 137.8 16.79C137.8 16.63 137.8 16.46 137.73 16.3L133.79 17.18Z" fill="white"/>
<path d="M126.88 18.62C126.88 18.78 126.88 18.95 126.96 19.11C125.13 19.17 126.42 21.49 126.43 22.26C126.43 22.87 127.53 22.26 127.61 22.82C127.66 23.13 127.72 23.74 128.25 23.54C129.05 23.24 132.04 23.23 131.53 21.84C131.32 21.28 132.62 21.32 132.42 20.76C132.16 20.05 132.59 17.32 130.89 18.13C130.89 17.97 130.83 17.81 130.81 17.64L126.88 18.62Z" fill="white"/>
<path d="M119.82 20.77C119.82 20.94 119.88 21.1 119.9 21.26C118.07 21.34 119.38 23.64 119.39 24.41C119.4 25.18 120.5 24.41 120.58 24.96C120.58 25.28 120.71 25.89 121.23 25.68C122.03 25.37 125.03 25.35 124.5 23.95C124.28 23.39 125.59 23.42 125.38 22.86C125.13 22.15 125.52 19.41 123.83 20.24C123.83 20.09 123.83 19.91 123.75 19.76L119.82 20.77Z" fill="white"/>
<path d="M112.5 22.91C112.52 23.0717 112.55 23.232 112.59 23.39C110.76 23.49 112.08 25.78 112.1 26.55C112.12 27.32 113.2 26.49 113.29 27.09C113.34 27.41 113.42 28.01 113.95 27.81C114.74 27.49 117.75 27.43 117.2 26.04C116.99 25.48 118.3 25.5 118.09 24.94C117.82 24.23 118.21 21.49 116.51 22.33C116.51 22.18 116.45 22.01 116.42 21.85L112.5 22.91Z" fill="white"/>
<path d="M105.35 25.33C105.35 25.49 105.44 25.64 105.48 25.8C103.63 26 105.13 28.2 105.2 28.96C105.27 29.72 106.31 28.85 106.44 29.43C106.51 29.75 106.63 30.34 107.14 30.1C107.93 29.74 110.94 29.52 110.31 28.17C110.05 27.63 111.37 27.58 111.12 27.03C110.87 26.48 111 23.61 109.36 24.54L109.24 24.06L105.35 25.33Z" fill="white"/>
<path d="M98.4499 27.88C98.4499 28.04 98.5299 28.2 98.5799 28.36C96.7299 28.57 98.2399 30.76 98.3199 31.52C98.3999 32.28 99.4299 31.4 99.5599 31.98C99.6299 32.3 99.7599 32.89 100.27 32.65C101.05 32.28 104.08 32.03 103.43 30.65C103.17 30.12 104.49 30.05 104.24 29.51C103.99 28.97 104.1 26.08 102.46 27.03C102.46 26.87 102.37 26.71 102.33 26.55L98.4499 27.88Z" fill="white"/>
<path d="M91.6101 30.89C91.6101 31.05 91.6901 31.2 91.7401 31.36C89.8901 31.6 91.4201 33.77 91.5101 34.53C91.6001 35.29 92.6101 34.39 92.7601 34.98C92.8301 35.3 92.9601 35.89 93.4701 35.64C94.2501 35.26 97.2801 34.99 96.6201 33.64C96.3601 33.1 97.6201 33.02 97.4201 32.48C97.2201 31.94 97.2601 29.05 95.6201 30.01C95.5701 29.85 95.5301 29.7 95.4901 29.54L91.6101 30.89Z" fill="white"/>
<path d="M84.8003 33.69L84.9403 34.16C83.1003 34.44 84.7003 36.57 84.8103 37.33C84.8903 37.93 85.9103 37.15 86.0703 37.74C86.1603 38.05 86.3103 38.64 86.8103 38.38C87.5903 37.98 90.6103 37.62 89.9103 36.3C89.6303 35.77 90.9103 35.67 90.6803 35.13C90.4503 34.59 90.4103 31.71 88.7903 32.72C88.7903 32.57 88.7003 32.4 88.6503 32.25C87.3703 32.77 86.0703 33.2 84.8003 33.69Z" fill="white"/>
<path d="M77.8999 36.92C77.9499 37.07 78.0099 37.22 78.0699 37.38C76.2299 37.75 77.9699 39.78 78.1199 40.53C78.2399 41.12 79.2299 40.3 79.4199 40.87C79.5299 41.18 79.7099 41.75 80.1999 41.47C80.9599 41.03 83.9899 40.53 83.1999 39.25C82.8899 38.74 84.1999 38.57 83.9099 38.05C83.6199 37.53 83.4399 34.67 81.9099 35.75C81.8499 35.6 81.7899 35.44 81.7399 35.29L77.8999 36.92Z" fill="white"/>
<path d="M71.1101 40.37C71.1701 40.51 71.2401 40.67 71.3101 40.81C69.4701 41.26 71.3101 43.21 71.5101 43.94C71.7101 44.67 72.6201 43.67 72.8401 44.23C72.9601 44.52 73.1801 45.1 73.6601 44.78C74.4001 44.32 77.4201 43.68 76.5701 42.45C76.2201 41.96 77.5701 41.72 77.2101 41.23C76.8501 40.74 76.5701 37.89 75.0401 39.03L74.8501 38.59C73.6001 39.17 72.3501 39.77 71.1101 40.37Z" fill="white"/>
<path d="M64.6299 44.09L64.8199 44.55C62.9799 44.96 64.7499 46.95 64.9199 47.7C65.0599 48.29 66.0299 47.46 66.2299 48.02C66.3399 48.32 66.5399 48.89 67.0299 48.6C67.7799 48.15 70.7999 47.6 70.0299 46.32C69.7099 45.82 71.0299 45.61 70.7199 45.1C70.4099 44.59 70.1899 41.72 68.6299 42.84C68.5799 42.69 68.5099 42.54 68.4499 42.39L64.6299 44.09Z" fill="white"/>
<path d="M58.1803 47.68L58.3603 48.14C56.5203 48.54 58.2703 50.56 58.4303 51.31C58.5503 51.91 59.5403 51.06 59.7403 51.63C59.8403 51.94 60.0303 52.51 60.5203 52.22C61.2703 51.77 64.3103 51.22 63.5203 49.94C63.2003 49.43 64.5203 49.24 64.2103 48.72C63.9003 48.2 63.7203 45.33 62.1503 46.45C62.1503 46.3 62.0403 46.14 61.9803 45.99L58.1803 47.68Z" fill="white"/>
<path d="M51.5599 51.77C51.6199 51.93 51.6899 52.08 51.7499 52.23C49.9299 52.69 51.7499 54.63 51.9499 55.38C52.0899 55.97 53.0499 55.1 53.2699 55.66C53.3799 55.96 53.5999 56.52 54.0799 56.22C54.8199 55.74 57.8399 55.09 56.9899 53.85C56.6499 53.36 57.9899 53.11 57.6499 52.61C57.3099 52.11 57.0199 49.26 55.4899 50.41C55.4199 50.26 55.3599 50.12 55.2999 49.96L51.5599 51.77Z" fill="white"/>
<path d="M44.9501 55.48C45.0201 55.63 45.1001 55.79 45.1601 55.93C43.3401 56.45 45.2401 58.33 45.4501 59.07C45.6101 59.66 46.5501 58.76 46.7901 59.31C46.9101 59.6 47.1401 60.16 47.6201 59.84C48.3501 59.36 51.3501 58.62 50.4701 57.41C50.1101 56.92 51.4701 56.65 51.0901 56.16C50.7101 55.67 50.3601 52.83 48.8601 54.02L48.6501 53.58L44.9501 55.48Z" fill="white"/>
<path d="M38.6202 59.88L38.8902 60.29C37.0902 60.95 39.2202 62.64 39.5202 63.34C39.8202 64.04 40.5902 62.93 40.8902 63.46C41.0502 63.73 41.3502 64.27 41.7902 63.91C42.4802 63.36 45.4402 62.38 44.4102 61.26C44.0002 60.82 45.3102 60.43 44.9002 59.98C44.4902 59.53 43.8002 56.78 42.4202 58.09C42.3402 57.95 42.2502 57.82 42.1602 57.67L38.6202 59.88Z" fill="white"/>
<path d="M32.7102 64.28L32.9902 64.68C31.2302 65.41 33.4402 67 33.7602 67.68C34.0802 68.36 34.8302 67.24 35.1502 67.75C35.3302 68.02 35.6402 68.53 36.0802 68.16C36.7402 67.59 39.6702 66.49 38.5902 65.43C38.1502 65 39.4502 64.56 39.0202 64.13C38.5902 63.7 37.7702 60.99 36.4402 62.35L36.1602 61.95L32.7102 64.28Z" fill="white"/>
<path d="M26.4499 68.85L26.7599 69.23C25.0299 70.05 27.3599 71.5 27.7599 72.16C28.1599 72.82 28.7599 71.66 29.1599 72.16C29.3499 72.42 29.7099 72.91 30.1599 72.51C30.7899 71.92 33.6699 70.67 32.5099 69.67C32.0499 69.28 33.3299 68.77 32.8699 68.37C32.4099 67.97 31.4199 65.37 30.1599 66.75C30.0599 66.62 29.9499 66.5 29.8499 66.36C28.6699 67.19 27.5499 68.01 26.4499 68.85Z" fill="white"/>
</svg>
