<svg width="958" height="989" viewBox="0 0 958 989" fill="none" xmlns="http://www.w3.org/2000/svg">
<g clip-path="url(#clip0_742_30156)">
<path d="M621.08 804.75H339.47V959.63H369.77V973.46H385.81V988.43H573.55V976.91H593.75V958.25H621.08V804.75Z" fill="#616160"/>
<path d="M934.77 476.91H956.55C960.06 428.02 950.55 374.57 942.23 339.01L782.87 380.16C788.969 407.3 792.041 435.033 792.03 462.85C792.051 485.309 790.302 507.735 786.8 529.92L928.58 551.34C931.959 526.657 934.025 501.812 934.77 476.91Z" fill="#616160"/>
<path d="M795.53 172.88L780.17 148.62L771.41 156.33C762.11 139.95 708.78 92.98 708.78 92.98L650.87 157.14C650.87 157.14 681.17 181.91 713.23 227.6L795.53 172.88Z" fill="#616160"/>
<path d="M929.71 293.8L919.02 297.8L911.09 270.08L899.61 274.08L890.1 249.42L880.2 252.99L869.11 229.22L858.02 232.42L844.55 207.07L834.65 212.22L817.22 180.54L805.74 187.27L798.52 175.87L716.21 230.6C741.47 266.6 767.83 315.6 781.33 375.69L940.74 334.53C934.95 309.87 929.71 293.8 929.71 293.8Z" fill="#616160"/>
<path d="M817.57 751.91L826.29 757.46L858.37 703.59L868.27 707.59L877.78 684.23L887.68 688.23C910.22 653.1 921.83 599.65 927.79 555.9L786 534.42C777.627 587.589 758.71 638.547 730.36 684.3L817.57 751.91Z" fill="#616160"/>
<path d="M745.53 806.89L766.53 783.13L774.45 789.86L789.87 770.06L799.37 776L815.21 755.8L728 688.16C699.38 734.28 671.44 758.16 671.44 758.16L719.76 802.92L729.27 793.02L745.53 806.89Z" fill="#616160"/>
<path d="M498.58 78.18V105.12H512.45V101.95H556.43L556.24 78.98H583.37V31.84L541.58 9.27H529.7L529.3 0H478.48H428.42L428.03 9.27H417.58L377.19 31.84V78.98H404.12V101.95H444.52V105.12H460.58V78.18H478.48H498.58Z" fill="#616160"/>
<path d="M20.0301 504.74L3.21012 505.14C-1.96988 448.14 -2.36988 400.75 13.3201 341.94L172.73 383.1C166.631 410.24 163.559 437.973 163.57 465.79C163.55 488.246 165.299 510.669 168.8 532.85L27.0201 554.28C21.3501 512.68 20.0301 504.74 20.0301 504.74Z" fill="#616160"/>
<path d="M160.02 175.85L175.38 151.6L185.06 159.19C193.61 143.19 246.77 95.95 246.77 95.95L304.7 160.12C304.7 160.12 274.39 184.89 242.33 230.58L160.02 175.85Z" fill="#616160"/>
<path d="M25.8701 296.74L36.5701 300.74L44.4901 273.01L55.9701 277.01L65.4501 252.42L75.3501 255.98L86.4401 232.22L97.5301 235.39L111 210.04L120.9 215.19L138.33 183.42L149.81 190.15L157.03 178.76L239.34 233.48C214.08 269.48 187.72 318.48 174.23 378.58L14.8101 337.42C20.6001 312.81 25.8701 296.74 25.8701 296.74Z" fill="#616160"/>
<path d="M139.19 754.96L130.47 760.51L98.3902 706.64L88.4902 710.64L78.9802 687.27L69.0802 691.27C46.5402 656.15 34.9302 602.7 28.9702 558.95L170.76 537.42C179.131 590.596 198.048 641.561 226.4 687.32L139.19 754.96Z" fill="#616160"/>
<path d="M209.93 809.68L188.93 785.91L181.01 792.65L165.57 772.84L156.06 778.78L140.22 758.58L227.43 690.95C256.05 737.07 283.99 760.95 283.99 760.95L235.67 805.72L226.17 795.81L209.93 809.68Z" fill="#616160"/>
<path d="M551.96 710.65V766.25H540.58V710.65H414.95V766.25H403.57V710.65H371.13V772.83C371.13 772.83 487.57 795.83 585.41 772.83V710.65H551.96Z" fill="#1C3E7A"/>
<path d="M353.38 266.09V674.24C353.38 674.24 272.87 608.3 272.87 470.16C272.87 332.02 353.38 266.09 353.38 266.09Z" fill="#1C3E7A"/>
<path d="M612.52 266.09V674.24C612.52 674.24 693.02 608.3 693.02 470.16C693.02 332.02 612.52 266.09 612.52 266.09Z" fill="#1C3E7A"/>
<path d="M603.65 258.42H356.87C356.87 258.42 399.06 210.5 480.55 210.5C562.04 210.5 603.65 258.42 603.65 258.42Z" fill="#1C3E7A"/>
<path d="M619.87 679.75L661.87 739.12C698.19 704.94 727.47 660.88 746.74 610.4L680.04 585.27C665.87 621.95 645.25 654.18 619.87 679.75Z" fill="#D8544F"/>
<path d="M703.22 467.86C703.328 506.333 696.733 544.531 683.73 580.74L752.06 605.22C767.661 561.376 775.578 515.167 775.46 468.63C775.46 411.77 763.98 358.06 743.6 310.51L677.5 339.15C693.93 377.67 703.22 421.42 703.22 467.86Z" fill="#D8544F"/>
<path d="M623.87 256.22L676.85 208.5C700.38 232.66 723.06 262.41 739.5 306.5L676.85 335.89C662.47 304.96 646.53 278.2 623.87 256.22Z" fill="#D8544F"/>
<path d="M478.239 191.263H479L478.239 119.089C467.9 118.884 362.137 114.748 287 197.915L339.556 254C377.996 213.81 425.302 191.263 478.239 191.263Z" fill="#D8544F"/>
<path d="M483.756 191.243H483L483.756 119.021C494.023 118.794 598.379 118.999 673 202.221L621.478 254C583.297 213.804 536.322 191.243 483.756 191.243Z" fill="#D8544F"/>
<path d="M294.61 740.04L334.95 681.35C308.95 655.6 287.77 622.9 273.28 585.58L208.12 608.78C227.56 660.42 257.44 705.42 294.61 740.04Z" fill="#D8544F"/>
<path d="M251.75 468.36C251.75 421.82 261.27 378.01 278.03 339.62L215.3 311.81C194.73 359 183.12 412.47 183.12 469.12C183.01 514.214 190.578 558.997 205.5 601.55L270.98 579.42C258.154 543.802 251.646 506.217 251.75 468.36Z" fill="#D8544F"/>
<path d="M337.8 256.22L284 203.5C260.47 227.65 235.94 262.41 219.5 306.5L281.02 333.86C295.35 302.92 315.12 278.2 337.8 256.22Z" fill="#D8544F"/>
</g>
<defs>
<clipPath id="clip0_742_30156">
<rect width="957.31" height="988.43" fill="white"/>
</clipPath>
</defs>
</svg>
